<svg class="main-svg" xmlns="http://www.w3.org/2000/svg" xmlns:xlink="http://www.w3.org/1999/xlink" width="700" height="500" style="" viewBox="0 0 700 500"><rect x="0" y="0" width="700" height="500" style="fill: rgb(255, 255, 255); fill-opacity: 1;"/><defs id="defs-0c54b5"><g class="clips"/><g class="gradients"/><g class="patterns"/></defs><g class="bglayer"/><g class="layer-below"><g class="imagelayer"/><g class="shapelayer"/></g><g class="cartesianlayer"/><g class="polarlayer"/><g class="smithlayer"/><g class="ternarylayer"/><g class="geolayer"/><g class="funnelarealayer"/><g class="pielayer"/><g class="iciclelayer"/><g class="treemaplayer"/><g class="sunburstlayer"/><g class="glimages"/><g class="sankey" transform="translate(20,60)matrix(1 0 0 1 0 0)" style="box-sizing: content-box; position: absolute; left: 0px; shape-rendering: geometricprecision; pointer-events: none;"><g class="sankey-links" style="fill: none;"><path class="sankey-link" d="M158.60000000000002,192.27831547301815C198,192.27831547301815 198,31.477780912478455 237.4,31.477780912478455L237.4,39.8412062000325C198,39.8412062000325 198,200.6417407605722 158.60000000000002,200.6417407605722Z" style="stroke: rgb(68, 68, 68); stroke-opacity: 1; fill: rgb(76, 175, 80); fill-opacity: 0.5; stroke-width: 0; opacity: 1;"/><path class="sankey-link" d="M352.2,73.90030790924749C391.6,73.90030790924749 391.6,29.713592597769452 431,29.713592597769452L431,41.45712435034095C391.6,41.45712435034095 391.6,85.64383966181899 352.2,85.64383966181899Z" style="stroke: rgb(68, 68, 68); stroke-opacity: 1; fill: rgb(76, 175, 80); fill-opacity: 0.5; stroke-width: 0; opacity: 1;"/><path class="sankey-link" d="M158.60000000000002,302.7931322534348C198,302.7931322534348 198,39.841206200032495 237.4,39.841206200032495L237.4,44.70167121448103C198,44.70167121448103 198,307.65359726788336 158.60000000000002,307.65359726788336Z" style="stroke: rgb(68, 68, 68); stroke-opacity: 1; fill: rgb(76, 175, 80); fill-opacity: 0.5; stroke-width: 0; opacity: 1;"/><path class="sankey-link" d="M255.4,212.0482198308378C294.8,212.0482198308378 294.8,216.640239858613 334.2,216.640239858613L334.2,223.69774430627288C294.8,223.69774430627288 294.8,219.1057242784977 255.4,219.1057242784977Z" style="stroke: rgb(68, 68, 68); stroke-opacity: 1; fill: rgb(244, 67, 54); fill-opacity: 0.55; stroke-width: 0; opacity: 1;"/><path class="sankey-link" d="M61.800000000000004,314.74177633697786C101.20000000000002,314.74177633697786 101.20000000000002,204.50134031404954 140.60000000000002,204.50134031404954L140.60000000000002,212.15401025086945C101.20000000000002,212.15401025086945 101.20000000000002,322.3944462737978 61.800000000000004,322.3944462737978Z" style="stroke: rgb(68, 68, 68); stroke-opacity: 1; fill: rgb(76, 175, 80); fill-opacity: 0.5; stroke-width: 0; opacity: 1;"/><path class="sankey-link" d="M255.4,78.66499932298416C294.8,78.66499932298416 294.8,24.87762126378682 334.2,24.87762126378682L334.2,33.20104863335986C294.8,33.20104863335986 294.8,86.9884266925572 255.4,86.9884266925572Z" style="stroke: rgb(68, 68, 68); stroke-opacity: 1; fill: rgb(76, 175, 80); fill-opacity: 0.5; stroke-width: 0; opacity: 1;"/><path class="sankey-link" d="M158.60000000000002,159.74722657689946C198,159.74722657689946 198,188.39454603357342 237.4,188.39454603357342L237.4,193.30528428788654C198,193.30528428788654 198,164.65796483121258 158.60000000000002,164.65796483121258Z" style="stroke: rgb(68, 68, 68); stroke-opacity: 1; fill: rgb(76, 175, 80); fill-opacity: 0.5; stroke-width: 0; opacity: 1;"/><path class="sankey-link" d="M61.800000000000004,257.7279392658016C101.20000000000002,257.7279392658016 101.20000000000002,199.79696239439835 140.60000000000002,199.79696239439835L140.60000000000002,204.50134031404957C101.20000000000002,204.50134031404957 101.20000000000002,262.43231718545275 61.800000000000004,262.43231718545275Z" style="stroke: rgb(68, 68, 68); stroke-opacity: 1; fill: rgb(76, 175, 80); fill-opacity: 0.5; stroke-width: 0; opacity: 1;"/><path class="sankey-link" d="M61.800000000000004,144.1271248978751C101.20000000000002,144.1271248978751 101.20000000000002,96.28541278484514 140.60000000000002,96.28541278484514L140.60000000000002,102.27571145017205C101.20000000000002,102.27571145017205 101.20000000000002,150.117423563202 61.800000000000004,150.117423563202Z" style="stroke: rgb(68, 68, 68); stroke-opacity: 1; fill: rgb(244, 67, 54); fill-opacity: 0.55; stroke-width: 0; opacity: 1;"/><path class="sankey-link" d="M255.4,96.05486850523783C294.8,96.05486850523783 294.8,138.0227721804791 334.2,138.0227721804791L334.2,143.93380271953228C294.8,143.93380271953228 294.8,101.96589904429098 255.4,101.96589904429098Z" style="stroke: rgb(68, 68, 68); stroke-opacity: 1; fill: rgb(76, 175, 80); fill-opacity: 0.5; stroke-width: 0; opacity: 1;"/><path class="sankey-link" d="M61.800000000000004,88.28916007572633C101.20000000000002,88.28916007572633 101.20000000000002,90.89938944101841 140.60000000000002,90.89938944101841L140.60000000000002,96.28541278484515C101.20000000000002,96.28541278484515 101.20000000000002,93.67518341955306 61.800000000000004,93.67518341955306Z" style="stroke: rgb(68, 68, 68); stroke-opacity: 1; fill: rgb(244, 67, 54); fill-opacity: 0.55; stroke-width: 0; opacity: 1;"/><path class="sankey-link" d="M158.60000000000002,164.6579648312126C198,164.6579648312126 198,251.26150208315175 237.4,251.26150208315175L237.4,257.67106146555375C198,257.67106146555375 198,171.0675242136146 158.60000000000002,171.0675242136146Z" style="stroke: rgb(68, 68, 68); stroke-opacity: 1; fill: rgb(244, 67, 54); fill-opacity: 0.55; stroke-width: 0; opacity: 1;"/><path class="sankey-link" d="M255.4,39.02438189779117C294.8,39.02438189779117 294.8,133.31397233645174 334.2,133.31397233645174L334.2,138.02277218047914C294.8,138.02277218047914 294.8,43.73318174181854 255.4,43.73318174181854Z" style="stroke: rgb(68, 68, 68); stroke-opacity: 1; fill: rgb(76, 175, 80); fill-opacity: 0.5; stroke-width: 0; opacity: 1;"/><path class="sankey-link" d="M61.800000000000004,37.3157676475205C52.800000000000004,37.3157676475205 52.800000000000004,250.95870190775844 43.800000000000004,250.95870190775844L43.800000000000004,257.46737482341143C52.800000000000004,257.46737482341143 52.800000000000004,43.82444056317347 61.800000000000004,43.82444056317347Z" style="stroke: rgb(68, 68, 68); stroke-opacity: 1; fill: rgb(76, 175, 80); fill-opacity: 0.5; stroke-width: 0; opacity: 1;"/><path class="sankey-link" d="M61.800000000000004,93.67518341955304C52.800000000000004,93.67518341955304 52.800000000000004,257.46737482341143 43.800000000000004,257.46737482341143L43.800000000000004,264.2774543673503C52.800000000000004,264.2774543673503 52.800000000000004,100.48526296349189 61.800000000000004,100.48526296349189Z" style="stroke: rgb(68, 68, 68); stroke-opacity: 1; fill: rgb(76, 175, 80); fill-opacity: 0.5; stroke-width: 0; opacity: 1;"/><path class="sankey-link" d="M255.4,319.7938747716096C294.8,319.7938747716096 294.8,325.45832500427207 334.2,325.45832500427207L334.2,331.2151488199901C294.8,331.2151488199901 294.8,325.5506985873276 255.4,325.5506985873276Z" style="stroke: rgb(68, 68, 68); stroke-opacity: 1; fill: rgb(76, 175, 80); fill-opacity: 0.5; stroke-width: 0; opacity: 1;"/><path class="sankey-link" d="M158.60000000000002,153.80238607167075C198,153.80238607167075 198,134.16461648381596 237.4,134.16461648381596L237.4,140.1094569890447C198,140.1094569890447 198,159.7472265768995 158.60000000000002,159.7472265768995Z" style="stroke: rgb(68, 68, 68); stroke-opacity: 1; fill: rgb(76, 175, 80); fill-opacity: 0.5; stroke-width: 0; opacity: 1;"/><path class="sankey-link" d="M352.2,152.22841357503285C343.2,152.22841357503285 343.2,267.46722689028593 334.2,267.46722689028593L334.2,273.0733317688083C343.2,273.0733317688083 343.2,157.83451845355523 352.2,157.83451845355523Z" style="stroke: rgb(68, 68, 68); stroke-opacity: 1; fill: rgb(76, 175, 80); fill-opacity: 0.5; stroke-width: 0; opacity: 1;"/><path class="sankey-link" d="M158.60000000000002,22.553785727793176C149.60000000000002,22.553785727793176 149.60000000000002,136.13247578638527 140.60000000000002,136.13247578638527L140.60000000000002,141.9202743378993C149.60000000000002,141.9202743378993 149.60000000000002,28.341584279307206 158.60000000000002,28.341584279307206Z" style="stroke: rgb(68, 68, 68); stroke-opacity: 1; fill: rgb(76, 175, 80); fill-opacity: 0.5; stroke-width: 0; opacity: 1;"/><path class="sankey-link" d="M61.800000000000004,203.50054973300195C101.20000000000002,203.50054973300195 101.20000000000002,102.27571145017205 140.60000000000002,102.27571145017205L140.60000000000002,108.2535603414835C101.20000000000002,108.2535603414835 101.20000000000002,209.4783986243134 61.800000000000004,209.4783986243134Z" style="stroke: rgb(68, 68, 68); stroke-opacity: 1; fill: rgb(244, 67, 54); fill-opacity: 0.55; stroke-width: 0; opacity: 1;"/><path class="sankey-link" d="M352.2,164.69724024804034C391.6,164.69724024804034 391.6,377.0352400482147 431,377.0352400482147L431,386.2240274637225C391.6,386.2240274637225 391.6,173.8860276635481 352.2,173.8860276635481Z" style="stroke: rgb(68, 68, 68); stroke-opacity: 1; fill: rgb(244, 67, 54); fill-opacity: 0.55; stroke-width: 0; opacity: 1;"/><path class="sankey-link" d="M61.800000000000004,262.4323171854528C101.20000000000002,262.4323171854528 101.20000000000002,259.2739245397083 140.60000000000002,259.2739245397083L140.60000000000002,264.66741127207064C101.20000000000002,264.66741127207064 101.20000000000002,267.82580391781516 61.800000000000004,267.82580391781516Z" style="stroke: rgb(68, 68, 68); stroke-opacity: 1; fill: rgb(76, 175, 80); fill-opacity: 0.5; stroke-width: 0; opacity: 1;"/><path class="sankey-link" d="M158.60000000000002,35.860231200687394C149.60000000000002,35.860231200687394 149.60000000000002,252.1075053674478 140.60000000000002,252.1075053674478L140.60000000000002,259.2739245397083C149.60000000000002,259.2739245397083 149.60000000000002,43.026650372947884 158.60000000000002,43.026650372947884Z" style="stroke: rgb(68, 68, 68); stroke-opacity: 1; fill: rgb(76, 175, 80); fill-opacity: 0.5; stroke-width: 0; opacity: 1;"/><path class="sankey-link" d="M255.4,392.11628912561997C294.8,392.11628912561997 294.8,385.7253771193804 334.2,385.7253771193804L334.2,392.1992062145036C294.8,392.1992062145036 294.8,398.59011822074314 255.4,398.59011822074314Z" style="stroke: rgb(68, 68, 68); stroke-opacity: 1; fill: rgb(76, 175, 80); fill-opacity: 0.5; stroke-width: 0; opacity: 1;"/><path class="sankey-link" d="M255.4,359.8098817792569C343.2,359.8098817792569 343.2,50.60132792296574 431,50.60132792296574L431,60.27729387724865C343.2,60.27729387724865 343.2,369.4858477335398 255.4,369.4858477335398Z" style="stroke: rgb(68, 68, 68); stroke-opacity: 1; fill: rgb(76, 175, 80); fill-opacity: 0.5; stroke-width: 0; opacity: 1;"/><path class="sankey-link" d="M61.800000000000004,100.48526296349189C52.800000000000004,100.48526296349189 52.800000000000004,313.07454322719417 43.800000000000004,313.07454322719417L43.800000000000004,318.8917129100235C52.800000000000004,318.8917129100235 52.800000000000004,106.30243264632125 61.800000000000004,106.30243264632125Z" style="stroke: rgb(68, 68, 68); stroke-opacity: 1; fill: rgb(76, 175, 80); fill-opacity: 0.5; stroke-width: 0; opacity: 1;"/><path class="sankey-link" d="M255.4,158.95621981237008C294.8,158.95621981237008 294.8,209.24600783697824 334.2,209.24600783697824L334.2,216.640239858613C294.8,216.640239858613 294.8,166.35045183400484 255.4,166.35045183400484Z" style="stroke: rgb(68, 68, 68); stroke-opacity: 1; fill: rgb(244, 67, 54); fill-opacity: 0.55; stroke-width: 0; opacity: 1;"/><path class="sankey-link" d="M158.60000000000002,28.341584279307202C149.60000000000002,28.341584279307202 149.60000000000002,192.27831547301815 140.60000000000002,192.27831547301815L140.60000000000002,199.79696239439835C149.60000000000002,199.79696239439835 149.60000000000002,35.86023120068739 158.60000000000002,35.86023120068739Z" style="stroke: rgb(68, 68, 68); stroke-opacity: 1; fill: rgb(76, 175, 80); fill-opacity: 0.5; stroke-width: 0; opacity: 1;"/><path class="sankey-link" d="M61.800000000000004,390.2742832366635C101.20000000000002,390.2742832366635 101.20000000000002,385.25494530967416 140.60000000000002,385.25494530967416L140.60000000000002,392.35011937709663C101.20000000000002,392.35011937709663 101.20000000000002,397.369457304086 61.800000000000004,397.369457304086Z" style="stroke: rgb(68, 68, 68); stroke-opacity: 1; fill: rgb(244, 67, 54); fill-opacity: 0.55; stroke-width: 0; opacity: 1;"/><path class="sankey-link" d="M158.60000000000002,215.4551973385681C198,215.4551973385681 198,193.30528428788656 237.4,193.30528428788656L237.4,199.6009519461778C198,199.6009519461778 198,221.75086499685932 158.60000000000002,221.75086499685932Z" style="stroke: rgb(68, 68, 68); stroke-opacity: 1; fill: rgb(76, 175, 80); fill-opacity: 0.5; stroke-width: 0; opacity: 1;"/><path class="sankey-link" d="M61.800000000000004,43.824440563173475C52.800000000000004,43.824440563173475 52.800000000000004,305.94141630056066 43.800000000000004,305.94141630056066L43.800000000000004,313.07454322719417C52.800000000000004,313.07454322719417 52.800000000000004,50.957567489807 61.800000000000004,50.957567489807Z" style="stroke: rgb(68, 68, 68); stroke-opacity: 1; fill: rgb(76, 175, 80); fill-opacity: 0.5; stroke-width: 0; opacity: 1;"/><path class="sankey-link" d="M255.4,202.27941858675246C294.8,202.27941858675246 294.8,151.25197652481606 334.2,151.25197652481606L334.2,161.0207777689014C294.8,161.0207777689014 294.8,212.0482198308378 255.4,212.0482198308378Z" style="stroke: rgb(68, 68, 68); stroke-opacity: 1; fill: rgb(76, 175, 80); fill-opacity: 0.5; stroke-width: 0; opacity: 1;"/><path class="sankey-link" d="M61.800000000000004,327.9081503627395C101.20000000000002,327.9081503627395 101.20000000000002,319.4822432071254 140.60000000000002,319.4822432071254L140.60000000000002,325.3735589770497C101.20000000000002,325.3735589770497 101.20000000000002,333.7994661326638 61.800000000000004,333.7994661326638Z" style="stroke: rgb(68, 68, 68); stroke-opacity: 1; fill: rgb(76, 175, 80); fill-opacity: 0.5; stroke-width: 0; opacity: 1;"/><path class="sankey-link" d="M61.800000000000004,106.30243264632125C52.800000000000004,106.30243264632125 52.800000000000004,366.1547844628474 43.800000000000004,366.1547844628474L43.800000000000004,370.8456223808722C52.800000000000004,370.8456223808722 52.800000000000004,110.99327056434609 61.800000000000004,110.99327056434609Z" style="stroke: rgb(68, 68, 68); stroke-opacity: 1; fill: rgb(76, 175, 80); fill-opacity: 0.5; stroke-width: 0; opacity: 1;"/><path class="sankey-link" d="M61.800000000000004,219.1245484834504C52.800000000000004,219.1245484834504 52.800000000000004,378.0230875213842 43.800000000000004,378.0230875213842L43.800000000000004,384.98230439348C52.800000000000004,384.98230439348 52.800000000000004,226.0837653555462 61.800000000000004,226.0837653555462Z" style="stroke: rgb(68, 68, 68); stroke-opacity: 1; fill: rgb(76, 175, 80); fill-opacity: 0.5; stroke-width: 0; opacity: 1;"/><path class="sankey-link" d="M158.60000000000002,221.75086499685932C198,221.75086499685932 198,257.67106146555375 237.4,257.67106146555375L237.4,263.6418809956763C198,263.6418809956763 198,227.7216845269819 158.60000000000002,227.7216845269819Z" style="stroke: rgb(68, 68, 68); stroke-opacity: 1; fill: rgb(244, 67, 54); fill-opacity: 0.55; stroke-width: 0; opacity: 1;"/><path class="sankey-link" d="M158.60000000000002,331.27701444792376C198,331.27701444792376 198,270.0086446182064 237.4,270.0086446182064L237.4,281.5384979168483C198,281.5384979168483 198,342.8068677465657 158.60000000000002,342.8068677465657Z" style="stroke: rgb(68, 68, 68); stroke-opacity: 1; fill: rgb(244, 67, 54); fill-opacity: 0.55; stroke-width: 0; opacity: 1;"/><path class="sankey-link" d="M158.60000000000002,52.824482964496774C149.60000000000002,52.824482964496774 149.60000000000002,366.04988062290346 140.60000000000002,366.04988062290346L140.60000000000002,372.2716119306137C149.60000000000002,372.2716119306137 149.60000000000002,59.046214272207 158.60000000000002,59.046214272207Z" style="stroke: rgb(68, 68, 68); stroke-opacity: 1; fill: rgb(244, 67, 54); fill-opacity: 0.55; stroke-width: 0; opacity: 1;"/><path class="sankey-link" d="M255.4,101.96589904429099C294.8,101.96589904429099 294.8,202.45670482590305 334.2,202.45670482590305L334.2,209.2460078369782C294.8,209.2460078369782 294.8,108.75520205536618 255.4,108.75520205536618Z" style="stroke: rgb(68, 68, 68); stroke-opacity: 1; fill: rgb(244, 67, 54); fill-opacity: 0.55; stroke-width: 0; opacity: 1;"/><path class="sankey-link" d="M352.2,157.83451845355523C343.2,157.83451845355523 343.2,318.59560320978693 334.2,318.59560320978693L334.2,325.458325004272C343.2,325.458325004272 343.2,164.69724024804037 352.2,164.69724024804037Z" style="stroke: rgb(68, 68, 68); stroke-opacity: 1; fill: rgb(76, 175, 80); fill-opacity: 0.5; stroke-width: 0; opacity: 1;"/><path class="sankey-link" d="M352.2,54.800474151485474C343.2,54.800474151485474 343.2,366.20079378549633 334.2,366.20079378549633L334.2,375.806147809407C343.2,375.806147809407 343.2,64.40582817539618 352.2,64.40582817539618Z" style="stroke: rgb(68, 68, 68); stroke-opacity: 1; fill: rgb(76, 175, 80); fill-opacity: 0.5; stroke-width: 0; opacity: 1;"/><path class="sankey-link" d="M61.800000000000004,193.91623464445365C101.20000000000002,193.91623464445365 101.20000000000002,40.48354749474536 140.60000000000002,40.48354749474536L140.60000000000002,50.06786258329367C101.20000000000002,50.06786258329367 101.20000000000002,203.50054973300195 61.800000000000004,203.50054973300195Z" style="stroke: rgb(68, 68, 68); stroke-opacity: 1; fill: rgb(76, 175, 80); fill-opacity: 0.5; stroke-width: 0; opacity: 1;"/><path class="sankey-link" d="M61.800000000000004,138.12442089275453C101.20000000000002,138.12442089275453 101.20000000000002,34.48084348962478 140.60000000000002,34.48084348962478L140.60000000000002,40.48354749474536C101.20000000000002,40.48354749474536 101.20000000000002,144.1271248978751 61.800000000000004,144.1271248978751Z" style="stroke: rgb(68, 68, 68); stroke-opacity: 1; fill: rgb(76, 175, 80); fill-opacity: 0.5; stroke-width: 0; opacity: 1;"/><path class="sankey-link" d="M255.4,86.9884266925572C294.8,86.9884266925572 294.8,82.35682238538169 334.2,82.35682238538169L334.2,91.42326419806233C294.8,91.42326419806233 294.8,96.05486850523783 255.4,96.05486850523783Z" style="stroke: rgb(68, 68, 68); stroke-opacity: 1; fill: rgb(76, 175, 80); fill-opacity: 0.5; stroke-width: 0; opacity: 1;"/><path class="sankey-link" d="M255.4,166.35045183400484C246.4,166.35045183400484 246.4,375.6176315444378 237.4,375.6176315444378L237.4,382.30256322661694C246.4,382.30256322661694 246.4,173.03538351618403 255.4,173.03538351618403Z" style="stroke: rgb(68, 68, 68); stroke-opacity: 1; fill: rgb(76, 175, 80); fill-opacity: 0.5; stroke-width: 0; opacity: 1;"/><path class="sankey-link" d="M255.4,143.26168903582024C294.8,143.26168903582024 294.8,91.42326419806233 334.2,91.42326419806233L334.2,99.79962116932836C294.8,99.79962116932836 294.8,151.63804600708627 255.4,151.63804600708627Z" style="stroke: rgb(68, 68, 68); stroke-opacity: 1; fill: rgb(76, 175, 80); fill-opacity: 0.5; stroke-width: 0; opacity: 1;"/><path class="sankey-link" d="M255.4,43.73318174181855C294.8,43.73318174181855 294.8,196.3022556937271 334.2,196.3022556937271L334.2,202.45670482590305C294.8,202.45670482590305 294.8,49.8876308739945 255.4,49.8876308739945Z" style="stroke: rgb(68, 68, 68); stroke-opacity: 1; fill: rgb(244, 67, 54); fill-opacity: 0.55; stroke-width: 0; opacity: 1;"/><path class="sankey-link" d="M158.60000000000002,267.8322710736084C198,267.8322710736084 198,199.6009519461778 237.4,199.6009519461778L237.4,206.09441188259152C198,206.09441188259152 198,274.32573101002214 158.60000000000002,274.32573101002214Z" style="stroke: rgb(68, 68, 68); stroke-opacity: 1; fill: rgb(76, 175, 80); fill-opacity: 0.5; stroke-width: 0; opacity: 1;"/><path class="sankey-link" d="M255.4,385.44285382392627C343.2,385.44285382392627 343.2,386.22402746372245 431,386.22402746372245L431,392.8974627654161C343.2,392.8974627654161 343.2,392.1162891256199 255.4,392.1162891256199Z" style="stroke: rgb(68, 68, 68); stroke-opacity: 1; fill: rgb(244, 67, 54); fill-opacity: 0.55; stroke-width: 0; opacity: 1;"/><path class="sankey-link" d="M61.800000000000004,150.117423563202C52.800000000000004,150.117423563202 52.800000000000004,264.2774543673503 43.800000000000004,264.2774543673503L43.800000000000004,269.8683852266106C52.800000000000004,269.8683852266106 52.800000000000004,155.70835442246238 61.800000000000004,155.70835442246238Z" style="stroke: rgb(68, 68, 68); stroke-opacity: 1; fill: rgb(76, 175, 80); fill-opacity: 0.5; stroke-width: 0; opacity: 1;"/><path class="sankey-link" d="M61.800000000000004,25.518190743259247C101.20000000000002,25.518190743259247 101.20000000000002,22.553785727793176 140.60000000000002,22.553785727793176L140.60000000000002,29.59841284955251C101.20000000000002,29.59841284955251 101.20000000000002,32.56281786501858 61.800000000000004,32.56281786501858Z" style="stroke: rgb(68, 68, 68); stroke-opacity: 1; fill: rgb(76, 175, 80); fill-opacity: 0.5; stroke-width: 0; opacity: 1;"/><path class="sankey-link" d="M61.800000000000004,161.8981139667335C52.800000000000004,161.8981139667335 52.800000000000004,370.8456223808722 43.800000000000004,370.8456223808722L43.800000000000004,378.02308752138424C52.800000000000004,378.02308752138424 52.800000000000004,169.07557910724546 61.800000000000004,169.07557910724546Z" style="stroke: rgb(68, 68, 68); stroke-opacity: 1; fill: rgb(76, 175, 80); fill-opacity: 0.5; stroke-width: 0; opacity: 1;"/><path class="sankey-link" d="M352.2,85.64383966181899C391.6,85.64383966181899 391.6,87.08481217417076 431,87.08481217417076L431,98.50789085598939C391.6,98.50789085598939 391.6,97.06691834363761 352.2,97.06691834363761Z" style="stroke: rgb(68, 68, 68); stroke-opacity: 1; fill: rgb(76, 175, 80); fill-opacity: 0.5; stroke-width: 0; opacity: 1;"/><path class="sankey-link" d="M61.800000000000004,83.40672943565406C101.20000000000002,83.40672943565406 101.20000000000002,29.598412849552513 140.60000000000002,29.598412849552513L140.60000000000002,34.48084348962478C101.20000000000002,34.48084348962478 101.20000000000002,88.28916007572633 61.800000000000004,88.28916007572633Z" style="stroke: rgb(68, 68, 68); stroke-opacity: 1; fill: rgb(76, 175, 80); fill-opacity: 0.5; stroke-width: 0; opacity: 1;"/><path class="sankey-link" d="M352.2,103.07294317213913C391.6,103.07294317213913 391.6,369.5277204395752 431,369.5277204395752L431,377.03524004821475C391.6,377.03524004821475 391.6,110.58046278077865 352.2,110.58046278077865Z" style="stroke: rgb(68, 68, 68); stroke-opacity: 1; fill: rgb(244, 67, 54); fill-opacity: 0.55; stroke-width: 0; opacity: 1;"/><path class="sankey-link" d="M61.800000000000004,361.0305426959136C101.20000000000002,361.0305426959136 101.20000000000002,157.48987173235957 140.60000000000002,157.48987173235957L140.60000000000002,165.3754261842348C101.20000000000002,165.3754261842348 101.20000000000002,368.91609714778883 61.800000000000004,368.91609714778883Z" style="stroke: rgb(68, 68, 68); stroke-opacity: 1; fill: rgb(76, 175, 80); fill-opacity: 0.5; stroke-width: 0; opacity: 1;"/><path class="sankey-link" d="M61.800000000000004,274.71708227995686C101.20000000000002,274.71708227995686 101.20000000000002,372.2716119306137 140.60000000000002,372.2716119306137L140.60000000000002,379.3958277428986C101.20000000000002,379.3958277428986 101.20000000000002,281.84129809224174 61.800000000000004,281.84129809224174Z" style="stroke: rgb(68, 68, 68); stroke-opacity: 1; fill: rgb(244, 67, 54); fill-opacity: 0.55; stroke-width: 0; opacity: 1;"/><path class="sankey-link" d="M255.4,22.88441798247407C294.8,22.88441798247407 294.8,17.19417182460392 334.2,17.19417182460392L334.2,24.87762126378682C294.8,24.87762126378682 294.8,30.56786742165697 255.4,30.56786742165697Z" style="stroke: rgb(68, 68, 68); stroke-opacity: 1; fill: rgb(76, 175, 80); fill-opacity: 0.5; stroke-width: 0; opacity: 1;"/><path class="sankey-link" d="M352.2,48.45029094649436C391.6,48.45029094649436 391.6,363.17753723458407 431,363.17753723458407L431,369.5277204395752C391.6,369.5277204395752 391.6,54.800474151485474 352.2,54.800474151485474Z" style="stroke: rgb(68, 68, 68); stroke-opacity: 1; fill: rgb(244, 67, 54); fill-opacity: 0.55; stroke-width: 0; opacity: 1;"/><path class="sankey-link" d="M61.800000000000004,383.9680375603362C101.20000000000002,383.9680375603362 101.20000000000002,325.37355897704975 140.60000000000002,325.37355897704975L140.60000000000002,331.67980465337706C101.20000000000002,331.67980465337706 101.20000000000002,390.2742832366635 61.800000000000004,390.2742832366635Z" style="stroke: rgb(68, 68, 68); stroke-opacity: 1; fill: rgb(76, 175, 80); fill-opacity: 0.5; stroke-width: 0; opacity: 1;"/><path class="sankey-link" d="M158.60000000000002,43.02665037294788C149.60000000000002,43.02665037294788 149.60000000000002,302.7931322534348 140.60000000000002,302.7931322534348L140.60000000000002,312.59096484498366C149.60000000000002,312.59096484498366 149.60000000000002,52.824482964496774 158.60000000000002,52.824482964496774Z" style="stroke: rgb(68, 68, 68); stroke-opacity: 1; fill: rgb(76, 175, 80); fill-opacity: 0.5; stroke-width: 0; opacity: 1;"/><path class="sankey-link" d="M352.2,110.58046278077863C343.2,110.58046278077863 343.2,375.80614780940704 334.2,375.80614780940704L334.2,385.7253771193804C343.2,385.7253771193804 343.2,120.49969209075205 352.2,120.49969209075205Z" style="stroke: rgb(68, 68, 68); stroke-opacity: 1; fill: rgb(76, 175, 80); fill-opacity: 0.5; stroke-width: 0; opacity: 1;"/><path class="sankey-link" d="M158.60000000000002,208.81461830435836C198,208.81461830435836 198,140.10945698904467 237.4,140.10945698904467L237.4,146.7500360232544C198,146.7500360232544 198,215.4551973385681 158.60000000000002,215.4551973385681Z" style="stroke: rgb(68, 68, 68); stroke-opacity: 1; fill: rgb(76, 175, 80); fill-opacity: 0.5; stroke-width: 0; opacity: 1;"/><path class="sankey-link" d="M61.800000000000004,50.957567489807005C52.800000000000004,50.957567489807005 52.800000000000004,361.0305426959136 43.800000000000004,361.0305426959136L43.800000000000004,366.1547844628474C52.800000000000004,366.1547844628474 52.800000000000004,56.08180925674078 61.800000000000004,56.08180925674078Z" style="stroke: rgb(68, 68, 68); stroke-opacity: 1; fill: rgb(76, 175, 80); fill-opacity: 0.5; stroke-width: 0; opacity: 1;"/><path class="sankey-link" d="M158.60000000000002,260.2332104903976C198,260.2332104903976 198,146.75003602325444 237.4,146.75003602325444L237.4,154.34909660646525C198,154.34909660646525 198,267.83227107360847 158.60000000000002,267.83227107360847Z" style="stroke: rgb(68, 68, 68); stroke-opacity: 1; fill: rgb(76, 175, 80); fill-opacity: 0.5; stroke-width: 0; opacity: 1;"/><path class="sankey-link" d="M352.2,40.835011665590756C343.2,40.835011665590756 343.2,304.9742991003818 334.2,304.9742991003818L334.2,312.5895783812854C343.2,312.5895783812854 343.2,48.45029094649436 352.2,48.45029094649436Z" style="stroke: rgb(68, 68, 68); stroke-opacity: 1; fill: rgb(76, 175, 80); fill-opacity: 0.5; stroke-width: 0; opacity: 1;"/><path class="sankey-link" d="M255.4,108.75520205536618C246.4,108.75520205536618 246.4,368.63783292278816 237.4,368.63783292278816L237.4,375.61763154443776C246.4,375.61763154443776 246.4,115.7350006770158 255.4,115.7350006770158Z" style="stroke: rgb(68, 68, 68); stroke-opacity: 1; fill: rgb(76, 175, 80); fill-opacity: 0.5; stroke-width: 0; opacity: 1;"/><path class="sankey-link" d="M255.4,219.1057242784977C246.4,219.1057242784977 246.4,319.7938747716096 237.4,319.7938747716096L237.4,325.80612522839056C246.4,325.80612522839056 246.4,225.11797473527866 255.4,225.11797473527866Z" style="stroke: rgb(68, 68, 68); stroke-opacity: 1; fill: rgb(76, 175, 80); fill-opacity: 0.5; stroke-width: 0; opacity: 1;"/><path class="sankey-link" d="M352.2,142.45817590907654C391.6,142.45817590907654 391.6,98.5078908559894 431,98.5078908559894L431,108.2781285219457C391.6,108.2781285219457 391.6,152.22841357503285 352.2,152.22841357503285Z" style="stroke: rgb(68, 68, 68); stroke-opacity: 1; fill: rgb(76, 175, 80); fill-opacity: 0.5; stroke-width: 0; opacity: 1;"/><path class="sankey-link" d="M255.4,225.11797473527864C246.4,225.11797473527864 246.4,382.302563226617 237.4,382.302563226617L237.4,388.79004245776474C246.4,388.79004245776474 246.4,231.60545396642644 255.4,231.60545396642644Z" style="stroke: rgb(68, 68, 68); stroke-opacity: 1; fill: rgb(76, 175, 80); fill-opacity: 0.5; stroke-width: 0; opacity: 1;"/><path class="sankey-link" d="M158.60000000000002,144.72583871638966C198,144.72583871638966 198,78.66499932298416 237.4,78.66499932298416L237.4,87.74154667826525C198,87.74154667826525 198,153.80238607167075 158.60000000000002,153.80238607167075Z" style="stroke: rgb(68, 68, 68); stroke-opacity: 1; fill: rgb(76, 175, 80); fill-opacity: 0.5; stroke-width: 0; opacity: 1;"/><path class="sankey-link" d="M158.60000000000002,136.13247578638527C198,136.13247578638527 198,22.88441798247407 237.4,22.88441798247407L237.4,31.47778091247845C198,31.47778091247845 198,144.72583871638966 158.60000000000002,144.72583871638966Z" style="stroke: rgb(68, 68, 68); stroke-opacity: 1; fill: rgb(76, 175, 80); fill-opacity: 0.5; stroke-width: 0; opacity: 1;"/><path class="sankey-link" d="M61.800000000000004,368.91609714778883C101.20000000000002,368.91609714778883 101.20000000000002,212.15401025086948 140.60000000000002,212.15401025086948L140.60000000000002,219.63223599195493C101.20000000000002,219.63223599195493 101.20000000000002,376.3943228888743 61.800000000000004,376.3943228888743Z" style="stroke: rgb(68, 68, 68); stroke-opacity: 1; fill: rgb(76, 175, 80); fill-opacity: 0.5; stroke-width: 0; opacity: 1;"/><path class="sankey-link" d="M352.2,33.094453006496714C343.2,33.094453006496714 343.2,259.72666823119187 334.2,259.72666823119187L334.2,267.46722689028593C343.2,267.46722689028593 343.2,40.83501166559076 352.2,40.83501166559076Z" style="stroke: rgb(68, 68, 68); stroke-opacity: 1; fill: rgb(76, 175, 80); fill-opacity: 0.5; stroke-width: 0; opacity: 1;"/><path class="sankey-link" d="M61.800000000000004,209.4783986243134C52.800000000000004,209.4783986243134 52.800000000000004,269.86838522661066 43.800000000000004,269.86838522661066L43.800000000000004,273.14964537821373C52.800000000000004,273.14964537821373 52.800000000000004,212.75965877591642 61.800000000000004,212.75965877591642Z" style="stroke: rgb(68, 68, 68); stroke-opacity: 1; fill: rgb(76, 175, 80); fill-opacity: 0.5; stroke-width: 0; opacity: 1;"/><path class="sankey-link" d="M61.800000000000004,250.95870190775844C101.20000000000002,250.95870190775844 101.20000000000002,141.9202743378993 140.60000000000002,141.9202743378993L140.60000000000002,148.68951169594243C101.20000000000002,148.68951169594243 101.20000000000002,257.7279392658016 61.800000000000004,257.7279392658016Z" style="stroke: rgb(68, 68, 68); stroke-opacity: 1; fill: rgb(76, 175, 80); fill-opacity: 0.5; stroke-width: 0; opacity: 1;"/><path class="sankey-link" d="M61.800000000000004,376.3943228888743C101.20000000000002,376.3943228888743 101.20000000000002,270.18111536101236 140.60000000000002,270.18111536101236L140.60000000000002,277.75483003247433C101.20000000000002,277.75483003247433 101.20000000000002,383.96803756033626 61.800000000000004,383.96803756033626Z" style="stroke: rgb(68, 68, 68); stroke-opacity: 1; fill: rgb(76, 175, 80); fill-opacity: 0.5; stroke-width: 0; opacity: 1;"/><path class="sankey-link" d="M352.2,17.19417182460392C391.6,17.19417182460392 391.6,21.322706122751363 431,21.322706122751363L431,29.71359259776945C391.6,29.71359259776945 391.6,25.585058299622006 352.2,25.585058299622006Z" style="stroke: rgb(68, 68, 68); stroke-opacity: 1; fill: rgb(76, 175, 80); fill-opacity: 0.5; stroke-width: 0; opacity: 1;"/><path class="sankey-link" d="M61.800000000000004,322.39444627379777C101.20000000000002,322.39444627379777 101.20000000000002,264.66741127207064 140.60000000000002,264.66741127207064L140.60000000000002,270.18111536101236C101.20000000000002,270.18111536101236 101.20000000000002,327.9081503627395 61.800000000000004,327.9081503627395Z" style="stroke: rgb(68, 68, 68); stroke-opacity: 1; fill: rgb(76, 175, 80); fill-opacity: 0.5; stroke-width: 0; opacity: 1;"/><path class="sankey-link" d="M352.2,25.585058299622006C391.6,25.585058299622006 391.6,79.57541746729606 431,79.57541746729606L431,87.08481217417076C391.6,87.08481217417076 391.6,33.094453006496714 352.2,33.094453006496714Z" style="stroke: rgb(68, 68, 68); stroke-opacity: 1; fill: rgb(76, 175, 80); fill-opacity: 0.5; stroke-width: 0; opacity: 1;"/><path class="sankey-link" d="M352.2,133.31397233645174C391.6,133.31397233645174 391.6,41.45712435034093 431,41.45712435034093L431,50.60132792296574C391.6,50.60132792296574 391.6,142.45817590907654 352.2,142.45817590907654Z" style="stroke: rgb(68, 68, 68); stroke-opacity: 1; fill: rgb(76, 175, 80); fill-opacity: 0.5; stroke-width: 0; opacity: 1;"/><path class="sankey-link" d="M158.60000000000002,307.65359726788336C198,307.65359726788336 198,104.0401293450012 237.4,104.0401293450012L237.4,109.87569638494678C198,109.87569638494678 198,313.4891643078289 158.60000000000002,313.4891643078289Z" style="stroke: rgb(68, 68, 68); stroke-opacity: 1; fill: rgb(76, 175, 80); fill-opacity: 0.5; stroke-width: 0; opacity: 1;"/><path class="sankey-link" d="M61.800000000000004,32.56281786501858C101.20000000000002,32.56281786501858 101.20000000000002,86.14643965851648 140.60000000000002,86.14643965851648L140.60000000000002,90.89938944101841C101.20000000000002,90.89938944101841 101.20000000000002,37.31576764752051 61.800000000000004,37.31576764752051Z" style="stroke: rgb(68, 68, 68); stroke-opacity: 1; fill: rgb(244, 67, 54); fill-opacity: 0.55; stroke-width: 0; opacity: 1;"/><path class="sankey-link" d="M158.60000000000002,313.48916430782896C198,313.48916430782896 198,154.34909660646525 237.4,154.34909660646525L237.4,162.5497958498574C198,162.5497958498574 198,321.6898635512211 158.60000000000002,321.6898635512211Z" style="stroke: rgb(68, 68, 68); stroke-opacity: 1; fill: rgb(76, 175, 80); fill-opacity: 0.5; stroke-width: 0; opacity: 1;"/><path class="sankey-link" d="M61.800000000000004,212.75965877591642C52.800000000000004,212.75965877591642 52.800000000000004,325.08147245429467 43.800000000000004,325.08147245429467L43.800000000000004,331.44636216182863C52.800000000000004,331.44636216182863 52.800000000000004,219.12454848345038 61.800000000000004,219.12454848345038Z" style="stroke: rgb(68, 68, 68); stroke-opacity: 1; fill: rgb(76, 175, 80); fill-opacity: 0.5; stroke-width: 0; opacity: 1;"/><path class="sankey-link" d="M158.60000000000002,321.6898635512211C198,321.6898635512211 198,206.09441188259154 237.4,206.09441188259154L237.4,215.6815627792942C198,215.6815627792942 198,331.2770144479238 158.60000000000002,331.2770144479238Z" style="stroke: rgb(68, 68, 68); stroke-opacity: 1; fill: rgb(76, 175, 80); fill-opacity: 0.5; stroke-width: 0; opacity: 1;"/><path class="sankey-link" d="M255.4,151.63804600708627C294.8,151.63804600708627 294.8,143.93380271953225 334.2,143.93380271953225L334.2,151.25197652481603C294.8,151.25197652481603 294.8,158.95621981237005 255.4,158.95621981237005Z" style="stroke: rgb(68, 68, 68); stroke-opacity: 1; fill: rgb(76, 175, 80); fill-opacity: 0.5; stroke-width: 0; opacity: 1;"/><path class="sankey-link" d="M352.2,97.06691834363762C343.2,97.06691834363762 343.2,312.58957838128543 334.2,312.58957838128543L334.2,318.59560320978693C343.2,318.59560320978693 343.2,103.07294317213915 352.2,103.07294317213915Z" style="stroke: rgb(68, 68, 68); stroke-opacity: 1; fill: rgb(76, 175, 80); fill-opacity: 0.5; stroke-width: 0; opacity: 1;"/><path class="sankey-link" d="M255.4,188.39454603357342C294.8,188.39454603357342 294.8,42.29812118536414 334.2,42.29812118536414L334.2,48.1730585374154C294.8,48.1730585374154 294.8,194.2694833856247 255.4,194.2694833856247Z" style="stroke: rgb(68, 68, 68); stroke-opacity: 1; fill: rgb(76, 175, 80); fill-opacity: 0.5; stroke-width: 0; opacity: 1;"/><path class="sankey-link" d="M61.800000000000004,155.70835442246238C52.800000000000004,155.70835442246238 52.800000000000004,318.89171291002356 43.800000000000004,318.89171291002356L43.800000000000004,325.0814724542946C52.800000000000004,325.0814724542946 52.800000000000004,161.8981139667335 61.800000000000004,161.8981139667335Z" style="stroke: rgb(68, 68, 68); stroke-opacity: 1; fill: rgb(76, 175, 80); fill-opacity: 0.5; stroke-width: 0; opacity: 1;"/><path class="sankey-link" d="M158.60000000000002,200.6417407605722C198,200.6417407605722 198,87.74154667826524 237.4,87.74154667826524L237.4,95.91442422205141C198,95.91442422205141 198,208.81461830435836 158.60000000000002,208.81461830435836Z" style="stroke: rgb(68, 68, 68); stroke-opacity: 1; fill: rgb(76, 175, 80); fill-opacity: 0.5; stroke-width: 0; opacity: 1;"/><path class="sankey-link" d="M255.4,376.032301744298C294.8,376.032301744298 294.8,331.21514881999013 334.2,331.21514881999013L334.2,340.6257008996184C294.8,340.6257008996184 294.8,385.44285382392627 255.4,385.44285382392627Z" style="stroke: rgb(68, 68, 68); stroke-opacity: 1; fill: rgb(76, 175, 80); fill-opacity: 0.5; stroke-width: 0; opacity: 1;"/><path class="sankey-link" d="M61.800000000000004,305.94141630056066C101.20000000000002,305.94141630056066 101.20000000000002,148.6895116959424 140.60000000000002,148.6895116959424L140.60000000000002,157.4898717323596C101.20000000000002,157.4898717323596 101.20000000000002,314.7417763369778 61.800000000000004,314.7417763369778Z" style="stroke: rgb(68, 68, 68); stroke-opacity: 1; fill: rgb(76, 175, 80); fill-opacity: 0.5; stroke-width: 0; opacity: 1;"/><path class="sankey-link" d="M255.4,194.26948338562468C294.8,194.26948338562468 294.8,99.79962116932836 334.2,99.79962116932836L334.2,107.80955637045616C294.8,107.80955637045616 294.8,202.27941858675248 255.4,202.27941858675248Z" style="stroke: rgb(68, 68, 68); stroke-opacity: 1; fill: rgb(76, 175, 80); fill-opacity: 0.5; stroke-width: 0; opacity: 1;"/><path class="sankey-link" d="M158.60000000000002,252.10750536744783C198,252.10750536744783 198,95.9144242220514 237.4,95.9144242220514L237.4,104.04012934500122C198,104.04012934500122 198,260.23321049039765 158.60000000000002,260.23321049039765Z" style="stroke: rgb(68, 68, 68); stroke-opacity: 1; fill: rgb(76, 175, 80); fill-opacity: 0.5; stroke-width: 0; opacity: 1;"/><path class="sankey-link" d="M255.4,134.16461648381596C294.8,134.16461648381596 294.8,33.20104863335986 334.2,33.20104863335986L334.2,42.29812118536414C294.8,42.29812118536414 294.8,143.2616890358202 255.4,143.2616890358202Z" style="stroke: rgb(68, 68, 68); stroke-opacity: 1; fill: rgb(76, 175, 80); fill-opacity: 0.5; stroke-width: 0; opacity: 1;"/><path class="sankey-link" d="M255.4,49.8876308739945C246.4,49.8876308739945 246.4,359.8098817792569 237.4,359.8098817792569L237.4,368.6378329227882C246.4,368.6378329227882 246.4,58.71558201752578 255.4,58.71558201752578Z" style="stroke: rgb(68, 68, 68); stroke-opacity: 1; fill: rgb(76, 175, 80); fill-opacity: 0.5; stroke-width: 0; opacity: 1;"/><path class="sankey-link" d="M158.60000000000002,274.32573101002214C198,274.32573101002214 198,263.64188099567633 237.4,263.64188099567633L237.4,270.00864461820635C198,270.00864461820635 198,280.69249463255215 158.60000000000002,280.69249463255215Z" style="stroke: rgb(68, 68, 68); stroke-opacity: 1; fill: rgb(244, 67, 54); fill-opacity: 0.55; stroke-width: 0; opacity: 1;"/><path class="sankey-link" d="M61.800000000000004,333.79946613266384C101.20000000000002,333.79946613266384 101.20000000000002,379.3958277428986 140.60000000000002,379.3958277428986L140.60000000000002,385.25494530967416C101.20000000000002,385.25494530967416 101.20000000000002,339.6585836994394 61.800000000000004,339.6585836994394Z" style="stroke: rgb(68, 68, 68); stroke-opacity: 1; fill: rgb(244, 67, 54); fill-opacity: 0.55; stroke-width: 0; opacity: 1;"/><path class="sankey-link" d="M255.4,369.4858477335398C343.2,369.4858477335398 343.2,108.2781285219457 431,108.2781285219457L431,114.82458253270393C343.2,114.82458253270393 343.2,376.032301744298 255.4,376.032301744298Z" style="stroke: rgb(68, 68, 68); stroke-opacity: 1; fill: rgb(76, 175, 80); fill-opacity: 0.5; stroke-width: 0; opacity: 1;"/><path class="sankey-link" d="M61.800000000000004,267.82580391781516C101.20000000000002,267.82580391781516 101.20000000000002,312.5909648449837 140.60000000000002,312.5909648449837L140.60000000000002,319.48224320712535C101.20000000000002,319.48224320712535 101.20000000000002,274.7170822799568 61.800000000000004,274.7170822799568Z" style="stroke: rgb(68, 68, 68); stroke-opacity: 1; fill: rgb(76, 175, 80); fill-opacity: 0.5; stroke-width: 0; opacity: 1;"/><path class="sankey-link" d="M255.4,30.56786742165697C294.8,30.56786742165697 294.8,73.90030790924749 334.2,73.90030790924749L334.2,82.35682238538169C294.8,82.35682238538169 294.8,39.02438189779117 255.4,39.02438189779117Z" style="stroke: rgb(68, 68, 68); stroke-opacity: 1; fill: rgb(76, 175, 80); fill-opacity: 0.5; stroke-width: 0; opacity: 1;"/></g><g class="sankey-node-set" style="cursor: ns-resize;"><g class="sankey-node" transform="translate(43.800,25.518)" style="opacity: 1;"><rect class="node-rect" width="18" height="30.563618513481515" style="stroke-width: 0.5; stroke: rgb(68, 68, 68); stroke-opacity: 1; fill: rgb(63, 81, 181); fill-opacity: 0.9;"/><text class="node-label" data-notex="1" x="0" y="0" text-anchor="start" transform="translate(21.25,19.481809256740757)" style="cursor: default; font-family: 'Open Sans', verdana, arial, sans-serif; font-size: 12px; fill: rgb(42, 63, 95); fill-opacity: 1; text-shadow: rgb(255, 255, 255) 1px 1px 1px, rgb(255, 255, 255) -1px -1px 1px, rgb(255, 255, 255) 1px -1px 1px, rgb(255, 255, 255) -1px 1px 1px; white-space: pre;">State 0–10%</text></g><g class="sankey-node" transform="translate(43.800,83.407)" style="opacity: 1;"><rect class="node-rect" width="18" height="27.586541128691863" style="stroke-width: 0.5; stroke: rgb(68, 68, 68); stroke-opacity: 1; fill: rgb(0, 150, 136); fill-opacity: 0.9;"/><text class="node-label" data-notex="1" x="0" y="0" text-anchor="start" transform="translate(21.25,17.99327056434593)" style="cursor: default; font-family: 'Open Sans', verdana, arial, sans-serif; font-size: 12px; fill: rgb(42, 63, 95); fill-opacity: 1; text-shadow: rgb(255, 255, 255) 1px 1px 1px, rgb(255, 255, 255) -1px -1px 1px, rgb(255, 255, 255) 1px -1px 1px, rgb(255, 255, 255) -1px 1px 1px; white-space: pre;">State 10–20%</text></g><g class="sankey-node" transform="translate(43.800,138.124)" style="opacity: 1;"><rect class="node-rect" width="18" height="30.951158214490988" style="stroke-width: 0.5; stroke: rgb(68, 68, 68); stroke-opacity: 1; fill: rgb(255, 193, 7); fill-opacity: 0.9;"/><text class="node-label" data-notex="1" x="0" y="0" text-anchor="start" transform="translate(21.25,19.675579107245493)" style="cursor: default; font-family: 'Open Sans', verdana, arial, sans-serif; font-size: 12px; fill: rgb(42, 63, 95); fill-opacity: 1; text-shadow: rgb(255, 255, 255) 1px 1px 1px, rgb(255, 255, 255) -1px -1px 1px, rgb(255, 255, 255) 1px -1px 1px, rgb(255, 255, 255) -1px 1px 1px; white-space: pre;">State 20–50%</text></g><g class="sankey-node" transform="translate(43.800,193.916)" style="opacity: 1;"><rect class="node-rect" width="18" height="32.167530711092695" style="stroke-width: 0.5; stroke: rgb(68, 68, 68); stroke-opacity: 1; fill: rgb(244, 67, 54); fill-opacity: 0.9;"/><text class="node-label" data-notex="1" x="0" y="0" text-anchor="start" transform="translate(21.25,20.283765355546347)" style="cursor: default; font-family: 'Open Sans', verdana, arial, sans-serif; font-size: 12px; fill: rgb(42, 63, 95); fill-opacity: 1; text-shadow: rgb(255, 255, 255) 1px 1px 1px, rgb(255, 255, 255) -1px -1px 1px, rgb(255, 255, 255) 1px -1px 1px, rgb(255, 255, 255) -1px 1px 1px; white-space: pre;">State ≥50%</text></g><g class="sankey-node" transform="translate(43.800,250.959)" style="opacity: 1;"><rect class="node-rect" width="18" height="30.88259618448319" style="stroke-width: 0.5; stroke: rgb(68, 68, 68); stroke-opacity: 1; fill: rgb(63, 81, 181); fill-opacity: 0.9;"/><text class="node-label" data-notex="1" x="0" y="0" text-anchor="start" transform="translate(21.25,19.641298092241595)" style="cursor: default; font-family: 'Open Sans', verdana, arial, sans-serif; font-size: 12px; fill: rgb(42, 63, 95); fill-opacity: 1; text-shadow: rgb(255, 255, 255) 1px 1px 1px, rgb(255, 255, 255) -1px -1px 1px, rgb(255, 255, 255) 1px -1px 1px, rgb(255, 255, 255) -1px 1px 1px; white-space: pre;">State 0–10%</text></g><g class="sankey-node" transform="translate(43.800,305.941)" style="opacity: 1;"><rect class="node-rect" width="18" height="33.717167398878814" style="stroke-width: 0.5; stroke: rgb(68, 68, 68); stroke-opacity: 1; fill: rgb(0, 150, 136); fill-opacity: 0.9;"/><text class="node-label" data-notex="1" x="0" y="0" text-anchor="start" transform="translate(21.25,21.058583699439406)" style="cursor: default; font-family: 'Open Sans', verdana, arial, sans-serif; font-size: 12px; fill: rgb(42, 63, 95); fill-opacity: 1; text-shadow: rgb(255, 255, 255) 1px 1px 1px, rgb(255, 255, 255) -1px -1px 1px, rgb(255, 255, 255) 1px -1px 1px, rgb(255, 255, 255) -1px 1px 1px; white-space: pre;">State 10–20%</text></g><g class="sankey-node" transform="translate(43.800,361.031)" style="opacity: 1;"><rect class="node-rect" width="18" height="36.338914608172786" style="stroke-width: 0.5; stroke: rgb(68, 68, 68); stroke-opacity: 1; fill: rgb(255, 193, 7); fill-opacity: 0.9;"/><text class="node-label" data-notex="1" x="0" y="0" text-anchor="start" transform="translate(21.25,22.369457304086392)" style="cursor: default; font-family: 'Open Sans', verdana, arial, sans-serif; font-size: 12px; fill: rgb(42, 63, 95); fill-opacity: 1; text-shadow: rgb(255, 255, 255) 1px 1px 1px, rgb(255, 255, 255) -1px -1px 1px, rgb(255, 255, 255) 1px -1px 1px, rgb(255, 255, 255) -1px 1px 1px; white-space: pre;">State 20–50%</text></g><g class="sankey-node" transform="translate(140.600,22.554)" style="opacity: 1;"><rect class="node-rect" width="18" height="36.492428544413656" style="stroke-width: 0.5; stroke: rgb(68, 68, 68); stroke-opacity: 1; fill: rgb(244, 67, 54); fill-opacity: 0.9;"/><text class="node-label" data-notex="1" x="0" y="0" text-anchor="start" transform="translate(21.25,22.446214272206827)" style="cursor: default; font-family: 'Open Sans', verdana, arial, sans-serif; font-size: 12px; fill: rgb(42, 63, 95); fill-opacity: 1; text-shadow: rgb(255, 255, 255) 1px 1px 1px, rgb(255, 255, 255) -1px -1px 1px, rgb(255, 255, 255) 1px -1px 1px, rgb(255, 255, 255) -1px 1px 1px; white-space: pre;">State ≥50%</text></g><g class="sankey-node" transform="translate(140.600,86.146)" style="opacity: 1;"><rect class="node-rect" width="18" height="22.107120682967007" style="stroke-width: 0.5; stroke: rgb(68, 68, 68); stroke-opacity: 1; fill: rgb(244, 67, 54); fill-opacity: 0.9;"/><text class="node-label" data-notex="1" x="0" y="0" text-anchor="start" transform="translate(21.25,15.253560341483503)" style="cursor: default; font-family: 'Open Sans', verdana, arial, sans-serif; font-size: 12px; fill: rgb(42, 63, 95); fill-opacity: 1; text-shadow: rgb(255, 255, 255) 1px 1px 1px, rgb(255, 255, 255) -1px -1px 1px, rgb(255, 255, 255) 1px -1px 1px, rgb(255, 255, 255) -1px 1px 1px; white-space: pre;">Exit</text></g><g class="sankey-node" transform="translate(140.600,136.132)" style="opacity: 1;"><rect class="node-rect" width="18" height="34.93504842722939" style="stroke-width: 0.5; stroke: rgb(68, 68, 68); stroke-opacity: 1; fill: rgb(63, 81, 181); fill-opacity: 0.9;"/><text class="node-label" data-notex="1" x="0" y="0" text-anchor="start" transform="translate(21.25,21.667524213614694)" style="cursor: default; font-family: 'Open Sans', verdana, arial, sans-serif; font-size: 12px; fill: rgb(42, 63, 95); fill-opacity: 1; text-shadow: rgb(255, 255, 255) 1px 1px 1px, rgb(255, 255, 255) -1px -1px 1px, rgb(255, 255, 255) 1px -1px 1px, rgb(255, 255, 255) -1px 1px 1px; white-space: pre;">State 0–10%</text></g><g class="sankey-node" transform="translate(140.600,192.278)" style="opacity: 1;"><rect class="node-rect" width="18" height="35.44336905396369" style="stroke-width: 0.5; stroke: rgb(68, 68, 68); stroke-opacity: 1; fill: rgb(0, 150, 136); fill-opacity: 0.9;"/><text class="node-label" data-notex="1" x="0" y="0" text-anchor="start" transform="translate(21.25,21.921684526981846)" style="cursor: default; font-family: 'Open Sans', verdana, arial, sans-serif; font-size: 12px; fill: rgb(42, 63, 95); fill-opacity: 1; text-shadow: rgb(255, 255, 255) 1px 1px 1px, rgb(255, 255, 255) -1px -1px 1px, rgb(255, 255, 255) 1px -1px 1px, rgb(255, 255, 255) -1px 1px 1px; white-space: pre;">State 10–20%</text></g><g class="sankey-node" transform="translate(140.600,252.108)" style="opacity: 1;"><rect class="node-rect" width="18" height="28.58498926510447" style="stroke-width: 0.5; stroke: rgb(68, 68, 68); stroke-opacity: 1; fill: rgb(255, 193, 7); fill-opacity: 0.9;"/><text class="node-label" data-notex="1" x="0" y="0" text-anchor="start" transform="translate(21.25,18.492494632552233)" style="cursor: default; font-family: 'Open Sans', verdana, arial, sans-serif; font-size: 12px; fill: rgb(42, 63, 95); fill-opacity: 1; text-shadow: rgb(255, 255, 255) 1px 1px 1px, rgb(255, 255, 255) -1px -1px 1px, rgb(255, 255, 255) 1px -1px 1px, rgb(255, 255, 255) -1px 1px 1px; white-space: pre;">State 20–50%</text></g><g class="sankey-node" transform="translate(140.600,302.793)" style="opacity: 1;"><rect class="node-rect" width="18" height="40.013735493130525" style="stroke-width: 0.5; stroke: rgb(68, 68, 68); stroke-opacity: 1; fill: rgb(244, 67, 54); fill-opacity: 0.9;"/><text class="node-label" data-notex="1" x="0" y="0" text-anchor="start" transform="translate(21.25,24.206867746565262)" style="cursor: default; font-family: 'Open Sans', verdana, arial, sans-serif; font-size: 12px; fill: rgb(42, 63, 95); fill-opacity: 1; text-shadow: rgb(255, 255, 255) 1px 1px 1px, rgb(255, 255, 255) -1px -1px 1px, rgb(255, 255, 255) 1px -1px 1px, rgb(255, 255, 255) -1px 1px 1px; white-space: pre;">State ≥50%</text></g><g class="sankey-node" transform="translate(140.600,366.050)" style="opacity: 1;"><rect class="node-rect" width="18" height="26.30023875419306" style="stroke-width: 0.5; stroke: rgb(68, 68, 68); stroke-opacity: 1; fill: rgb(244, 67, 54); fill-opacity: 0.9;"/><text class="node-label" data-notex="1" x="0" y="0" text-anchor="start" transform="translate(21.25,17.35011937709653)" style="cursor: default; font-family: 'Open Sans', verdana, arial, sans-serif; font-size: 12px; fill: rgb(42, 63, 95); fill-opacity: 1; text-shadow: rgb(255, 255, 255) 1px 1px 1px, rgb(255, 255, 255) -1px -1px 1px, rgb(255, 255, 255) 1px -1px 1px, rgb(255, 255, 255) -1px 1px 1px; white-space: pre;">Exit</text></g><g class="sankey-node" transform="translate(237.400,22.884)" style="opacity: 1;"><rect class="node-rect" width="18" height="35.83116403505187" style="stroke-width: 0.5; stroke: rgb(68, 68, 68); stroke-opacity: 1; fill: rgb(63, 81, 181); fill-opacity: 0.9;"/><text class="node-label" data-notex="1" x="0" y="0" text-anchor="start" transform="translate(21.25,22.115582017525934)" style="cursor: default; font-family: 'Open Sans', verdana, arial, sans-serif; font-size: 12px; fill: rgb(42, 63, 95); fill-opacity: 1; text-shadow: rgb(255, 255, 255) 1px 1px 1px, rgb(255, 255, 255) -1px -1px 1px, rgb(255, 255, 255) 1px -1px 1px, rgb(255, 255, 255) -1px 1px 1px; white-space: pre;">State 0–10%</text></g><g class="sankey-node" transform="translate(237.400,78.665)" style="opacity: 1;"><rect class="node-rect" width="18" height="37.07000135403166" style="stroke-width: 0.5; stroke: rgb(68, 68, 68); stroke-opacity: 1; fill: rgb(0, 150, 136); fill-opacity: 0.9;"/><text class="node-label" data-notex="1" x="0" y="0" text-anchor="start" transform="translate(21.25,22.73500067701583)" style="cursor: default; font-family: 'Open Sans', verdana, arial, sans-serif; font-size: 12px; fill: rgb(42, 63, 95); fill-opacity: 1; text-shadow: rgb(255, 255, 255) 1px 1px 1px, rgb(255, 255, 255) -1px -1px 1px, rgb(255, 255, 255) 1px -1px 1px, rgb(255, 255, 255) -1px 1px 1px; white-space: pre;">State 10–20%</text></g><g class="sankey-node" transform="translate(237.400,134.165)" style="opacity: 1;"><rect class="node-rect" width="18" height="38.87076703236801" style="stroke-width: 0.5; stroke: rgb(68, 68, 68); stroke-opacity: 1; fill: rgb(255, 193, 7); fill-opacity: 0.9;"/><text class="node-label" data-notex="1" x="0" y="0" text-anchor="start" transform="translate(21.25,23.635383516184003)" style="cursor: default; font-family: 'Open Sans', verdana, arial, sans-serif; font-size: 12px; fill: rgb(42, 63, 95); fill-opacity: 1; text-shadow: rgb(255, 255, 255) 1px 1px 1px, rgb(255, 255, 255) -1px -1px 1px, rgb(255, 255, 255) 1px -1px 1px, rgb(255, 255, 255) -1px 1px 1px; white-space: pre;">State 20–50%</text></g><g class="sankey-node" transform="translate(237.400,188.395)" style="opacity: 1;"><rect class="node-rect" width="18" height="43.21090793285316" style="stroke-width: 0.5; stroke: rgb(68, 68, 68); stroke-opacity: 1; fill: rgb(244, 67, 54); fill-opacity: 0.9;"/><text class="node-label" data-notex="1" x="0" y="0" text-anchor="start" transform="translate(21.25,25.80545396642658)" style="cursor: default; font-family: 'Open Sans', verdana, arial, sans-serif; font-size: 12px; fill: rgb(42, 63, 95); fill-opacity: 1; text-shadow: rgb(255, 255, 255) 1px 1px 1px, rgb(255, 255, 255) -1px -1px 1px, rgb(255, 255, 255) 1px -1px 1px, rgb(255, 255, 255) -1px 1px 1px; white-space: pre;">State ≥50%</text></g><g class="sankey-node" transform="translate(237.400,251.262)" style="opacity: 1;"><rect class="node-rect" width="18" height="30.27699583369656" style="stroke-width: 0.5; stroke: rgb(68, 68, 68); stroke-opacity: 1; fill: rgb(244, 67, 54); fill-opacity: 0.9;"/><text class="node-label" data-notex="1" x="0" y="0" text-anchor="start" transform="translate(21.25,19.33849791684828)" style="cursor: default; font-family: 'Open Sans', verdana, arial, sans-serif; font-size: 12px; fill: rgb(42, 63, 95); fill-opacity: 1; text-shadow: rgb(255, 255, 255) 1px 1px 1px, rgb(255, 255, 255) -1px -1px 1px, rgb(255, 255, 255) 1px -1px 1px, rgb(255, 255, 255) -1px 1px 1px; white-space: pre;">Exit</text></g><g class="sankey-node" transform="translate(237.400,319.794)" style="opacity: 1;"><rect class="node-rect" width="18" height="6.012250456780976" style="stroke-width: 0.5; stroke: rgb(68, 68, 68); stroke-opacity: 1; fill: rgb(33, 150, 243); fill-opacity: 0.9;"/><text class="node-label" data-notex="1" x="0" y="0" text-anchor="start" transform="translate(21.25,7.206125228390487)" style="cursor: default; font-family: 'Open Sans', verdana, arial, sans-serif; font-size: 12px; fill: rgb(42, 63, 95); fill-opacity: 1; text-shadow: rgb(255, 255, 255) 1px 1px 1px, rgb(255, 255, 255) -1px -1px 1px, rgb(255, 255, 255) 1px -1px 1px, rgb(255, 255, 255) -1px 1px 1px; white-space: pre;">State 0%</text></g><g class="sankey-node" transform="translate(237.400,359.810)" style="opacity: 1;"><rect class="node-rect" width="18" height="38.78023644148618" style="stroke-width: 0.5; stroke: rgb(68, 68, 68); stroke-opacity: 1; fill: rgb(63, 81, 181); fill-opacity: 0.9;"/><text class="node-label" data-notex="1" x="0" y="0" text-anchor="start" transform="translate(21.25,23.59011822074309)" style="cursor: default; font-family: 'Open Sans', verdana, arial, sans-serif; font-size: 12px; fill: rgb(42, 63, 95); fill-opacity: 1; text-shadow: rgb(255, 255, 255) 1px 1px 1px, rgb(255, 255, 255) -1px -1px 1px, rgb(255, 255, 255) 1px -1px 1px, rgb(255, 255, 255) -1px 1px 1px; white-space: pre;">State 0–10%</text></g><g class="sankey-node" transform="translate(334.200,17.194)" style="opacity: 1;"><rect class="node-rect" width="18" height="47.211656350792175" style="stroke-width: 0.5; stroke: rgb(68, 68, 68); stroke-opacity: 1; fill: rgb(0, 150, 136); fill-opacity: 0.9;"/><text class="node-label" data-notex="1" x="0" y="0" text-anchor="start" transform="translate(21.25,27.805828175396087)" style="cursor: default; font-family: 'Open Sans', verdana, arial, sans-serif; font-size: 12px; fill: rgb(42, 63, 95); fill-opacity: 1; text-shadow: rgb(255, 255, 255) 1px 1px 1px, rgb(255, 255, 255) -1px -1px 1px, rgb(255, 255, 255) 1px -1px 1px, rgb(255, 255, 255) -1px 1px 1px; white-space: pre;">State 10–20%</text></g><g class="sankey-node" transform="translate(334.200,73.900)" style="opacity: 1;"><rect class="node-rect" width="18" height="46.599384181505" style="stroke-width: 0.5; stroke: rgb(68, 68, 68); stroke-opacity: 1; fill: rgb(255, 193, 7); fill-opacity: 0.9;"/><text class="node-label" data-notex="1" x="0" y="0" text-anchor="start" transform="translate(21.25,27.4996920907525)" style="cursor: default; font-family: 'Open Sans', verdana, arial, sans-serif; font-size: 12px; fill: rgb(42, 63, 95); fill-opacity: 1; text-shadow: rgb(255, 255, 255) 1px 1px 1px, rgb(255, 255, 255) -1px -1px 1px, rgb(255, 255, 255) 1px -1px 1px, rgb(255, 255, 255) -1px 1px 1px; white-space: pre;">State 20–50%</text></g><g class="sankey-node" transform="translate(334.200,133.314)" style="opacity: 1;"><rect class="node-rect" width="18" height="40.57205532709645" style="stroke-width: 0.5; stroke: rgb(68, 68, 68); stroke-opacity: 1; fill: rgb(244, 67, 54); fill-opacity: 0.9;"/><text class="node-label" data-notex="1" x="0" y="0" text-anchor="start" transform="translate(21.25,24.486027663548224)" style="cursor: default; font-family: 'Open Sans', verdana, arial, sans-serif; font-size: 12px; fill: rgb(42, 63, 95); fill-opacity: 1; text-shadow: rgb(255, 255, 255) 1px 1px 1px, rgb(255, 255, 255) -1px -1px 1px, rgb(255, 255, 255) 1px -1px 1px, rgb(255, 255, 255) -1px 1px 1px; white-space: pre;">State ≥50%</text></g><g class="sankey-node" transform="translate(334.200,196.302)" style="opacity: 1;"><rect class="node-rect" width="18" height="27.39548861254582" style="stroke-width: 0.5; stroke: rgb(68, 68, 68); stroke-opacity: 1; fill: rgb(244, 67, 54); fill-opacity: 0.9;"/><text class="node-label" data-notex="1" x="0" y="0" text-anchor="start" transform="translate(21.25,17.89774430627291)" style="cursor: default; font-family: 'Open Sans', verdana, arial, sans-serif; font-size: 12px; fill: rgb(42, 63, 95); fill-opacity: 1; text-shadow: rgb(255, 255, 255) 1px 1px 1px, rgb(255, 255, 255) -1px -1px 1px, rgb(255, 255, 255) 1px -1px 1px, rgb(255, 255, 255) -1px 1px 1px; white-space: pre;">Exit</text></g><g class="sankey-node" transform="translate(334.200,259.727)" style="opacity: 1;"><rect class="node-rect" width="18" height="13.346663537616337" style="stroke-width: 0.5; stroke: rgb(68, 68, 68); stroke-opacity: 1; fill: rgb(33, 150, 243); fill-opacity: 0.9;"/><text class="node-label" data-notex="1" x="0" y="0" text-anchor="start" transform="translate(21.25,10.873331768808168)" style="cursor: default; font-family: 'Open Sans', verdana, arial, sans-serif; font-size: 12px; fill: rgb(42, 63, 95); fill-opacity: 1; text-shadow: rgb(255, 255, 255) 1px 1px 1px, rgb(255, 255, 255) -1px -1px 1px, rgb(255, 255, 255) 1px -1px 1px, rgb(255, 255, 255) -1px 1px 1px; white-space: pre;">State 0%</text></g><g class="sankey-node" transform="translate(334.200,304.974)" style="opacity: 1;"><rect class="node-rect" width="18" height="35.65140179923651" style="stroke-width: 0.5; stroke: rgb(68, 68, 68); stroke-opacity: 1; fill: rgb(63, 81, 181); fill-opacity: 0.9;"/><text class="node-label" data-notex="1" x="0" y="0" text-anchor="start" transform="translate(21.25,22.025700899618254)" style="cursor: default; font-family: 'Open Sans', verdana, arial, sans-serif; font-size: 12px; fill: rgb(42, 63, 95); fill-opacity: 1; text-shadow: rgb(255, 255, 255) 1px 1px 1px, rgb(255, 255, 255) -1px -1px 1px, rgb(255, 255, 255) 1px -1px 1px, rgb(255, 255, 255) -1px 1px 1px; white-space: pre;">State 0–10%</text></g><g class="sankey-node" transform="translate(334.200,366.201)" style="opacity: 1;"><rect class="node-rect" width="18" height="25.998412429007317" style="stroke-width: 0.5; stroke: rgb(68, 68, 68); stroke-opacity: 1; fill: rgb(0, 150, 136); fill-opacity: 0.9;"/><text class="node-label" data-notex="1" x="0" y="0" text-anchor="start" transform="translate(21.25,17.199206214503658)" style="cursor: default; font-family: 'Open Sans', verdana, arial, sans-serif; font-size: 12px; fill: rgb(42, 63, 95); fill-opacity: 1; text-shadow: rgb(255, 255, 255) 1px 1px 1px, rgb(255, 255, 255) -1px -1px 1px, rgb(255, 255, 255) 1px -1px 1px, rgb(255, 255, 255) -1px 1px 1px; white-space: pre;">State 10–20%</text></g><g class="sankey-node" transform="translate(431.000,21.323)" style="opacity: 1;"><rect class="node-rect" width="18" height="38.95458775449728" style="stroke-width: 0.5; stroke: rgb(68, 68, 68); stroke-opacity: 1; fill: rgb(255, 193, 7); fill-opacity: 0.9;"/><text class="node-label" data-notex="1" x="0" y="0" text-anchor="end" transform="translate(-3.25,23.67729387724864)" style="cursor: default; font-family: 'Open Sans', verdana, arial, sans-serif; font-size: 12px; fill: rgb(42, 63, 95); fill-opacity: 1; text-shadow: rgb(255, 255, 255) 1px 1px 1px, rgb(255, 255, 255) -1px -1px 1px, rgb(255, 255, 255) 1px -1px 1px, rgb(255, 255, 255) -1px 1px 1px; white-space: pre;">State 20–50%</text></g><g class="sankey-node" transform="translate(431.000,79.575)" style="opacity: 1;"><rect class="node-rect" width="18" height="35.24916506540785" style="stroke-width: 0.5; stroke: rgb(68, 68, 68); stroke-opacity: 1; fill: rgb(244, 67, 54); fill-opacity: 0.9;"/><text class="node-label" data-notex="1" x="0" y="0" text-anchor="end" transform="translate(-3.25,21.824582532703925)" style="cursor: default; font-family: 'Open Sans', verdana, arial, sans-serif; font-size: 12px; fill: rgb(42, 63, 95); fill-opacity: 1; text-shadow: rgb(255, 255, 255) 1px 1px 1px, rgb(255, 255, 255) -1px -1px 1px, rgb(255, 255, 255) 1px -1px 1px, rgb(255, 255, 255) -1px 1px 1px; white-space: pre;">State ≥50%</text></g><g class="sankey-node" transform="translate(431.000,363.178)" style="opacity: 1;"><rect class="node-rect" width="18" height="29.719925530831915" style="stroke-width: 0.5; stroke: rgb(68, 68, 68); stroke-opacity: 1; fill: rgb(244, 67, 54); fill-opacity: 0.9;"/><text class="node-label" data-notex="1" x="0" y="0" text-anchor="end" transform="translate(-3.25,19.059962765415957)" style="cursor: default; font-family: 'Open Sans', verdana, arial, sans-serif; font-size: 12px; fill: rgb(42, 63, 95); fill-opacity: 1; text-shadow: rgb(255, 255, 255) 1px 1px 1px, rgb(255, 255, 255) -1px -1px 1px, rgb(255, 255, 255) 1px -1px 1px, rgb(255, 255, 255) -1px 1px 1px; white-space: pre;">Exit</text></g></g></g><defs id="topdefs-0c54b5"><g class="clips"/></defs><g class="layer-above"><g class="imagelayer"/><g class="shapelayer"/></g><g class="infolayer"><g class="g-gtitle"><text class="gtitle" x="35" y="30" text-anchor="start" dy="0em" style="opacity: 1; font-family: 'Open Sans', verdana, arial, sans-serif; font-size: 17px; fill: rgb(42, 63, 95); fill-opacity: 1; white-space: pre;">Sankey — size=state_equity_pct, thickness=total_assets, buckets=state (MA=24M)</text></g><g class="first-render"/><g class="annotation" data-index="0" style="opacity: 1;"><g class="annotation-text-g" transform="rotate(0,72.80000000000001,56.80000000000001)"><g class="cursor-pointer" transform="translate(55,47)"><rect class="bg" x="0.5" y="0.5" width="34" height="18" style="stroke-width: 1px; stroke: rgb(0, 0, 0); stroke-opacity: 0; fill: rgb(0, 0, 0); fill-opacity: 0;"/><text class="annotation-text" text-anchor="middle" x="17.2578125" y="14" style="font-family: 'Open Sans', verdana, arial, sans-serif; font-size: 12px; fill: rgb(42, 63, 95); fill-opacity: 1; white-space: pre;">2004</text></g></g></g><g class="annotation" data-index="1" style="opacity: 1;"><g class="annotation-text-g" transform="rotate(0,169.60000000000002,56.80000000000001)"><g class="cursor-pointer" transform="translate(152,47)"><rect class="bg" x="0.5" y="0.5" width="34" height="18" style="stroke-width: 1px; stroke: rgb(0, 0, 0); stroke-opacity: 0; fill: rgb(0, 0, 0); fill-opacity: 0;"/><text class="annotation-text" text-anchor="middle" x="17.2578125" y="14" style="font-family: 'Open Sans', verdana, arial, sans-serif; font-size: 12px; fill: rgb(42, 63, 95); fill-opacity: 1; white-space: pre;">2007</text></g></g></g><g class="annotation" data-index="2" style="opacity: 1;"><g class="annotation-text-g" transform="rotate(0,266.4,56.80000000000001)"><g class="cursor-pointer" transform="translate(249,47)"><rect class="bg" x="0.5" y="0.5" width="34" height="18" style="stroke-width: 1px; stroke: rgb(0, 0, 0); stroke-opacity: 0; fill: rgb(0, 0, 0); fill-opacity: 0;"/><text class="annotation-text" text-anchor="middle" x="17.2578125" y="14" style="font-family: 'Open Sans', verdana, arial, sans-serif; font-size: 12px; fill: rgb(42, 63, 95); fill-opacity: 1; white-space: pre;">2010</text></g></g></g><g class="annotation" data-index="3" style="opacity: 1;"><g class="annotation-text-g" transform="rotate(0,363.2,56.80000000000001)"><g class="cursor-pointer" transform="translate(346,47)"><rect class="bg" x="0.5" y="0.5" width="34" height="18" style="stroke-width: 1px; stroke: rgb(0, 0, 0); stroke-opacity: 0; fill: rgb(0, 0, 0); fill-opacity: 0;"/><text class="annotation-text" text-anchor="middle" x="17.2578125" y="14" style="font-family: 'Open Sans', verdana, arial, sans-serif; font-size: 12px; fill: rgb(42, 63, 95); fill-opacity: 1; white-space: pre;">2013</text></g></g></g><g class="annotation" data-index="4" style="opacity: 1;"><g class="annotation-text-g" transform="rotate(0,460,56.80000000000001)"><g class="cursor-pointer" transform="translate(443,47)"><rect class="bg" x="0.5" y="0.5" width="34" height="18" style="stroke-width: 1px; stroke: rgb(0, 0, 0); stroke-opacity: 0; fill: rgb(0, 0, 0); fill-opacity: 0;"/><text class="annotation-text" text-anchor="middle" x="17.2578125" y="14" style="font-family: 'Open Sans', verdana, arial, sans-serif; font-size: 12px; fill: rgb(42, 63, 95); fill-opacity: 1; white-space: pre;">2016</text></g></g></g><g class="annotation" data-index="5" style="opacity: 1;"><g class="annotation-text-g" transform="rotate(0,556.8000000000001,56.80000000000001)"><g class="cursor-pointer" transform="translate(539,47)"><rect class="bg" x="0.5" y="0.5" width="34" height="18" style="stroke-width: 1px; stroke: rgb(0, 0, 0); stroke-opacity: 0; fill: rgb(0, 0, 0); fill-opacity: 0;"/><text class="annotation-text" text-anchor="middle" x="17.2578125" y="14" style="font-family: 'Open Sans', verdana, arial, sans-serif; font-size: 12px; fill: rgb(42, 63, 95); fill-opacity: 1; white-space: pre;">2019</text></g></g></g><g class="annotation" data-index="6" style="opacity: 1;"><g class="annotation-text-g" transform="rotate(0,653.6,56.80000000000001)"><g class="cursor-pointer" transform="translate(636,47)"><rect class="bg" x="0.5" y="0.5" width="34" height="18" style="stroke-width: 1px; stroke: rgb(0, 0, 0); stroke-opacity: 0; fill: rgb(0, 0, 0); fill-opacity: 0;"/><text class="annotation-text" text-anchor="middle" x="17.2578125" y="14" style="font-family: 'Open Sans', verdana, arial, sans-serif; font-size: 12px; fill: rgb(42, 63, 95); fill-opacity: 1; white-space: pre;">2021</text></g></g></g></g></svg>