<svg class="main-svg" xmlns="http://www.w3.org/2000/svg" xmlns:xlink="http://www.w3.org/1999/xlink" width="700" height="500" style="" viewBox="0 0 700 500"><rect x="0" y="0" width="700" height="500" style="fill: rgb(255, 255, 255); fill-opacity: 1;"/><defs id="defs-144d51"><g class="clips"/><g class="gradients"/><g class="patterns"/></defs><g class="bglayer"/><g class="layer-below"><g class="imagelayer"/><g class="shapelayer"/></g><g class="cartesianlayer"/><g class="polarlayer"/><g class="smithlayer"/><g class="ternarylayer"/><g class="geolayer"/><g class="funnelarealayer"/><g class="pielayer"/><g class="iciclelayer"/><g class="treemaplayer"/><g class="sunburstlayer"/><g class="glimages"/><g class="sankey" transform="translate(20,60)matrix(1 0 0 1 0 0)" style="box-sizing: content-box; position: absolute; left: 0px; shape-rendering: geometricprecision; pointer-events: none;"><g class="sankey-links" style="fill: none;"><path class="sankey-link" d="M255.4,49.88763087399472C246.4,49.88763087399472 246.4,359.8098817792569 237.4,359.8098817792569L237.4,368.6378329227882C246.4,368.6378329227882 246.4,58.715582017526 255.4,58.715582017526Z" style="stroke: rgb(68, 68, 68); stroke-opacity: 1; fill: rgb(76, 175, 80); fill-opacity: 0.5; stroke-width: 0; opacity: 1;"/><path class="sankey-link" d="M255.4,86.9884266925571C294.8,86.9884266925571 294.8,82.35682238538193 334.2,82.35682238538193L334.2,91.42326419806257C294.8,91.42326419806257 294.8,96.05486850523774 255.4,96.05486850523774Z" style="stroke: rgb(68, 68, 68); stroke-opacity: 1; fill: rgb(76, 175, 80); fill-opacity: 0.5; stroke-width: 0; opacity: 1;"/><path class="sankey-link" d="M158.60000000000002,331.2770144479237C198,331.2770144479237 198,270.00864461820646 237.4,270.00864461820646L237.4,281.53849791684837C198,281.53849791684837 198,342.8068677465656 158.60000000000002,342.8068677465656Z" style="stroke: rgb(68, 68, 68); stroke-opacity: 1; fill: rgb(244, 67, 54); fill-opacity: 0.55; stroke-width: 0; opacity: 1;"/><path class="sankey-link" d="M158.60000000000002,302.79313225343475C198,302.79313225343475 198,39.841206200032715 237.4,39.841206200032715L237.4,44.70167121448125C198,44.70167121448125 198,307.6535972678833 158.60000000000002,307.6535972678833Z" style="stroke: rgb(68, 68, 68); stroke-opacity: 1; fill: rgb(76, 175, 80); fill-opacity: 0.5; stroke-width: 0; opacity: 1;"/><path class="sankey-link" d="M352.2,110.58046278077887C343.2,110.58046278077887 343.2,375.8061478094071 334.2,375.8061478094071L334.2,385.7253771193805C343.2,385.7253771193805 343.2,120.49969209075229 352.2,120.49969209075229Z" style="stroke: rgb(68, 68, 68); stroke-opacity: 1; fill: rgb(76, 175, 80); fill-opacity: 0.5; stroke-width: 0; opacity: 1;"/><path class="sankey-link" d="M255.4,158.95621981237C294.8,158.95621981237 294.8,209.24600783697795 334.2,209.24600783697795L334.2,216.64023985861272C294.8,216.64023985861272 294.8,166.35045183400476 255.4,166.35045183400476Z" style="stroke: rgb(68, 68, 68); stroke-opacity: 1; fill: rgb(244, 67, 54); fill-opacity: 0.55; stroke-width: 0; opacity: 1;"/><path class="sankey-link" d="M255.4,22.88441798247429C294.8,22.88441798247429 294.8,17.1941718246038 334.2,17.1941718246038L334.2,24.8776212637867C294.8,24.8776212637867 294.8,30.56786742165719 255.4,30.56786742165719Z" style="stroke: rgb(68, 68, 68); stroke-opacity: 1; fill: rgb(76, 175, 80); fill-opacity: 0.5; stroke-width: 0; opacity: 1;"/><path class="sankey-link" d="M61.800000000000004,88.28916007572623C101.20000000000002,88.28916007572623 101.20000000000002,90.89938944101843 140.60000000000002,90.89938944101843L140.60000000000002,96.28541278484516C101.20000000000002,96.28541278484516 101.20000000000002,93.67518341955297 61.800000000000004,93.67518341955297Z" style="stroke: rgb(68, 68, 68); stroke-opacity: 1; fill: rgb(244, 67, 54); fill-opacity: 0.55; stroke-width: 0; opacity: 1;"/><path class="sankey-link" d="M158.60000000000002,159.74722657689955C198,159.74722657689955 198,188.3945460335736 237.4,188.3945460335736L237.4,193.3052842878867C198,193.3052842878867 198,164.65796483121267 158.60000000000002,164.65796483121267Z" style="stroke: rgb(68, 68, 68); stroke-opacity: 1; fill: rgb(76, 175, 80); fill-opacity: 0.5; stroke-width: 0; opacity: 1;"/><path class="sankey-link" d="M61.800000000000004,83.40672943565396C101.20000000000002,83.40672943565396 101.20000000000002,29.598412849552478 140.60000000000002,29.598412849552478L140.60000000000002,34.480843489624746C101.20000000000002,34.480843489624746 101.20000000000002,88.28916007572623 61.800000000000004,88.28916007572623Z" style="stroke: rgb(68, 68, 68); stroke-opacity: 1; fill: rgb(76, 175, 80); fill-opacity: 0.5; stroke-width: 0; opacity: 1;"/><path class="sankey-link" d="M255.4,96.05486850523775C294.8,96.05486850523775 294.8,138.0227721804792 334.2,138.0227721804792L334.2,143.93380271953237C294.8,143.93380271953237 294.8,101.9658990442909 255.4,101.9658990442909Z" style="stroke: rgb(68, 68, 68); stroke-opacity: 1; fill: rgb(76, 175, 80); fill-opacity: 0.5; stroke-width: 0; opacity: 1;"/><path class="sankey-link" d="M352.2,54.80047415148535C343.2,54.80047415148535 343.2,366.20079378549644 334.2,366.20079378549644L334.2,375.8061478094071C343.2,375.8061478094071 343.2,64.40582817539607 352.2,64.40582817539607Z" style="stroke: rgb(68, 68, 68); stroke-opacity: 1; fill: rgb(76, 175, 80); fill-opacity: 0.5; stroke-width: 0; opacity: 1;"/><path class="sankey-link" d="M255.4,382.7057370459917C294.8,382.7057370459917 294.8,331.21514881999 334.2,331.21514881999L334.2,340.62570089961827C294.8,340.62570089961827 294.8,392.11628912561997 255.4,392.11628912561997Z" style="stroke: rgb(68, 68, 68); stroke-opacity: 1; fill: rgb(76, 175, 80); fill-opacity: 0.5; stroke-width: 0; opacity: 1;"/><path class="sankey-link" d="M255.4,39.0243818977914C294.8,39.0243818977914 294.8,133.31397233645183 334.2,133.31397233645183L334.2,138.02277218047922C294.8,138.02277218047922 294.8,43.73318174181877 255.4,43.73318174181877Z" style="stroke: rgb(68, 68, 68); stroke-opacity: 1; fill: rgb(76, 175, 80); fill-opacity: 0.5; stroke-width: 0; opacity: 1;"/><path class="sankey-link" d="M158.60000000000002,321.68986355122104C198,321.68986355122104 198,206.09441188259171 237.4,206.09441188259171L237.4,215.68156277929438C198,215.68156277929438 198,331.27701444792376 158.60000000000002,331.27701444792376Z" style="stroke: rgb(68, 68, 68); stroke-opacity: 1; fill: rgb(76, 175, 80); fill-opacity: 0.5; stroke-width: 0; opacity: 1;"/><path class="sankey-link" d="M255.4,319.79387477160964C294.8,319.79387477160964 294.8,325.45832500427196 334.2,325.45832500427196L334.2,331.21514881998996C294.8,331.21514881998996 294.8,325.55069858732764 255.4,325.55069858732764Z" style="stroke: rgb(68, 68, 68); stroke-opacity: 1; fill: rgb(76, 175, 80); fill-opacity: 0.5; stroke-width: 0; opacity: 1;"/><path class="sankey-link" d="M61.800000000000004,333.7994661326639C101.20000000000002,333.7994661326639 101.20000000000002,379.39582774289886 140.60000000000002,379.39582774289886L140.60000000000002,385.25494530967444C101.20000000000002,385.25494530967444 101.20000000000002,339.6585836994395 61.800000000000004,339.6585836994395Z" style="stroke: rgb(68, 68, 68); stroke-opacity: 1; fill: rgb(244, 67, 54); fill-opacity: 0.55; stroke-width: 0; opacity: 1;"/><path class="sankey-link" d="M255.4,202.27941858675263C294.8,202.27941858675263 294.8,151.25197652481614 334.2,151.25197652481614L334.2,161.0207777689015C294.8,161.0207777689015 294.8,212.04821983083798 255.4,212.04821983083798Z" style="stroke: rgb(68, 68, 68); stroke-opacity: 1; fill: rgb(76, 175, 80); fill-opacity: 0.5; stroke-width: 0; opacity: 1;"/><path class="sankey-link" d="M255.4,134.16461648381588C294.8,134.16461648381588 294.8,33.20104863335975 334.2,33.20104863335975L334.2,42.298121185364025C294.8,42.298121185364025 294.8,143.26168903582013 255.4,143.26168903582013Z" style="stroke: rgb(68, 68, 68); stroke-opacity: 1; fill: rgb(76, 175, 80); fill-opacity: 0.5; stroke-width: 0; opacity: 1;"/><path class="sankey-link" d="M61.800000000000004,106.30243264632115C52.800000000000004,106.30243264632115 52.800000000000004,366.1547844628477 43.800000000000004,366.1547844628477L43.800000000000004,370.84562238087256C52.800000000000004,370.84562238087256 52.800000000000004,110.99327056434599 61.800000000000004,110.99327056434599Z" style="stroke: rgb(68, 68, 68); stroke-opacity: 1; fill: rgb(76, 175, 80); fill-opacity: 0.5; stroke-width: 0; opacity: 1;"/><path class="sankey-link" d="M352.2,167.0233058690631C343.2,167.0233058690631 343.2,318.5956032097868 334.2,318.5956032097868L334.2,325.4583250042719C343.2,325.4583250042719 343.2,173.88602766354825 352.2,173.88602766354825Z" style="stroke: rgb(68, 68, 68); stroke-opacity: 1; fill: rgb(76, 175, 80); fill-opacity: 0.5; stroke-width: 0; opacity: 1;"/><path class="sankey-link" d="M352.2,161.41720099054072C343.2,161.41720099054072 343.2,267.4672268902859 334.2,267.4672268902859L334.2,273.07333176880826C343.2,273.07333176880826 343.2,167.0233058690631 352.2,167.0233058690631Z" style="stroke: rgb(68, 68, 68); stroke-opacity: 1; fill: rgb(76, 175, 80); fill-opacity: 0.5; stroke-width: 0; opacity: 1;"/><path class="sankey-link" d="M352.2,33.09445300649659C391.6,33.09445300649659 391.6,138.74003723458384 431,138.74003723458384L431,145.09022043957498C391.6,145.09022043957498 391.6,39.444636211487705 352.2,39.444636211487705Z" style="stroke: rgb(68, 68, 68); stroke-opacity: 1; fill: rgb(244, 67, 54); fill-opacity: 0.55; stroke-width: 0; opacity: 1;"/><path class="sankey-link" d="M158.60000000000002,22.55378572779314C149.60000000000002,22.55378572779314 149.60000000000002,136.13247578638536 140.60000000000002,136.13247578638536L140.60000000000002,141.92027433789937C149.60000000000002,141.92027433789937 149.60000000000002,28.34158427930717 158.60000000000002,28.34158427930717Z" style="stroke: rgb(68, 68, 68); stroke-opacity: 1; fill: rgb(76, 175, 80); fill-opacity: 0.5; stroke-width: 0; opacity: 1;"/><path class="sankey-link" d="M352.2,17.1941718246038C391.6,17.1941718246038 391.6,21.32270612275127 431,21.32270612275127L431,29.713592597769356C391.6,29.713592597769356 391.6,25.585058299621885 352.2,25.585058299621885Z" style="stroke: rgb(68, 68, 68); stroke-opacity: 1; fill: rgb(76, 175, 80); fill-opacity: 0.5; stroke-width: 0; opacity: 1;"/><path class="sankey-link" d="M255.4,194.26948338562485C294.8,194.26948338562485 294.8,99.79962116932862 334.2,99.79962116932862L334.2,107.80955637045642C294.8,107.80955637045642 294.8,202.27941858675266 255.4,202.27941858675266Z" style="stroke: rgb(68, 68, 68); stroke-opacity: 1; fill: rgb(76, 175, 80); fill-opacity: 0.5; stroke-width: 0; opacity: 1;"/><path class="sankey-link" d="M158.60000000000002,267.8322710736085C198,267.8322710736085 198,199.60095194617796 237.4,199.60095194617796L237.4,206.0944118825917C198,206.0944118825917 198,274.32573101002225 158.60000000000002,274.32573101002225Z" style="stroke: rgb(68, 68, 68); stroke-opacity: 1; fill: rgb(76, 175, 80); fill-opacity: 0.5; stroke-width: 0; opacity: 1;"/><path class="sankey-link" d="M158.60000000000002,28.341584279307167C149.60000000000002,28.341584279307167 149.60000000000002,192.2783154730181 140.60000000000002,192.2783154730181L140.60000000000002,199.7969623943983C149.60000000000002,199.7969623943983 149.60000000000002,35.86023120068735 158.60000000000002,35.86023120068735Z" style="stroke: rgb(68, 68, 68); stroke-opacity: 1; fill: rgb(76, 175, 80); fill-opacity: 0.5; stroke-width: 0; opacity: 1;"/><path class="sankey-link" d="M61.800000000000004,219.1245484834504C52.800000000000004,219.1245484834504 52.800000000000004,378.0230875213845 43.800000000000004,378.0230875213845L43.800000000000004,384.9823043934803C52.800000000000004,384.9823043934803 52.800000000000004,226.0837653555462 61.800000000000004,226.0837653555462Z" style="stroke: rgb(68, 68, 68); stroke-opacity: 1; fill: rgb(76, 175, 80); fill-opacity: 0.5; stroke-width: 0; opacity: 1;"/><path class="sankey-link" d="M158.60000000000002,260.2332104903977C198,260.2332104903977 198,146.75003602325432 237.4,146.75003602325432L237.4,154.34909660646514C198,154.34909660646514 198,267.8322710736086 158.60000000000002,267.8322710736086Z" style="stroke: rgb(68, 68, 68); stroke-opacity: 1; fill: rgb(76, 175, 80); fill-opacity: 0.5; stroke-width: 0; opacity: 1;"/><path class="sankey-link" d="M255.4,392.11628912561997C294.8,392.11628912561997 294.8,385.7253771193805 334.2,385.7253771193805L334.2,392.19920621450365C294.8,392.19920621450365 294.8,398.59011822074314 255.4,398.59011822074314Z" style="stroke: rgb(68, 68, 68); stroke-opacity: 1; fill: rgb(76, 175, 80); fill-opacity: 0.5; stroke-width: 0; opacity: 1;"/><path class="sankey-link" d="M352.2,47.185194870581746C343.2,47.185194870581746 343.2,304.9742991003817 334.2,304.9742991003817L334.2,312.58957838128526C343.2,312.58957838128526 343.2,54.80047415148535 352.2,54.80047415148535Z" style="stroke: rgb(68, 68, 68); stroke-opacity: 1; fill: rgb(76, 175, 80); fill-opacity: 0.5; stroke-width: 0; opacity: 1;"/><path class="sankey-link" d="M61.800000000000004,383.96803756033654C101.20000000000002,383.96803756033654 101.20000000000002,325.3735589770497 140.60000000000002,325.3735589770497L140.60000000000002,331.679804653377C101.20000000000002,331.679804653377 101.20000000000002,390.27428323666385 61.800000000000004,390.27428323666385Z" style="stroke: rgb(68, 68, 68); stroke-opacity: 1; fill: rgb(76, 175, 80); fill-opacity: 0.5; stroke-width: 0; opacity: 1;"/><path class="sankey-link" d="M61.800000000000004,212.75965877591642C52.800000000000004,212.75965877591642 52.800000000000004,325.08147245429467 43.800000000000004,325.08147245429467L43.800000000000004,331.44636216182863C52.800000000000004,331.44636216182863 52.800000000000004,219.12454848345038 61.800000000000004,219.12454848345038Z" style="stroke: rgb(68, 68, 68); stroke-opacity: 1; fill: rgb(76, 175, 80); fill-opacity: 0.5; stroke-width: 0; opacity: 1;"/><path class="sankey-link" d="M61.800000000000004,390.27428323666385C101.20000000000002,390.27428323666385 101.20000000000002,385.25494530967444 140.60000000000002,385.25494530967444L140.60000000000002,392.3501193770969C101.20000000000002,392.3501193770969 101.20000000000002,397.3694573040863 61.800000000000004,397.3694573040863Z" style="stroke: rgb(68, 68, 68); stroke-opacity: 1; fill: rgb(244, 67, 54); fill-opacity: 0.55; stroke-width: 0; opacity: 1;"/><path class="sankey-link" d="M61.800000000000004,43.824440563173475C52.800000000000004,43.824440563173475 52.800000000000004,305.9414163005607 43.800000000000004,305.9414163005607L43.800000000000004,313.0745432271942C52.800000000000004,313.0745432271942 52.800000000000004,50.957567489807 61.800000000000004,50.957567489807Z" style="stroke: rgb(68, 68, 68); stroke-opacity: 1; fill: rgb(76, 175, 80); fill-opacity: 0.5; stroke-width: 0; opacity: 1;"/><path class="sankey-link" d="M61.800000000000004,144.12712489787512C101.20000000000002,144.12712489787512 101.20000000000002,96.28541278484515 140.60000000000002,96.28541278484515L140.60000000000002,102.27571145017207C101.20000000000002,102.27571145017207 101.20000000000002,150.11742356320204 61.800000000000004,150.11742356320204Z" style="stroke: rgb(68, 68, 68); stroke-opacity: 1; fill: rgb(244, 67, 54); fill-opacity: 0.55; stroke-width: 0; opacity: 1;"/><path class="sankey-link" d="M61.800000000000004,203.50054973300195C101.20000000000002,203.50054973300195 101.20000000000002,102.27571145017207 140.60000000000002,102.27571145017207L140.60000000000002,108.25356034148352C101.20000000000002,108.25356034148352 101.20000000000002,209.4783986243134 61.800000000000004,209.4783986243134Z" style="stroke: rgb(68, 68, 68); stroke-opacity: 1; fill: rgb(244, 67, 54); fill-opacity: 0.55; stroke-width: 0; opacity: 1;"/><path class="sankey-link" d="M158.60000000000002,208.8146183043583C198,208.8146183043583 198,140.1094569890446 237.4,140.1094569890446L237.4,146.75003602325432C198,146.75003602325432 198,215.45519733856804 158.60000000000002,215.45519733856804Z" style="stroke: rgb(68, 68, 68); stroke-opacity: 1; fill: rgb(76, 175, 80); fill-opacity: 0.5; stroke-width: 0; opacity: 1;"/><path class="sankey-link" d="M158.60000000000002,52.82448296449674C149.60000000000002,52.82448296449674 149.60000000000002,366.04988062290374 140.60000000000002,366.04988062290374L140.60000000000002,372.271611930614C149.60000000000002,372.271611930614 149.60000000000002,59.04621427220697 158.60000000000002,59.04621427220697Z" style="stroke: rgb(68, 68, 68); stroke-opacity: 1; fill: rgb(244, 67, 54); fill-opacity: 0.55; stroke-width: 0; opacity: 1;"/><path class="sankey-link" d="M255.4,108.7552020553661C246.4,108.7552020553661 246.4,368.63783292278816 237.4,368.63783292278816L237.4,375.61763154443776C246.4,375.61763154443776 246.4,115.73500067701572 255.4,115.73500067701572Z" style="stroke: rgb(68, 68, 68); stroke-opacity: 1; fill: rgb(76, 175, 80); fill-opacity: 0.5; stroke-width: 0; opacity: 1;"/><path class="sankey-link" d="M61.800000000000004,161.8981139667335C52.800000000000004,161.8981139667335 52.800000000000004,370.84562238087256 43.800000000000004,370.84562238087256L43.800000000000004,378.0230875213846C52.800000000000004,378.0230875213846 52.800000000000004,169.07557910724546 61.800000000000004,169.07557910724546Z" style="stroke: rgb(68, 68, 68); stroke-opacity: 1; fill: rgb(76, 175, 80); fill-opacity: 0.5; stroke-width: 0; opacity: 1;"/><path class="sankey-link" d="M255.4,212.04821983083798C294.8,212.04821983083798 294.8,216.64023985861272 334.2,216.64023985861272L334.2,223.6977443062726C294.8,223.6977443062726 294.8,219.10572427849786 255.4,219.10572427849786Z" style="stroke: rgb(68, 68, 68); stroke-opacity: 1; fill: rgb(244, 67, 54); fill-opacity: 0.55; stroke-width: 0; opacity: 1;"/><path class="sankey-link" d="M352.2,97.06691834363787C391.6,97.06691834363787 391.6,145.09022043957495 431,145.09022043957495L431,152.59774004821443C391.6,152.59774004821443 391.6,104.57443795227738 352.2,104.57443795227738Z" style="stroke: rgb(68, 68, 68); stroke-opacity: 1; fill: rgb(244, 67, 54); fill-opacity: 0.55; stroke-width: 0; opacity: 1;"/><path class="sankey-link" d="M61.800000000000004,257.7279392658016C101.20000000000002,257.7279392658016 101.20000000000002,199.7969623943983 140.60000000000002,199.7969623943983L140.60000000000002,204.50134031404951C101.20000000000002,204.50134031404951 101.20000000000002,262.43231718545275 61.800000000000004,262.43231718545275Z" style="stroke: rgb(68, 68, 68); stroke-opacity: 1; fill: rgb(76, 175, 80); fill-opacity: 0.5; stroke-width: 0; opacity: 1;"/><path class="sankey-link" d="M61.800000000000004,368.9160971477892C101.20000000000002,368.9160971477892 101.20000000000002,212.15401025086942 140.60000000000002,212.15401025086942L140.60000000000002,219.63223599195487C101.20000000000002,219.63223599195487 101.20000000000002,376.3943228888746 61.800000000000004,376.3943228888746Z" style="stroke: rgb(68, 68, 68); stroke-opacity: 1; fill: rgb(76, 175, 80); fill-opacity: 0.5; stroke-width: 0; opacity: 1;"/><path class="sankey-link" d="M352.2,39.444636211487705C343.2,39.444636211487705 343.2,259.7266682311918 334.2,259.7266682311918L334.2,267.4672268902859C343.2,267.4672268902859 343.2,47.18519487058175 352.2,47.18519487058175Z" style="stroke: rgb(68, 68, 68); stroke-opacity: 1; fill: rgb(76, 175, 80); fill-opacity: 0.5; stroke-width: 0; opacity: 1;"/><path class="sankey-link" d="M61.800000000000004,314.7417763369779C101.20000000000002,314.7417763369779 101.20000000000002,204.5013403140495 140.60000000000002,204.5013403140495L140.60000000000002,212.1540102508694C101.20000000000002,212.1540102508694 101.20000000000002,322.3944462737979 61.800000000000004,322.3944462737979Z" style="stroke: rgb(68, 68, 68); stroke-opacity: 1; fill: rgb(76, 175, 80); fill-opacity: 0.5; stroke-width: 0; opacity: 1;"/><path class="sankey-link" d="M61.800000000000004,327.90815036273955C101.20000000000002,327.90815036273955 101.20000000000002,319.48224320712535 140.60000000000002,319.48224320712535L140.60000000000002,325.37355897704964C101.20000000000002,325.37355897704964 101.20000000000002,333.79946613266384 61.800000000000004,333.79946613266384Z" style="stroke: rgb(68, 68, 68); stroke-opacity: 1; fill: rgb(76, 175, 80); fill-opacity: 0.5; stroke-width: 0; opacity: 1;"/><path class="sankey-link" d="M61.800000000000004,262.4323171854528C101.20000000000002,262.4323171854528 101.20000000000002,259.2739245397084 140.60000000000002,259.2739245397084L140.60000000000002,264.66741127207075C101.20000000000002,264.66741127207075 101.20000000000002,267.82580391781516 61.800000000000004,267.82580391781516Z" style="stroke: rgb(68, 68, 68); stroke-opacity: 1; fill: rgb(76, 175, 80); fill-opacity: 0.5; stroke-width: 0; opacity: 1;"/><path class="sankey-link" d="M158.60000000000002,215.45519733856804C198,215.45519733856804 198,193.30528428788674 237.4,193.30528428788674L237.4,199.60095194617796C198,199.60095194617796 198,221.75086499685926 158.60000000000002,221.75086499685926Z" style="stroke: rgb(68, 68, 68); stroke-opacity: 1; fill: rgb(76, 175, 80); fill-opacity: 0.5; stroke-width: 0; opacity: 1;"/><path class="sankey-link" d="M255.4,151.6380460070862C294.8,151.6380460070862 294.8,143.93380271953234 334.2,143.93380271953234L334.2,151.25197652481611C294.8,151.25197652481611 294.8,158.95621981236997 255.4,158.95621981236997Z" style="stroke: rgb(68, 68, 68); stroke-opacity: 1; fill: rgb(76, 175, 80); fill-opacity: 0.5; stroke-width: 0; opacity: 1;"/><path class="sankey-link" d="M255.4,188.3945460335736C294.8,188.3945460335736 294.8,42.298121185364025 334.2,42.298121185364025L334.2,48.17305853741529C294.8,48.17305853741529 294.8,194.26948338562488 255.4,194.26948338562488Z" style="stroke: rgb(68, 68, 68); stroke-opacity: 1; fill: rgb(76, 175, 80); fill-opacity: 0.5; stroke-width: 0; opacity: 1;"/><path class="sankey-link" d="M61.800000000000004,100.48526296349179C52.800000000000004,100.48526296349179 52.800000000000004,313.0745432271942 43.800000000000004,313.0745432271942L43.800000000000004,318.89171291002356C52.800000000000004,318.89171291002356 52.800000000000004,106.30243264632115 61.800000000000004,106.30243264632115Z" style="stroke: rgb(68, 68, 68); stroke-opacity: 1; fill: rgb(76, 175, 80); fill-opacity: 0.5; stroke-width: 0; opacity: 1;"/><path class="sankey-link" d="M255.4,78.66499932298406C294.8,78.66499932298406 294.8,24.8776212637867 334.2,24.8776212637867L334.2,33.20104863335974C294.8,33.20104863335974 294.8,86.9884266925571 255.4,86.9884266925571Z" style="stroke: rgb(68, 68, 68); stroke-opacity: 1; fill: rgb(76, 175, 80); fill-opacity: 0.5; stroke-width: 0; opacity: 1;"/><path class="sankey-link" d="M61.800000000000004,193.91623464445365C101.20000000000002,193.91623464445365 101.20000000000002,40.48354749474532 140.60000000000002,40.48354749474532L140.60000000000002,50.06786258329363C101.20000000000002,50.06786258329363 101.20000000000002,203.50054973300195 61.800000000000004,203.50054973300195Z" style="stroke: rgb(68, 68, 68); stroke-opacity: 1; fill: rgb(76, 175, 80); fill-opacity: 0.5; stroke-width: 0; opacity: 1;"/><path class="sankey-link" d="M61.800000000000004,93.67518341955295C52.800000000000004,93.67518341955295 52.800000000000004,257.46737482341143 43.800000000000004,257.46737482341143L43.800000000000004,264.2774543673503C52.800000000000004,264.2774543673503 52.800000000000004,100.4852629634918 61.800000000000004,100.4852629634918Z" style="stroke: rgb(68, 68, 68); stroke-opacity: 1; fill: rgb(76, 175, 80); fill-opacity: 0.5; stroke-width: 0; opacity: 1;"/><path class="sankey-link" d="M255.4,376.032301744298C343.2,376.032301744298 343.2,161.78652746372225 431,161.78652746372225L431,168.45996276541595C343.2,168.45996276541595 343.2,382.70573704599167 255.4,382.70573704599167Z" style="stroke: rgb(68, 68, 68); stroke-opacity: 1; fill: rgb(244, 67, 54); fill-opacity: 0.55; stroke-width: 0; opacity: 1;"/><path class="sankey-link" d="M61.800000000000004,305.9414163005607C101.20000000000002,305.9414163005607 101.20000000000002,148.68951169594249 140.60000000000002,148.68951169594249L140.60000000000002,157.4898717323597C101.20000000000002,157.4898717323597 101.20000000000002,314.74177633697786 61.800000000000004,314.74177633697786Z" style="stroke: rgb(68, 68, 68); stroke-opacity: 1; fill: rgb(76, 175, 80); fill-opacity: 0.5; stroke-width: 0; opacity: 1;"/><path class="sankey-link" d="M158.60000000000002,274.32573101002225C198,274.32573101002225 198,263.6418809956764 237.4,263.6418809956764L237.4,270.0086446182064C198,270.0086446182064 198,280.69249463255227 158.60000000000002,280.69249463255227Z" style="stroke: rgb(68, 68, 68); stroke-opacity: 1; fill: rgb(244, 67, 54); fill-opacity: 0.55; stroke-width: 0; opacity: 1;"/><path class="sankey-link" d="M61.800000000000004,274.71708227995686C101.20000000000002,274.71708227995686 101.20000000000002,372.271611930614 140.60000000000002,372.271611930614L140.60000000000002,379.39582774289886C101.20000000000002,379.39582774289886 101.20000000000002,281.84129809224174 61.800000000000004,281.84129809224174Z" style="stroke: rgb(68, 68, 68); stroke-opacity: 1; fill: rgb(244, 67, 54); fill-opacity: 0.55; stroke-width: 0; opacity: 1;"/><path class="sankey-link" d="M158.60000000000002,252.10750536744794C198,252.10750536744794 198,95.91442422205131 237.4,95.91442422205131L237.4,104.04012934500113C198,104.04012934500113 198,260.23321049039777 158.60000000000002,260.23321049039777Z" style="stroke: rgb(68, 68, 68); stroke-opacity: 1; fill: rgb(76, 175, 80); fill-opacity: 0.5; stroke-width: 0; opacity: 1;"/><path class="sankey-link" d="M61.800000000000004,267.82580391781516C101.20000000000002,267.82580391781516 101.20000000000002,312.59096484498366 140.60000000000002,312.59096484498366L140.60000000000002,319.4822432071253C101.20000000000002,319.4822432071253 101.20000000000002,274.7170822799568 61.800000000000004,274.7170822799568Z" style="stroke: rgb(68, 68, 68); stroke-opacity: 1; fill: rgb(76, 175, 80); fill-opacity: 0.5; stroke-width: 0; opacity: 1;"/><path class="sankey-link" d="M255.4,166.35045183400476C246.4,166.35045183400476 246.4,375.6176315444378 237.4,375.6176315444378L237.4,382.30256322661694C246.4,382.30256322661694 246.4,173.03538351618394 255.4,173.03538351618394Z" style="stroke: rgb(68, 68, 68); stroke-opacity: 1; fill: rgb(76, 175, 80); fill-opacity: 0.5; stroke-width: 0; opacity: 1;"/><path class="sankey-link" d="M352.2,104.57443795227736C343.2,104.57443795227736 343.2,312.5895783812853 334.2,312.5895783812853L334.2,318.5956032097868C343.2,318.5956032097868 343.2,110.58046278077889 352.2,110.58046278077889Z" style="stroke: rgb(68, 68, 68); stroke-opacity: 1; fill: rgb(76, 175, 80); fill-opacity: 0.5; stroke-width: 0; opacity: 1;"/><path class="sankey-link" d="M61.800000000000004,25.51819074325924C101.20000000000002,25.51819074325924 101.20000000000002,22.55378572779314 140.60000000000002,22.55378572779314L140.60000000000002,29.598412849552474C101.20000000000002,29.598412849552474 101.20000000000002,32.56281786501857 61.800000000000004,32.56281786501857Z" style="stroke: rgb(68, 68, 68); stroke-opacity: 1; fill: rgb(76, 175, 80); fill-opacity: 0.5; stroke-width: 0; opacity: 1;"/><path class="sankey-link" d="M352.2,73.90030790924773C391.6,73.90030790924773 391.6,29.71359259776936 431,29.71359259776936L431,41.457124350340855C391.6,41.457124350340855 391.6,85.64383966181923 352.2,85.64383966181923Z" style="stroke: rgb(68, 68, 68); stroke-opacity: 1; fill: rgb(76, 175, 80); fill-opacity: 0.5; stroke-width: 0; opacity: 1;"/><path class="sankey-link" d="M255.4,101.96589904429091C294.8,101.96589904429091 294.8,202.45670482590276 334.2,202.45670482590276L334.2,209.24600783697792C294.8,209.24600783697792 294.8,108.7552020553661 255.4,108.7552020553661Z" style="stroke: rgb(68, 68, 68); stroke-opacity: 1; fill: rgb(244, 67, 54); fill-opacity: 0.55; stroke-width: 0; opacity: 1;"/><path class="sankey-link" d="M61.800000000000004,138.12442089275456C101.20000000000002,138.12442089275456 101.20000000000002,34.480843489624746 140.60000000000002,34.480843489624746L140.60000000000002,40.48354749474532C101.20000000000002,40.48354749474532 101.20000000000002,144.12712489787512 61.800000000000004,144.12712489787512Z" style="stroke: rgb(68, 68, 68); stroke-opacity: 1; fill: rgb(76, 175, 80); fill-opacity: 0.5; stroke-width: 0; opacity: 1;"/><path class="sankey-link" d="M255.4,359.8098817792569C343.2,359.8098817792569 343.2,50.601327922965645 431,50.601327922965645L431,60.27729387724856C343.2,60.27729387724856 343.2,369.4858477335398 255.4,369.4858477335398Z" style="stroke: rgb(68, 68, 68); stroke-opacity: 1; fill: rgb(76, 175, 80); fill-opacity: 0.5; stroke-width: 0; opacity: 1;"/><path class="sankey-link" d="M158.60000000000002,153.80238607167084C198,153.80238607167084 198,134.16461648381588 237.4,134.16461648381588L237.4,140.10945698904462C198,140.10945698904462 198,159.74722657689958 158.60000000000002,159.74722657689958Z" style="stroke: rgb(68, 68, 68); stroke-opacity: 1; fill: rgb(76, 175, 80); fill-opacity: 0.5; stroke-width: 0; opacity: 1;"/><path class="sankey-link" d="M255.4,219.10572427849786C246.4,219.10572427849786 246.4,319.79387477160964 237.4,319.79387477160964L237.4,325.8061252283906C246.4,325.8061252283906 246.4,225.11797473527884 255.4,225.11797473527884Z" style="stroke: rgb(68, 68, 68); stroke-opacity: 1; fill: rgb(76, 175, 80); fill-opacity: 0.5; stroke-width: 0; opacity: 1;"/><path class="sankey-link" d="M158.60000000000002,221.75086499685926C198,221.75086499685926 198,257.6710614655538 237.4,257.6710614655538L237.4,263.64188099567633C198,263.64188099567633 198,227.72168452698185 158.60000000000002,227.72168452698185Z" style="stroke: rgb(68, 68, 68); stroke-opacity: 1; fill: rgb(244, 67, 54); fill-opacity: 0.55; stroke-width: 0; opacity: 1;"/><path class="sankey-link" d="M352.2,133.31397233645183C391.6,133.31397233645183 391.6,41.45712435034085 431,41.45712435034085L431,50.60132792296565C391.6,50.60132792296565 391.6,142.45817590907663 352.2,142.45817590907663Z" style="stroke: rgb(68, 68, 68); stroke-opacity: 1; fill: rgb(76, 175, 80); fill-opacity: 0.5; stroke-width: 0; opacity: 1;"/><path class="sankey-link" d="M61.800000000000004,209.4783986243134C52.800000000000004,209.4783986243134 52.800000000000004,269.86838522661066 43.800000000000004,269.86838522661066L43.800000000000004,273.14964537821373C52.800000000000004,273.14964537821373 52.800000000000004,212.75965877591642 61.800000000000004,212.75965877591642Z" style="stroke: rgb(68, 68, 68); stroke-opacity: 1; fill: rgb(76, 175, 80); fill-opacity: 0.5; stroke-width: 0; opacity: 1;"/><path class="sankey-link" d="M352.2,142.45817590907663C391.6,142.45817590907663 391.6,98.50789085598939 431,98.50789085598939L431,108.27812852194569C391.6,108.27812852194569 391.6,152.22841357503293 352.2,152.22841357503293Z" style="stroke: rgb(68, 68, 68); stroke-opacity: 1; fill: rgb(76, 175, 80); fill-opacity: 0.5; stroke-width: 0; opacity: 1;"/><path class="sankey-link" d="M255.4,225.1179747352788C246.4,225.1179747352788 246.4,382.302563226617 237.4,382.302563226617L237.4,388.79004245776474C246.4,388.79004245776474 246.4,231.6054539664266 255.4,231.6054539664266Z" style="stroke: rgb(68, 68, 68); stroke-opacity: 1; fill: rgb(76, 175, 80); fill-opacity: 0.5; stroke-width: 0; opacity: 1;"/><path class="sankey-link" d="M158.60000000000002,164.6579648312127C198,164.6579648312127 198,251.26150208315178 237.4,251.26150208315178L237.4,257.6710614655538C198,257.6710614655538 198,171.0675242136147 158.60000000000002,171.0675242136147Z" style="stroke: rgb(68, 68, 68); stroke-opacity: 1; fill: rgb(244, 67, 54); fill-opacity: 0.55; stroke-width: 0; opacity: 1;"/><path class="sankey-link" d="M61.800000000000004,376.3943228888746C101.20000000000002,376.3943228888746 101.20000000000002,270.1811153610125 140.60000000000002,270.1811153610125L140.60000000000002,277.75483003247444C101.20000000000002,277.75483003247444 101.20000000000002,383.9680375603366 61.800000000000004,383.9680375603366Z" style="stroke: rgb(68, 68, 68); stroke-opacity: 1; fill: rgb(76, 175, 80); fill-opacity: 0.5; stroke-width: 0; opacity: 1;"/><path class="sankey-link" d="M61.800000000000004,37.3157676475205C52.800000000000004,37.3157676475205 52.800000000000004,250.95870190775844 43.800000000000004,250.95870190775844L43.800000000000004,257.46737482341143C52.800000000000004,257.46737482341143 52.800000000000004,43.82444056317347 61.800000000000004,43.82444056317347Z" style="stroke: rgb(68, 68, 68); stroke-opacity: 1; fill: rgb(76, 175, 80); fill-opacity: 0.5; stroke-width: 0; opacity: 1;"/><path class="sankey-link" d="M255.4,143.26168903582015C294.8,143.26168903582015 294.8,91.42326419806258 334.2,91.42326419806258L334.2,99.79962116932862C294.8,99.79962116932862 294.8,151.6380460070862 255.4,151.6380460070862Z" style="stroke: rgb(68, 68, 68); stroke-opacity: 1; fill: rgb(76, 175, 80); fill-opacity: 0.5; stroke-width: 0; opacity: 1;"/><path class="sankey-link" d="M352.2,25.585058299621885C391.6,25.585058299621885 391.6,79.57541746729605 431,79.57541746729605L431,87.08481217417075C391.6,87.08481217417075 391.6,33.09445300649659 352.2,33.09445300649659Z" style="stroke: rgb(68, 68, 68); stroke-opacity: 1; fill: rgb(76, 175, 80); fill-opacity: 0.5; stroke-width: 0; opacity: 1;"/><path class="sankey-link" d="M61.800000000000004,361.03054269591394C101.20000000000002,361.03054269591394 101.20000000000002,157.48987173235966 140.60000000000002,157.48987173235966L140.60000000000002,165.3754261842349C101.20000000000002,165.3754261842349 101.20000000000002,368.9160971477892 61.800000000000004,368.9160971477892Z" style="stroke: rgb(68, 68, 68); stroke-opacity: 1; fill: rgb(76, 175, 80); fill-opacity: 0.5; stroke-width: 0; opacity: 1;"/><path class="sankey-link" d="M158.60000000000002,307.6535972678833C198,307.6535972678833 198,104.04012934500112 237.4,104.04012934500112L237.4,109.87569638494669C198,109.87569638494669 198,313.48916430782884 158.60000000000002,313.48916430782884Z" style="stroke: rgb(68, 68, 68); stroke-opacity: 1; fill: rgb(76, 175, 80); fill-opacity: 0.5; stroke-width: 0; opacity: 1;"/><path class="sankey-link" d="M61.800000000000004,32.56281786501857C101.20000000000002,32.56281786501857 101.20000000000002,86.1464396585165 140.60000000000002,86.1464396585165L140.60000000000002,90.89938944101843C101.20000000000002,90.89938944101843 101.20000000000002,37.3157676475205 61.800000000000004,37.3157676475205Z" style="stroke: rgb(68, 68, 68); stroke-opacity: 1; fill: rgb(244, 67, 54); fill-opacity: 0.55; stroke-width: 0; opacity: 1;"/><path class="sankey-link" d="M158.60000000000002,313.4891643078289C198,313.4891643078289 198,154.34909660646514 237.4,154.34909660646514L237.4,162.54979584985728C198,162.54979584985728 198,321.68986355122104 158.60000000000002,321.68986355122104Z" style="stroke: rgb(68, 68, 68); stroke-opacity: 1; fill: rgb(76, 175, 80); fill-opacity: 0.5; stroke-width: 0; opacity: 1;"/><path class="sankey-link" d="M61.800000000000004,155.70835442246238C52.800000000000004,155.70835442246238 52.800000000000004,318.89171291002356 43.800000000000004,318.89171291002356L43.800000000000004,325.0814724542946C52.800000000000004,325.0814724542946 52.800000000000004,161.8981139667335 61.800000000000004,161.8981139667335Z" style="stroke: rgb(68, 68, 68); stroke-opacity: 1; fill: rgb(76, 175, 80); fill-opacity: 0.5; stroke-width: 0; opacity: 1;"/><path class="sankey-link" d="M158.60000000000002,35.86023120068736C149.60000000000002,35.86023120068736 149.60000000000002,252.1075053674479 140.60000000000002,252.1075053674479L140.60000000000002,259.2739245397084C149.60000000000002,259.2739245397084 149.60000000000002,43.02665037294785 158.60000000000002,43.02665037294785Z" style="stroke: rgb(68, 68, 68); stroke-opacity: 1; fill: rgb(76, 175, 80); fill-opacity: 0.5; stroke-width: 0; opacity: 1;"/><path class="sankey-link" d="M61.800000000000004,150.11742356320204C52.800000000000004,150.11742356320204 52.800000000000004,264.2774543673503 43.800000000000004,264.2774543673503L43.800000000000004,269.8683852266106C52.800000000000004,269.8683852266106 52.800000000000004,155.7083544224624 61.800000000000004,155.7083544224624Z" style="stroke: rgb(68, 68, 68); stroke-opacity: 1; fill: rgb(76, 175, 80); fill-opacity: 0.5; stroke-width: 0; opacity: 1;"/><path class="sankey-link" d="M352.2,85.64383966181923C391.6,85.64383966181923 391.6,87.08481217417075 431,87.08481217417075L431,98.50789085598937C391.6,98.50789085598937 391.6,97.06691834363785 352.2,97.06691834363785Z" style="stroke: rgb(68, 68, 68); stroke-opacity: 1; fill: rgb(76, 175, 80); fill-opacity: 0.5; stroke-width: 0; opacity: 1;"/><path class="sankey-link" d="M61.800000000000004,322.3944462737978C101.20000000000002,322.3944462737978 101.20000000000002,264.66741127207075 140.60000000000002,264.66741127207075L140.60000000000002,270.1811153610125C101.20000000000002,270.1811153610125 101.20000000000002,327.90815036273955 61.800000000000004,327.90815036273955Z" style="stroke: rgb(68, 68, 68); stroke-opacity: 1; fill: rgb(76, 175, 80); fill-opacity: 0.5; stroke-width: 0; opacity: 1;"/><path class="sankey-link" d="M352.2,152.22841357503293C391.6,152.22841357503293 391.6,152.59774004821446 431,152.59774004821446L431,161.78652746372222C391.6,161.78652746372222 391.6,161.4172009905407 352.2,161.4172009905407Z" style="stroke: rgb(68, 68, 68); stroke-opacity: 1; fill: rgb(244, 67, 54); fill-opacity: 0.55; stroke-width: 0; opacity: 1;"/><path class="sankey-link" d="M61.800000000000004,250.95870190775844C101.20000000000002,250.95870190775844 101.20000000000002,141.92027433789937 140.60000000000002,141.92027433789937L140.60000000000002,148.6895116959425C101.20000000000002,148.6895116959425 101.20000000000002,257.7279392658016 61.800000000000004,257.7279392658016Z" style="stroke: rgb(68, 68, 68); stroke-opacity: 1; fill: rgb(76, 175, 80); fill-opacity: 0.5; stroke-width: 0; opacity: 1;"/><path class="sankey-link" d="M158.60000000000002,192.2783154730181C198,192.2783154730181 198,31.477780912478675 237.4,31.477780912478675L237.4,39.84120620003272C198,39.84120620003272 198,200.64174076057213 158.60000000000002,200.64174076057213Z" style="stroke: rgb(68, 68, 68); stroke-opacity: 1; fill: rgb(76, 175, 80); fill-opacity: 0.5; stroke-width: 0; opacity: 1;"/><path class="sankey-link" d="M158.60000000000002,200.64174076057213C198,200.64174076057213 198,87.74154667826514 237.4,87.74154667826514L237.4,95.91442422205131C198,95.91442422205131 198,208.8146183043583 158.60000000000002,208.8146183043583Z" style="stroke: rgb(68, 68, 68); stroke-opacity: 1; fill: rgb(76, 175, 80); fill-opacity: 0.5; stroke-width: 0; opacity: 1;"/><path class="sankey-link" d="M158.60000000000002,136.13247578638536C198,136.13247578638536 198,22.88441798247429 237.4,22.88441798247429L237.4,31.47778091247867C198,31.47778091247867 198,144.72583871638975 158.60000000000002,144.72583871638975Z" style="stroke: rgb(68, 68, 68); stroke-opacity: 1; fill: rgb(76, 175, 80); fill-opacity: 0.5; stroke-width: 0; opacity: 1;"/><path class="sankey-link" d="M158.60000000000002,43.02665037294784C149.60000000000002,43.02665037294784 149.60000000000002,302.79313225343475 140.60000000000002,302.79313225343475L140.60000000000002,312.5909648449836C149.60000000000002,312.5909648449836 149.60000000000002,52.82448296449674 158.60000000000002,52.82448296449674Z" style="stroke: rgb(68, 68, 68); stroke-opacity: 1; fill: rgb(76, 175, 80); fill-opacity: 0.5; stroke-width: 0; opacity: 1;"/><path class="sankey-link" d="M255.4,43.73318174181877C294.8,43.73318174181877 294.8,196.3022556937268 334.2,196.3022556937268L334.2,202.45670482590276C294.8,202.45670482590276 294.8,49.88763087399472 255.4,49.88763087399472Z" style="stroke: rgb(68, 68, 68); stroke-opacity: 1; fill: rgb(244, 67, 54); fill-opacity: 0.55; stroke-width: 0; opacity: 1;"/><path class="sankey-link" d="M255.4,369.4858477335398C343.2,369.4858477335398 343.2,108.27812852194569 431,108.27812852194569L431,114.82458253270391C343.2,114.82458253270391 343.2,376.032301744298 255.4,376.032301744298Z" style="stroke: rgb(68, 68, 68); stroke-opacity: 1; fill: rgb(76, 175, 80); fill-opacity: 0.5; stroke-width: 0; opacity: 1;"/><path class="sankey-link" d="M158.60000000000002,144.72583871638975C198,144.72583871638975 198,78.66499932298406 237.4,78.66499932298406L237.4,87.74154667826515C198,87.74154667826515 198,153.80238607167084 158.60000000000002,153.80238607167084Z" style="stroke: rgb(68, 68, 68); stroke-opacity: 1; fill: rgb(76, 175, 80); fill-opacity: 0.5; stroke-width: 0; opacity: 1;"/><path class="sankey-link" d="M61.800000000000004,50.957567489807005C52.800000000000004,50.957567489807005 52.800000000000004,361.03054269591394 43.800000000000004,361.03054269591394L43.800000000000004,366.1547844628477C52.800000000000004,366.1547844628477 52.800000000000004,56.08180925674078 61.800000000000004,56.08180925674078Z" style="stroke: rgb(68, 68, 68); stroke-opacity: 1; fill: rgb(76, 175, 80); fill-opacity: 0.5; stroke-width: 0; opacity: 1;"/><path class="sankey-link" d="M255.4,30.56786742165719C294.8,30.56786742165719 294.8,73.90030790924773 334.2,73.90030790924773L334.2,82.35682238538193C294.8,82.35682238538193 294.8,39.02438189779139 255.4,39.02438189779139Z" style="stroke: rgb(68, 68, 68); stroke-opacity: 1; fill: rgb(76, 175, 80); fill-opacity: 0.5; stroke-width: 0; opacity: 1;"/></g><g class="sankey-node-set" style="cursor: ns-resize;"><g class="sankey-node" transform="translate(43.800,25.518)" style="opacity: 1;"><rect class="node-rect" width="18" height="30.563618513481515" style="stroke-width: 0.5; stroke: rgb(68, 68, 68); stroke-opacity: 1; fill: rgb(63, 81, 181); fill-opacity: 0.9;"/><text class="node-label" data-notex="1" x="0" y="0" text-anchor="start" transform="translate(21.25,19.481809256740757)" style="cursor: default; font-family: 'Open Sans', verdana, arial, sans-serif; font-size: 12px; fill: rgb(42, 63, 95); fill-opacity: 1; text-shadow: rgb(255, 255, 255) 1px 1px 1px, rgb(255, 255, 255) -1px -1px 1px, rgb(255, 255, 255) 1px -1px 1px, rgb(255, 255, 255) -1px 1px 1px; white-space: pre;">State 0–10%</text></g><g class="sankey-node" transform="translate(43.800,83.407)" style="opacity: 1;"><rect class="node-rect" width="18" height="27.58654112869209" style="stroke-width: 0.5; stroke: rgb(68, 68, 68); stroke-opacity: 1; fill: rgb(0, 150, 136); fill-opacity: 0.9;"/><text class="node-label" data-notex="1" x="0" y="0" text-anchor="start" transform="translate(21.25,17.993270564346044)" style="cursor: default; font-family: 'Open Sans', verdana, arial, sans-serif; font-size: 12px; fill: rgb(42, 63, 95); fill-opacity: 1; text-shadow: rgb(255, 255, 255) 1px 1px 1px, rgb(255, 255, 255) -1px -1px 1px, rgb(255, 255, 255) 1px -1px 1px, rgb(255, 255, 255) -1px 1px 1px; white-space: pre;">State 10–20%</text></g><g class="sankey-node" transform="translate(43.800,138.124)" style="opacity: 1;"><rect class="node-rect" width="18" height="30.951158214490874" style="stroke-width: 0.5; stroke: rgb(68, 68, 68); stroke-opacity: 1; fill: rgb(255, 193, 7); fill-opacity: 0.9;"/><text class="node-label" data-notex="1" x="0" y="0" text-anchor="start" transform="translate(21.25,19.675579107245436)" style="cursor: default; font-family: 'Open Sans', verdana, arial, sans-serif; font-size: 12px; fill: rgb(42, 63, 95); fill-opacity: 1; text-shadow: rgb(255, 255, 255) 1px 1px 1px, rgb(255, 255, 255) -1px -1px 1px, rgb(255, 255, 255) 1px -1px 1px, rgb(255, 255, 255) -1px 1px 1px; white-space: pre;">State 20–50%</text></g><g class="sankey-node" transform="translate(43.800,193.916)" style="opacity: 1;"><rect class="node-rect" width="18" height="32.167530711092695" style="stroke-width: 0.5; stroke: rgb(68, 68, 68); stroke-opacity: 1; fill: rgb(244, 67, 54); fill-opacity: 0.9;"/><text class="node-label" data-notex="1" x="0" y="0" text-anchor="start" transform="translate(21.25,20.283765355546347)" style="cursor: default; font-family: 'Open Sans', verdana, arial, sans-serif; font-size: 12px; fill: rgb(42, 63, 95); fill-opacity: 1; text-shadow: rgb(255, 255, 255) 1px 1px 1px, rgb(255, 255, 255) -1px -1px 1px, rgb(255, 255, 255) 1px -1px 1px, rgb(255, 255, 255) -1px 1px 1px; white-space: pre;">State ≥50%</text></g><g class="sankey-node" transform="translate(43.800,250.959)" style="opacity: 1;"><rect class="node-rect" width="18" height="30.88259618448319" style="stroke-width: 0.5; stroke: rgb(68, 68, 68); stroke-opacity: 1; fill: rgb(63, 81, 181); fill-opacity: 0.9;"/><text class="node-label" data-notex="1" x="0" y="0" text-anchor="start" transform="translate(21.25,19.641298092241595)" style="cursor: default; font-family: 'Open Sans', verdana, arial, sans-serif; font-size: 12px; fill: rgb(42, 63, 95); fill-opacity: 1; text-shadow: rgb(255, 255, 255) 1px 1px 1px, rgb(255, 255, 255) -1px -1px 1px, rgb(255, 255, 255) 1px -1px 1px, rgb(255, 255, 255) -1px 1px 1px; white-space: pre;">State 0–10%</text></g><g class="sankey-node" transform="translate(43.800,305.941)" style="opacity: 1;"><rect class="node-rect" width="18" height="33.7171673988787" style="stroke-width: 0.5; stroke: rgb(68, 68, 68); stroke-opacity: 1; fill: rgb(0, 150, 136); fill-opacity: 0.9;"/><text class="node-label" data-notex="1" x="0" y="0" text-anchor="start" transform="translate(21.25,21.05858369943935)" style="cursor: default; font-family: 'Open Sans', verdana, arial, sans-serif; font-size: 12px; fill: rgb(42, 63, 95); fill-opacity: 1; text-shadow: rgb(255, 255, 255) 1px 1px 1px, rgb(255, 255, 255) -1px -1px 1px, rgb(255, 255, 255) 1px -1px 1px, rgb(255, 255, 255) -1px 1px 1px; white-space: pre;">State 10–20%</text></g><g class="sankey-node" transform="translate(43.800,361.031)" style="opacity: 1;"><rect class="node-rect" width="18" height="36.33891460817222" style="stroke-width: 0.5; stroke: rgb(68, 68, 68); stroke-opacity: 1; fill: rgb(255, 193, 7); fill-opacity: 0.9;"/><text class="node-label" data-notex="1" x="0" y="0" text-anchor="start" transform="translate(21.25,22.369457304086108)" style="cursor: default; font-family: 'Open Sans', verdana, arial, sans-serif; font-size: 12px; fill: rgb(42, 63, 95); fill-opacity: 1; text-shadow: rgb(255, 255, 255) 1px 1px 1px, rgb(255, 255, 255) -1px -1px 1px, rgb(255, 255, 255) 1px -1px 1px, rgb(255, 255, 255) -1px 1px 1px; white-space: pre;">State 20–50%</text></g><g class="sankey-node" transform="translate(140.600,22.554)" style="opacity: 1;"><rect class="node-rect" width="18" height="36.49242854441371" style="stroke-width: 0.5; stroke: rgb(68, 68, 68); stroke-opacity: 1; fill: rgb(244, 67, 54); fill-opacity: 0.9;"/><text class="node-label" data-notex="1" x="0" y="0" text-anchor="start" transform="translate(21.25,22.446214272206856)" style="cursor: default; font-family: 'Open Sans', verdana, arial, sans-serif; font-size: 12px; fill: rgb(42, 63, 95); fill-opacity: 1; text-shadow: rgb(255, 255, 255) 1px 1px 1px, rgb(255, 255, 255) -1px -1px 1px, rgb(255, 255, 255) 1px -1px 1px, rgb(255, 255, 255) -1px 1px 1px; white-space: pre;">State ≥50%</text></g><g class="sankey-node" transform="translate(140.600,86.146)" style="opacity: 1;"><rect class="node-rect" width="18" height="22.107120682967007" style="stroke-width: 0.5; stroke: rgb(68, 68, 68); stroke-opacity: 1; fill: rgb(244, 67, 54); fill-opacity: 0.9;"/><text class="node-label" data-notex="1" x="0" y="0" text-anchor="start" transform="translate(21.25,15.253560341483503)" style="cursor: default; font-family: 'Open Sans', verdana, arial, sans-serif; font-size: 12px; fill: rgb(42, 63, 95); fill-opacity: 1; text-shadow: rgb(255, 255, 255) 1px 1px 1px, rgb(255, 255, 255) -1px -1px 1px, rgb(255, 255, 255) 1px -1px 1px, rgb(255, 255, 255) -1px 1px 1px; white-space: pre;">Exit</text></g><g class="sankey-node" transform="translate(140.600,136.132)" style="opacity: 1;"><rect class="node-rect" width="18" height="34.935048427229276" style="stroke-width: 0.5; stroke: rgb(68, 68, 68); stroke-opacity: 1; fill: rgb(63, 81, 181); fill-opacity: 0.9;"/><text class="node-label" data-notex="1" x="0" y="0" text-anchor="start" transform="translate(21.25,21.667524213614637)" style="cursor: default; font-family: 'Open Sans', verdana, arial, sans-serif; font-size: 12px; fill: rgb(42, 63, 95); fill-opacity: 1; text-shadow: rgb(255, 255, 255) 1px 1px 1px, rgb(255, 255, 255) -1px -1px 1px, rgb(255, 255, 255) 1px -1px 1px, rgb(255, 255, 255) -1px 1px 1px; white-space: pre;">State 0–10%</text></g><g class="sankey-node" transform="translate(140.600,192.278)" style="opacity: 1;"><rect class="node-rect" width="18" height="35.443369053963806" style="stroke-width: 0.5; stroke: rgb(68, 68, 68); stroke-opacity: 1; fill: rgb(0, 150, 136); fill-opacity: 0.9;"/><text class="node-label" data-notex="1" x="0" y="0" text-anchor="start" transform="translate(21.25,21.921684526981903)" style="cursor: default; font-family: 'Open Sans', verdana, arial, sans-serif; font-size: 12px; fill: rgb(42, 63, 95); fill-opacity: 1; text-shadow: rgb(255, 255, 255) 1px 1px 1px, rgb(255, 255, 255) -1px -1px 1px, rgb(255, 255, 255) 1px -1px 1px, rgb(255, 255, 255) -1px 1px 1px; white-space: pre;">State 10–20%</text></g><g class="sankey-node" transform="translate(140.600,252.108)" style="opacity: 1;"><rect class="node-rect" width="18" height="28.58498926510424" style="stroke-width: 0.5; stroke: rgb(68, 68, 68); stroke-opacity: 1; fill: rgb(255, 193, 7); fill-opacity: 0.9;"/><text class="node-label" data-notex="1" x="0" y="0" text-anchor="start" transform="translate(21.25,18.49249463255212)" style="cursor: default; font-family: 'Open Sans', verdana, arial, sans-serif; font-size: 12px; fill: rgb(42, 63, 95); fill-opacity: 1; text-shadow: rgb(255, 255, 255) 1px 1px 1px, rgb(255, 255, 255) -1px -1px 1px, rgb(255, 255, 255) 1px -1px 1px, rgb(255, 255, 255) -1px 1px 1px; white-space: pre;">State 20–50%</text></g><g class="sankey-node" transform="translate(140.600,302.793)" style="opacity: 1;"><rect class="node-rect" width="18" height="40.01373549313064" style="stroke-width: 0.5; stroke: rgb(68, 68, 68); stroke-opacity: 1; fill: rgb(244, 67, 54); fill-opacity: 0.9;"/><text class="node-label" data-notex="1" x="0" y="0" text-anchor="start" transform="translate(21.25,24.20686774656532)" style="cursor: default; font-family: 'Open Sans', verdana, arial, sans-serif; font-size: 12px; fill: rgb(42, 63, 95); fill-opacity: 1; text-shadow: rgb(255, 255, 255) 1px 1px 1px, rgb(255, 255, 255) -1px -1px 1px, rgb(255, 255, 255) 1px -1px 1px, rgb(255, 255, 255) -1px 1px 1px; white-space: pre;">State ≥50%</text></g><g class="sankey-node" transform="translate(140.600,366.050)" style="opacity: 1;"><rect class="node-rect" width="18" height="26.300238754192605" style="stroke-width: 0.5; stroke: rgb(68, 68, 68); stroke-opacity: 1; fill: rgb(244, 67, 54); fill-opacity: 0.9;"/><text class="node-label" data-notex="1" x="0" y="0" text-anchor="start" transform="translate(21.25,17.350119377096302)" style="cursor: default; font-family: 'Open Sans', verdana, arial, sans-serif; font-size: 12px; fill: rgb(42, 63, 95); fill-opacity: 1; text-shadow: rgb(255, 255, 255) 1px 1px 1px, rgb(255, 255, 255) -1px -1px 1px, rgb(255, 255, 255) 1px -1px 1px, rgb(255, 255, 255) -1px 1px 1px; white-space: pre;">Exit</text></g><g class="sankey-node" transform="translate(237.400,22.884)" style="opacity: 1;"><rect class="node-rect" width="18" height="35.831164035051415" style="stroke-width: 0.5; stroke: rgb(68, 68, 68); stroke-opacity: 1; fill: rgb(63, 81, 181); fill-opacity: 0.9;"/><text class="node-label" data-notex="1" x="0" y="0" text-anchor="start" transform="translate(21.25,22.115582017525707)" style="cursor: default; font-family: 'Open Sans', verdana, arial, sans-serif; font-size: 12px; fill: rgb(42, 63, 95); fill-opacity: 1; text-shadow: rgb(255, 255, 255) 1px 1px 1px, rgb(255, 255, 255) -1px -1px 1px, rgb(255, 255, 255) 1px -1px 1px, rgb(255, 255, 255) -1px 1px 1px; white-space: pre;">State 0–10%</text></g><g class="sankey-node" transform="translate(237.400,78.665)" style="opacity: 1;"><rect class="node-rect" width="18" height="37.07000135403189" style="stroke-width: 0.5; stroke: rgb(68, 68, 68); stroke-opacity: 1; fill: rgb(0, 150, 136); fill-opacity: 0.9;"/><text class="node-label" data-notex="1" x="0" y="0" text-anchor="start" transform="translate(21.25,22.735000677015943)" style="cursor: default; font-family: 'Open Sans', verdana, arial, sans-serif; font-size: 12px; fill: rgb(42, 63, 95); fill-opacity: 1; text-shadow: rgb(255, 255, 255) 1px 1px 1px, rgb(255, 255, 255) -1px -1px 1px, rgb(255, 255, 255) 1px -1px 1px, rgb(255, 255, 255) -1px 1px 1px; white-space: pre;">State 10–20%</text></g><g class="sankey-node" transform="translate(237.400,134.165)" style="opacity: 1;"><rect class="node-rect" width="18" height="38.870767032368235" style="stroke-width: 0.5; stroke: rgb(68, 68, 68); stroke-opacity: 1; fill: rgb(255, 193, 7); fill-opacity: 0.9;"/><text class="node-label" data-notex="1" x="0" y="0" text-anchor="start" transform="translate(21.25,23.635383516184117)" style="cursor: default; font-family: 'Open Sans', verdana, arial, sans-serif; font-size: 12px; fill: rgb(42, 63, 95); fill-opacity: 1; text-shadow: rgb(255, 255, 255) 1px 1px 1px, rgb(255, 255, 255) -1px -1px 1px, rgb(255, 255, 255) 1px -1px 1px, rgb(255, 255, 255) -1px 1px 1px; white-space: pre;">State 20–50%</text></g><g class="sankey-node" transform="translate(237.400,188.395)" style="opacity: 1;"><rect class="node-rect" width="18" height="43.21090793285282" style="stroke-width: 0.5; stroke: rgb(68, 68, 68); stroke-opacity: 1; fill: rgb(244, 67, 54); fill-opacity: 0.9;"/><text class="node-label" data-notex="1" x="0" y="0" text-anchor="start" transform="translate(21.25,25.80545396642641)" style="cursor: default; font-family: 'Open Sans', verdana, arial, sans-serif; font-size: 12px; fill: rgb(42, 63, 95); fill-opacity: 1; text-shadow: rgb(255, 255, 255) 1px 1px 1px, rgb(255, 255, 255) -1px -1px 1px, rgb(255, 255, 255) 1px -1px 1px, rgb(255, 255, 255) -1px 1px 1px; white-space: pre;">State ≥50%</text></g><g class="sankey-node" transform="translate(237.400,251.262)" style="opacity: 1;"><rect class="node-rect" width="18" height="30.27699583369653" style="stroke-width: 0.5; stroke: rgb(68, 68, 68); stroke-opacity: 1; fill: rgb(244, 67, 54); fill-opacity: 0.9;"/><text class="node-label" data-notex="1" x="0" y="0" text-anchor="start" transform="translate(21.25,19.338497916848265)" style="cursor: default; font-family: 'Open Sans', verdana, arial, sans-serif; font-size: 12px; fill: rgb(42, 63, 95); fill-opacity: 1; text-shadow: rgb(255, 255, 255) 1px 1px 1px, rgb(255, 255, 255) -1px -1px 1px, rgb(255, 255, 255) 1px -1px 1px, rgb(255, 255, 255) -1px 1px 1px; white-space: pre;">Exit</text></g><g class="sankey-node" transform="translate(237.400,319.794)" style="opacity: 1;"><rect class="node-rect" width="18" height="6.012250456780862" style="stroke-width: 0.5; stroke: rgb(68, 68, 68); stroke-opacity: 1; fill: rgb(33, 150, 243); fill-opacity: 0.9;"/><text class="node-label" data-notex="1" x="0" y="0" text-anchor="start" transform="translate(21.25,7.20612522839043)" style="cursor: default; font-family: 'Open Sans', verdana, arial, sans-serif; font-size: 12px; fill: rgb(42, 63, 95); fill-opacity: 1; text-shadow: rgb(255, 255, 255) 1px 1px 1px, rgb(255, 255, 255) -1px -1px 1px, rgb(255, 255, 255) 1px -1px 1px, rgb(255, 255, 255) -1px 1px 1px; white-space: pre;">State 0%</text></g><g class="sankey-node" transform="translate(237.400,359.810)" style="opacity: 1;"><rect class="node-rect" width="18" height="38.780236441486295" style="stroke-width: 0.5; stroke: rgb(68, 68, 68); stroke-opacity: 1; fill: rgb(63, 81, 181); fill-opacity: 0.9;"/><text class="node-label" data-notex="1" x="0" y="0" text-anchor="start" transform="translate(21.25,23.590118220743147)" style="cursor: default; font-family: 'Open Sans', verdana, arial, sans-serif; font-size: 12px; fill: rgb(42, 63, 95); fill-opacity: 1; text-shadow: rgb(255, 255, 255) 1px 1px 1px, rgb(255, 255, 255) -1px -1px 1px, rgb(255, 255, 255) 1px -1px 1px, rgb(255, 255, 255) -1px 1px 1px; white-space: pre;">State 0–10%</text></g><g class="sankey-node" transform="translate(334.200,17.194)" style="opacity: 1;"><rect class="node-rect" width="18" height="47.211656350792396" style="stroke-width: 0.5; stroke: rgb(68, 68, 68); stroke-opacity: 1; fill: rgb(0, 150, 136); fill-opacity: 0.9;"/><text class="node-label" data-notex="1" x="0" y="0" text-anchor="start" transform="translate(21.25,27.805828175396197)" style="cursor: default; font-family: 'Open Sans', verdana, arial, sans-serif; font-size: 12px; fill: rgb(42, 63, 95); fill-opacity: 1; text-shadow: rgb(255, 255, 255) 1px 1px 1px, rgb(255, 255, 255) -1px -1px 1px, rgb(255, 255, 255) 1px -1px 1px, rgb(255, 255, 255) -1px 1px 1px; white-space: pre;">State 10–20%</text></g><g class="sankey-node" transform="translate(334.200,73.900)" style="opacity: 1;"><rect class="node-rect" width="18" height="46.59938418150455" style="stroke-width: 0.5; stroke: rgb(68, 68, 68); stroke-opacity: 1; fill: rgb(255, 193, 7); fill-opacity: 0.9;"/><text class="node-label" data-notex="1" x="0" y="0" text-anchor="start" transform="translate(21.25,27.499692090752273)" style="cursor: default; font-family: 'Open Sans', verdana, arial, sans-serif; font-size: 12px; fill: rgb(42, 63, 95); fill-opacity: 1; text-shadow: rgb(255, 255, 255) 1px 1px 1px, rgb(255, 255, 255) -1px -1px 1px, rgb(255, 255, 255) 1px -1px 1px, rgb(255, 255, 255) -1px 1px 1px; white-space: pre;">State 20–50%</text></g><g class="sankey-node" transform="translate(334.200,133.314)" style="opacity: 1;"><rect class="node-rect" width="18" height="40.572055327096336" style="stroke-width: 0.5; stroke: rgb(68, 68, 68); stroke-opacity: 1; fill: rgb(244, 67, 54); fill-opacity: 0.9;"/><text class="node-label" data-notex="1" x="0" y="0" text-anchor="start" transform="translate(21.25,24.486027663548168)" style="cursor: default; font-family: 'Open Sans', verdana, arial, sans-serif; font-size: 12px; fill: rgb(42, 63, 95); fill-opacity: 1; text-shadow: rgb(255, 255, 255) 1px 1px 1px, rgb(255, 255, 255) -1px -1px 1px, rgb(255, 255, 255) 1px -1px 1px, rgb(255, 255, 255) -1px 1px 1px; white-space: pre;">State ≥50%</text></g><g class="sankey-node" transform="translate(334.200,196.302)" style="opacity: 1;"><rect class="node-rect" width="18" height="27.395488612546387" style="stroke-width: 0.5; stroke: rgb(68, 68, 68); stroke-opacity: 1; fill: rgb(244, 67, 54); fill-opacity: 0.9;"/><text class="node-label" data-notex="1" x="0" y="0" text-anchor="start" transform="translate(21.25,17.897744306273193)" style="cursor: default; font-family: 'Open Sans', verdana, arial, sans-serif; font-size: 12px; fill: rgb(42, 63, 95); fill-opacity: 1; text-shadow: rgb(255, 255, 255) 1px 1px 1px, rgb(255, 255, 255) -1px -1px 1px, rgb(255, 255, 255) 1px -1px 1px, rgb(255, 255, 255) -1px 1px 1px; white-space: pre;">Exit</text></g><g class="sankey-node" transform="translate(334.200,259.727)" style="opacity: 1;"><rect class="node-rect" width="18" height="13.34666353761645" style="stroke-width: 0.5; stroke: rgb(68, 68, 68); stroke-opacity: 1; fill: rgb(33, 150, 243); fill-opacity: 0.9;"/><text class="node-label" data-notex="1" x="0" y="0" text-anchor="start" transform="translate(21.25,10.873331768808224)" style="cursor: default; font-family: 'Open Sans', verdana, arial, sans-serif; font-size: 12px; fill: rgb(42, 63, 95); fill-opacity: 1; text-shadow: rgb(255, 255, 255) 1px 1px 1px, rgb(255, 255, 255) -1px -1px 1px, rgb(255, 255, 255) 1px -1px 1px, rgb(255, 255, 255) -1px 1px 1px; white-space: pre;">State 0%</text></g><g class="sankey-node" transform="translate(334.200,304.974)" style="opacity: 1;"><rect class="node-rect" width="18" height="35.65140179923674" style="stroke-width: 0.5; stroke: rgb(68, 68, 68); stroke-opacity: 1; fill: rgb(63, 81, 181); fill-opacity: 0.9;"/><text class="node-label" data-notex="1" x="0" y="0" text-anchor="start" transform="translate(21.25,22.025700899618368)" style="cursor: default; font-family: 'Open Sans', verdana, arial, sans-serif; font-size: 12px; fill: rgb(42, 63, 95); fill-opacity: 1; text-shadow: rgb(255, 255, 255) 1px 1px 1px, rgb(255, 255, 255) -1px -1px 1px, rgb(255, 255, 255) 1px -1px 1px, rgb(255, 255, 255) -1px 1px 1px; white-space: pre;">State 0–10%</text></g><g class="sankey-node" transform="translate(334.200,366.201)" style="opacity: 1;"><rect class="node-rect" width="18" height="25.998412429007317" style="stroke-width: 0.5; stroke: rgb(68, 68, 68); stroke-opacity: 1; fill: rgb(0, 150, 136); fill-opacity: 0.9;"/><text class="node-label" data-notex="1" x="0" y="0" text-anchor="start" transform="translate(21.25,17.199206214503658)" style="cursor: default; font-family: 'Open Sans', verdana, arial, sans-serif; font-size: 12px; fill: rgb(42, 63, 95); fill-opacity: 1; text-shadow: rgb(255, 255, 255) 1px 1px 1px, rgb(255, 255, 255) -1px -1px 1px, rgb(255, 255, 255) 1px -1px 1px, rgb(255, 255, 255) -1px 1px 1px; white-space: pre;">State 10–20%</text></g><g class="sankey-node" transform="translate(431.000,21.323)" style="opacity: 1;"><rect class="node-rect" width="18" height="38.95458775449745" style="stroke-width: 0.5; stroke: rgb(68, 68, 68); stroke-opacity: 1; fill: rgb(255, 193, 7); fill-opacity: 0.9;"/><text class="node-label" data-notex="1" x="0" y="0" text-anchor="end" transform="translate(-3.25,23.677293877248726)" style="cursor: default; font-family: 'Open Sans', verdana, arial, sans-serif; font-size: 12px; fill: rgb(42, 63, 95); fill-opacity: 1; text-shadow: rgb(255, 255, 255) 1px 1px 1px, rgb(255, 255, 255) -1px -1px 1px, rgb(255, 255, 255) 1px -1px 1px, rgb(255, 255, 255) -1px 1px 1px; white-space: pre;">State 20–50%</text></g><g class="sankey-node" transform="translate(431.000,79.575)" style="opacity: 1;"><rect class="node-rect" width="18" height="35.24916506540791" style="stroke-width: 0.5; stroke: rgb(68, 68, 68); stroke-opacity: 1; fill: rgb(244, 67, 54); fill-opacity: 0.9;"/><text class="node-label" data-notex="1" x="0" y="0" text-anchor="end" transform="translate(-3.25,21.824582532703953)" style="cursor: default; font-family: 'Open Sans', verdana, arial, sans-serif; font-size: 12px; fill: rgb(42, 63, 95); fill-opacity: 1; text-shadow: rgb(255, 255, 255) 1px 1px 1px, rgb(255, 255, 255) -1px -1px 1px, rgb(255, 255, 255) 1px -1px 1px, rgb(255, 255, 255) -1px 1px 1px; white-space: pre;">State ≥50%</text></g><g class="sankey-node" transform="translate(431.000,138.740)" style="opacity: 1;"><rect class="node-rect" width="18" height="29.719925530832313" style="stroke-width: 0.5; stroke: rgb(68, 68, 68); stroke-opacity: 1; fill: rgb(244, 67, 54); fill-opacity: 0.9;"/><text class="node-label" data-notex="1" x="0" y="0" text-anchor="end" transform="translate(-3.25,19.059962765416156)" style="cursor: default; font-family: 'Open Sans', verdana, arial, sans-serif; font-size: 12px; fill: rgb(42, 63, 95); fill-opacity: 1; text-shadow: rgb(255, 255, 255) 1px 1px 1px, rgb(255, 255, 255) -1px -1px 1px, rgb(255, 255, 255) 1px -1px 1px, rgb(255, 255, 255) -1px 1px 1px; white-space: pre;">Exit</text></g></g></g><defs id="topdefs-144d51"><g class="clips"/></defs><g class="layer-above"><g class="imagelayer"/><g class="shapelayer"/></g><g class="infolayer"><g class="g-gtitle"><text class="gtitle" x="35" y="30" text-anchor="start" dy="0em" style="opacity: 1; font-family: 'Open Sans', verdana, arial, sans-serif; font-size: 17px; fill: rgb(42, 63, 95); fill-opacity: 1; white-space: pre;">Sankey — size=state_equity_pct, thickness=total_assets, buckets=state (MA=24M)</text></g><g class="first-render"/><g class="annotation" data-index="0" style="opacity: 1;"><g class="annotation-text-g" transform="rotate(0,72.80000000000001,56.80000000000001)"><g class="cursor-pointer" transform="translate(55,47)"><rect class="bg" x="0.5" y="0.5" width="34" height="18" style="stroke-width: 1px; stroke: rgb(0, 0, 0); stroke-opacity: 0; fill: rgb(0, 0, 0); fill-opacity: 0;"/><text class="annotation-text" text-anchor="middle" x="17.2578125" y="14" style="font-family: 'Open Sans', verdana, arial, sans-serif; font-size: 12px; fill: rgb(42, 63, 95); fill-opacity: 1; white-space: pre;">2004</text></g></g></g><g class="annotation" data-index="1" style="opacity: 1;"><g class="annotation-text-g" transform="rotate(0,169.60000000000002,56.80000000000001)"><g class="cursor-pointer" transform="translate(152,47)"><rect class="bg" x="0.5" y="0.5" width="34" height="18" style="stroke-width: 1px; stroke: rgb(0, 0, 0); stroke-opacity: 0; fill: rgb(0, 0, 0); fill-opacity: 0;"/><text class="annotation-text" text-anchor="middle" x="17.2578125" y="14" style="font-family: 'Open Sans', verdana, arial, sans-serif; font-size: 12px; fill: rgb(42, 63, 95); fill-opacity: 1; white-space: pre;">2007</text></g></g></g><g class="annotation" data-index="2" style="opacity: 1;"><g class="annotation-text-g" transform="rotate(0,266.4,56.80000000000001)"><g class="cursor-pointer" transform="translate(249,47)"><rect class="bg" x="0.5" y="0.5" width="34" height="18" style="stroke-width: 1px; stroke: rgb(0, 0, 0); stroke-opacity: 0; fill: rgb(0, 0, 0); fill-opacity: 0;"/><text class="annotation-text" text-anchor="middle" x="17.2578125" y="14" style="font-family: 'Open Sans', verdana, arial, sans-serif; font-size: 12px; fill: rgb(42, 63, 95); fill-opacity: 1; white-space: pre;">2010</text></g></g></g><g class="annotation" data-index="3" style="opacity: 1;"><g class="annotation-text-g" transform="rotate(0,363.2,56.80000000000001)"><g class="cursor-pointer" transform="translate(346,47)"><rect class="bg" x="0.5" y="0.5" width="34" height="18" style="stroke-width: 1px; stroke: rgb(0, 0, 0); stroke-opacity: 0; fill: rgb(0, 0, 0); fill-opacity: 0;"/><text class="annotation-text" text-anchor="middle" x="17.2578125" y="14" style="font-family: 'Open Sans', verdana, arial, sans-serif; font-size: 12px; fill: rgb(42, 63, 95); fill-opacity: 1; white-space: pre;">2013</text></g></g></g><g class="annotation" data-index="4" style="opacity: 1;"><g class="annotation-text-g" transform="rotate(0,460,56.80000000000001)"><g class="cursor-pointer" transform="translate(443,47)"><rect class="bg" x="0.5" y="0.5" width="34" height="18" style="stroke-width: 1px; stroke: rgb(0, 0, 0); stroke-opacity: 0; fill: rgb(0, 0, 0); fill-opacity: 0;"/><text class="annotation-text" text-anchor="middle" x="17.2578125" y="14" style="font-family: 'Open Sans', verdana, arial, sans-serif; font-size: 12px; fill: rgb(42, 63, 95); fill-opacity: 1; white-space: pre;">2016</text></g></g></g><g class="annotation" data-index="5" style="opacity: 1;"><g class="annotation-text-g" transform="rotate(0,556.8000000000001,56.80000000000001)"><g class="cursor-pointer" transform="translate(539,47)"><rect class="bg" x="0.5" y="0.5" width="34" height="18" style="stroke-width: 1px; stroke: rgb(0, 0, 0); stroke-opacity: 0; fill: rgb(0, 0, 0); fill-opacity: 0;"/><text class="annotation-text" text-anchor="middle" x="17.2578125" y="14" style="font-family: 'Open Sans', verdana, arial, sans-serif; font-size: 12px; fill: rgb(42, 63, 95); fill-opacity: 1; white-space: pre;">2019</text></g></g></g><g class="annotation" data-index="6" style="opacity: 1;"><g class="annotation-text-g" transform="rotate(0,653.6,56.80000000000001)"><g class="cursor-pointer" transform="translate(636,47)"><rect class="bg" x="0.5" y="0.5" width="34" height="18" style="stroke-width: 1px; stroke: rgb(0, 0, 0); stroke-opacity: 0; fill: rgb(0, 0, 0); fill-opacity: 0;"/><text class="annotation-text" text-anchor="middle" x="17.2578125" y="14" style="font-family: 'Open Sans', verdana, arial, sans-serif; font-size: 12px; fill: rgb(42, 63, 95); fill-opacity: 1; white-space: pre;">2021</text></g></g></g></g></svg>