<svg class="main-svg" xmlns="http://www.w3.org/2000/svg" xmlns:xlink="http://www.w3.org/1999/xlink" width="700" height="500" style="" viewBox="0 0 700 500"><rect x="0" y="0" width="700" height="500" style="fill: rgb(255, 255, 255); fill-opacity: 1;"/><defs id="defs-8bb516"><g class="clips"/><g class="gradients"/><g class="patterns"/></defs><g class="bglayer"/><g class="layer-below"><g class="imagelayer"/><g class="shapelayer"/></g><g class="cartesianlayer"/><g class="polarlayer"/><g class="smithlayer"/><g class="ternarylayer"/><g class="geolayer"/><g class="funnelarealayer"/><g class="pielayer"/><g class="iciclelayer"/><g class="treemaplayer"/><g class="sunburstlayer"/><g class="glimages"/><g class="sankey" transform="translate(20,60)matrix(1 0 0 1 0 0)" style="box-sizing: content-box; position: absolute; left: 0px; shape-rendering: geometricprecision; pointer-events: none;"><g class="sankey-links" style="fill: none;"><path class="sankey-link" d="M158.60000000000002,136.13247578638533C198,136.13247578638533 198,22.884417982474183 237.4,22.884417982474183L237.4,31.477780912478565C198,31.477780912478565 198,144.72583871638972 158.60000000000002,144.72583871638972Z" style="stroke: rgb(68, 68, 68); stroke-opacity: 1; fill: rgb(76, 175, 80); fill-opacity: 0.5; stroke-width: 0; opacity: 1;"/><path class="sankey-link" d="M255.4,52.561132885349934C294.8,52.561132885349934 294.8,196.30225569372726 334.2,196.30225569372726L334.2,202.45670482590322C294.8,202.45670482590322 294.8,58.71558201752589 255.4,58.71558201752589Z" style="stroke: rgb(68, 68, 68); stroke-opacity: 1; fill: rgb(244, 67, 54); fill-opacity: 0.55; stroke-width: 0; opacity: 1;"/><path class="sankey-link" d="M352.2,110.580462780779C343.2,110.580462780779 343.2,375.80614780940704 334.2,375.80614780940704L334.2,385.7253771193804C343.2,385.7253771193804 343.2,120.49969209075242 352.2,120.49969209075242Z" style="stroke: rgb(68, 68, 68); stroke-opacity: 1; fill: rgb(76, 175, 80); fill-opacity: 0.5; stroke-width: 0; opacity: 1;"/><path class="sankey-link" d="M255.4,202.27941858675257C294.8,202.27941858675257 294.8,151.25197652481597 334.2,151.25197652481597L334.2,161.02077776890133C294.8,161.02077776890133 294.8,212.04821983083792 255.4,212.04821983083792Z" style="stroke: rgb(68, 68, 68); stroke-opacity: 1; fill: rgb(76, 175, 80); fill-opacity: 0.5; stroke-width: 0; opacity: 1;"/><path class="sankey-link" d="M352.2,142.45817590907646C391.6,142.45817590907646 391.6,98.50789085598937 431,98.50789085598937L431,108.27812852194567C391.6,108.27812852194567 391.6,152.22841357503276 352.2,152.22841357503276Z" style="stroke: rgb(68, 68, 68); stroke-opacity: 1; fill: rgb(76, 175, 80); fill-opacity: 0.5; stroke-width: 0; opacity: 1;"/><path class="sankey-link" d="M61.800000000000004,88.28916007572627C101.20000000000002,88.28916007572627 101.20000000000002,90.89938944101841 140.60000000000002,90.89938944101841L140.60000000000002,96.28541278484515C101.20000000000002,96.28541278484515 101.20000000000002,93.67518341955301 61.800000000000004,93.67518341955301Z" style="stroke: rgb(68, 68, 68); stroke-opacity: 1; fill: rgb(244, 67, 54); fill-opacity: 0.55; stroke-width: 0; opacity: 1;"/><path class="sankey-link" d="M158.60000000000002,200.6417407605722C198,200.6417407605722 198,87.74154667826524 237.4,87.74154667826524L237.4,95.91442422205141C198,95.91442422205141 198,208.81461830435836 158.60000000000002,208.81461830435836Z" style="stroke: rgb(68, 68, 68); stroke-opacity: 1; fill: rgb(76, 175, 80); fill-opacity: 0.5; stroke-width: 0; opacity: 1;"/><path class="sankey-link" d="M158.60000000000002,260.23321049039765C198,260.23321049039765 198,146.7500360232545 237.4,146.7500360232545L237.4,154.3490966064653C198,154.3490966064653 198,267.8322710736085 158.60000000000002,267.8322710736085Z" style="stroke: rgb(68, 68, 68); stroke-opacity: 1; fill: rgb(76, 175, 80); fill-opacity: 0.5; stroke-width: 0; opacity: 1;"/><path class="sankey-link" d="M352.2,104.57443795227749C343.2,104.57443795227749 343.2,312.58957838128543 334.2,312.58957838128543L334.2,318.59560320978693C343.2,318.59560320978693 343.2,110.58046278077902 352.2,110.58046278077902Z" style="stroke: rgb(68, 68, 68); stroke-opacity: 1; fill: rgb(76, 175, 80); fill-opacity: 0.5; stroke-width: 0; opacity: 1;"/><path class="sankey-link" d="M158.60000000000002,331.2770144479236C198,331.2770144479236 198,270.00864461820646 237.4,270.00864461820646L237.4,281.53849791684837C198,281.53849791684837 198,342.8068677465655 158.60000000000002,342.8068677465655Z" style="stroke: rgb(68, 68, 68); stroke-opacity: 1; fill: rgb(244, 67, 54); fill-opacity: 0.55; stroke-width: 0; opacity: 1;"/><path class="sankey-link" d="M158.60000000000002,159.74722657689952C198,159.74722657689952 198,188.39454603357353 237.4,188.39454603357353L237.4,193.30528428788665C198,193.30528428788665 198,164.65796483121264 158.60000000000002,164.65796483121264Z" style="stroke: rgb(68, 68, 68); stroke-opacity: 1; fill: rgb(76, 175, 80); fill-opacity: 0.5; stroke-width: 0; opacity: 1;"/><path class="sankey-link" d="M61.800000000000004,203.50054973300206C101.20000000000002,203.50054973300206 101.20000000000002,102.27571145017205 140.60000000000002,102.27571145017205L140.60000000000002,108.2535603414835C101.20000000000002,108.2535603414835 101.20000000000002,209.4783986243135 61.800000000000004,209.4783986243135Z" style="stroke: rgb(68, 68, 68); stroke-opacity: 1; fill: rgb(244, 67, 54); fill-opacity: 0.55; stroke-width: 0; opacity: 1;"/><path class="sankey-link" d="M61.800000000000004,250.95870190775832C101.20000000000002,250.95870190775832 101.20000000000002,141.92027433789934 140.60000000000002,141.92027433789934L140.60000000000002,148.68951169594249C101.20000000000002,148.68951169594249 101.20000000000002,257.72793926580147 61.800000000000004,257.72793926580147Z" style="stroke: rgb(68, 68, 68); stroke-opacity: 1; fill: rgb(76, 175, 80); fill-opacity: 0.5; stroke-width: 0; opacity: 1;"/><path class="sankey-link" d="M255.4,39.02438189779129C294.8,39.02438189779129 294.8,133.31397233645166 334.2,133.31397233645166L334.2,138.02277218047905C294.8,138.02277218047905 294.8,43.733181741818655 255.4,43.733181741818655Z" style="stroke: rgb(68, 68, 68); stroke-opacity: 1; fill: rgb(76, 175, 80); fill-opacity: 0.5; stroke-width: 0; opacity: 1;"/><path class="sankey-link" d="M158.60000000000002,164.65796483121267C198,164.65796483121267 198,251.26150208315178 237.4,251.26150208315178L237.4,257.6710614655538C198,257.6710614655538 198,171.06752421361466 158.60000000000002,171.06752421361466Z" style="stroke: rgb(68, 68, 68); stroke-opacity: 1; fill: rgb(244, 67, 54); fill-opacity: 0.55; stroke-width: 0; opacity: 1;"/><path class="sankey-link" d="M61.800000000000004,37.3157676475205C52.800000000000004,37.3157676475205 52.800000000000004,250.95870190775832 43.800000000000004,250.95870190775832L43.800000000000004,257.4673748234113C52.800000000000004,257.4673748234113 52.800000000000004,43.82444056317347 61.800000000000004,43.82444056317347Z" style="stroke: rgb(68, 68, 68); stroke-opacity: 1; fill: rgb(76, 175, 80); fill-opacity: 0.5; stroke-width: 0; opacity: 1;"/><path class="sankey-link" d="M255.4,319.7938747716096C294.8,319.7938747716096 294.8,334.8688770839003 334.2,334.8688770839003L334.2,340.6257008996183C294.8,340.6257008996183 294.8,325.5506985873276 255.4,325.5506985873276Z" style="stroke: rgb(68, 68, 68); stroke-opacity: 1; fill: rgb(76, 175, 80); fill-opacity: 0.5; stroke-width: 0; opacity: 1;"/><path class="sankey-link" d="M158.60000000000002,153.8023860716708C198,153.8023860716708 198,134.16461648381602 237.4,134.16461648381602L237.4,140.10945698904476C198,140.10945698904476 198,159.74722657689955 158.60000000000002,159.74722657689955Z" style="stroke: rgb(68, 68, 68); stroke-opacity: 1; fill: rgb(76, 175, 80); fill-opacity: 0.5; stroke-width: 0; opacity: 1;"/><path class="sankey-link" d="M255.4,165.64115149454932C294.8,165.64115149454932 294.8,209.2460078369784 334.2,209.2460078369784L334.2,216.64023985861317C294.8,216.64023985861317 294.8,173.03538351618408 255.4,173.03538351618408Z" style="stroke: rgb(68, 68, 68); stroke-opacity: 1; fill: rgb(244, 67, 54); fill-opacity: 0.55; stroke-width: 0; opacity: 1;"/><path class="sankey-link" d="M61.800000000000004,212.75965877591653C52.800000000000004,212.75965877591653 52.800000000000004,325.08147245429467 43.800000000000004,325.08147245429467L43.800000000000004,331.44636216182863C52.800000000000004,331.44636216182863 52.800000000000004,219.1245484834505 61.800000000000004,219.1245484834505Z" style="stroke: rgb(68, 68, 68); stroke-opacity: 1; fill: rgb(76, 175, 80); fill-opacity: 0.5; stroke-width: 0; opacity: 1;"/><path class="sankey-link" d="M352.2,161.41720099054055C343.2,161.41720099054055 343.2,267.46722689028593 334.2,267.46722689028593L334.2,273.0733317688083C343.2,273.0733317688083 343.2,167.02330586906294 352.2,167.02330586906294Z" style="stroke: rgb(68, 68, 68); stroke-opacity: 1; fill: rgb(76, 175, 80); fill-opacity: 0.5; stroke-width: 0; opacity: 1;"/><path class="sankey-link" d="M158.60000000000002,215.4551973385681C198,215.4551973385681 198,193.30528428788668 237.4,193.30528428788668L237.4,199.6009519461779C198,199.6009519461779 198,221.75086499685932 158.60000000000002,221.75086499685932Z" style="stroke: rgb(68, 68, 68); stroke-opacity: 1; fill: rgb(76, 175, 80); fill-opacity: 0.5; stroke-width: 0; opacity: 1;"/><path class="sankey-link" d="M158.60000000000002,221.75086499685932C198,221.75086499685932 198,257.6710614655538 237.4,257.6710614655538L237.4,263.64188099567633C198,263.64188099567633 198,227.7216845269819 158.60000000000002,227.7216845269819Z" style="stroke: rgb(68, 68, 68); stroke-opacity: 1; fill: rgb(244, 67, 54); fill-opacity: 0.55; stroke-width: 0; opacity: 1;"/><path class="sankey-link" d="M61.800000000000004,25.518190743259247C101.20000000000002,25.518190743259247 101.20000000000002,22.553785727793063 140.60000000000002,22.553785727793063L140.60000000000002,29.598412849552396C101.20000000000002,29.598412849552396 101.20000000000002,32.56281786501858 61.800000000000004,32.56281786501858Z" style="stroke: rgb(68, 68, 68); stroke-opacity: 1; fill: rgb(76, 175, 80); fill-opacity: 0.5; stroke-width: 0; opacity: 1;"/><path class="sankey-link" d="M61.800000000000004,361.0305426959139C101.20000000000002,361.0305426959139 101.20000000000002,157.48987173235963 140.60000000000002,157.48987173235963L140.60000000000002,165.37542618423487C101.20000000000002,165.37542618423487 101.20000000000002,368.9160971477891 61.800000000000004,368.9160971477891Z" style="stroke: rgb(68, 68, 68); stroke-opacity: 1; fill: rgb(76, 175, 80); fill-opacity: 0.5; stroke-width: 0; opacity: 1;"/><path class="sankey-link" d="M61.800000000000004,368.9160971477891C101.20000000000002,368.9160971477891 101.20000000000002,212.15401025086948 140.60000000000002,212.15401025086948L140.60000000000002,219.63223599195493C101.20000000000002,219.63223599195493 101.20000000000002,376.39432288887457 61.800000000000004,376.39432288887457Z" style="stroke: rgb(68, 68, 68); stroke-opacity: 1; fill: rgb(76, 175, 80); fill-opacity: 0.5; stroke-width: 0; opacity: 1;"/><path class="sankey-link" d="M61.800000000000004,333.79946613266384C101.20000000000002,333.79946613266384 101.20000000000002,379.3958277428985 140.60000000000002,379.3958277428985L140.60000000000002,385.2549453096741C101.20000000000002,385.2549453096741 101.20000000000002,339.6585836994394 61.800000000000004,339.6585836994394Z" style="stroke: rgb(68, 68, 68); stroke-opacity: 1; fill: rgb(244, 67, 54); fill-opacity: 0.55; stroke-width: 0; opacity: 1;"/><path class="sankey-link" d="M61.800000000000004,274.71708227995674C101.20000000000002,274.71708227995674 101.20000000000002,372.27161193061363 140.60000000000002,372.27161193061363L140.60000000000002,379.3958277428985C101.20000000000002,379.3958277428985 101.20000000000002,281.84129809224163 61.800000000000004,281.84129809224163Z" style="stroke: rgb(68, 68, 68); stroke-opacity: 1; fill: rgb(244, 67, 54); fill-opacity: 0.55; stroke-width: 0; opacity: 1;"/><path class="sankey-link" d="M61.800000000000004,267.82580391781505C101.20000000000002,267.82580391781505 101.20000000000002,312.59096484498355 140.60000000000002,312.59096484498355L140.60000000000002,319.4822432071252C101.20000000000002,319.4822432071252 101.20000000000002,274.7170822799567 61.800000000000004,274.7170822799567Z" style="stroke: rgb(68, 68, 68); stroke-opacity: 1; fill: rgb(76, 175, 80); fill-opacity: 0.5; stroke-width: 0; opacity: 1;"/><path class="sankey-link" d="M255.4,108.94569766594063C294.8,108.94569766594063 294.8,202.45670482590322 334.2,202.45670482590322L334.2,209.24600783697838C294.8,209.24600783697838 294.8,115.73500067701582 255.4,115.73500067701582Z" style="stroke: rgb(68, 68, 68); stroke-opacity: 1; fill: rgb(244, 67, 54); fill-opacity: 0.55; stroke-width: 0; opacity: 1;"/><path class="sankey-link" d="M255.4,203.11628912562003C294.8,203.11628912562003 294.8,385.7253771193804 334.2,385.7253771193804L334.2,392.1992062145036C294.8,392.1992062145036 294.8,209.59011822074325 255.4,209.59011822074325Z" style="stroke: rgb(68, 68, 68); stroke-opacity: 1; fill: rgb(76, 175, 80); fill-opacity: 0.5; stroke-width: 0; opacity: 1;"/><path class="sankey-link" d="M61.800000000000004,138.12442089275453C101.20000000000002,138.12442089275453 101.20000000000002,34.48084348962467 140.60000000000002,34.48084348962467L140.60000000000002,40.483547494745245C101.20000000000002,40.483547494745245 101.20000000000002,144.1271248978751 61.800000000000004,144.1271248978751Z" style="stroke: rgb(68, 68, 68); stroke-opacity: 1; fill: rgb(76, 175, 80); fill-opacity: 0.5; stroke-width: 0; opacity: 1;"/><path class="sankey-link" d="M255.4,151.63804600708633C294.8,151.63804600708633 294.8,143.93380271953217 334.2,143.93380271953217L334.2,151.25197652481594C294.8,151.25197652481594 294.8,158.9562198123701 255.4,158.9562198123701Z" style="stroke: rgb(68, 68, 68); stroke-opacity: 1; fill: rgb(76, 175, 80); fill-opacity: 0.5; stroke-width: 0; opacity: 1;"/><path class="sankey-link" d="M158.60000000000002,302.79313225343464C198,302.79313225343464 198,39.84120620003261 237.4,39.84120620003261L237.4,44.701671214481145C198,44.701671214481145 198,307.6535972678832 158.60000000000002,307.6535972678832Z" style="stroke: rgb(68, 68, 68); stroke-opacity: 1; fill: rgb(76, 175, 80); fill-opacity: 0.5; stroke-width: 0; opacity: 1;"/><path class="sankey-link" d="M158.60000000000002,313.4891643078288C198,313.4891643078288 198,154.3490966064653 237.4,154.3490966064653L237.4,162.54979584985745C198,162.54979584985745 198,321.6898635512209 158.60000000000002,321.6898635512209Z" style="stroke: rgb(68, 68, 68); stroke-opacity: 1; fill: rgb(76, 175, 80); fill-opacity: 0.5; stroke-width: 0; opacity: 1;"/><path class="sankey-link" d="M61.800000000000004,390.2742832366638C101.20000000000002,390.2742832366638 101.20000000000002,385.2549453096741 140.60000000000002,385.2549453096741L140.60000000000002,392.3501193770966C101.20000000000002,392.3501193770966 101.20000000000002,397.36945730408627 61.800000000000004,397.36945730408627Z" style="stroke: rgb(68, 68, 68); stroke-opacity: 1; fill: rgb(244, 67, 54); fill-opacity: 0.55; stroke-width: 0; opacity: 1;"/><path class="sankey-link" d="M158.60000000000002,321.6898635512209C198,321.6898635512209 198,206.09441188259166 237.4,206.09441188259166L237.4,215.68156277929432C198,215.68156277929432 198,331.27701444792365 158.60000000000002,331.27701444792365Z" style="stroke: rgb(68, 68, 68); stroke-opacity: 1; fill: rgb(76, 175, 80); fill-opacity: 0.5; stroke-width: 0; opacity: 1;"/><path class="sankey-link" d="M61.800000000000004,150.117423563202C52.800000000000004,150.117423563202 52.800000000000004,264.2774543673502 43.800000000000004,264.2774543673502L43.800000000000004,269.8683852266105C52.800000000000004,269.8683852266105 52.800000000000004,155.70835442246238 61.800000000000004,155.70835442246238Z" style="stroke: rgb(68, 68, 68); stroke-opacity: 1; fill: rgb(76, 175, 80); fill-opacity: 0.5; stroke-width: 0; opacity: 1;"/><path class="sankey-link" d="M352.2,85.64383966181936C391.6,85.64383966181936 391.6,87.08481217417074 431,87.08481217417074L431,98.50789085598936C391.6,98.50789085598936 391.6,97.06691834363798 352.2,97.06691834363798Z" style="stroke: rgb(68, 68, 68); stroke-opacity: 1; fill: rgb(76, 175, 80); fill-opacity: 0.5; stroke-width: 0; opacity: 1;"/><path class="sankey-link" d="M61.800000000000004,43.824440563173475C52.800000000000004,43.824440563173475 52.800000000000004,305.94141630056066 43.800000000000004,305.94141630056066L43.800000000000004,313.07454322719417C52.800000000000004,313.07454322719417 52.800000000000004,50.957567489807 61.800000000000004,50.957567489807Z" style="stroke: rgb(68, 68, 68); stroke-opacity: 1; fill: rgb(76, 175, 80); fill-opacity: 0.5; stroke-width: 0; opacity: 1;"/><path class="sankey-link" d="M158.60000000000002,274.3257310100222C198,274.3257310100222 198,263.6418809956764 237.4,263.6418809956764L237.4,270.0086446182064C198,270.0086446182064 198,280.6924946325522 158.60000000000002,280.6924946325522Z" style="stroke: rgb(68, 68, 68); stroke-opacity: 1; fill: rgb(244, 67, 54); fill-opacity: 0.55; stroke-width: 0; opacity: 1;"/><path class="sankey-link" d="M352.2,152.22841357503276C391.6,152.22841357503276 391.6,152.59774004821466 431,152.59774004821466L431,161.78652746372242C391.6,161.78652746372242 391.6,161.41720099054052 352.2,161.41720099054052Z" style="stroke: rgb(68, 68, 68); stroke-opacity: 1; fill: rgb(244, 67, 54); fill-opacity: 0.55; stroke-width: 0; opacity: 1;"/><path class="sankey-link" d="M255.4,134.16461648381602C294.8,134.16461648381602 294.8,33.20104863335986 334.2,33.20104863335986L334.2,42.29812118536414C294.8,42.29812118536414 294.8,143.26168903582027 255.4,143.26168903582027Z" style="stroke: rgb(68, 68, 68); stroke-opacity: 1; fill: rgb(76, 175, 80); fill-opacity: 0.5; stroke-width: 0; opacity: 1;"/><path class="sankey-link" d="M158.60000000000002,267.83227107360847C198,267.83227107360847 198,199.6009519461779 237.4,199.6009519461779L237.4,206.09441188259163C198,206.09441188259163 198,274.3257310100222 158.60000000000002,274.3257310100222Z" style="stroke: rgb(68, 68, 68); stroke-opacity: 1; fill: rgb(76, 175, 80); fill-opacity: 0.5; stroke-width: 0; opacity: 1;"/><path class="sankey-link" d="M158.60000000000002,35.86023120068728C149.60000000000002,35.86023120068728 149.60000000000002,252.10750536744786 140.60000000000002,252.10750536744786L140.60000000000002,259.27392453970833C149.60000000000002,259.27392453970833 149.60000000000002,43.02665037294777 158.60000000000002,43.02665037294777Z" style="stroke: rgb(68, 68, 68); stroke-opacity: 1; fill: rgb(76, 175, 80); fill-opacity: 0.5; stroke-width: 0; opacity: 1;"/><path class="sankey-link" d="M352.2,33.094453006496714C391.6,33.094453006496714 391.6,138.74003723458404 431,138.74003723458404L431,145.09022043957518C391.6,145.09022043957518 391.6,39.444636211487826 352.2,39.444636211487826Z" style="stroke: rgb(68, 68, 68); stroke-opacity: 1; fill: rgb(244, 67, 54); fill-opacity: 0.55; stroke-width: 0; opacity: 1;"/><path class="sankey-link" d="M61.800000000000004,83.406729435654C101.20000000000002,83.406729435654 101.20000000000002,29.5984128495524 140.60000000000002,29.5984128495524L140.60000000000002,34.48084348962467C101.20000000000002,34.48084348962467 101.20000000000002,88.28916007572627 61.800000000000004,88.28916007572627Z" style="stroke: rgb(68, 68, 68); stroke-opacity: 1; fill: rgb(76, 175, 80); fill-opacity: 0.5; stroke-width: 0; opacity: 1;"/><path class="sankey-link" d="M61.800000000000004,257.72793926580147C101.20000000000002,257.72793926580147 101.20000000000002,199.79696239439835 140.60000000000002,199.79696239439835L140.60000000000002,204.50134031404957C101.20000000000002,204.50134031404957 101.20000000000002,262.43231718545263 61.800000000000004,262.43231718545263Z" style="stroke: rgb(68, 68, 68); stroke-opacity: 1; fill: rgb(76, 175, 80); fill-opacity: 0.5; stroke-width: 0; opacity: 1;"/><path class="sankey-link" d="M61.800000000000004,144.1271248978751C101.20000000000002,144.1271248978751 101.20000000000002,96.28541278484514 140.60000000000002,96.28541278484514L140.60000000000002,102.27571145017205C101.20000000000002,102.27571145017205 101.20000000000002,150.117423563202 61.800000000000004,150.117423563202Z" style="stroke: rgb(68, 68, 68); stroke-opacity: 1; fill: rgb(244, 67, 54); fill-opacity: 0.55; stroke-width: 0; opacity: 1;"/><path class="sankey-link" d="M255.4,180.48584773353986C343.2,180.48584773353986 343.2,108.27812852194567 431,108.27812852194567L431,114.8245825327039C343.2,114.8245825327039 343.2,187.03230174429808 255.4,187.03230174429808Z" style="stroke: rgb(68, 68, 68); stroke-opacity: 1; fill: rgb(76, 175, 80); fill-opacity: 0.5; stroke-width: 0; opacity: 1;"/><path class="sankey-link" d="M61.800000000000004,262.4323171854527C101.20000000000002,262.4323171854527 101.20000000000002,259.27392453970833 140.60000000000002,259.27392453970833L140.60000000000002,264.6674112720707C101.20000000000002,264.6674112720707 101.20000000000002,267.82580391781505 61.800000000000004,267.82580391781505Z" style="stroke: rgb(68, 68, 68); stroke-opacity: 1; fill: rgb(76, 175, 80); fill-opacity: 0.5; stroke-width: 0; opacity: 1;"/><path class="sankey-link" d="M255.4,86.9884266925572C294.8,86.9884266925572 294.8,82.35682238538206 334.2,82.35682238538206L334.2,91.4232641980627C294.8,91.4232641980627 294.8,96.05486850523783 255.4,96.05486850523783Z" style="stroke: rgb(68, 68, 68); stroke-opacity: 1; fill: rgb(76, 175, 80); fill-opacity: 0.5; stroke-width: 0; opacity: 1;"/><path class="sankey-link" d="M61.800000000000004,161.8981139667335C52.800000000000004,161.8981139667335 52.800000000000004,370.8456223808725 43.800000000000004,370.8456223808725L43.800000000000004,378.0230875213845C52.800000000000004,378.0230875213845 52.800000000000004,169.07557910724546 61.800000000000004,169.07557910724546Z" style="stroke: rgb(68, 68, 68); stroke-opacity: 1; fill: rgb(76, 175, 80); fill-opacity: 0.5; stroke-width: 0; opacity: 1;"/><path class="sankey-link" d="M352.2,97.066918343638C391.6,97.066918343638 391.6,145.09022043957515 431,145.09022043957515L431,152.59774004821463C391.6,152.59774004821463 391.6,104.5744379522775 352.2,104.5744379522775Z" style="stroke: rgb(68, 68, 68); stroke-opacity: 1; fill: rgb(244, 67, 54); fill-opacity: 0.55; stroke-width: 0; opacity: 1;"/><path class="sankey-link" d="M158.60000000000002,43.02665037294776C149.60000000000002,43.02665037294776 149.60000000000002,302.79313225343464 140.60000000000002,302.79313225343464L140.60000000000002,312.5909648449835C149.60000000000002,312.5909648449835 149.60000000000002,52.82448296449666 158.60000000000002,52.82448296449666Z" style="stroke: rgb(68, 68, 68); stroke-opacity: 1; fill: rgb(76, 175, 80); fill-opacity: 0.5; stroke-width: 0; opacity: 1;"/><path class="sankey-link" d="M158.60000000000002,144.72583871638972C198,144.72583871638972 198,78.66499932298416 237.4,78.66499932298416L237.4,87.74154667826525C198,87.74154667826525 198,153.8023860716708 158.60000000000002,153.8023860716708Z" style="stroke: rgb(68, 68, 68); stroke-opacity: 1; fill: rgb(76, 175, 80); fill-opacity: 0.5; stroke-width: 0; opacity: 1;"/><path class="sankey-link" d="M255.4,143.2616890358203C294.8,143.2616890358203 294.8,91.4232641980627 334.2,91.4232641980627L334.2,99.79962116932873C294.8,99.79962116932873 294.8,151.63804600708633 255.4,151.63804600708633Z" style="stroke: rgb(68, 68, 68); stroke-opacity: 1; fill: rgb(76, 175, 80); fill-opacity: 0.5; stroke-width: 0; opacity: 1;"/><path class="sankey-link" d="M255.4,218.5356990619857C294.8,218.5356990619857 294.8,216.64023985861317 334.2,216.64023985861317L334.2,223.69774430627305C294.8,223.69774430627305 294.8,225.59320350964558 255.4,225.59320350964558Z" style="stroke: rgb(68, 68, 68); stroke-opacity: 1; fill: rgb(244, 67, 54); fill-opacity: 0.55; stroke-width: 0; opacity: 1;"/><path class="sankey-link" d="M61.800000000000004,50.957567489807005C52.800000000000004,50.957567489807005 52.800000000000004,361.0305426959139 43.800000000000004,361.0305426959139L43.800000000000004,366.15478446284766C52.800000000000004,366.15478446284766 52.800000000000004,56.08180925674078 61.800000000000004,56.08180925674078Z" style="stroke: rgb(68, 68, 68); stroke-opacity: 1; fill: rgb(76, 175, 80); fill-opacity: 0.5; stroke-width: 0; opacity: 1;"/><path class="sankey-link" d="M61.800000000000004,305.94141630056066C101.20000000000002,305.94141630056066 101.20000000000002,148.68951169594246 140.60000000000002,148.68951169594246L140.60000000000002,157.48987173235966C101.20000000000002,157.48987173235966 101.20000000000002,314.7417763369778 61.800000000000004,314.7417763369778Z" style="stroke: rgb(68, 68, 68); stroke-opacity: 1; fill: rgb(76, 175, 80); fill-opacity: 0.5; stroke-width: 0; opacity: 1;"/><path class="sankey-link" d="M255.4,170.80988177925695C343.2,170.80988177925695 343.2,50.60132792296583 431,50.60132792296583L431,60.277293877248745C343.2,60.277293877248745 343.2,180.48584773353986 255.4,180.48584773353986Z" style="stroke: rgb(68, 68, 68); stroke-opacity: 1; fill: rgb(76, 175, 80); fill-opacity: 0.5; stroke-width: 0; opacity: 1;"/><path class="sankey-link" d="M255.4,22.884417982474183C294.8,22.884417982474183 294.8,17.19417182460392 334.2,17.19417182460392L334.2,24.87762126378682C294.8,24.87762126378682 294.8,30.567867421657084 255.4,30.567867421657084Z" style="stroke: rgb(68, 68, 68); stroke-opacity: 1; fill: rgb(76, 175, 80); fill-opacity: 0.5; stroke-width: 0; opacity: 1;"/><path class="sankey-link" d="M255.4,225.59320350964558C246.4,225.59320350964558 246.4,319.7938747716096 237.4,319.7938747716096L237.4,325.80612522839056C246.4,325.80612522839056 246.4,231.60545396642655 255.4,231.60545396642655Z" style="stroke: rgb(68, 68, 68); stroke-opacity: 1; fill: rgb(76, 175, 80); fill-opacity: 0.5; stroke-width: 0; opacity: 1;"/><path class="sankey-link" d="M61.800000000000004,314.74177633697786C101.20000000000002,314.74177633697786 101.20000000000002,204.50134031404954 140.60000000000002,204.50134031404954L140.60000000000002,212.15401025086945C101.20000000000002,212.15401025086945 101.20000000000002,322.3944462737978 61.800000000000004,322.3944462737978Z" style="stroke: rgb(68, 68, 68); stroke-opacity: 1; fill: rgb(76, 175, 80); fill-opacity: 0.5; stroke-width: 0; opacity: 1;"/><path class="sankey-link" d="M61.800000000000004,106.3024326463212C52.800000000000004,106.3024326463212 52.800000000000004,366.15478446284766 43.800000000000004,366.15478446284766L43.800000000000004,370.8456223808725C52.800000000000004,370.8456223808725 52.800000000000004,110.99327056434603 61.800000000000004,110.99327056434603Z" style="stroke: rgb(68, 68, 68); stroke-opacity: 1; fill: rgb(76, 175, 80); fill-opacity: 0.5; stroke-width: 0; opacity: 1;"/><path class="sankey-link" d="M61.800000000000004,376.39432288887457C101.20000000000002,376.39432288887457 101.20000000000002,270.1811153610124 140.60000000000002,270.1811153610124L140.60000000000002,277.7548300324744C101.20000000000002,277.7548300324744 101.20000000000002,383.96803756033654 61.800000000000004,383.96803756033654Z" style="stroke: rgb(68, 68, 68); stroke-opacity: 1; fill: rgb(76, 175, 80); fill-opacity: 0.5; stroke-width: 0; opacity: 1;"/><path class="sankey-link" d="M158.60000000000002,192.27831547301815C198,192.27831547301815 198,31.47778091247857 237.4,31.47778091247857L237.4,39.841206200032616C198,39.841206200032616 198,200.6417407605722 158.60000000000002,200.6417407605722Z" style="stroke: rgb(68, 68, 68); stroke-opacity: 1; fill: rgb(76, 175, 80); fill-opacity: 0.5; stroke-width: 0; opacity: 1;"/><path class="sankey-link" d="M352.2,17.19417182460392C391.6,17.19417182460392 391.6,21.322706122751455 431,21.322706122751455L431,29.71359259776954C391.6,29.71359259776954 391.6,25.585058299622006 352.2,25.585058299622006Z" style="stroke: rgb(68, 68, 68); stroke-opacity: 1; fill: rgb(76, 175, 80); fill-opacity: 0.5; stroke-width: 0; opacity: 1;"/><path class="sankey-link" d="M352.2,39.44463621148783C343.2,39.44463621148783 343.2,259.72666823119187 334.2,259.72666823119187L334.2,267.46722689028593C343.2,267.46722689028593 343.2,47.18519487058188 352.2,47.18519487058188Z" style="stroke: rgb(68, 68, 68); stroke-opacity: 1; fill: rgb(76, 175, 80); fill-opacity: 0.5; stroke-width: 0; opacity: 1;"/><path class="sankey-link" d="M61.800000000000004,209.4783986243135C52.800000000000004,209.4783986243135 52.800000000000004,269.86838522661054 43.800000000000004,269.86838522661054L43.800000000000004,273.1496453782136C52.800000000000004,273.1496453782136 52.800000000000004,212.75965877591653 61.800000000000004,212.75965877591653Z" style="stroke: rgb(68, 68, 68); stroke-opacity: 1; fill: rgb(76, 175, 80); fill-opacity: 0.5; stroke-width: 0; opacity: 1;"/><path class="sankey-link" d="M255.4,212.04821983083792C246.4,212.04821983083792 246.4,193.30256322661702 237.4,193.30256322661702L237.4,199.79004245776483C246.4,199.79004245776483 246.4,218.53569906198572 255.4,218.53569906198572Z" style="stroke: rgb(68, 68, 68); stroke-opacity: 1; fill: rgb(76, 175, 80); fill-opacity: 0.5; stroke-width: 0; opacity: 1;"/><path class="sankey-link" d="M158.60000000000002,28.34158427930709C149.60000000000002,28.34158427930709 149.60000000000002,192.27831547301815 140.60000000000002,192.27831547301815L140.60000000000002,199.79696239439835C149.60000000000002,199.79696239439835 149.60000000000002,35.860231200687274 158.60000000000002,35.860231200687274Z" style="stroke: rgb(68, 68, 68); stroke-opacity: 1; fill: rgb(76, 175, 80); fill-opacity: 0.5; stroke-width: 0; opacity: 1;"/><path class="sankey-link" d="M61.800000000000004,219.12454848345052C52.800000000000004,219.12454848345052 52.800000000000004,378.02308752138447 43.800000000000004,378.02308752138447L43.800000000000004,384.98230439348026C52.800000000000004,384.98230439348026 52.800000000000004,226.08376535554632 61.800000000000004,226.08376535554632Z" style="stroke: rgb(68, 68, 68); stroke-opacity: 1; fill: rgb(76, 175, 80); fill-opacity: 0.5; stroke-width: 0; opacity: 1;"/><path class="sankey-link" d="M255.4,193.70573704599178C294.8,193.70573704599178 294.8,325.45832500427207 334.2,325.45832500427207L334.2,334.8688770839003C294.8,334.8688770839003 294.8,203.11628912562003 255.4,203.11628912562003Z" style="stroke: rgb(68, 68, 68); stroke-opacity: 1; fill: rgb(76, 175, 80); fill-opacity: 0.5; stroke-width: 0; opacity: 1;"/><path class="sankey-link" d="M61.800000000000004,383.9680375603365C101.20000000000002,383.9680375603365 101.20000000000002,325.3735589770496 140.60000000000002,325.3735589770496L140.60000000000002,331.6798046533769C101.20000000000002,331.6798046533769 101.20000000000002,390.2742832366638 61.800000000000004,390.2742832366638Z" style="stroke: rgb(68, 68, 68); stroke-opacity: 1; fill: rgb(76, 175, 80); fill-opacity: 0.5; stroke-width: 0; opacity: 1;"/><path class="sankey-link" d="M61.800000000000004,322.39444627379777C101.20000000000002,322.39444627379777 101.20000000000002,264.6674112720707 140.60000000000002,264.6674112720707L140.60000000000002,270.1811153610124C101.20000000000002,270.1811153610124 101.20000000000002,327.9081503627395 61.800000000000004,327.9081503627395Z" style="stroke: rgb(68, 68, 68); stroke-opacity: 1; fill: rgb(76, 175, 80); fill-opacity: 0.5; stroke-width: 0; opacity: 1;"/><path class="sankey-link" d="M255.4,96.05486850523783C294.8,96.05486850523783 294.8,138.02277218047902 334.2,138.02277218047902L334.2,143.9338027195322C294.8,143.9338027195322 294.8,101.96589904429098 255.4,101.96589904429098Z" style="stroke: rgb(68, 68, 68); stroke-opacity: 1; fill: rgb(76, 175, 80); fill-opacity: 0.5; stroke-width: 0; opacity: 1;"/><path class="sankey-link" d="M352.2,25.585058299622006C391.6,25.585058299622006 391.6,79.57541746729603 431,79.57541746729603L431,87.08481217417074C391.6,87.08481217417074 391.6,33.094453006496714 352.2,33.094453006496714Z" style="stroke: rgb(68, 68, 68); stroke-opacity: 1; fill: rgb(76, 175, 80); fill-opacity: 0.5; stroke-width: 0; opacity: 1;"/><path class="sankey-link" d="M158.60000000000002,307.6535972678832C198,307.6535972678832 198,104.0401293450012 237.4,104.0401293450012L237.4,109.87569638494678C198,109.87569638494678 198,313.48916430782873 158.60000000000002,313.48916430782873Z" style="stroke: rgb(68, 68, 68); stroke-opacity: 1; fill: rgb(76, 175, 80); fill-opacity: 0.5; stroke-width: 0; opacity: 1;"/><path class="sankey-link" d="M61.800000000000004,32.56281786501858C101.20000000000002,32.56281786501858 101.20000000000002,86.14643965851648 140.60000000000002,86.14643965851648L140.60000000000002,90.89938944101841C101.20000000000002,90.89938944101841 101.20000000000002,37.31576764752051 61.800000000000004,37.31576764752051Z" style="stroke: rgb(68, 68, 68); stroke-opacity: 1; fill: rgb(244, 67, 54); fill-opacity: 0.55; stroke-width: 0; opacity: 1;"/><path class="sankey-link" d="M352.2,54.80047415148548C343.2,54.80047415148548 343.2,366.20079378549633 334.2,366.20079378549633L334.2,375.806147809407C343.2,375.806147809407 343.2,64.40582817539618 352.2,64.40582817539618Z" style="stroke: rgb(68, 68, 68); stroke-opacity: 1; fill: rgb(76, 175, 80); fill-opacity: 0.5; stroke-width: 0; opacity: 1;"/><path class="sankey-link" d="M61.800000000000004,193.91623464445377C101.20000000000002,193.91623464445377 101.20000000000002,40.483547494745245 140.60000000000002,40.483547494745245L140.60000000000002,50.067862583293554C101.20000000000002,50.067862583293554 101.20000000000002,203.50054973300206 61.800000000000004,203.50054973300206Z" style="stroke: rgb(68, 68, 68); stroke-opacity: 1; fill: rgb(76, 175, 80); fill-opacity: 0.5; stroke-width: 0; opacity: 1;"/><path class="sankey-link" d="M255.4,43.73318174181866C246.4,43.73318174181866 246.4,170.80988177925695 237.4,170.80988177925695L237.4,179.63783292278822C246.4,179.63783292278822 246.4,52.56113288534994 255.4,52.56113288534994Z" style="stroke: rgb(68, 68, 68); stroke-opacity: 1; fill: rgb(76, 175, 80); fill-opacity: 0.5; stroke-width: 0; opacity: 1;"/><path class="sankey-link" d="M352.2,47.185194870581874C343.2,47.185194870581874 343.2,304.9742991003818 334.2,304.9742991003818L334.2,312.5895783812854C343.2,312.5895783812854 343.2,54.80047415148548 352.2,54.80047415148548Z" style="stroke: rgb(68, 68, 68); stroke-opacity: 1; fill: rgb(76, 175, 80); fill-opacity: 0.5; stroke-width: 0; opacity: 1;"/><path class="sankey-link" d="M352.2,133.31397233645166C391.6,133.31397233645166 391.6,41.45712435034103 431,41.45712435034103L431,50.60132792296584C391.6,50.60132792296584 391.6,142.45817590907646 352.2,142.45817590907646Z" style="stroke: rgb(68, 68, 68); stroke-opacity: 1; fill: rgb(76, 175, 80); fill-opacity: 0.5; stroke-width: 0; opacity: 1;"/><path class="sankey-link" d="M158.60000000000002,252.10750536744789C198,252.10750536744789 198,95.9144242220514 237.4,95.9144242220514L237.4,104.04012934500122C198,104.04012934500122 198,260.2332104903977 158.60000000000002,260.2332104903977Z" style="stroke: rgb(68, 68, 68); stroke-opacity: 1; fill: rgb(76, 175, 80); fill-opacity: 0.5; stroke-width: 0; opacity: 1;"/><path class="sankey-link" d="M61.800000000000004,327.9081503627395C101.20000000000002,327.9081503627395 101.20000000000002,319.48224320712524 140.60000000000002,319.48224320712524L140.60000000000002,325.3735589770495C101.20000000000002,325.3735589770495 101.20000000000002,333.7994661326638 61.800000000000004,333.7994661326638Z" style="stroke: rgb(68, 68, 68); stroke-opacity: 1; fill: rgb(76, 175, 80); fill-opacity: 0.5; stroke-width: 0; opacity: 1;"/><path class="sankey-link" d="M352.2,167.02330586906294C343.2,167.02330586906294 343.2,318.59560320978693 334.2,318.59560320978693L334.2,325.458325004272C343.2,325.458325004272 343.2,173.88602766354808 352.2,173.88602766354808Z" style="stroke: rgb(68, 68, 68); stroke-opacity: 1; fill: rgb(76, 175, 80); fill-opacity: 0.5; stroke-width: 0; opacity: 1;"/><path class="sankey-link" d="M61.800000000000004,93.67518341955298C52.800000000000004,93.67518341955298 52.800000000000004,257.4673748234113 43.800000000000004,257.4673748234113L43.800000000000004,264.2774543673502C52.800000000000004,264.2774543673502 52.800000000000004,100.48526296349183 61.800000000000004,100.48526296349183Z" style="stroke: rgb(68, 68, 68); stroke-opacity: 1; fill: rgb(76, 175, 80); fill-opacity: 0.5; stroke-width: 0; opacity: 1;"/><path class="sankey-link" d="M255.4,158.95621981237014C246.4,158.95621981237014 246.4,186.61763154443784 237.4,186.61763154443784L237.4,193.30256322661702C246.4,193.30256322661702 246.4,165.64115149454932 255.4,165.64115149454932Z" style="stroke: rgb(68, 68, 68); stroke-opacity: 1; fill: rgb(76, 175, 80); fill-opacity: 0.5; stroke-width: 0; opacity: 1;"/><path class="sankey-link" d="M158.60000000000002,22.553785727793063C149.60000000000002,22.553785727793063 149.60000000000002,136.13247578638533 140.60000000000002,136.13247578638533L140.60000000000002,141.92027433789934C149.60000000000002,141.92027433789934 149.60000000000002,28.341584279307092 158.60000000000002,28.341584279307092Z" style="stroke: rgb(68, 68, 68); stroke-opacity: 1; fill: rgb(76, 175, 80); fill-opacity: 0.5; stroke-width: 0; opacity: 1;"/><path class="sankey-link" d="M352.2,73.90030790924786C391.6,73.90030790924786 391.6,29.713592597769544 431,29.713592597769544L431,41.45712435034104C391.6,41.45712435034104 391.6,85.64383966181936 352.2,85.64383966181936Z" style="stroke: rgb(68, 68, 68); stroke-opacity: 1; fill: rgb(76, 175, 80); fill-opacity: 0.5; stroke-width: 0; opacity: 1;"/><path class="sankey-link" d="M255.4,78.66499932298416C294.8,78.66499932298416 294.8,24.87762126378682 334.2,24.87762126378682L334.2,33.20104863335986C294.8,33.20104863335986 294.8,86.9884266925572 255.4,86.9884266925572Z" style="stroke: rgb(68, 68, 68); stroke-opacity: 1; fill: rgb(76, 175, 80); fill-opacity: 0.5; stroke-width: 0; opacity: 1;"/><path class="sankey-link" d="M158.60000000000002,52.82448296449666C149.60000000000002,52.82448296449666 149.60000000000002,366.0498806229034 140.60000000000002,366.0498806229034L140.60000000000002,372.27161193061363C149.60000000000002,372.27161193061363 149.60000000000002,59.04621427220689 158.60000000000002,59.04621427220689Z" style="stroke: rgb(68, 68, 68); stroke-opacity: 1; fill: rgb(244, 67, 54); fill-opacity: 0.55; stroke-width: 0; opacity: 1;"/><path class="sankey-link" d="M255.4,187.03230174429808C343.2,187.03230174429808 343.2,161.78652746372245 431,161.78652746372245L431,168.45996276541615C343.2,168.45996276541615 343.2,193.70573704599178 255.4,193.70573704599178Z" style="stroke: rgb(68, 68, 68); stroke-opacity: 1; fill: rgb(244, 67, 54); fill-opacity: 0.55; stroke-width: 0; opacity: 1;"/><path class="sankey-link" d="M255.4,101.96589904429099C246.4,101.96589904429099 246.4,179.63783292278822 237.4,179.63783292278822L237.4,186.61763154443787C246.4,186.61763154443787 246.4,108.94569766594061 255.4,108.94569766594061Z" style="stroke: rgb(68, 68, 68); stroke-opacity: 1; fill: rgb(76, 175, 80); fill-opacity: 0.5; stroke-width: 0; opacity: 1;"/><path class="sankey-link" d="M255.4,188.39454603357353C294.8,188.39454603357353 294.8,42.29812118536414 334.2,42.29812118536414L334.2,48.1730585374154C294.8,48.1730585374154 294.8,194.26948338562482 255.4,194.26948338562482Z" style="stroke: rgb(68, 68, 68); stroke-opacity: 1; fill: rgb(76, 175, 80); fill-opacity: 0.5; stroke-width: 0; opacity: 1;"/><path class="sankey-link" d="M61.800000000000004,100.48526296349183C52.800000000000004,100.48526296349183 52.800000000000004,313.07454322719417 43.800000000000004,313.07454322719417L43.800000000000004,318.8917129100235C52.800000000000004,318.8917129100235 52.800000000000004,106.3024326463212 61.800000000000004,106.3024326463212Z" style="stroke: rgb(68, 68, 68); stroke-opacity: 1; fill: rgb(76, 175, 80); fill-opacity: 0.5; stroke-width: 0; opacity: 1;"/><path class="sankey-link" d="M255.4,194.2694833856248C294.8,194.2694833856248 294.8,99.79962116932873 334.2,99.79962116932873L334.2,107.80955637045653C294.8,107.80955637045653 294.8,202.2794185867526 255.4,202.2794185867526Z" style="stroke: rgb(68, 68, 68); stroke-opacity: 1; fill: rgb(76, 175, 80); fill-opacity: 0.5; stroke-width: 0; opacity: 1;"/><path class="sankey-link" d="M61.800000000000004,155.70835442246238C52.800000000000004,155.70835442246238 52.800000000000004,318.89171291002356 43.800000000000004,318.89171291002356L43.800000000000004,325.0814724542946C52.800000000000004,325.0814724542946 52.800000000000004,161.8981139667335 61.800000000000004,161.8981139667335Z" style="stroke: rgb(68, 68, 68); stroke-opacity: 1; fill: rgb(76, 175, 80); fill-opacity: 0.5; stroke-width: 0; opacity: 1;"/><path class="sankey-link" d="M158.60000000000002,208.81461830435836C198,208.81461830435836 198,140.10945698904473 237.4,140.10945698904473L237.4,146.75003602325447C198,146.75003602325447 198,215.4551973385681 158.60000000000002,215.4551973385681Z" style="stroke: rgb(68, 68, 68); stroke-opacity: 1; fill: rgb(76, 175, 80); fill-opacity: 0.5; stroke-width: 0; opacity: 1;"/><path class="sankey-link" d="M255.4,30.567867421657084C294.8,30.567867421657084 294.8,73.90030790924786 334.2,73.90030790924786L334.2,82.35682238538206C294.8,82.35682238538206 294.8,39.02438189779129 255.4,39.02438189779129Z" style="stroke: rgb(68, 68, 68); stroke-opacity: 1; fill: rgb(76, 175, 80); fill-opacity: 0.5; stroke-width: 0; opacity: 1;"/></g><g class="sankey-node-set" style="cursor: ns-resize;"><g class="sankey-node" transform="translate(43.800,25.518)" style="opacity: 1;"><rect class="node-rect" width="18" height="30.563618513481515" style="stroke-width: 0.5; stroke: rgb(68, 68, 68); stroke-opacity: 1; fill: rgb(63, 81, 181); fill-opacity: 0.9;"/><text class="node-label" data-notex="1" x="0" y="0" text-anchor="start" transform="translate(21.25,19.481809256740757)" style="cursor: default; font-family: 'Open Sans', verdana, arial, sans-serif; font-size: 12px; fill: rgb(42, 63, 95); fill-opacity: 1; text-shadow: rgb(255, 255, 255) 1px 1px 1px, rgb(255, 255, 255) -1px -1px 1px, rgb(255, 255, 255) 1px -1px 1px, rgb(255, 255, 255) -1px 1px 1px; white-space: pre;">State 0–10%</text></g><g class="sankey-node" transform="translate(43.800,83.407)" style="opacity: 1;"><rect class="node-rect" width="18" height="27.586541128691977" style="stroke-width: 0.5; stroke: rgb(68, 68, 68); stroke-opacity: 1; fill: rgb(0, 150, 136); fill-opacity: 0.9;"/><text class="node-label" data-notex="1" x="0" y="0" text-anchor="start" transform="translate(21.25,17.993270564345988)" style="cursor: default; font-family: 'Open Sans', verdana, arial, sans-serif; font-size: 12px; fill: rgb(42, 63, 95); fill-opacity: 1; text-shadow: rgb(255, 255, 255) 1px 1px 1px, rgb(255, 255, 255) -1px -1px 1px, rgb(255, 255, 255) 1px -1px 1px, rgb(255, 255, 255) -1px 1px 1px; white-space: pre;">State 10–20%</text></g><g class="sankey-node" transform="translate(43.800,138.124)" style="opacity: 1;"><rect class="node-rect" width="18" height="30.951158214490988" style="stroke-width: 0.5; stroke: rgb(68, 68, 68); stroke-opacity: 1; fill: rgb(255, 193, 7); fill-opacity: 0.9;"/><text class="node-label" data-notex="1" x="0" y="0" text-anchor="start" transform="translate(21.25,19.675579107245493)" style="cursor: default; font-family: 'Open Sans', verdana, arial, sans-serif; font-size: 12px; fill: rgb(42, 63, 95); fill-opacity: 1; text-shadow: rgb(255, 255, 255) 1px 1px 1px, rgb(255, 255, 255) -1px -1px 1px, rgb(255, 255, 255) 1px -1px 1px, rgb(255, 255, 255) -1px 1px 1px; white-space: pre;">State 20–50%</text></g><g class="sankey-node" transform="translate(43.800,193.916)" style="opacity: 1;"><rect class="node-rect" width="18" height="32.16753071109247" style="stroke-width: 0.5; stroke: rgb(68, 68, 68); stroke-opacity: 1; fill: rgb(244, 67, 54); fill-opacity: 0.9;"/><text class="node-label" data-notex="1" x="0" y="0" text-anchor="start" transform="translate(21.25,20.283765355546233)" style="cursor: default; font-family: 'Open Sans', verdana, arial, sans-serif; font-size: 12px; fill: rgb(42, 63, 95); fill-opacity: 1; text-shadow: rgb(255, 255, 255) 1px 1px 1px, rgb(255, 255, 255) -1px -1px 1px, rgb(255, 255, 255) 1px -1px 1px, rgb(255, 255, 255) -1px 1px 1px; white-space: pre;">State ≥50%</text></g><g class="sankey-node" transform="translate(43.800,250.959)" style="opacity: 1;"><rect class="node-rect" width="18" height="30.88259618448342" style="stroke-width: 0.5; stroke: rgb(68, 68, 68); stroke-opacity: 1; fill: rgb(63, 81, 181); fill-opacity: 0.9;"/><text class="node-label" data-notex="1" x="0" y="0" text-anchor="start" transform="translate(21.25,19.64129809224171)" style="cursor: default; font-family: 'Open Sans', verdana, arial, sans-serif; font-size: 12px; fill: rgb(42, 63, 95); fill-opacity: 1; text-shadow: rgb(255, 255, 255) 1px 1px 1px, rgb(255, 255, 255) -1px -1px 1px, rgb(255, 255, 255) 1px -1px 1px, rgb(255, 255, 255) -1px 1px 1px; white-space: pre;">State 0–10%</text></g><g class="sankey-node" transform="translate(43.800,305.941)" style="opacity: 1;"><rect class="node-rect" width="18" height="33.717167398878814" style="stroke-width: 0.5; stroke: rgb(68, 68, 68); stroke-opacity: 1; fill: rgb(0, 150, 136); fill-opacity: 0.9;"/><text class="node-label" data-notex="1" x="0" y="0" text-anchor="start" transform="translate(21.25,21.058583699439406)" style="cursor: default; font-family: 'Open Sans', verdana, arial, sans-serif; font-size: 12px; fill: rgb(42, 63, 95); fill-opacity: 1; text-shadow: rgb(255, 255, 255) 1px 1px 1px, rgb(255, 255, 255) -1px -1px 1px, rgb(255, 255, 255) 1px -1px 1px, rgb(255, 255, 255) -1px 1px 1px; white-space: pre;">State 10–20%</text></g><g class="sankey-node" transform="translate(43.800,361.031)" style="opacity: 1;"><rect class="node-rect" width="18" height="36.33891460817222" style="stroke-width: 0.5; stroke: rgb(68, 68, 68); stroke-opacity: 1; fill: rgb(255, 193, 7); fill-opacity: 0.9;"/><text class="node-label" data-notex="1" x="0" y="0" text-anchor="start" transform="translate(21.25,22.369457304086108)" style="cursor: default; font-family: 'Open Sans', verdana, arial, sans-serif; font-size: 12px; fill: rgb(42, 63, 95); fill-opacity: 1; text-shadow: rgb(255, 255, 255) 1px 1px 1px, rgb(255, 255, 255) -1px -1px 1px, rgb(255, 255, 255) 1px -1px 1px, rgb(255, 255, 255) -1px 1px 1px; white-space: pre;">State 20–50%</text></g><g class="sankey-node" transform="translate(140.600,22.554)" style="opacity: 1;"><rect class="node-rect" width="18" height="36.49242854441388" style="stroke-width: 0.5; stroke: rgb(68, 68, 68); stroke-opacity: 1; fill: rgb(244, 67, 54); fill-opacity: 0.9;"/><text class="node-label" data-notex="1" x="0" y="0" text-anchor="start" transform="translate(21.25,22.44621427220694)" style="cursor: default; font-family: 'Open Sans', verdana, arial, sans-serif; font-size: 12px; fill: rgb(42, 63, 95); fill-opacity: 1; text-shadow: rgb(255, 255, 255) 1px 1px 1px, rgb(255, 255, 255) -1px -1px 1px, rgb(255, 255, 255) 1px -1px 1px, rgb(255, 255, 255) -1px 1px 1px; white-space: pre;">State ≥50%</text></g><g class="sankey-node" transform="translate(140.600,86.146)" style="opacity: 1;"><rect class="node-rect" width="18" height="22.107120682967007" style="stroke-width: 0.5; stroke: rgb(68, 68, 68); stroke-opacity: 1; fill: rgb(244, 67, 54); fill-opacity: 0.9;"/><text class="node-label" data-notex="1" x="0" y="0" text-anchor="start" transform="translate(21.25,15.253560341483503)" style="cursor: default; font-family: 'Open Sans', verdana, arial, sans-serif; font-size: 12px; fill: rgb(42, 63, 95); fill-opacity: 1; text-shadow: rgb(255, 255, 255) 1px 1px 1px, rgb(255, 255, 255) -1px -1px 1px, rgb(255, 255, 255) 1px -1px 1px, rgb(255, 255, 255) -1px 1px 1px; white-space: pre;">Exit</text></g><g class="sankey-node" transform="translate(140.600,136.132)" style="opacity: 1;"><rect class="node-rect" width="18" height="34.935048427229276" style="stroke-width: 0.5; stroke: rgb(68, 68, 68); stroke-opacity: 1; fill: rgb(63, 81, 181); fill-opacity: 0.9;"/><text class="node-label" data-notex="1" x="0" y="0" text-anchor="start" transform="translate(21.25,21.667524213614637)" style="cursor: default; font-family: 'Open Sans', verdana, arial, sans-serif; font-size: 12px; fill: rgb(42, 63, 95); fill-opacity: 1; text-shadow: rgb(255, 255, 255) 1px 1px 1px, rgb(255, 255, 255) -1px -1px 1px, rgb(255, 255, 255) 1px -1px 1px, rgb(255, 255, 255) -1px 1px 1px; white-space: pre;">State 0–10%</text></g><g class="sankey-node" transform="translate(140.600,192.278)" style="opacity: 1;"><rect class="node-rect" width="18" height="35.44336905396369" style="stroke-width: 0.5; stroke: rgb(68, 68, 68); stroke-opacity: 1; fill: rgb(0, 150, 136); fill-opacity: 0.9;"/><text class="node-label" data-notex="1" x="0" y="0" text-anchor="start" transform="translate(21.25,21.921684526981846)" style="cursor: default; font-family: 'Open Sans', verdana, arial, sans-serif; font-size: 12px; fill: rgb(42, 63, 95); fill-opacity: 1; text-shadow: rgb(255, 255, 255) 1px 1px 1px, rgb(255, 255, 255) -1px -1px 1px, rgb(255, 255, 255) 1px -1px 1px, rgb(255, 255, 255) -1px 1px 1px; white-space: pre;">State 10–20%</text></g><g class="sankey-node" transform="translate(140.600,252.108)" style="opacity: 1;"><rect class="node-rect" width="18" height="28.584989265104355" style="stroke-width: 0.5; stroke: rgb(68, 68, 68); stroke-opacity: 1; fill: rgb(255, 193, 7); fill-opacity: 0.9;"/><text class="node-label" data-notex="1" x="0" y="0" text-anchor="start" transform="translate(21.25,18.492494632552177)" style="cursor: default; font-family: 'Open Sans', verdana, arial, sans-serif; font-size: 12px; fill: rgb(42, 63, 95); fill-opacity: 1; text-shadow: rgb(255, 255, 255) 1px 1px 1px, rgb(255, 255, 255) -1px -1px 1px, rgb(255, 255, 255) 1px -1px 1px, rgb(255, 255, 255) -1px 1px 1px; white-space: pre;">State 20–50%</text></g><g class="sankey-node" transform="translate(140.600,302.793)" style="opacity: 1;"><rect class="node-rect" width="18" height="40.013735493130866" style="stroke-width: 0.5; stroke: rgb(68, 68, 68); stroke-opacity: 1; fill: rgb(244, 67, 54); fill-opacity: 0.9;"/><text class="node-label" data-notex="1" x="0" y="0" text-anchor="start" transform="translate(21.25,24.206867746565432)" style="cursor: default; font-family: 'Open Sans', verdana, arial, sans-serif; font-size: 12px; fill: rgb(42, 63, 95); fill-opacity: 1; text-shadow: rgb(255, 255, 255) 1px 1px 1px, rgb(255, 255, 255) -1px -1px 1px, rgb(255, 255, 255) 1px -1px 1px, rgb(255, 255, 255) -1px 1px 1px; white-space: pre;">State ≥50%</text></g><g class="sankey-node" transform="translate(140.600,366.050)" style="opacity: 1;"><rect class="node-rect" width="18" height="26.300238754193174" style="stroke-width: 0.5; stroke: rgb(68, 68, 68); stroke-opacity: 1; fill: rgb(244, 67, 54); fill-opacity: 0.9;"/><text class="node-label" data-notex="1" x="0" y="0" text-anchor="start" transform="translate(21.25,17.350119377096586)" style="cursor: default; font-family: 'Open Sans', verdana, arial, sans-serif; font-size: 12px; fill: rgb(42, 63, 95); fill-opacity: 1; text-shadow: rgb(255, 255, 255) 1px 1px 1px, rgb(255, 255, 255) -1px -1px 1px, rgb(255, 255, 255) 1px -1px 1px, rgb(255, 255, 255) -1px 1px 1px; white-space: pre;">Exit</text></g><g class="sankey-node" transform="translate(237.400,22.884)" style="opacity: 1;"><rect class="node-rect" width="18" height="35.83116403505164" style="stroke-width: 0.5; stroke: rgb(68, 68, 68); stroke-opacity: 1; fill: rgb(63, 81, 181); fill-opacity: 0.9;"/><text class="node-label" data-notex="1" x="0" y="0" text-anchor="start" transform="translate(21.25,22.11558201752582)" style="cursor: default; font-family: 'Open Sans', verdana, arial, sans-serif; font-size: 12px; fill: rgb(42, 63, 95); fill-opacity: 1; text-shadow: rgb(255, 255, 255) 1px 1px 1px, rgb(255, 255, 255) -1px -1px 1px, rgb(255, 255, 255) 1px -1px 1px, rgb(255, 255, 255) -1px 1px 1px; white-space: pre;">State 0–10%</text></g><g class="sankey-node" transform="translate(237.400,78.665)" style="opacity: 1;"><rect class="node-rect" width="18" height="37.07000135403166" style="stroke-width: 0.5; stroke: rgb(68, 68, 68); stroke-opacity: 1; fill: rgb(0, 150, 136); fill-opacity: 0.9;"/><text class="node-label" data-notex="1" x="0" y="0" text-anchor="start" transform="translate(21.25,22.73500067701583)" style="cursor: default; font-family: 'Open Sans', verdana, arial, sans-serif; font-size: 12px; fill: rgb(42, 63, 95); fill-opacity: 1; text-shadow: rgb(255, 255, 255) 1px 1px 1px, rgb(255, 255, 255) -1px -1px 1px, rgb(255, 255, 255) 1px -1px 1px, rgb(255, 255, 255) -1px 1px 1px; white-space: pre;">State 10–20%</text></g><g class="sankey-node" transform="translate(237.400,134.165)" style="opacity: 1;"><rect class="node-rect" width="18" height="38.87076703236801" style="stroke-width: 0.5; stroke: rgb(68, 68, 68); stroke-opacity: 1; fill: rgb(255, 193, 7); fill-opacity: 0.9;"/><text class="node-label" data-notex="1" x="0" y="0" text-anchor="start" transform="translate(21.25,23.635383516184003)" style="cursor: default; font-family: 'Open Sans', verdana, arial, sans-serif; font-size: 12px; fill: rgb(42, 63, 95); fill-opacity: 1; text-shadow: rgb(255, 255, 255) 1px 1px 1px, rgb(255, 255, 255) -1px -1px 1px, rgb(255, 255, 255) 1px -1px 1px, rgb(255, 255, 255) -1px 1px 1px; white-space: pre;">State 20–50%</text></g><g class="sankey-node" transform="translate(237.400,188.395)" style="opacity: 1;"><rect class="node-rect" width="18" height="43.21090793285293" style="stroke-width: 0.5; stroke: rgb(68, 68, 68); stroke-opacity: 1; fill: rgb(244, 67, 54); fill-opacity: 0.9;"/><text class="node-label" data-notex="1" x="0" y="0" text-anchor="start" transform="translate(21.25,25.805453966426466)" style="cursor: default; font-family: 'Open Sans', verdana, arial, sans-serif; font-size: 12px; fill: rgb(42, 63, 95); fill-opacity: 1; text-shadow: rgb(255, 255, 255) 1px 1px 1px, rgb(255, 255, 255) -1px -1px 1px, rgb(255, 255, 255) 1px -1px 1px, rgb(255, 255, 255) -1px 1px 1px; white-space: pre;">State ≥50%</text></g><g class="sankey-node" transform="translate(237.400,251.262)" style="opacity: 1;"><rect class="node-rect" width="18" height="30.27699583369653" style="stroke-width: 0.5; stroke: rgb(68, 68, 68); stroke-opacity: 1; fill: rgb(244, 67, 54); fill-opacity: 0.9;"/><text class="node-label" data-notex="1" x="0" y="0" text-anchor="start" transform="translate(21.25,19.338497916848265)" style="cursor: default; font-family: 'Open Sans', verdana, arial, sans-serif; font-size: 12px; fill: rgb(42, 63, 95); fill-opacity: 1; text-shadow: rgb(255, 255, 255) 1px 1px 1px, rgb(255, 255, 255) -1px -1px 1px, rgb(255, 255, 255) 1px -1px 1px, rgb(255, 255, 255) -1px 1px 1px; white-space: pre;">Exit</text></g><g class="sankey-node" transform="translate(237.400,319.794)" style="opacity: 1;"><rect class="node-rect" width="18" height="6.012250456780976" style="stroke-width: 0.5; stroke: rgb(68, 68, 68); stroke-opacity: 1; fill: rgb(33, 150, 243); fill-opacity: 0.9;"/><text class="node-label" data-notex="1" x="0" y="0" text-anchor="start" transform="translate(21.25,7.206125228390487)" style="cursor: default; font-family: 'Open Sans', verdana, arial, sans-serif; font-size: 12px; fill: rgb(42, 63, 95); fill-opacity: 1; text-shadow: rgb(255, 255, 255) 1px 1px 1px, rgb(255, 255, 255) -1px -1px 1px, rgb(255, 255, 255) 1px -1px 1px, rgb(255, 255, 255) -1px 1px 1px; white-space: pre;">State 0%</text></g><g class="sankey-node" transform="translate(237.400,170.810)" style="opacity: 1;"><rect class="node-rect" width="18" height="38.78023644148607" style="stroke-width: 0.5; stroke: rgb(68, 68, 68); stroke-opacity: 1; fill: rgb(63, 81, 181); fill-opacity: 0.9;"/><text class="node-label" data-notex="1" x="0" y="0" text-anchor="start" transform="translate(21.25,23.590118220743033)" style="cursor: default; font-family: 'Open Sans', verdana, arial, sans-serif; font-size: 12px; fill: rgb(42, 63, 95); fill-opacity: 1; text-shadow: rgb(255, 255, 255) 1px 1px 1px, rgb(255, 255, 255) -1px -1px 1px, rgb(255, 255, 255) 1px -1px 1px, rgb(255, 255, 255) -1px 1px 1px; white-space: pre;">State 0–10%</text></g><g class="sankey-node" transform="translate(334.200,17.194)" style="opacity: 1;"><rect class="node-rect" width="18" height="47.211656350792175" style="stroke-width: 0.5; stroke: rgb(68, 68, 68); stroke-opacity: 1; fill: rgb(0, 150, 136); fill-opacity: 0.9;"/><text class="node-label" data-notex="1" x="0" y="0" text-anchor="start" transform="translate(21.25,27.805828175396087)" style="cursor: default; font-family: 'Open Sans', verdana, arial, sans-serif; font-size: 12px; fill: rgb(42, 63, 95); fill-opacity: 1; text-shadow: rgb(255, 255, 255) 1px 1px 1px, rgb(255, 255, 255) -1px -1px 1px, rgb(255, 255, 255) 1px -1px 1px, rgb(255, 255, 255) -1px 1px 1px; white-space: pre;">State 10–20%</text></g><g class="sankey-node" transform="translate(334.200,73.900)" style="opacity: 1;"><rect class="node-rect" width="18" height="46.59938418150426" style="stroke-width: 0.5; stroke: rgb(68, 68, 68); stroke-opacity: 1; fill: rgb(255, 193, 7); fill-opacity: 0.9;"/><text class="node-label" data-notex="1" x="0" y="0" text-anchor="start" transform="translate(21.25,27.49969209075213)" style="cursor: default; font-family: 'Open Sans', verdana, arial, sans-serif; font-size: 12px; fill: rgb(42, 63, 95); fill-opacity: 1; text-shadow: rgb(255, 255, 255) 1px 1px 1px, rgb(255, 255, 255) -1px -1px 1px, rgb(255, 255, 255) 1px -1px 1px, rgb(255, 255, 255) -1px 1px 1px; white-space: pre;">State 20–50%</text></g><g class="sankey-node" transform="translate(334.200,133.314)" style="opacity: 1;"><rect class="node-rect" width="18" height="40.57205532709662" style="stroke-width: 0.5; stroke: rgb(68, 68, 68); stroke-opacity: 1; fill: rgb(244, 67, 54); fill-opacity: 0.9;"/><text class="node-label" data-notex="1" x="0" y="0" text-anchor="start" transform="translate(21.25,24.48602766354831)" style="cursor: default; font-family: 'Open Sans', verdana, arial, sans-serif; font-size: 12px; fill: rgb(42, 63, 95); fill-opacity: 1; text-shadow: rgb(255, 255, 255) 1px 1px 1px, rgb(255, 255, 255) -1px -1px 1px, rgb(255, 255, 255) 1px -1px 1px, rgb(255, 255, 255) -1px 1px 1px; white-space: pre;">State ≥50%</text></g><g class="sankey-node" transform="translate(334.200,196.302)" style="opacity: 1;"><rect class="node-rect" width="18" height="27.395488612545478" style="stroke-width: 0.5; stroke: rgb(68, 68, 68); stroke-opacity: 1; fill: rgb(244, 67, 54); fill-opacity: 0.9;"/><text class="node-label" data-notex="1" x="0" y="0" text-anchor="start" transform="translate(21.25,17.897744306272738)" style="cursor: default; font-family: 'Open Sans', verdana, arial, sans-serif; font-size: 12px; fill: rgb(42, 63, 95); fill-opacity: 1; text-shadow: rgb(255, 255, 255) 1px 1px 1px, rgb(255, 255, 255) -1px -1px 1px, rgb(255, 255, 255) 1px -1px 1px, rgb(255, 255, 255) -1px 1px 1px; white-space: pre;">Exit</text></g><g class="sankey-node" transform="translate(334.200,259.727)" style="opacity: 1;"><rect class="node-rect" width="18" height="13.346663537616337" style="stroke-width: 0.5; stroke: rgb(68, 68, 68); stroke-opacity: 1; fill: rgb(33, 150, 243); fill-opacity: 0.9;"/><text class="node-label" data-notex="1" x="0" y="0" text-anchor="start" transform="translate(21.25,10.873331768808168)" style="cursor: default; font-family: 'Open Sans', verdana, arial, sans-serif; font-size: 12px; fill: rgb(42, 63, 95); fill-opacity: 1; text-shadow: rgb(255, 255, 255) 1px 1px 1px, rgb(255, 255, 255) -1px -1px 1px, rgb(255, 255, 255) 1px -1px 1px, rgb(255, 255, 255) -1px 1px 1px; white-space: pre;">State 0%</text></g><g class="sankey-node" transform="translate(334.200,304.974)" style="opacity: 1;"><rect class="node-rect" width="18" height="35.65140179923651" style="stroke-width: 0.5; stroke: rgb(68, 68, 68); stroke-opacity: 1; fill: rgb(63, 81, 181); fill-opacity: 0.9;"/><text class="node-label" data-notex="1" x="0" y="0" text-anchor="start" transform="translate(21.25,22.025700899618254)" style="cursor: default; font-family: 'Open Sans', verdana, arial, sans-serif; font-size: 12px; fill: rgb(42, 63, 95); fill-opacity: 1; text-shadow: rgb(255, 255, 255) 1px 1px 1px, rgb(255, 255, 255) -1px -1px 1px, rgb(255, 255, 255) 1px -1px 1px, rgb(255, 255, 255) -1px 1px 1px; white-space: pre;">State 0–10%</text></g><g class="sankey-node" transform="translate(334.200,366.201)" style="opacity: 1;"><rect class="node-rect" width="18" height="25.998412429007317" style="stroke-width: 0.5; stroke: rgb(68, 68, 68); stroke-opacity: 1; fill: rgb(0, 150, 136); fill-opacity: 0.9;"/><text class="node-label" data-notex="1" x="0" y="0" text-anchor="start" transform="translate(21.25,17.199206214503658)" style="cursor: default; font-family: 'Open Sans', verdana, arial, sans-serif; font-size: 12px; fill: rgb(42, 63, 95); fill-opacity: 1; text-shadow: rgb(255, 255, 255) 1px 1px 1px, rgb(255, 255, 255) -1px -1px 1px, rgb(255, 255, 255) 1px -1px 1px, rgb(255, 255, 255) -1px 1px 1px; white-space: pre;">State 10–20%</text></g><g class="sankey-node" transform="translate(431.000,21.323)" style="opacity: 1;"><rect class="node-rect" width="18" height="38.95458775449708" style="stroke-width: 0.5; stroke: rgb(68, 68, 68); stroke-opacity: 1; fill: rgb(255, 193, 7); fill-opacity: 0.9;"/><text class="node-label" data-notex="1" x="0" y="0" text-anchor="end" transform="translate(-3.25,23.67729387724854)" style="cursor: default; font-family: 'Open Sans', verdana, arial, sans-serif; font-size: 12px; fill: rgb(42, 63, 95); fill-opacity: 1; text-shadow: rgb(255, 255, 255) 1px 1px 1px, rgb(255, 255, 255) -1px -1px 1px, rgb(255, 255, 255) 1px -1px 1px, rgb(255, 255, 255) -1px 1px 1px; white-space: pre;">State 20–50%</text></g><g class="sankey-node" transform="translate(431.000,79.575)" style="opacity: 1;"><rect class="node-rect" width="18" height="35.24916506540791" style="stroke-width: 0.5; stroke: rgb(68, 68, 68); stroke-opacity: 1; fill: rgb(244, 67, 54); fill-opacity: 0.9;"/><text class="node-label" data-notex="1" x="0" y="0" text-anchor="end" transform="translate(-3.25,21.824582532703953)" style="cursor: default; font-family: 'Open Sans', verdana, arial, sans-serif; font-size: 12px; fill: rgb(42, 63, 95); fill-opacity: 1; text-shadow: rgb(255, 255, 255) 1px 1px 1px, rgb(255, 255, 255) -1px -1px 1px, rgb(255, 255, 255) 1px -1px 1px, rgb(255, 255, 255) -1px 1px 1px; white-space: pre;">State ≥50%</text></g><g class="sankey-node" transform="translate(431.000,138.740)" style="opacity: 1;"><rect class="node-rect" width="18" height="29.719925530831915" style="stroke-width: 0.5; stroke: rgb(68, 68, 68); stroke-opacity: 1; fill: rgb(244, 67, 54); fill-opacity: 0.9;"/><text class="node-label" data-notex="1" x="0" y="0" text-anchor="end" transform="translate(-3.25,19.059962765415957)" style="cursor: default; font-family: 'Open Sans', verdana, arial, sans-serif; font-size: 12px; fill: rgb(42, 63, 95); fill-opacity: 1; text-shadow: rgb(255, 255, 255) 1px 1px 1px, rgb(255, 255, 255) -1px -1px 1px, rgb(255, 255, 255) 1px -1px 1px, rgb(255, 255, 255) -1px 1px 1px; white-space: pre;">Exit</text></g></g></g><defs id="topdefs-8bb516"><g class="clips"/></defs><g class="layer-above"><g class="imagelayer"/><g class="shapelayer"/></g><g class="infolayer"><g class="g-gtitle"><text class="gtitle" x="35" y="30" text-anchor="start" dy="0em" style="opacity: 1; font-family: 'Open Sans', verdana, arial, sans-serif; font-size: 17px; fill: rgb(42, 63, 95); fill-opacity: 1; white-space: pre;">Sankey — size=state_equity_pct, thickness=total_assets, buckets=state (MA=24M)</text></g><g class="first-render"/><g class="annotation" data-index="0" style="opacity: 1;"><g class="annotation-text-g" transform="rotate(0,72.80000000000001,56.80000000000001)"><g class="cursor-pointer" transform="translate(55,47)"><rect class="bg" x="0.5" y="0.5" width="34" height="18" style="stroke-width: 1px; stroke: rgb(0, 0, 0); stroke-opacity: 0; fill: rgb(0, 0, 0); fill-opacity: 0;"/><text class="annotation-text" text-anchor="middle" x="17.2578125" y="14" style="font-family: 'Open Sans', verdana, arial, sans-serif; font-size: 12px; fill: rgb(42, 63, 95); fill-opacity: 1; white-space: pre;">2004</text></g></g></g><g class="annotation" data-index="1" style="opacity: 1;"><g class="annotation-text-g" transform="rotate(0,169.60000000000002,56.80000000000001)"><g class="cursor-pointer" transform="translate(152,47)"><rect class="bg" x="0.5" y="0.5" width="34" height="18" style="stroke-width: 1px; stroke: rgb(0, 0, 0); stroke-opacity: 0; fill: rgb(0, 0, 0); fill-opacity: 0;"/><text class="annotation-text" text-anchor="middle" x="17.2578125" y="14" style="font-family: 'Open Sans', verdana, arial, sans-serif; font-size: 12px; fill: rgb(42, 63, 95); fill-opacity: 1; white-space: pre;">2007</text></g></g></g><g class="annotation" data-index="2" style="opacity: 1;"><g class="annotation-text-g" transform="rotate(0,266.4,56.80000000000001)"><g class="cursor-pointer" transform="translate(249,47)"><rect class="bg" x="0.5" y="0.5" width="34" height="18" style="stroke-width: 1px; stroke: rgb(0, 0, 0); stroke-opacity: 0; fill: rgb(0, 0, 0); fill-opacity: 0;"/><text class="annotation-text" text-anchor="middle" x="17.2578125" y="14" style="font-family: 'Open Sans', verdana, arial, sans-serif; font-size: 12px; fill: rgb(42, 63, 95); fill-opacity: 1; white-space: pre;">2010</text></g></g></g><g class="annotation" data-index="3" style="opacity: 1;"><g class="annotation-text-g" transform="rotate(0,363.2,56.80000000000001)"><g class="cursor-pointer" transform="translate(346,47)"><rect class="bg" x="0.5" y="0.5" width="34" height="18" style="stroke-width: 1px; stroke: rgb(0, 0, 0); stroke-opacity: 0; fill: rgb(0, 0, 0); fill-opacity: 0;"/><text class="annotation-text" text-anchor="middle" x="17.2578125" y="14" style="font-family: 'Open Sans', verdana, arial, sans-serif; font-size: 12px; fill: rgb(42, 63, 95); fill-opacity: 1; white-space: pre;">2013</text></g></g></g><g class="annotation" data-index="4" style="opacity: 1;"><g class="annotation-text-g" transform="rotate(0,460,56.80000000000001)"><g class="cursor-pointer" transform="translate(443,47)"><rect class="bg" x="0.5" y="0.5" width="34" height="18" style="stroke-width: 1px; stroke: rgb(0, 0, 0); stroke-opacity: 0; fill: rgb(0, 0, 0); fill-opacity: 0;"/><text class="annotation-text" text-anchor="middle" x="17.2578125" y="14" style="font-family: 'Open Sans', verdana, arial, sans-serif; font-size: 12px; fill: rgb(42, 63, 95); fill-opacity: 1; white-space: pre;">2016</text></g></g></g><g class="annotation" data-index="5" style="opacity: 1;"><g class="annotation-text-g" transform="rotate(0,556.8000000000001,56.80000000000001)"><g class="cursor-pointer" transform="translate(539,47)"><rect class="bg" x="0.5" y="0.5" width="34" height="18" style="stroke-width: 1px; stroke: rgb(0, 0, 0); stroke-opacity: 0; fill: rgb(0, 0, 0); fill-opacity: 0;"/><text class="annotation-text" text-anchor="middle" x="17.2578125" y="14" style="font-family: 'Open Sans', verdana, arial, sans-serif; font-size: 12px; fill: rgb(42, 63, 95); fill-opacity: 1; white-space: pre;">2019</text></g></g></g><g class="annotation" data-index="6" style="opacity: 1;"><g class="annotation-text-g" transform="rotate(0,653.6,56.80000000000001)"><g class="cursor-pointer" transform="translate(636,47)"><rect class="bg" x="0.5" y="0.5" width="34" height="18" style="stroke-width: 1px; stroke: rgb(0, 0, 0); stroke-opacity: 0; fill: rgb(0, 0, 0); fill-opacity: 0;"/><text class="annotation-text" text-anchor="middle" x="17.2578125" y="14" style="font-family: 'Open Sans', verdana, arial, sans-serif; font-size: 12px; fill: rgb(42, 63, 95); fill-opacity: 1; white-space: pre;">2021</text></g></g></g></g></svg>