<svg xmlns="http://www.w3.org/2000/svg" xmlns:xlink="http://www.w3.org/1999/xlink" display="block" class="plt-container" width="1400.0" height="900.0">
  <style type="text/css">
  .plt-container {
   font-family: sans-serif;
   user-select: none;
   -webkit-user-select: none;
   -moz-user-select: none;
   -ms-user-select: none;
}
text {
   text-rendering: optimizeLegibility;
}
#pn3ZRsG .plot-title {
fill: #474747;
font-weight: normal;
   font-style: normal;font-family: sans-serif;
font-size: 16.0px;

}
#pn3ZRsG .plot-subtitle {
fill: #474747;
font-weight: normal;
   font-style: normal;font-family: sans-serif;
font-size: 15.0px;

}
#pn3ZRsG .plot-caption {
fill: #474747;
font-weight: normal;
   font-style: normal;font-family: sans-serif;
font-size: 13.0px;

}
#pn3ZRsG .hyperlink-element {
fill: #118ed8;
font-weight: normal;
   font-style: normal;
}
#pn3ZRsG .legend-title {
fill: #474747;
font-weight: normal;
   font-style: normal;font-family: sans-serif;
font-size: 9.0px;

}
#pn3ZRsG .legend-item {
fill: #474747;
font-weight: normal;
   font-style: normal;font-family: sans-serif;
font-size: 8.0px;

}
#pn3ZRsG .axis-title-x {
fill: #474747;
font-weight: normal;
   font-style: normal;font-family: sans-serif;
font-size: 10.0px;

}
#pn3ZRsG .axis-text-x {
fill: #474747;
font-weight: normal;
   font-style: normal;font-family: sans-serif;
font-size: 8.0px;

}
#dGrRRiz .axis-tooltip-text-x {
fill: #ffffff;
font-weight: normal;
   font-style: normal;font-family: sans-serif;
font-size: 13.0px;

}
#pn3ZRsG .axis-title-y {
fill: #474747;
font-weight: normal;
   font-style: normal;font-family: sans-serif;
font-size: 10.0px;

}
#pn3ZRsG .axis-text-y {
fill: #474747;
font-weight: normal;
   font-style: normal;font-family: sans-serif;
font-size: 8.0px;

}
#dGrRRiz .axis-tooltip-text-y {
fill: #ffffff;
font-weight: normal;
   font-style: normal;font-family: sans-serif;
font-size: 13.0px;

}
#pn3ZRsG .facet-strip-text-x {
fill: #474747;
font-weight: normal;
   font-style: normal;font-family: sans-serif;
font-size: 9.0px;

}
#pn3ZRsG .facet-strip-text-y {
fill: #474747;
font-weight: normal;
   font-style: normal;font-family: sans-serif;
font-size: 9.0px;

}
#dGrRRiz .tooltip-text {
fill: #474747;
font-weight: normal;
   font-style: normal;font-family: sans-serif;
font-size: 13.0px;

}
#dGrRRiz .tooltip-title {
fill: #474747;
font-weight: bold;
   font-style: normal;font-family: sans-serif;
font-size: 13.0px;

}
#dGrRRiz .tooltip-label {
fill: #474747;
font-weight: bold;
   font-style: normal;font-family: sans-serif;
font-size: 13.0px;

}

  </style>
  <g id="pn3ZRsG">
    <path fill-rule="evenodd" fill="rgb(255,255,255)" fill-opacity="1.0" d="M0.0 0.0 L0.0 900.0 L1400.0 900.0 L1400.0 0.0 Z">
    </path>
    <g transform="translate(16.0 6.0 ) ">
      <g>
        <g transform="translate(14.944431520173177 24.0 ) ">
          <g>
            <line x1="21.872501672968724" y1="0.0" x2="21.872501672968724" y2="840.0" stroke="rgb(233,233,233)" stroke-opacity="1.0" stroke-width="1.0" fill="none">
            </line>
            <line x1="87.81908975803469" y1="0.0" x2="87.81908975803469" y2="840.0" stroke="rgb(233,233,233)" stroke-opacity="1.0" stroke-width="1.0" fill="none">
            </line>
            <line x1="153.76567784310078" y1="0.0" x2="153.76567784310078" y2="840.0" stroke="rgb(233,233,233)" stroke-opacity="1.0" stroke-width="1.0" fill="none">
            </line>
            <line x1="219.7122659281668" y1="0.0" x2="219.7122659281668" y2="840.0" stroke="rgb(233,233,233)" stroke-opacity="1.0" stroke-width="1.0" fill="none">
            </line>
            <line x1="285.6588540132328" y1="0.0" x2="285.6588540132328" y2="840.0" stroke="rgb(233,233,233)" stroke-opacity="1.0" stroke-width="1.0" fill="none">
            </line>
            <line x1="351.6054420982989" y1="0.0" x2="351.6054420982989" y2="840.0" stroke="rgb(233,233,233)" stroke-opacity="1.0" stroke-width="1.0" fill="none">
            </line>
            <line x1="417.55203018336493" y1="0.0" x2="417.55203018336493" y2="840.0" stroke="rgb(233,233,233)" stroke-opacity="1.0" stroke-width="1.0" fill="none">
            </line>
            <line x1="483.49861826843096" y1="0.0" x2="483.49861826843096" y2="840.0" stroke="rgb(233,233,233)" stroke-opacity="1.0" stroke-width="1.0" fill="none">
            </line>
            <line x1="549.445206353497" y1="0.0" x2="549.445206353497" y2="840.0" stroke="rgb(233,233,233)" stroke-opacity="1.0" stroke-width="1.0" fill="none">
            </line>
            <line x1="615.391794438563" y1="0.0" x2="615.391794438563" y2="840.0" stroke="rgb(233,233,233)" stroke-opacity="1.0" stroke-width="1.0" fill="none">
            </line>
            <line x1="681.3383825236291" y1="0.0" x2="681.3383825236291" y2="840.0" stroke="rgb(233,233,233)" stroke-opacity="1.0" stroke-width="1.0" fill="none">
            </line>
            <line x1="747.2849706086952" y1="0.0" x2="747.2849706086952" y2="840.0" stroke="rgb(233,233,233)" stroke-opacity="1.0" stroke-width="1.0" fill="none">
            </line>
            <line x1="813.2315586937611" y1="0.0" x2="813.2315586937611" y2="840.0" stroke="rgb(233,233,233)" stroke-opacity="1.0" stroke-width="1.0" fill="none">
            </line>
            <line x1="879.1781467788272" y1="0.0" x2="879.1781467788272" y2="840.0" stroke="rgb(233,233,233)" stroke-opacity="1.0" stroke-width="1.0" fill="none">
            </line>
            <line x1="945.1247348638933" y1="0.0" x2="945.1247348638933" y2="840.0" stroke="rgb(233,233,233)" stroke-opacity="1.0" stroke-width="1.0" fill="none">
            </line>
            <line x1="1011.0713229489593" y1="0.0" x2="1011.0713229489593" y2="840.0" stroke="rgb(233,233,233)" stroke-opacity="1.0" stroke-width="1.0" fill="none">
            </line>
            <line x1="1077.0179110340255" y1="0.0" x2="1077.0179110340255" y2="840.0" stroke="rgb(233,233,233)" stroke-opacity="1.0" stroke-width="1.0" fill="none">
            </line>
            <line x1="1142.9644991190914" y1="0.0" x2="1142.9644991190914" y2="840.0" stroke="rgb(233,233,233)" stroke-opacity="1.0" stroke-width="1.0" fill="none">
            </line>
            <line x1="1208.9110872041574" y1="0.0" x2="1208.9110872041574" y2="840.0" stroke="rgb(233,233,233)" stroke-opacity="1.0" stroke-width="1.0" fill="none">
            </line>
            <line x1="1274.8576752892236" y1="0.0" x2="1274.8576752892236" y2="840.0" stroke="rgb(233,233,233)" stroke-opacity="1.0" stroke-width="1.0" fill="none">
            </line>
            <line x1="1340.8042633742893" y1="0.0" x2="1340.8042633742893" y2="840.0" stroke="rgb(233,233,233)" stroke-opacity="1.0" stroke-width="1.0" fill="none">
            </line>
          </g>
        </g>
        <g transform="translate(14.944431520173177 24.0 ) ">
          <g>
            <line x1="0.0" y1="840.0" x2="1363.055568479827" y2="840.0" stroke="rgb(233,233,233)" stroke-opacity="1.0" stroke-width="1.0" fill="none">
            </line>
            <line x1="0.0" y1="786.7129896398769" x2="1363.055568479827" y2="786.7129896398769" stroke="rgb(233,233,233)" stroke-opacity="1.0" stroke-width="1.0" fill="none">
            </line>
            <line x1="0.0" y1="733.4259792797537" x2="1363.055568479827" y2="733.4259792797537" stroke="rgb(233,233,233)" stroke-opacity="1.0" stroke-width="1.0" fill="none">
            </line>
            <line x1="0.0" y1="680.1389689196307" x2="1363.055568479827" y2="680.1389689196307" stroke="rgb(233,233,233)" stroke-opacity="1.0" stroke-width="1.0" fill="none">
            </line>
            <line x1="0.0" y1="626.8519585595075" x2="1363.055568479827" y2="626.8519585595075" stroke="rgb(233,233,233)" stroke-opacity="1.0" stroke-width="1.0" fill="none">
            </line>
            <line x1="0.0" y1="573.5649481993844" x2="1363.055568479827" y2="573.5649481993844" stroke="rgb(233,233,233)" stroke-opacity="1.0" stroke-width="1.0" fill="none">
            </line>
            <line x1="0.0" y1="520.2779378392613" x2="1363.055568479827" y2="520.2779378392613" stroke="rgb(233,233,233)" stroke-opacity="1.0" stroke-width="1.0" fill="none">
            </line>
            <line x1="0.0" y1="466.9909274791382" x2="1363.055568479827" y2="466.9909274791382" stroke="rgb(233,233,233)" stroke-opacity="1.0" stroke-width="1.0" fill="none">
            </line>
            <line x1="0.0" y1="413.70391711901505" x2="1363.055568479827" y2="413.70391711901505" stroke="rgb(233,233,233)" stroke-opacity="1.0" stroke-width="1.0" fill="none">
            </line>
            <line x1="0.0" y1="360.4169067588919" x2="1363.055568479827" y2="360.4169067588919" stroke="rgb(233,233,233)" stroke-opacity="1.0" stroke-width="1.0" fill="none">
            </line>
            <line x1="0.0" y1="307.1298963987688" x2="1363.055568479827" y2="307.1298963987688" stroke="rgb(233,233,233)" stroke-opacity="1.0" stroke-width="1.0" fill="none">
            </line>
            <line x1="0.0" y1="253.8428860386457" x2="1363.055568479827" y2="253.8428860386457" stroke="rgb(233,233,233)" stroke-opacity="1.0" stroke-width="1.0" fill="none">
            </line>
            <line x1="0.0" y1="200.55587567852263" x2="1363.055568479827" y2="200.55587567852263" stroke="rgb(233,233,233)" stroke-opacity="1.0" stroke-width="1.0" fill="none">
            </line>
            <line x1="0.0" y1="147.26886531839943" x2="1363.055568479827" y2="147.26886531839943" stroke="rgb(233,233,233)" stroke-opacity="1.0" stroke-width="1.0" fill="none">
            </line>
            <line x1="0.0" y1="93.98185495827636" x2="1363.055568479827" y2="93.98185495827636" stroke="rgb(233,233,233)" stroke-opacity="1.0" stroke-width="1.0" fill="none">
            </line>
            <line x1="0.0" y1="40.69484459815317" x2="1363.055568479827" y2="40.69484459815317" stroke="rgb(233,233,233)" stroke-opacity="1.0" stroke-width="1.0" fill="none">
            </line>
          </g>
        </g>
      </g>
      <g clip-path="url(#cflE6Mc)" clip-bounds-jfx="[rect (14.944431520173177, 24.0), (1363.055568479827, 840.0)]">
        <g transform="translate(14.944431520173177 24.0 ) ">
          <g>
            <g>
              <g>
                <path d="M73.02083402570497 839.9789520656467 L73.02083402570497 839.9789520656467 L77.79343755679679 839.9273235306108 L82.5660410878886 839.9364497083898 L87.33864461898042 839.971258128417 L92.11124815007224 839.9482332348056 L96.88385168116406 839.9693463382391 L101.65645521225588 839.9315379826742 L106.42905874334781 839.900160318221 L111.20166227443963 839.8669710006553 L115.97426580553145 839.920262553467 L120.74686933662326 839.8946380426817 L125.51947286771508 839.8297312392875 L130.292076398807 839.8799066825364 L135.06467992989872 839.9100515944995 L139.83728346099053 839.9253435041993 L144.60988699208235 839.9042152873108 L149.38249052317428 839.8937858231616 L154.1550940542661 839.8142175230042 L158.92769758535792 839.851011592671 L163.70030111644974 839.7698586311755 L168.47290464754155 839.8383574742852 L173.24550817863337 839.9096309489893 L178.01811170972525 839.9319092260474 L182.79071524081706 839.8827992560812 L187.56331877190883 839.8378601089895 L192.3359223030007 839.7842026048353 L197.10852583409257 839.8430375655553 L201.8811293651844 839.7450494555036 L206.6537328962762 839.6614026482152 L211.42633642736797 839.753293396836 L216.19893995845985 839.7973032769648 L220.97154348955172 839.7122194715236 L225.74414702064354 839.8234508893017 L230.51675055173536 839.8673219803339 L235.28935408282717 839.8237728755616 L240.06195761391905 839.7458522138672 L244.83456114501087 839.7367216364702 L249.60716467610268 839.7160060785973 L254.37976820719445 839.805500237049 L259.1523717382863 839.7361531853229 L263.9249752693782 839.5441380233711 L268.69757880047 839.7745799769488 L273.47018233156183 839.7390396084097 L278.24278586265365 839.7559092637159 L283.01538939374547 839.6671443694395 L287.78799292483734 839.7641803249679 L292.56059645592916 839.6712269393595 L297.333199987021 839.7336148610623 L302.1058035181128 839.8063389810615 L306.87840704920467 839.727372495209 L311.6510105802965 839.5517820489159 L316.4236141113883 839.5581388794432 L321.1962176424802 839.562702172093 L325.96882117357194 839.6749518745728 L330.7414247046638 839.5880423845066 L335.51402823575563 839.5174178609278 L340.28663176684745 839.74367162998 L345.05923529793927 839.5730910802266 L349.8318388290311 839.3855163899724 L354.60444236012296 839.4979688303833 L359.3770458912148 839.5460879443322 L364.14964942230665 839.5694137548367 L368.9222529533984 839.5881428664254 L373.6948564844903 839.4478960145593 L378.4674600155821 839.5585766865464 L383.2400635466739 839.4801546383309 L388.0126670777658 839.6318529805237 L392.78527060885756 839.5462975003344 L397.55787413994943 839.4073015618188 L402.33047767104125 839.4617038291849 L407.1030812021331 839.6200419588112 L411.8756847332249 839.4534006453773 L416.64828826431676 839.5218208273584 L421.4208917954086 839.5185811426645 L426.1934953265004 839.3108363378504 L430.9660988575922 839.3852971269197 L435.73870238868403 839.4040909288038 L440.5113059197759 839.2239491300364 L445.2839094508677 839.2971411005714 L450.0565129819596 839.4625015720486 L454.8291165130514 839.4680598589404 L459.60172004414324 839.2996425226892 L464.37432357523505 839.4615715776915 L469.14692710632687 839.339217111248 L473.9195306374187 838.9956072586015 L478.6921341685105 838.8934023928383 L483.46473769960244 839.1229186860278 L488.2373412306942 838.7194676786381 L493.009944761786 838.8598145141345 L497.7825482928779 838.8749387686648 L502.5551518239697 839.0682551789658 L507.3277553550615 838.9061416869002 L512.1003588861533 838.9391728918413 L516.8729624172452 838.9834634376622 L521.645565948337 839.0917913439914 L526.4181694794289 838.7364406888736 L531.1907730105206 839.1173543506189 L535.9633765416124 838.9257456088772 L540.7359800727044 838.9999663121231 L545.5085836037962 838.5693555663792 L550.281187134888 838.5634293394254 L555.0537906659798 838.0949547282007 L559.8263941970717 838.4049313554441 L564.5989977281635 838.5525176260476 L569.3716012592554 838.3532585806083 L574.1442047903472 837.8359564228792 L578.916808321439 837.7830534985326 L583.6894118525308 837.5151913440474 L588.4620153836227 837.4516841493978 L593.2346189147145 837.5178988564846 L598.0072224458063 837.6051803027137 L602.7798259768981 837.1160833715813 L607.5524295079899 836.8171784677812 L612.3250330390819 836.7990941569988 L617.0976365701737 836.1839877818105 L621.8702401012655 836.0945478728678 L626.6428436323572 835.6555409181879 L631.4154471634491 834.2321344376409 L636.188050694541 834.0820153496556 L640.9606542256328 832.74364373022 L645.7332577567246 831.1523476557567 L650.5058612878164 828.6108032677495 L655.2784648189083 827.4401618749672 L660.0510683500002 823.9059608588586 L664.823671881092 817.6707463644732 L669.5962754121838 807.7685282209605 L674.3688789432756 789.1046470649185 L679.1414824743674 616.9798719090466 L679.1414824743674 616.9798719090466 L683.9140860054592 76.36363636363637 L683.9140860054592 76.36363636363637 L688.6866895365511 368.0481160884177 L693.4592930676429 654.1151001606272 L698.2318965987348 717.7231555330283 L703.0045001298266 752.3029184052442 L703.0045001298266 752.3029184052442 L707.7771036609184 771.6110196123176 L712.5497071920103 786.1227090698611 L717.3223107231022 796.2391738544276 L722.0949142541939 799.7375216511857 L726.8675177852857 806.7605339793845 L731.6401213163775 810.089889899151 L736.4127248474693 814.8067825499612 L741.1853283785613 817.1541394504002 L745.9579319096531 820.603538390064 L750.7305354407449 820.8023729428551 L755.5031389718367 821.9612813794972 L760.2757425029286 824.9360973170619 L765.0483460340204 825.4596127410844 L769.8209495651122 825.497289082821 L774.593553096204 827.2517861752315 L779.3661566272958 826.8852797049516 L784.1387601583878 827.8814634469321 L788.9113636894796 828.5198520083941 L793.6839672205714 829.6978883817028 L798.4565707516632 829.1471901110879 L803.2291742827549 830.011516363905 L808.001777813847 830.0638026462708 L812.7743813449387 830.5987015669247 L817.5469848760305 831.4591629051813 L822.3195884071223 831.7515187585694 L827.0921919382142 832.4013795819353 L831.864795469306 831.8338203765778 L836.6373990003979 832.919808719027 L841.4100025314897 832.6045298017751 L846.1826060625815 833.5570603447738 L850.9552095936733 833.5121477649657 L855.7278131247651 834.4225667433124 L860.500416655857 834.4820502557694 L865.2730201869488 834.5048799041281 L870.0456237180407 834.559122839009 L874.8182272491325 834.8242638370419 L879.5908307802243 834.9160528700326 L884.3634343113162 834.7378909362744 L889.136037842408 835.2720818560047 L893.9086413734999 835.5948088817845 L898.6812449045917 835.1801936485089 L903.4538484356834 836.002690798732 L908.2264519667752 835.8907403388504 L912.9990554978671 835.7989114988303 L917.771659028959 835.6364559961332 L922.5442625600508 836.3522561052695 L927.3168660911426 836.2784320631272 L932.0894696222344 836.0000465193881 L936.8620731533263 836.3674074131075 L941.6346766844181 836.710203962007 L946.4072802155099 836.5263120525631 L951.1798837466017 836.9189500718849 L955.9524872776935 836.7888495012661 L960.7250908087855 837.3275937326097 L965.4976943398773 836.7991317652435 L970.2702978709691 836.6673620737967 L975.0429014020608 837.298467654598 L979.8155049331529 837.3148740991526 L984.5881084642447 837.1794783130854 L989.3607119953365 837.4220048848375 L994.1333155264283 837.2772345753259 L998.90591905752 837.723408156587 L1003.6785225886119 837.583158027325 L1008.4511261197038 837.8382011092514 L1013.2237296507956 838.1167872089276 L1017.9963331818874 837.6422451285305 L1022.7689367129792 837.403786230321 L1027.541540244071 837.6453180245027 L1032.3141437751628 838.1267828008796 L1037.0867473062547 837.7532792118947 L1041.8593508373465 838.3735077161795 L1046.6319543684385 838.4952689149428 L1051.4045578995301 838.3187626754387 L1056.1771614306222 838.3914850134756 L1060.9497649617138 838.4139704542149 L1065.7223684928058 838.5949283327028 L1070.4949720238976 838.2297450125267 L1075.2675755549894 838.6355853069691 L1080.0401790860813 838.2840460073463 L1084.812782617173 838.3018851656205 L1089.585386148265 838.5992376817402 L1094.3579896793567 838.352725144649 L1099.1305932104485 838.4499005985738 L1103.9031967415403 838.545579447664 L1108.6758002726322 838.762343436103 L1113.448403803724 838.9586305962164 L1118.2210073348158 839.0408101717636 L1122.9936108659076 839.0563110043361 L1127.7662143969994 838.6925248848555 L1132.5388179280912 838.6603534897282 L1137.311421459183 839.0144841847672 L1142.0840249902749 838.8025879852136 L1146.856628521367 839.04671379472 L1151.6292320524587 839.1371711392709 L1156.4018355835506 838.8256540521661 L1161.1744391146424 839.1203982543203 L1165.9470426457342 839.1256347064835 L1170.719646176826 839.0129125986815 L1175.4922497079178 839.230281241944 L1180.2648532390094 839.0718104320399 L1185.0374567701015 839.2429663914564 L1189.8100603011935 838.9746785523714 L1194.582663832285 838.8409632000554 L1199.3552673633772 838.9889731327305 L1204.1278708944687 839.2319014064901 L1208.9004744255608 839.2480651743625 L1213.6730779566524 839.2338275598584 L1218.4456814877442 839.1579072037849 L1223.218285018836 839.225195528693 L1227.9908885499278 839.3969375081168 L1232.7634920810199 839.3147447076483 L1237.5360956121117 839.5894019328638 L1242.3086991432035 839.6416031629611 L1247.0813026742953 839.4086785409376 L1251.8539062053871 839.5017064893168 L1256.626509736479 839.5248636795743 L1261.3991132675706 839.4907255224898 L1266.1717167986626 839.6124476215322 L1270.9443203297542 839.5387356824805 L1275.7169238608462 839.4862314120129 L1280.4895273919383 839.5192171415773 L1285.2621309230299 839.461959316852 L1290.034734454122 839.7613174910554 L1290.034734454122 840.0 L1285.2621309230299 840.0 L1280.4895273919383 840.0 L1275.7169238608462 840.0 L1270.9443203297542 840.0 L1266.1717167986626 840.0 L1261.3991132675706 840.0 L1256.626509736479 840.0 L1251.8539062053871 840.0 L1247.0813026742953 840.0 L1242.3086991432035 840.0 L1237.5360956121117 840.0 L1232.7634920810199 840.0 L1227.9908885499278 840.0 L1223.218285018836 840.0 L1218.4456814877442 840.0 L1213.6730779566524 840.0 L1208.9004744255608 840.0 L1204.1278708944687 840.0 L1199.3552673633772 840.0 L1194.582663832285 840.0 L1189.8100603011935 840.0 L1185.0374567701015 840.0 L1180.2648532390094 840.0 L1175.4922497079178 840.0 L1170.719646176826 840.0 L1165.9470426457342 840.0 L1161.1744391146424 840.0 L1156.4018355835506 840.0 L1151.6292320524587 840.0 L1146.856628521367 840.0 L1142.0840249902749 840.0 L1137.311421459183 840.0 L1132.5388179280912 840.0 L1127.7662143969994 840.0 L1122.9936108659076 840.0 L1118.2210073348158 840.0 L1113.448403803724 840.0 L1108.6758002726322 840.0 L1103.9031967415403 840.0 L1099.1305932104485 840.0 L1094.3579896793567 840.0 L1089.585386148265 840.0 L1084.812782617173 840.0 L1080.0401790860813 840.0 L1075.2675755549894 840.0 L1070.4949720238976 840.0 L1065.7223684928058 840.0 L1060.9497649617138 840.0 L1056.1771614306222 840.0 L1051.4045578995301 840.0 L1046.6319543684385 840.0 L1041.8593508373465 840.0 L1037.0867473062547 840.0 L1032.3141437751628 840.0 L1027.541540244071 840.0 L1022.7689367129792 840.0 L1017.9963331818874 840.0 L1013.2237296507956 840.0 L1008.4511261197038 840.0 L1003.6785225886119 840.0 L998.90591905752 840.0 L994.1333155264283 840.0 L989.3607119953365 840.0 L984.5881084642447 840.0 L979.8155049331529 840.0 L975.0429014020608 840.0 L970.2702978709691 840.0 L965.4976943398773 840.0 L960.7250908087855 840.0 L955.9524872776935 840.0 L951.1798837466017 840.0 L946.4072802155099 840.0 L941.6346766844181 840.0 L936.8620731533263 840.0 L932.0894696222344 840.0 L927.3168660911426 840.0 L922.5442625600508 840.0 L917.771659028959 840.0 L912.9990554978671 840.0 L908.2264519667752 840.0 L903.4538484356834 840.0 L898.6812449045917 840.0 L893.9086413734999 840.0 L889.136037842408 840.0 L884.3634343113162 840.0 L879.5908307802243 840.0 L874.8182272491325 840.0 L870.0456237180407 840.0 L865.2730201869488 840.0 L860.500416655857 840.0 L855.7278131247651 840.0 L850.9552095936733 840.0 L846.1826060625815 840.0 L841.4100025314897 840.0 L836.6373990003979 840.0 L831.864795469306 840.0 L827.0921919382142 840.0 L822.3195884071223 840.0 L817.5469848760305 840.0 L812.7743813449387 840.0 L808.001777813847 840.0 L803.2291742827549 840.0 L798.4565707516632 840.0 L793.6839672205714 840.0 L788.9113636894796 840.0 L784.1387601583878 840.0 L779.3661566272958 840.0 L774.593553096204 840.0 L769.8209495651122 840.0 L765.0483460340204 840.0 L760.2757425029286 840.0 L755.5031389718367 840.0 L750.7305354407449 840.0 L745.9579319096531 840.0 L741.1853283785613 840.0 L736.4127248474693 840.0 L731.6401213163775 840.0 L726.8675177852857 840.0 L722.0949142541939 840.0 L717.3223107231022 840.0 L712.5497071920103 840.0 L707.7771036609184 840.0 L703.0045001298266 840.0 L703.0045001298266 840.0 L698.2318965987348 840.0 L693.4592930676429 840.0 L688.6866895365511 840.0 L683.9140860054592 840.0 L683.9140860054592 840.0 L679.1414824743674 840.0 L679.1414824743674 840.0 L674.3688789432756 840.0 L669.5962754121838 840.0 L664.823671881092 840.0 L660.0510683500002 840.0 L655.2784648189083 840.0 L650.5058612878164 840.0 L645.7332577567246 840.0 L640.9606542256328 840.0 L636.188050694541 840.0 L631.4154471634491 840.0 L626.6428436323572 840.0 L621.8702401012655 840.0 L617.0976365701737 840.0 L612.3250330390819 840.0 L607.5524295079899 840.0 L602.7798259768981 840.0 L598.0072224458063 840.0 L593.2346189147145 840.0 L588.4620153836227 840.0 L583.6894118525308 840.0 L578.916808321439 840.0 L574.1442047903472 840.0 L569.3716012592554 840.0 L564.5989977281635 840.0 L559.8263941970717 840.0 L555.0537906659798 840.0 L550.281187134888 840.0 L545.5085836037962 840.0 L540.7359800727044 840.0 L535.9633765416124 840.0 L531.1907730105206 840.0 L526.4181694794289 840.0 L521.645565948337 840.0 L516.8729624172452 840.0 L512.1003588861533 840.0 L507.3277553550615 840.0 L502.5551518239697 840.0 L497.7825482928779 840.0 L493.009944761786 840.0 L488.2373412306942 840.0 L483.46473769960244 840.0 L478.6921341685105 840.0 L473.9195306374187 840.0 L469.14692710632687 840.0 L464.37432357523505 840.0 L459.60172004414324 840.0 L454.8291165130514 840.0 L450.0565129819596 840.0 L445.2839094508677 840.0 L440.5113059197759 840.0 L435.73870238868403 840.0 L430.9660988575922 840.0 L426.1934953265004 840.0 L421.4208917954086 840.0 L416.64828826431676 840.0 L411.8756847332249 840.0 L407.1030812021331 840.0 L402.33047767104125 840.0 L397.55787413994943 840.0 L392.78527060885756 840.0 L388.0126670777658 840.0 L383.2400635466739 840.0 L378.4674600155821 840.0 L373.6948564844903 840.0 L368.9222529533984 840.0 L364.14964942230665 840.0 L359.3770458912148 840.0 L354.60444236012296 840.0 L349.8318388290311 840.0 L345.05923529793927 840.0 L340.28663176684745 840.0 L335.51402823575563 840.0 L330.7414247046638 840.0 L325.96882117357194 840.0 L321.1962176424802 840.0 L316.4236141113883 840.0 L311.6510105802965 840.0 L306.87840704920467 840.0 L302.1058035181128 840.0 L297.333199987021 840.0 L292.56059645592916 840.0 L287.78799292483734 840.0 L283.01538939374547 840.0 L278.24278586265365 840.0 L273.47018233156183 840.0 L268.69757880047 840.0 L263.9249752693782 840.0 L259.1523717382863 840.0 L254.37976820719445 840.0 L249.60716467610268 840.0 L244.83456114501087 840.0 L240.06195761391905 840.0 L235.28935408282717 840.0 L230.51675055173536 840.0 L225.74414702064354 840.0 L220.97154348955172 840.0 L216.19893995845985 840.0 L211.42633642736797 840.0 L206.6537328962762 840.0 L201.8811293651844 840.0 L197.10852583409257 840.0 L192.3359223030007 840.0 L187.56331877190883 840.0 L182.79071524081706 840.0 L178.01811170972525 840.0 L173.24550817863337 840.0 L168.47290464754155 840.0 L163.70030111644974 840.0 L158.92769758535792 840.0 L154.1550940542661 840.0 L149.38249052317428 840.0 L144.60988699208235 840.0 L139.83728346099053 840.0 L135.06467992989872 840.0 L130.292076398807 840.0 L125.51947286771508 840.0 L120.74686933662326 840.0 L115.97426580553145 840.0 L111.20166227443963 840.0 L106.42905874334781 840.0 L101.65645521225588 840.0 L96.88385168116406 840.0 L92.11124815007224 840.0 L87.33864461898042 840.0 L82.5660410878886 840.0 L77.79343755679679 840.0 L73.02083402570497 840.0 Z" fill="rgb(71,71,71)" stroke-width="1.0" fill-opacity="0.10196078431372549">
                </path>
              </g>
              <g>
                <path d="M73.02083402570497 839.9789520656467 L73.02083402570497 839.9789520656467 L77.79343755679679 839.9273235306108 L82.5660410878886 839.9364497083898 L87.33864461898042 839.971258128417 L92.11124815007224 839.9482332348056 L96.88385168116406 839.9693463382391 L101.65645521225588 839.9315379826742 L106.42905874334781 839.900160318221 L111.20166227443963 839.8669710006553 L115.97426580553145 839.920262553467 L120.74686933662326 839.8946380426817 L125.51947286771508 839.8297312392875 L130.292076398807 839.8799066825364 L135.06467992989872 839.9100515944995 L139.83728346099053 839.9253435041993 L144.60988699208235 839.9042152873108 L149.38249052317428 839.8937858231616 L154.1550940542661 839.8142175230042 L158.92769758535792 839.851011592671 L163.70030111644974 839.7698586311755 L168.47290464754155 839.8383574742852 L173.24550817863337 839.9096309489893 L178.01811170972525 839.9319092260474 L182.79071524081706 839.8827992560812 L187.56331877190883 839.8378601089895 L192.3359223030007 839.7842026048353 L197.10852583409257 839.8430375655553 L201.8811293651844 839.7450494555036 L206.6537328962762 839.6614026482152 L211.42633642736797 839.753293396836 L216.19893995845985 839.7973032769648 L220.97154348955172 839.7122194715236 L225.74414702064354 839.8234508893017 L230.51675055173536 839.8673219803339 L235.28935408282717 839.8237728755616 L240.06195761391905 839.7458522138672 L244.83456114501087 839.7367216364702 L249.60716467610268 839.7160060785973 L254.37976820719445 839.805500237049 L259.1523717382863 839.7361531853229 L263.9249752693782 839.5441380233711 L268.69757880047 839.7745799769488 L273.47018233156183 839.7390396084097 L278.24278586265365 839.7559092637159 L283.01538939374547 839.6671443694395 L287.78799292483734 839.7641803249679 L292.56059645592916 839.6712269393595 L297.333199987021 839.7336148610623 L302.1058035181128 839.8063389810615 L306.87840704920467 839.727372495209 L311.6510105802965 839.5517820489159 L316.4236141113883 839.5581388794432 L321.1962176424802 839.562702172093 L325.96882117357194 839.6749518745728 L330.7414247046638 839.5880423845066 L335.51402823575563 839.5174178609278 L340.28663176684745 839.74367162998 L345.05923529793927 839.5730910802266 L349.8318388290311 839.3855163899724 L354.60444236012296 839.4979688303833 L359.3770458912148 839.5460879443322 L364.14964942230665 839.5694137548367 L368.9222529533984 839.5881428664254 L373.6948564844903 839.4478960145593 L378.4674600155821 839.5585766865464 L383.2400635466739 839.4801546383309 L388.0126670777658 839.6318529805237 L392.78527060885756 839.5462975003344 L397.55787413994943 839.4073015618188 L402.33047767104125 839.4617038291849 L407.1030812021331 839.6200419588112 L411.8756847332249 839.4534006453773 L416.64828826431676 839.5218208273584 L421.4208917954086 839.5185811426645 L426.1934953265004 839.3108363378504 L430.9660988575922 839.3852971269197 L435.73870238868403 839.4040909288038 L440.5113059197759 839.2239491300364 L445.2839094508677 839.2971411005714 L450.0565129819596 839.4625015720486 L454.8291165130514 839.4680598589404 L459.60172004414324 839.2996425226892 L464.37432357523505 839.4615715776915 L469.14692710632687 839.339217111248 L473.9195306374187 838.9956072586015 L478.6921341685105 838.8934023928383 L483.46473769960244 839.1229186860278 L488.2373412306942 838.7194676786381 L493.009944761786 838.8598145141345 L497.7825482928779 838.8749387686648 L502.5551518239697 839.0682551789658 L507.3277553550615 838.9061416869002 L512.1003588861533 838.9391728918413 L516.8729624172452 838.9834634376622 L521.645565948337 839.0917913439914 L526.4181694794289 838.7364406888736 L531.1907730105206 839.1173543506189 L535.9633765416124 838.9257456088772 L540.7359800727044 838.9999663121231 L545.5085836037962 838.5693555663792 L550.281187134888 838.5634293394254 L555.0537906659798 838.0949547282007 L559.8263941970717 838.4049313554441 L564.5989977281635 838.5525176260476 L569.3716012592554 838.3532585806083 L574.1442047903472 837.8359564228792 L578.916808321439 837.7830534985326 L583.6894118525308 837.5151913440474 L588.4620153836227 837.4516841493978 L593.2346189147145 837.5178988564846 L598.0072224458063 837.6051803027137 L602.7798259768981 837.1160833715813 L607.5524295079899 836.8171784677812 L612.3250330390819 836.7990941569988 L617.0976365701737 836.1839877818105 L621.8702401012655 836.0945478728678 L626.6428436323572 835.6555409181879 L631.4154471634491 834.2321344376409 L636.188050694541 834.0820153496556 L640.9606542256328 832.74364373022 L645.7332577567246 831.1523476557567 L650.5058612878164 828.6108032677495 L655.2784648189083 827.4401618749672 L660.0510683500002 823.9059608588586 L664.823671881092 817.6707463644732 L669.5962754121838 807.7685282209605 L674.3688789432756 789.1046470649185 L679.1414824743674 616.9798719090466 L679.1414824743674 616.9798719090466 L683.9140860054592 76.36363636363637 L683.9140860054592 76.36363636363637 L688.6866895365511 368.0481160884177 L693.4592930676429 654.1151001606272 L698.2318965987348 717.7231555330283 L703.0045001298266 752.3029184052442 L703.0045001298266 752.3029184052442 L707.7771036609184 771.6110196123176 L712.5497071920103 786.1227090698611 L717.3223107231022 796.2391738544276 L722.0949142541939 799.7375216511857 L726.8675177852857 806.7605339793845 L731.6401213163775 810.089889899151 L736.4127248474693 814.8067825499612 L741.1853283785613 817.1541394504002 L745.9579319096531 820.603538390064 L750.7305354407449 820.8023729428551 L755.5031389718367 821.9612813794972 L760.2757425029286 824.9360973170619 L765.0483460340204 825.4596127410844 L769.8209495651122 825.497289082821 L774.593553096204 827.2517861752315 L779.3661566272958 826.8852797049516 L784.1387601583878 827.8814634469321 L788.9113636894796 828.5198520083941 L793.6839672205714 829.6978883817028 L798.4565707516632 829.1471901110879 L803.2291742827549 830.011516363905 L808.001777813847 830.0638026462708 L812.7743813449387 830.5987015669247 L817.5469848760305 831.4591629051813 L822.3195884071223 831.7515187585694 L827.0921919382142 832.4013795819353 L831.864795469306 831.8338203765778 L836.6373990003979 832.919808719027 L841.4100025314897 832.6045298017751 L846.1826060625815 833.5570603447738 L850.9552095936733 833.5121477649657 L855.7278131247651 834.4225667433124 L860.500416655857 834.4820502557694 L865.2730201869488 834.5048799041281 L870.0456237180407 834.559122839009 L874.8182272491325 834.8242638370419 L879.5908307802243 834.9160528700326 L884.3634343113162 834.7378909362744 L889.136037842408 835.2720818560047 L893.9086413734999 835.5948088817845 L898.6812449045917 835.1801936485089 L903.4538484356834 836.002690798732 L908.2264519667752 835.8907403388504 L912.9990554978671 835.7989114988303 L917.771659028959 835.6364559961332 L922.5442625600508 836.3522561052695 L927.3168660911426 836.2784320631272 L932.0894696222344 836.0000465193881 L936.8620731533263 836.3674074131075 L941.6346766844181 836.710203962007 L946.4072802155099 836.5263120525631 L951.1798837466017 836.9189500718849 L955.9524872776935 836.7888495012661 L960.7250908087855 837.3275937326097 L965.4976943398773 836.7991317652435 L970.2702978709691 836.6673620737967 L975.0429014020608 837.298467654598 L979.8155049331529 837.3148740991526 L984.5881084642447 837.1794783130854 L989.3607119953365 837.4220048848375 L994.1333155264283 837.2772345753259 L998.90591905752 837.723408156587 L1003.6785225886119 837.583158027325 L1008.4511261197038 837.8382011092514 L1013.2237296507956 838.1167872089276 L1017.9963331818874 837.6422451285305 L1022.7689367129792 837.403786230321 L1027.541540244071 837.6453180245027 L1032.3141437751628 838.1267828008796 L1037.0867473062547 837.7532792118947 L1041.8593508373465 838.3735077161795 L1046.6319543684385 838.4952689149428 L1051.4045578995301 838.3187626754387 L1056.1771614306222 838.3914850134756 L1060.9497649617138 838.4139704542149 L1065.7223684928058 838.5949283327028 L1070.4949720238976 838.2297450125267 L1075.2675755549894 838.6355853069691 L1080.0401790860813 838.2840460073463 L1084.812782617173 838.3018851656205 L1089.585386148265 838.5992376817402 L1094.3579896793567 838.352725144649 L1099.1305932104485 838.4499005985738 L1103.9031967415403 838.545579447664 L1108.6758002726322 838.762343436103 L1113.448403803724 838.9586305962164 L1118.2210073348158 839.0408101717636 L1122.9936108659076 839.0563110043361 L1127.7662143969994 838.6925248848555 L1132.5388179280912 838.6603534897282 L1137.311421459183 839.0144841847672 L1142.0840249902749 838.8025879852136 L1146.856628521367 839.04671379472 L1151.6292320524587 839.1371711392709 L1156.4018355835506 838.8256540521661 L1161.1744391146424 839.1203982543203 L1165.9470426457342 839.1256347064835 L1170.719646176826 839.0129125986815 L1175.4922497079178 839.230281241944 L1180.2648532390094 839.0718104320399 L1185.0374567701015 839.2429663914564 L1189.8100603011935 838.9746785523714 L1194.582663832285 838.8409632000554 L1199.3552673633772 838.9889731327305 L1204.1278708944687 839.2319014064901 L1208.9004744255608 839.2480651743625 L1213.6730779566524 839.2338275598584 L1218.4456814877442 839.1579072037849 L1223.218285018836 839.225195528693 L1227.9908885499278 839.3969375081168 L1232.7634920810199 839.3147447076483 L1237.5360956121117 839.5894019328638 L1242.3086991432035 839.6416031629611 L1247.0813026742953 839.4086785409376 L1251.8539062053871 839.5017064893168 L1256.626509736479 839.5248636795743 L1261.3991132675706 839.4907255224898 L1266.1717167986626 839.6124476215322 L1270.9443203297542 839.5387356824805 L1275.7169238608462 839.4862314120129 L1280.4895273919383 839.5192171415773 L1285.2621309230299 839.461959316852 L1290.034734454122 839.7613174910554 " fill="none" stroke-width="1.6500000000000001" stroke="rgb(71,71,71)" stroke-opacity="1.0">
                </path>
              </g>
              <line x1="703.0045001298266" y1="752.3029184052442" x2="703.0045001298266" y2="840.0" stroke="rgb(71,71,71)" stroke-opacity="1.0" fill="none" stroke-width="1.6500000000000001">
              </line>
              <line x1="683.9140860054592" y1="76.36363636363637" x2="683.9140860054592" y2="840.0" stroke="rgb(71,71,71)" stroke-opacity="1.0" fill="none" stroke-width="1.6500000000000001">
              </line>
              <line x1="679.1414824743674" y1="616.9798719090466" x2="679.1414824743674" y2="840.0" stroke="rgb(71,71,71)" stroke-opacity="1.0" fill="none" stroke-width="1.6500000000000001">
              </line>
            </g>
            <g>
              <g transform="rotate(0.0 898.9938923461947 394.5357470014107 ) ">
                <path d="M920.2559241242363 421.5357470014107 C920.2559241242363 421.5357470014107 924.3059241242363 421.5357470014107 924.3059241242363 417.4857470014107 L924.3059241242363 398.5857470014107 C924.3059241242363 398.5857470014107 924.3059241242363 394.5357470014107 920.2559241242363 394.5357470014107 L877.7318605681529 394.5357470014107 C877.7318605681529 394.5357470014107 873.681860568153 394.5357470014107 873.681860568153 398.5857470014107 L873.681860568153 417.4857470014107 C873.681860568153 417.4857470014107 873.681860568153 421.5357470014107 877.7318605681529 421.5357470014107 Z" stroke="rgb(71,71,71)" stroke-opacity="1.0" fill="rgb(235,235,235)" fill-opacity="0.1" stroke-width="1.0">
                </path>
                <g transform="translate(898.9938923461947 400.8357470014107 ) ">
                  <text style="fill:#474747;font-size:6.0px;font-family:sans-serif;" fill-opacity="1.0" y="0.0" text-anchor="middle">
                    <tspan>n=177,864</tspan>
                  </text>
                  <text style="fill:#474747;font-size:6.0px;font-family:sans-serif;" fill-opacity="1.0" y="6.0" text-anchor="middle">
                    <tspan>zeros=1.0%</tspan>
                  </text>
                  <text style="fill:#474747;font-size:6.0px;font-family:sans-serif;" fill-opacity="1.0" y="12.0" text-anchor="middle">
                    <tspan>median=0.0466</tspan>
                  </text>
                  <text style="fill:#474747;font-size:6.0px;font-family:sans-serif;" fill-opacity="1.0" y="18.0" text-anchor="middle">
                    <tspan>IQR=0.192</tspan>
                  </text>
                </g>
              </g>
            </g>
          </g>
        </g>
        <defs>
          <clipPath id="clXD6sr">
            <rect x="14.944431520173177" y="24.0" width="1363.055568479827" height="840.0">
            </rect>
          </clipPath>
        </defs>
        <defs>
          <clipPath id="cflE6Mc">
            <rect x="14.944431520173177" y="24.0" width="1363.055568479827" height="840.0">
            </rect>
          </clipPath>
        </defs>
      </g>
      <g>
        <g transform="translate(14.944431520173177 864.0 ) ">
          <g transform="translate(21.872501672968724 0.0 ) ">
            <line stroke-width="1.0" stroke="rgb(71,71,71)" stroke-opacity="1.0" x2="0.0" y2="4.0">
            </line>
            <g transform="translate(0.0 6.0 ) ">
              <text class="axis-text-x" text-anchor="middle" dy="0.7em" y="0.0">
                <tspan>-5</tspan>
              </text>
            </g>
          </g>
          <g transform="translate(87.81908975803469 0.0 ) ">
            <line stroke-width="1.0" stroke="rgb(71,71,71)" stroke-opacity="1.0" x2="0.0" y2="4.0">
            </line>
            <g transform="translate(0.0 6.0 ) ">
              <text class="axis-text-x" text-anchor="middle" dy="0.7em" y="0.0">
                <tspan>-4.5</tspan>
              </text>
            </g>
          </g>
          <g transform="translate(153.76567784310078 0.0 ) ">
            <line stroke-width="1.0" stroke="rgb(71,71,71)" stroke-opacity="1.0" x2="0.0" y2="4.0">
            </line>
            <g transform="translate(0.0 6.0 ) ">
              <text class="axis-text-x" text-anchor="middle" dy="0.7em" y="0.0">
                <tspan>-4</tspan>
              </text>
            </g>
          </g>
          <g transform="translate(219.7122659281668 0.0 ) ">
            <line stroke-width="1.0" stroke="rgb(71,71,71)" stroke-opacity="1.0" x2="0.0" y2="4.0">
            </line>
            <g transform="translate(0.0 6.0 ) ">
              <text class="axis-text-x" text-anchor="middle" dy="0.7em" y="0.0">
                <tspan>-3.5</tspan>
              </text>
            </g>
          </g>
          <g transform="translate(285.6588540132328 0.0 ) ">
            <line stroke-width="1.0" stroke="rgb(71,71,71)" stroke-opacity="1.0" x2="0.0" y2="4.0">
            </line>
            <g transform="translate(0.0 6.0 ) ">
              <text class="axis-text-x" text-anchor="middle" dy="0.7em" y="0.0">
                <tspan>-3</tspan>
              </text>
            </g>
          </g>
          <g transform="translate(351.6054420982989 0.0 ) ">
            <line stroke-width="1.0" stroke="rgb(71,71,71)" stroke-opacity="1.0" x2="0.0" y2="4.0">
            </line>
            <g transform="translate(0.0 6.0 ) ">
              <text class="axis-text-x" text-anchor="middle" dy="0.7em" y="0.0">
                <tspan>-2.5</tspan>
              </text>
            </g>
          </g>
          <g transform="translate(417.55203018336493 0.0 ) ">
            <line stroke-width="1.0" stroke="rgb(71,71,71)" stroke-opacity="1.0" x2="0.0" y2="4.0">
            </line>
            <g transform="translate(0.0 6.0 ) ">
              <text class="axis-text-x" text-anchor="middle" dy="0.7em" y="0.0">
                <tspan>-2</tspan>
              </text>
            </g>
          </g>
          <g transform="translate(483.49861826843096 0.0 ) ">
            <line stroke-width="1.0" stroke="rgb(71,71,71)" stroke-opacity="1.0" x2="0.0" y2="4.0">
            </line>
            <g transform="translate(0.0 6.0 ) ">
              <text class="axis-text-x" text-anchor="middle" dy="0.7em" y="0.0">
                <tspan>-1.5</tspan>
              </text>
            </g>
          </g>
          <g transform="translate(549.445206353497 0.0 ) ">
            <line stroke-width="1.0" stroke="rgb(71,71,71)" stroke-opacity="1.0" x2="0.0" y2="4.0">
            </line>
            <g transform="translate(0.0 6.0 ) ">
              <text class="axis-text-x" text-anchor="middle" dy="0.7em" y="0.0">
                <tspan>-1</tspan>
              </text>
            </g>
          </g>
          <g transform="translate(615.391794438563 0.0 ) ">
            <line stroke-width="1.0" stroke="rgb(71,71,71)" stroke-opacity="1.0" x2="0.0" y2="4.0">
            </line>
            <g transform="translate(0.0 6.0 ) ">
              <text class="axis-text-x" text-anchor="middle" dy="0.7em" y="0.0">
                <tspan>-0.5</tspan>
              </text>
            </g>
          </g>
          <g transform="translate(681.3383825236291 0.0 ) ">
            <line stroke-width="1.0" stroke="rgb(71,71,71)" stroke-opacity="1.0" x2="0.0" y2="4.0">
            </line>
            <g transform="translate(0.0 6.0 ) ">
              <text class="axis-text-x" text-anchor="middle" dy="0.7em" y="0.0">
                <tspan>0</tspan>
              </text>
            </g>
          </g>
          <g transform="translate(747.2849706086952 0.0 ) ">
            <line stroke-width="1.0" stroke="rgb(71,71,71)" stroke-opacity="1.0" x2="0.0" y2="4.0">
            </line>
            <g transform="translate(0.0 6.0 ) ">
              <text class="axis-text-x" text-anchor="middle" dy="0.7em" y="0.0">
                <tspan>0.5</tspan>
              </text>
            </g>
          </g>
          <g transform="translate(813.2315586937611 0.0 ) ">
            <line stroke-width="1.0" stroke="rgb(71,71,71)" stroke-opacity="1.0" x2="0.0" y2="4.0">
            </line>
            <g transform="translate(0.0 6.0 ) ">
              <text class="axis-text-x" text-anchor="middle" dy="0.7em" y="0.0">
                <tspan>1</tspan>
              </text>
            </g>
          </g>
          <g transform="translate(879.1781467788272 0.0 ) ">
            <line stroke-width="1.0" stroke="rgb(71,71,71)" stroke-opacity="1.0" x2="0.0" y2="4.0">
            </line>
            <g transform="translate(0.0 6.0 ) ">
              <text class="axis-text-x" text-anchor="middle" dy="0.7em" y="0.0">
                <tspan>1.5</tspan>
              </text>
            </g>
          </g>
          <g transform="translate(945.1247348638933 0.0 ) ">
            <line stroke-width="1.0" stroke="rgb(71,71,71)" stroke-opacity="1.0" x2="0.0" y2="4.0">
            </line>
            <g transform="translate(0.0 6.0 ) ">
              <text class="axis-text-x" text-anchor="middle" dy="0.7em" y="0.0">
                <tspan>2</tspan>
              </text>
            </g>
          </g>
          <g transform="translate(1011.0713229489593 0.0 ) ">
            <line stroke-width="1.0" stroke="rgb(71,71,71)" stroke-opacity="1.0" x2="0.0" y2="4.0">
            </line>
            <g transform="translate(0.0 6.0 ) ">
              <text class="axis-text-x" text-anchor="middle" dy="0.7em" y="0.0">
                <tspan>2.5</tspan>
              </text>
            </g>
          </g>
          <g transform="translate(1077.0179110340255 0.0 ) ">
            <line stroke-width="1.0" stroke="rgb(71,71,71)" stroke-opacity="1.0" x2="0.0" y2="4.0">
            </line>
            <g transform="translate(0.0 6.0 ) ">
              <text class="axis-text-x" text-anchor="middle" dy="0.7em" y="0.0">
                <tspan>3</tspan>
              </text>
            </g>
          </g>
          <g transform="translate(1142.9644991190914 0.0 ) ">
            <line stroke-width="1.0" stroke="rgb(71,71,71)" stroke-opacity="1.0" x2="0.0" y2="4.0">
            </line>
            <g transform="translate(0.0 6.0 ) ">
              <text class="axis-text-x" text-anchor="middle" dy="0.7em" y="0.0">
                <tspan>3.5</tspan>
              </text>
            </g>
          </g>
          <g transform="translate(1208.9110872041574 0.0 ) ">
            <line stroke-width="1.0" stroke="rgb(71,71,71)" stroke-opacity="1.0" x2="0.0" y2="4.0">
            </line>
            <g transform="translate(0.0 6.0 ) ">
              <text class="axis-text-x" text-anchor="middle" dy="0.7em" y="0.0">
                <tspan>4</tspan>
              </text>
            </g>
          </g>
          <g transform="translate(1274.8576752892236 0.0 ) ">
            <line stroke-width="1.0" stroke="rgb(71,71,71)" stroke-opacity="1.0" x2="0.0" y2="4.0">
            </line>
            <g transform="translate(0.0 6.0 ) ">
              <text class="axis-text-x" text-anchor="middle" dy="0.7em" y="0.0">
                <tspan>4.5</tspan>
              </text>
            </g>
          </g>
          <g transform="translate(1340.8042633742893 0.0 ) ">
            <line stroke-width="1.0" stroke="rgb(71,71,71)" stroke-opacity="1.0" x2="0.0" y2="4.0">
            </line>
            <g transform="translate(0.0 6.0 ) ">
              <text class="axis-text-x" text-anchor="middle" dy="0.7em" y="0.0">
                <tspan>5</tspan>
              </text>
            </g>
          </g>
          <line x1="0.0" y1="0.0" x2="1363.055568479827" y2="0.0" stroke-width="1.0" stroke="rgb(71,71,71)" stroke-opacity="1.0">
          </line>
        </g>
        <g transform="translate(14.944431520173177 24.0 ) ">
          <g transform="translate(0.0 840.0 ) ">
            <g transform="translate(-2.0 0.0 ) ">
              <text class="axis-text-y" text-anchor="end" dy="0.35em" y="0.0">
                <tspan>0</tspan>
              </text>
            </g>
          </g>
          <g transform="translate(0.0 786.7129896398769 ) ">
            <g transform="translate(-2.0 0.0 ) ">
              <text class="axis-text-y" text-anchor="end" dy="0.35em" y="0.0">
                <tspan>0.5</tspan>
              </text>
            </g>
          </g>
          <g transform="translate(0.0 733.4259792797537 ) ">
            <g transform="translate(-2.0 0.0 ) ">
              <text class="axis-text-y" text-anchor="end" dy="0.35em" y="0.0">
                <tspan>1</tspan>
              </text>
            </g>
          </g>
          <g transform="translate(0.0 680.1389689196307 ) ">
            <g transform="translate(-2.0 0.0 ) ">
              <text class="axis-text-y" text-anchor="end" dy="0.35em" y="0.0">
                <tspan>1.5</tspan>
              </text>
            </g>
          </g>
          <g transform="translate(0.0 626.8519585595075 ) ">
            <g transform="translate(-2.0 0.0 ) ">
              <text class="axis-text-y" text-anchor="end" dy="0.35em" y="0.0">
                <tspan>2</tspan>
              </text>
            </g>
          </g>
          <g transform="translate(0.0 573.5649481993844 ) ">
            <g transform="translate(-2.0 0.0 ) ">
              <text class="axis-text-y" text-anchor="end" dy="0.35em" y="0.0">
                <tspan>2.5</tspan>
              </text>
            </g>
          </g>
          <g transform="translate(0.0 520.2779378392613 ) ">
            <g transform="translate(-2.0 0.0 ) ">
              <text class="axis-text-y" text-anchor="end" dy="0.35em" y="0.0">
                <tspan>3</tspan>
              </text>
            </g>
          </g>
          <g transform="translate(0.0 466.9909274791382 ) ">
            <g transform="translate(-2.0 0.0 ) ">
              <text class="axis-text-y" text-anchor="end" dy="0.35em" y="0.0">
                <tspan>3.5</tspan>
              </text>
            </g>
          </g>
          <g transform="translate(0.0 413.70391711901505 ) ">
            <g transform="translate(-2.0 0.0 ) ">
              <text class="axis-text-y" text-anchor="end" dy="0.35em" y="0.0">
                <tspan>4</tspan>
              </text>
            </g>
          </g>
          <g transform="translate(0.0 360.4169067588919 ) ">
            <g transform="translate(-2.0 0.0 ) ">
              <text class="axis-text-y" text-anchor="end" dy="0.35em" y="0.0">
                <tspan>4.5</tspan>
              </text>
            </g>
          </g>
          <g transform="translate(0.0 307.1298963987688 ) ">
            <g transform="translate(-2.0 0.0 ) ">
              <text class="axis-text-y" text-anchor="end" dy="0.35em" y="0.0">
                <tspan>5</tspan>
              </text>
            </g>
          </g>
          <g transform="translate(0.0 253.8428860386457 ) ">
            <g transform="translate(-2.0 0.0 ) ">
              <text class="axis-text-y" text-anchor="end" dy="0.35em" y="0.0">
                <tspan>5.5</tspan>
              </text>
            </g>
          </g>
          <g transform="translate(0.0 200.55587567852263 ) ">
            <g transform="translate(-2.0 0.0 ) ">
              <text class="axis-text-y" text-anchor="end" dy="0.35em" y="0.0">
                <tspan>6</tspan>
              </text>
            </g>
          </g>
          <g transform="translate(0.0 147.26886531839943 ) ">
            <g transform="translate(-2.0 0.0 ) ">
              <text class="axis-text-y" text-anchor="end" dy="0.35em" y="0.0">
                <tspan>6.5</tspan>
              </text>
            </g>
          </g>
          <g transform="translate(0.0 93.98185495827636 ) ">
            <g transform="translate(-2.0 0.0 ) ">
              <text class="axis-text-y" text-anchor="end" dy="0.35em" y="0.0">
                <tspan>7</tspan>
              </text>
            </g>
          </g>
          <g transform="translate(0.0 40.69484459815317 ) ">
            <g transform="translate(-2.0 0.0 ) ">
              <text class="axis-text-y" text-anchor="end" dy="0.35em" y="0.0">
                <tspan>7.5</tspan>
              </text>
            </g>
          </g>
        </g>
      </g>
      <g transform="translate(696.4722157600867 10.2 ) ">
        <text class="facet-strip-text-x" text-anchor="middle" y="0.0">
          <tspan>Net income</tspan>
        </text>
        <text class="facet-strip-text-x" text-anchor="middle" y="9.0">
          <tspan>[symlog; L9.69e+04]</tspan>
        </text>
      </g>
    </g>
    <g transform="translate(11.0 450.0 ) rotate(-90.0 ) ">
      <text class="axis-title-y" y="0.0" text-anchor="middle">
        <tspan>Density</tspan>
      </text>
    </g>
    <g transform="translate(712.4722157600867 895.0 ) ">
      <text class="axis-title-x" y="0.0" text-anchor="middle">
        <tspan>Value (symlog)</tspan>
      </text>
    </g>
    <path fill="rgb(0,0,0)" fill-opacity="0.0" stroke="rgb(71,71,71)" stroke-opacity="1.0" stroke-width="0.0" d="M0.0 0.0 L0.0 900.0 L1400.0 900.0 L1400.0 0.0 Z" pointer-events="none">
    </path>
  </g>
  <g id="dGrRRiz">
  </g>
</svg>