<svg class="main-svg" xmlns="http://www.w3.org/2000/svg" xmlns:xlink="http://www.w3.org/1999/xlink" width="1512" height="814" viewBox="0 0 1512 814" style=""><rect x="0" y="0" width="1512" height="814" style="fill: rgb(255, 255, 255); fill-opacity: 1;"/><defs id="defs-d99c93"><g class="clips"/><g class="gradients"/><g class="patterns"/></defs><g class="bglayer"/><g class="layer-below"><g class="imagelayer"/><g class="shapelayer"/></g><g class="cartesianlayer"/><g class="polarlayer"/><g class="smithlayer"/><g class="ternarylayer"/><g class="geolayer"/><g class="funnelarealayer"/><g class="pielayer"/><g class="iciclelayer"/><g class="treemaplayer"/><g class="sunburstlayer"/><g class="glimages"/><g class="sankey" transform="translate(16,56)matrix(1 0 0 1 0 0)" style="box-sizing: content-box; position: absolute; left: 0px; shape-rendering: geometricprecision; pointer-events: none;"><g class="sankey-links" style="fill: none;"><path class="sankey-link" d="M127.4,368.1226339689646C226.93333333333334,368.1226339689646 226.93333333333334,273.25550369218365 326.4666666666667,273.25550369218365L326.4666666666667,283.19276029967557C226.93333333333334,283.19276029967557 226.93333333333334,378.0598905764565 127.4,378.0598905764565Z" style="stroke: rgb(68, 68, 68); stroke-opacity: 1; fill: rgb(76, 175, 80); fill-opacity: 0.65; stroke-width: 0px; opacity: 1;"/><path class="sankey-link" d="M127.4,367.52227014404406C226.93333333333334,367.52227014404406 226.93333333333334,186.11673209687947 326.4666666666667,186.11673209687947L326.4666666666667,186.7170959218C226.93333333333334,186.7170959218 226.93333333333334,368.12263396896464 127.4,368.12263396896464Z" style="stroke: rgb(76, 175, 80); stroke-opacity: 0.65; fill: rgb(76, 175, 80); fill-opacity: 0.65; stroke-width: 1; opacity: 1;"/><path class="sankey-link" d="M127.4,365.74987515157255C226.93333333333334,365.74987515157255 226.93333333333334,93.5611721005766 326.4666666666667,93.5611721005766L326.4666666666667,95.33356709304813C226.93333333333334,95.33356709304813 226.93333333333334,367.52227014404406 127.4,367.52227014404406Z" style="stroke: rgb(68, 68, 68); stroke-opacity: 1; fill: rgb(76, 175, 80); fill-opacity: 0.65; stroke-width: 0px; opacity: 1;"/><path class="sankey-link" d="M127.4,378.0598905764565C118.45426666666667,378.0598905764565 118.45426666666667,639.0091714510414 109.50853333333333,639.0091714510414L109.50853333333333,640.7993709079268C118.45426666666667,640.7993709079268 118.45426666666667,379.85009003334176 127.4,379.85009003334176Z" style="stroke: rgb(68, 68, 68); stroke-opacity: 1; fill: rgb(76, 175, 80); fill-opacity: 0.65; stroke-width: 0px; opacity: 1;"/><path class="sankey-link" d="M127.4,275.95141023805274C226.93333333333334,275.95141023805274 226.93333333333334,267.68640761250487 326.4666666666667,267.68640761250487L326.4666666666667,273.2555036921836C226.93333333333334,273.2555036921836 226.93333333333334,281.5205063177315 127.4,281.5205063177315Z" style="stroke: rgb(68, 68, 68); stroke-opacity: 1; fill: rgb(76, 175, 80); fill-opacity: 0.65; stroke-width: 0px; opacity: 1;"/><path class="sankey-link" d="M127.4,269.2663086150105C226.93333333333334,269.2663086150105 226.93333333333334,179.43163047383717 326.4666666666667,179.43163047383717L326.4666666666667,186.11673209687945C226.93333333333334,186.11673209687945 226.93333333333334,275.9514102380528 127.4,275.9514102380528Z" style="stroke: rgb(68, 68, 68); stroke-opacity: 1; fill: rgb(76, 175, 80); fill-opacity: 0.65; stroke-width: 0px; opacity: 1;"/><path class="sankey-link" d="M127.4,267.2828519916372C226.93333333333334,267.2828519916372 226.93333333333334,91.57771547720334 326.4666666666667,91.57771547720334L326.4666666666667,93.5611721005766C226.93333333333334,93.5611721005766 226.93333333333334,269.2663086150105 127.4,269.2663086150105Z" style="stroke: rgb(68, 68, 68); stroke-opacity: 1; fill: rgb(76, 175, 80); fill-opacity: 0.65; stroke-width: 0px; opacity: 1;"/><path class="sankey-link" d="M127.4,281.52050631773153C118.45426666666667,281.52050631773153 118.45426666666667,636.2772746285831 109.50853333333333,636.2772746285831L109.50853333333333,639.0091714510414C118.45426666666667,639.0091714510414 118.45426666666667,284.25240314018987 127.4,284.25240314018987Z" style="stroke: rgb(68, 68, 68); stroke-opacity: 1; fill: rgb(76, 175, 80); fill-opacity: 0.65; stroke-width: 0px; opacity: 1;"/><path class="sankey-link" d="M127.4,193.73251244023112C226.93333333333334,193.73251244023112 226.93333333333334,264.63373172747066 326.4666666666667,264.63373172747066L326.4666666666667,267.68640761250487C226.93333333333334,267.68640761250487 226.93333333333334,196.78518832526532 127.4,196.78518832526532Z" style="stroke: rgb(68, 68, 68); stroke-opacity: 1; fill: rgb(76, 175, 80); fill-opacity: 0.65; stroke-width: 0px; opacity: 1;"/><path class="sankey-link" d="M127.4,185.19025373937052C226.93333333333334,185.19025373937052 226.93333333333334,170.88937177297657 326.4666666666667,170.88937177297657L326.4666666666667,179.43163047383717C226.93333333333334,179.43163047383717 226.93333333333334,193.73251244023112 127.4,193.73251244023112Z" style="stroke: rgb(68, 68, 68); stroke-opacity: 1; fill: rgb(76, 175, 80); fill-opacity: 0.65; stroke-width: 0px; opacity: 1;"/><path class="sankey-link" d="M127.4,154.50729882557138C226.93333333333334,154.50729882557138 226.93333333333334,60.89476056340418 326.4666666666667,60.89476056340418L326.4666666666667,91.57771547720333C226.93333333333334,91.57771547720333 226.93333333333334,185.19025373937055 127.4,185.19025373937055Z" style="stroke: rgb(68, 68, 68); stroke-opacity: 1; fill: rgb(76, 175, 80); fill-opacity: 0.65; stroke-width: 0px; opacity: 1;"/><path class="sankey-link" d="M127.4,196.78518832526535C118.45426666666667,196.78518832526535 118.45426666666667,629.5219173494274 109.50853333333333,629.5219173494274L109.50853333333333,636.277274628583C118.45426666666667,636.277274628583 118.45426666666667,203.540545604421 127.4,203.540545604421Z" style="stroke: rgb(68, 68, 68); stroke-opacity: 1; fill: rgb(76, 175, 80); fill-opacity: 0.65; stroke-width: 0px; opacity: 1;"/><path class="sankey-link" d="M127.4,46.02084676699508C226.93333333333334,46.02084676699508 226.93333333333334,169.17454805552993 326.4666666666667,169.17454805552993L326.4666666666667,170.88937177297655C226.93333333333334,170.88937177297655 226.93333333333334,47.73567048444171 127.4,47.73567048444171Z" style="stroke: rgb(68, 68, 68); stroke-opacity: 1; fill: rgb(76, 175, 80); fill-opacity: 0.65; stroke-width: 0px; opacity: 1;"/><path class="sankey-link" d="M127.4,24.022618431025677C226.93333333333334,24.022618431025677 226.93333333333334,38.89653222743479 326.4666666666667,38.89653222743479L326.4666666666667,60.89476056340419C226.93333333333334,60.89476056340419 226.93333333333334,46.02084676699508 127.4,46.02084676699508Z" style="stroke: rgb(68, 68, 68); stroke-opacity: 1; fill: rgb(76, 175, 80); fill-opacity: 0.65; stroke-width: 0px; opacity: 1;"/><path class="sankey-link" d="M127.4,47.73567048444171C118.45426666666667,47.73567048444171 118.45426666666667,542.8601534832101 109.50853333333333,542.8601534832101L109.50853333333333,629.5219173494274C118.45426666666667,629.5219173494274 118.45426666666667,134.39743435065895 127.4,134.39743435065895Z" style="stroke: rgb(68, 68, 68); stroke-opacity: 1; fill: rgb(76, 175, 80); fill-opacity: 0.65; stroke-width: 0px; opacity: 1;"/><path class="sankey-link" d="M127.4,442.27941766136735C226.93333333333334,442.27941766136735 226.93333333333334,283.19276029967557 326.4666666666667,283.19276029967557L326.4666666666667,283.46892949103267C226.93333333333334,283.46892949103267 226.93333333333334,442.55558685272445 127.4,442.55558685272445Z" style="stroke: rgb(76, 175, 80); stroke-opacity: 0.65; fill: rgb(76, 175, 80); fill-opacity: 0.65; stroke-width: 1; opacity: 1;"/><path class="sankey-link" d="M127.4,433.8888320528979C226.93333333333334,433.8888320528979 226.93333333333334,95.33356709304812 326.4666666666667,95.33356709304812L326.4666666666667,103.72415270151754C226.93333333333334,103.72415270151754 226.93333333333334,442.27941766136735 127.4,442.27941766136735Z" style="stroke: rgb(68, 68, 68); stroke-opacity: 1; fill: rgb(76, 175, 80); fill-opacity: 0.65; stroke-width: 0px; opacity: 1;"/><path class="sankey-link" d="M127.4,443.11323949097647C118.45426666666667,443.11323949097647 118.45426666666667,640.7993709079267 109.50853333333333,640.7993709079267L109.50853333333333,694.7919098007078C118.45426666666667,694.7919098007078 118.45426666666667,497.1057783837576 127.4,497.1057783837576Z" style="stroke: rgb(68, 68, 68); stroke-opacity: 1; fill: rgb(76, 175, 80); fill-opacity: 0.65; stroke-width: 0px; opacity: 1;"/><path class="sankey-link" d="M127.4,442.55558685272445C226.93333333333334,442.55558685272445 226.93333333333334,372.67428414320597 326.4666666666667,372.67428414320597L326.4666666666667,373.23193678145805C226.93333333333334,373.23193678145805 226.93333333333334,443.1132394909765 127.4,443.1132394909765Z" style="stroke: rgb(76, 175, 80); stroke-opacity: 0.65; fill: rgb(76, 175, 80); fill-opacity: 0.65; stroke-width: 1; opacity: 1;"/><path class="sankey-link" d="M127.4,379.85009003334176C118.4,379.85009003334176 118.4,570.7242830676042 109.4,570.7242830676042L109.4,571.1243178826898C118.4,571.1243178826898 118.4,380.2501248484274 127.4,380.2501248484274Z" style="stroke: rgb(244, 67, 54); stroke-opacity: 0.7; fill: rgb(244, 67, 54); fill-opacity: 0.7; stroke-width: 1; opacity: 1;"/><path class="sankey-link" d="M127.4,284.2524031401898C118.4,284.2524031401898 118.4,568.0881096280029 109.4,568.0881096280029L109.4,570.7242830676041C118.4,570.7242830676041 118.4,286.8885765797911 127.4,286.8885765797911Z" style="stroke: rgb(68, 68, 68); stroke-opacity: 1; fill: rgb(244, 67, 54); fill-opacity: 0.7; stroke-width: 0px; opacity: 1;"/><path class="sankey-link" d="M127.4,203.54054560442097C118.4,203.54054560442097 118.4,563.793096915138 109.4,563.793096915138L109.4,568.0881096280029C118.4,568.0881096280029 118.4,207.83555831728592 127.4,207.83555831728592Z" style="stroke: rgb(68, 68, 68); stroke-opacity: 1; fill: rgb(244, 67, 54); fill-opacity: 0.7; stroke-width: 0px; opacity: 1;"/><path class="sankey-link" d="M127.4,134.39743435065895C118.4,134.39743435065895 118.4,551.6988639825371 109.4,551.6988639825371L109.4,563.7930969151381C118.4,563.7930969151381 118.4,146.49166728325991 127.4,146.49166728325991Z" style="stroke: rgb(68, 68, 68); stroke-opacity: 1; fill: rgb(244, 67, 54); fill-opacity: 0.7; stroke-width: 0px; opacity: 1;"/><path class="sankey-link" d="M127.4,497.1057783837576C118.4,497.1057783837576 118.4,571.1243178826899 109.4,571.1243178826899L109.4,577.9582788746056C118.4,577.9582788746056 118.4,503.93973937567335 127.4,503.93973937567335Z" style="stroke: rgb(68, 68, 68); stroke-opacity: 1; fill: rgb(244, 67, 54); fill-opacity: 0.7; stroke-width: 0px; opacity: 1;"/><path class="sankey-link" d="M344.4666666666667,265.7160895980761C444,265.7160895980761 444,175.82183795440312 543.5333333333333,175.82183795440312L543.5333333333333,192.687535257165C444,192.687535257165 444,282.581786900838 344.4666666666667,282.581786900838Z" style="stroke: rgb(68, 68, 68); stroke-opacity: 1; fill: rgb(76, 175, 80); fill-opacity: 0.65; stroke-width: 0px; opacity: 1;"/><path class="sankey-link" d="M344.4666666666667,264.63373172747066C444,264.63373172747066 444,94.70272006468248 543.5333333333333,94.70272006468248L543.5333333333333,95.78507793528793C444,95.78507793528793 444,265.71608959807617 344.4666666666667,265.71608959807617Z" style="stroke: rgb(68, 68, 68); stroke-opacity: 1; fill: rgb(76, 175, 80); fill-opacity: 0.65; stroke-width: 0px; opacity: 1;"/><path class="sankey-link" d="M344.4666666666667,288.767318079017C335.52093333333335,288.767318079017 335.52093333333335,659.207792457045 326.57520000000005,659.207792457045L326.57520000000005,659.9781712219859C335.52093333333335,659.9781712219859 335.52093333333335,289.53769684395803 344.4666666666667,289.53769684395803Z" style="stroke: rgb(76, 175, 80); stroke-opacity: 0.65; fill: rgb(76, 175, 80); fill-opacity: 0.65; stroke-width: 1; opacity: 1;"/><path class="sankey-link" d="M344.4666666666667,282.581786900838C335.4666666666667,282.581786900838 335.4666666666667,455.1385371019069 326.4666666666667,455.1385371019069L326.4666666666667,458.20453899840004C335.4666666666667,458.20453899840004 335.4666666666667,285.64778879733115 344.4666666666667,285.64778879733115Z" style="stroke: rgb(68, 68, 68); stroke-opacity: 1; fill: rgb(76, 175, 80); fill-opacity: 0.65; stroke-width: 0px; opacity: 1;"/><path class="sankey-link" d="M344.4666666666667,176.85715830381895C444,176.85715830381895 444,166.89459900046373 543.5333333333333,166.89459900046373L543.5333333333333,175.8218379544031C444,175.8218379544031 444,185.78439725775831 344.4666666666667,185.78439725775831Z" style="stroke: rgb(68, 68, 68); stroke-opacity: 1; fill: rgb(76, 175, 80); fill-opacity: 0.65; stroke-width: 0px; opacity: 1;"/><path class="sankey-link" d="M344.4666666666667,169.17454805552993C444,169.17454805552993 444,87.02010981639344 543.5333333333333,87.02010981639344L543.5333333333333,94.7027200646825C444,94.7027200646825 444,176.85715830381898 344.4666666666667,176.85715830381898Z" style="stroke: rgb(68, 68, 68); stroke-opacity: 1; fill: rgb(76, 175, 80); fill-opacity: 0.65; stroke-width: 0px; opacity: 1;"/><path class="sankey-link" d="M344.4666666666667,190.71289573544055C335.52093333333335,190.71289573544055 335.52093333333335,656.7523791051584 326.57520000000005,656.7523791051584L326.57520000000005,659.207792457045C335.52093333333335,659.207792457045 335.52093333333335,193.16830908732715 344.4666666666667,193.16830908732715Z" style="stroke: rgb(68, 68, 68); stroke-opacity: 1; fill: rgb(76, 175, 80); fill-opacity: 0.65; stroke-width: 0px; opacity: 1;"/><path class="sankey-link" d="M344.4666666666667,185.78439725775831C335.4666666666667,185.78439725775831 335.4666666666667,452.1378615287417 326.4666666666667,452.1378615287417L326.4666666666667,455.1385371019069C335.4666666666667,455.1385371019069 335.4666666666667,188.78507283092347 344.4666666666667,188.78507283092347Z" style="stroke: rgb(68, 68, 68); stroke-opacity: 1; fill: rgb(76, 175, 80); fill-opacity: 0.65; stroke-width: 0px; opacity: 1;"/><path class="sankey-link" d="M344.4666666666667,57.43586689679583C444,57.43586689679583 444,162.7801071894788 543.5333333333333,162.7801071894788L543.5333333333333,166.89459900046373C444,166.89459900046373 444,61.550358707780774 344.4666666666667,61.550358707780774Z" style="stroke: rgb(68, 68, 68); stroke-opacity: 1; fill: rgb(76, 175, 80); fill-opacity: 0.65; stroke-width: 0px; opacity: 1;"/><path class="sankey-link" d="M344.4666666666667,38.89653222743479C444,38.89653222743479 444,68.4807751470324 543.5333333333333,68.4807751470324L543.5333333333333,87.02010981639344C444,87.02010981639344 444,57.43586689679583 344.4666666666667,57.43586689679583Z" style="stroke: rgb(68, 68, 68); stroke-opacity: 1; fill: rgb(76, 175, 80); fill-opacity: 0.65; stroke-width: 0px; opacity: 1;"/><path class="sankey-link" d="M344.4666666666667,85.93049587707596C335.52093333333335,85.93049587707596 335.52093333333335,611.065121495383 326.57520000000005,611.065121495383L326.57520000000005,656.7523791051583C335.52093333333335,656.7523791051583 335.52093333333335,131.61775348685137 344.4666666666667,131.61775348685137Z" style="stroke: rgb(68, 68, 68); stroke-opacity: 1; fill: rgb(76, 175, 80); fill-opacity: 0.65; stroke-width: 0px; opacity: 1;"/><path class="sankey-link" d="M344.4666666666667,61.55035870778077C335.4666666666667,61.55035870778077 335.4666666666667,438.08490085245694 326.4666666666667,438.08490085245694L326.4666666666667,452.1378615287417C335.4666666666667,452.1378615287417 335.4666666666667,75.60331938406554 344.4666666666667,75.60331938406554Z" style="stroke: rgb(68, 68, 68); stroke-opacity: 1; fill: rgb(76, 175, 80); fill-opacity: 0.65; stroke-width: 0px; opacity: 1;"/><path class="sankey-link" d="M127.50853333333333,545.378896728769C335.52093333333335,545.378896728769 335.52093333333335,192.68753525716497 543.5333333333333,192.68753525716497L543.5333333333333,193.82921826912363C335.52093333333335,193.82921826912363 335.52093333333335,546.5205797407277 127.50853333333333,546.5205797407277Z" style="stroke: rgb(68, 68, 68); stroke-opacity: 1; fill: rgb(76, 175, 80); fill-opacity: 0.65; stroke-width: 0px; opacity: 1;"/><path class="sankey-link" d="M127.50853333333333,542.8601534832102C335.52093333333335,542.8601534832102 335.52093333333335,95.78507793528793 543.5333333333333,95.78507793528793L543.5333333333333,98.30382118084673C335.52093333333335,98.30382118084673 335.52093333333335,545.3788967287691 127.50853333333333,545.3788967287691Z" style="stroke: rgb(68, 68, 68); stroke-opacity: 1; fill: rgb(76, 175, 80); fill-opacity: 0.65; stroke-width: 0px; opacity: 1;"/><path class="sankey-link" d="M127.50853333333333,741.9959028080316C227.0418666666667,741.9959028080316 227.0418666666667,659.978171221986 326.57520000000005,659.978171221986L326.57520000000005,696.6078292164589C227.0418666666667,696.6078292164589 227.0418666666667,778.6255608025044 127.50853333333333,778.6255608025044Z" style="stroke: rgb(68, 68, 68); stroke-opacity: 1; fill: rgb(76, 175, 80); fill-opacity: 0.65; stroke-width: 0px; opacity: 1;"/><path class="sankey-link" d="M127.50853333333333,546.5205797407276C226.98760000000001,546.5205797407276 226.98760000000001,458.20453899840004 326.4666666666667,458.20453899840004L326.4666666666667,632.6372364497524C226.98760000000001,632.6372364497524 226.98760000000001,720.95327719208 127.50853333333333,720.95327719208Z" style="stroke: rgb(68, 68, 68); stroke-opacity: 1; fill: rgb(76, 175, 80); fill-opacity: 0.65; stroke-width: 0px; opacity: 1;"/><path class="sankey-link" d="M344.4666666666667,285.6477887973312C335.4666666666667,285.6477887973312 335.4666666666667,462.6349921074369 326.4666666666667,462.6349921074369L326.4666666666667,465.7545213891227C335.4666666666667,465.7545213891227 335.4666666666667,288.767318079017 344.4666666666667,288.767318079017Z" style="stroke: rgb(68, 68, 68); stroke-opacity: 1; fill: rgb(244, 67, 54); fill-opacity: 0.7; stroke-width: 0px; opacity: 1;"/><path class="sankey-link" d="M344.4666666666667,188.78507283092347C335.4666666666667,188.78507283092347 335.4666666666667,460.70716920291983 326.4666666666667,460.70716920291983L326.4666666666667,462.63499210743686C335.4666666666667,462.63499210743686 335.4666666666667,190.71289573544055 344.4666666666667,190.71289573544055Z" style="stroke: rgb(68, 68, 68); stroke-opacity: 1; fill: rgb(244, 67, 54); fill-opacity: 0.7; stroke-width: 0px; opacity: 1;"/><path class="sankey-link" d="M344.4666666666667,75.60331938406554C335.4666666666667,75.60331938406554 335.4666666666667,450.3799927099094 326.4666666666667,450.3799927099094L326.4666666666667,460.7071692029198C335.4666666666667,460.7071692029198 335.4666666666667,85.93049587707597 344.4666666666667,85.93049587707597Z" style="stroke: rgb(68, 68, 68); stroke-opacity: 1; fill: rgb(244, 67, 54); fill-opacity: 0.7; stroke-width: 0px; opacity: 1;"/><path class="sankey-link" d="M127.50853333333333,720.95327719208C226.98760000000001,720.95327719208 226.98760000000001,466.4059531027105 326.4666666666667,466.4059531027105L326.4666666666667,487.4485787186621C226.98760000000001,487.4485787186621 226.98760000000001,741.9959028080317 127.50853333333333,741.9959028080317Z" style="stroke: rgb(68, 68, 68); stroke-opacity: 1; fill: rgb(244, 67, 54); fill-opacity: 0.7; stroke-width: 0px; opacity: 1;"/><path class="sankey-link" d="M344.4666666666667,372.67428414320597C335.4666666666667,372.67428414320597 335.4666666666667,465.7545213891227 326.4666666666667,465.7545213891227L326.4666666666667,466.40595310271055C335.4666666666667,466.40595310271055 335.4666666666667,373.3257158567938 344.4666666666667,373.3257158567938Z" style="stroke: rgb(244, 67, 54); stroke-opacity: 0.7; fill: rgb(244, 67, 54); fill-opacity: 0.7; stroke-width: 1; opacity: 1;"/><path class="sankey-link" d="M561.5333333333333,173.70346776625362C552.5876000000001,173.70346776625362 552.5876000000001,650.6802195412413 543.6418666666667,650.6802195412413L543.6418666666667,676.5395017283656C552.5876000000001,676.5395017283656 552.5876000000001,199.56274995337796 561.5333333333333,199.56274995337796Z" style="stroke: rgb(68, 68, 68); stroke-opacity: 1; fill: rgb(76, 175, 80); fill-opacity: 0.65; stroke-width: 0px; opacity: 1;"/><path class="sankey-link" d="M561.5333333333333,169.87937889244188C552.5333333333333,169.87937889244188 552.5333333333333,561.0330682800419 543.5333333333333,561.0330682800419L543.5333333333333,564.8571571538536C552.5333333333333,564.8571571538536 552.5333333333333,173.7034677662536 561.5333333333333,173.7034677662536Z" style="stroke: rgb(68, 68, 68); stroke-opacity: 1; fill: rgb(76, 175, 80); fill-opacity: 0.65; stroke-width: 0px; opacity: 1;"/><path class="sankey-link" d="M561.5333333333333,167.36461227872607C552.5333333333333,167.36461227872607 552.5333333333333,420.05079499440563 543.5333333333333,420.05079499440563L543.5333333333333,422.5655616081214C552.5333333333333,422.5655616081214 552.5333333333333,169.8793788924419 561.5333333333333,169.8793788924419Z" style="stroke: rgb(68, 68, 68); stroke-opacity: 1; fill: rgb(76, 175, 80); fill-opacity: 0.65; stroke-width: 0px; opacity: 1;"/><path class="sankey-link" d="M561.5333333333333,166.61079143273923C552.5333333333333,166.61079143273923 552.5333333333333,263.2837181146006 543.5333333333333,263.2837181146006L543.5333333333333,264.0375389605875C552.5333333333333,264.0375389605875 552.5333333333333,167.36461227872604 561.5333333333333,167.36461227872604Z" style="stroke: rgb(76, 175, 80); stroke-opacity: 0.65; fill: rgb(76, 175, 80); fill-opacity: 0.65; stroke-width: 1; opacity: 1;"/><path class="sankey-link" d="M561.5333333333333,94.15603968139526C552.5876000000001,94.15603968139526 552.5876000000001,642.8027486553833 543.6418666666667,642.8027486553833L543.6418666666667,650.6802195412413C552.5876000000001,650.6802195412413 552.5876000000001,102.03351056725323 561.5333333333333,102.03351056725323Z" style="stroke: rgb(68, 68, 68); stroke-opacity: 1; fill: rgb(76, 175, 80); fill-opacity: 0.65; stroke-width: 0px; opacity: 1;"/><path class="sankey-link" d="M561.5333333333333,76.57257166069203C552.5333333333333,76.57257166069203 552.5333333333333,543.4496002593387 543.5333333333333,543.4496002593387L543.5333333333333,561.033068280042C552.5333333333333,561.033068280042 552.5333333333333,94.15603968139524 561.5333333333333,94.15603968139524Z" style="stroke: rgb(68, 68, 68); stroke-opacity: 1; fill: rgb(76, 175, 80); fill-opacity: 0.65; stroke-width: 0px; opacity: 1;"/><path class="sankey-link" d="M561.5333333333333,73.38805687787801C552.5333333333333,73.38805687787801 552.5333333333333,416.86628021159163 543.5333333333333,416.86628021159163L543.5333333333333,420.0507949944057C552.5333333333333,420.0507949944057 552.5333333333333,76.57257166069205 561.5333333333333,76.57257166069205Z" style="stroke: rgb(68, 68, 68); stroke-opacity: 1; fill: rgb(76, 175, 80); fill-opacity: 0.65; stroke-width: 0px; opacity: 1;"/><path class="sankey-link" d="M561.5333333333333,70.53497093484415C552.5333333333333,70.53497093484415 552.5333333333333,260.43063217156674 543.5333333333333,260.43063217156674L543.5333333333333,263.2837181146006C552.5333333333333,263.2837181146006 552.5333333333333,73.38805687787803 561.5333333333333,73.38805687787803Z" style="stroke: rgb(68, 68, 68); stroke-opacity: 1; fill: rgb(76, 175, 80); fill-opacity: 0.65; stroke-width: 0px; opacity: 1;"/><path class="sankey-link" d="M344.57520000000005,693.0967191202952C444.05426666666665,693.0967191202952 444.05426666666665,566.1612253806853 543.5333333333333,566.1612253806853L543.5333333333333,583.4850990507215C444.05426666666665,583.4850990507215 444.05426666666665,710.4205927903314 344.57520000000005,710.4205927903314Z" style="stroke: rgb(68, 68, 68); stroke-opacity: 1; fill: rgb(76, 175, 80); fill-opacity: 0.65; stroke-width: 0px; opacity: 1;"/><path class="sankey-link" d="M344.57520000000005,637.092224511955C444.05426666666665,637.092224511955 444.05426666666665,457.8814923329158 543.5333333333333,457.8814923329158L543.5333333333333,513.885986941256C444.05426666666665,513.885986941256 444.05426666666665,693.0967191202951 344.57520000000005,693.0967191202951Z" style="stroke: rgb(68, 68, 68); stroke-opacity: 1; fill: rgb(76, 175, 80); fill-opacity: 0.65; stroke-width: 0px; opacity: 1;"/><path class="sankey-link" d="M344.57520000000005,623.4276791188896C444.05426666666665,623.4276791188896 444.05426666666665,452.18905944484925 543.5333333333333,452.18905944484925L543.5333333333333,465.85360483791465C444.05426666666665,465.85360483791465 444.05426666666665,637.0922245119551 344.57520000000005,637.0922245119551Z" style="stroke: rgb(68, 68, 68); stroke-opacity: 1; fill: rgb(76, 175, 80); fill-opacity: 0.65; stroke-width: 0px; opacity: 1;"/><path class="sankey-link" d="M344.4666666666667,690.7886097529672C444.0542666666667,690.7886097529672 444.0542666666667,676.5395017283656 543.6418666666667,676.5395017283656L543.6418666666667,677.3231339800839C444.0542666666667,677.3231339800839 444.0542666666667,691.5722420046854 344.4666666666667,691.5722420046854Z" style="stroke: rgb(76, 175, 80); stroke-opacity: 0.65; fill: rgb(76, 175, 80); fill-opacity: 0.65; stroke-width: 1; opacity: 1;"/><path class="sankey-link" d="M344.4666666666667,689.4845415261356C444,689.4845415261356 444,564.8571571538537 543.5333333333333,564.8571571538537L543.5333333333333,566.1612253806854C444,566.1612253806854 444,690.7886097529673 344.4666666666667,690.7886097529673Z" style="stroke: rgb(68, 68, 68); stroke-opacity: 1; fill: rgb(76, 175, 80); fill-opacity: 0.65; stroke-width: 0px; opacity: 1;"/><path class="sankey-link" d="M344.4666666666667,654.1686108013412C444,654.1686108013412 444,422.56556160812147 543.5333333333333,422.56556160812147L543.5333333333333,457.88149233291585C444,457.88149233291585 444,689.4845415261354 344.4666666666667,689.4845415261354Z" style="stroke: rgb(68, 68, 68); stroke-opacity: 1; fill: rgb(76, 175, 80); fill-opacity: 0.65; stroke-width: 0px; opacity: 1;"/><path class="sankey-link" d="M344.4666666666667,466.0170903170793C444,466.0170903170793 444,264.0375389605874 543.5333333333333,264.0375389605874L543.5333333333333,452.18905944484925C444,452.18905944484925 444,654.1686108013412 344.4666666666667,654.1686108013412Z" style="stroke: rgb(68, 68, 68); stroke-opacity: 1; fill: rgb(76, 175, 80); fill-opacity: 0.65; stroke-width: 0px; opacity: 1;"/><path class="sankey-link" d="M561.5333333333333,162.7801071894788C552.5333333333333,162.7801071894788 552.5333333333333,256.05009651392544 543.5333333333333,256.05009651392544L543.5333333333333,259.88078075718585C552.5333333333333,259.88078075718585 552.5333333333333,166.61079143273926 561.5333333333333,166.61079143273926Z" style="stroke: rgb(68, 68, 68); stroke-opacity: 1; fill: rgb(244, 67, 54); fill-opacity: 0.7; stroke-width: 0px; opacity: 1;"/><path class="sankey-link" d="M561.5333333333333,68.4807751470324C552.5333333333333,68.4807751470324 552.5333333333333,253.9959007261137 543.5333333333333,253.9959007261137L543.5333333333333,256.05009651392544C552.5333333333333,256.05009651392544 552.5333333333333,70.53497093484415 561.5333333333333,70.53497093484415Z" style="stroke: rgb(68, 68, 68); stroke-opacity: 1; fill: rgb(244, 67, 54); fill-opacity: 0.7; stroke-width: 0px; opacity: 1;"/><path class="sankey-link" d="M344.57520000000005,611.065121495383C444.05426666666665,611.065121495383 444.05426666666665,287.81297022180826 543.5333333333333,287.81297022180826L543.5333333333333,300.1755278453149C444.05426666666665,300.1755278453149 444.05426666666665,623.4276791188895 344.57520000000005,623.4276791188895Z" style="stroke: rgb(68, 68, 68); stroke-opacity: 1; fill: rgb(244, 67, 54); fill-opacity: 0.7; stroke-width: 0px; opacity: 1;"/><path class="sankey-link" d="M344.4666666666667,438.08490085245694C444,438.08490085245694 444,259.8807807571859 543.5333333333333,259.8807807571859L543.5333333333333,287.8129702218083C444,287.8129702218083 444,466.01709031707935 344.4666666666667,466.01709031707935Z" style="stroke: rgb(68, 68, 68); stroke-opacity: 1; fill: rgb(244, 67, 54); fill-opacity: 0.7; stroke-width: 0px; opacity: 1;"/><path class="sankey-link" d="M561.6418666666667,654.0934670027956C661.1209333333334,654.0934670027956 661.1209333333334,559.4996333391039 760.6,559.4996333391039L760.6,584.0891319666393C661.1209333333334,584.0891319666393 661.1209333333334,678.6829656303311 561.6418666666667,678.6829656303311Z" style="stroke: rgb(68, 68, 68); stroke-opacity: 1; fill: rgb(76, 175, 80); fill-opacity: 0.65; stroke-width: 0px; opacity: 1;"/><path class="sankey-link" d="M561.6418666666667,649.8392018482522C661.1209333333334,649.8392018482522 661.1209333333334,481.57456885651624 760.6,481.57456885651624L760.6,485.82883401105966C661.1209333333334,485.82883401105966 661.1209333333334,654.0934670027956 561.6418666666667,654.0934670027956Z" style="stroke: rgb(68, 68, 68); stroke-opacity: 1; fill: rgb(76, 175, 80); fill-opacity: 0.65; stroke-width: 0px; opacity: 1;"/><path class="sankey-link" d="M561.6418666666667,648.7583467847571C661.1209333333334,648.7583467847571 661.1209333333334,419.606176897483 760.6,419.606176897483L760.6,420.68703196097806C661.1209333333334,420.68703196097806 661.1209333333334,649.8392018482521 561.6418666666667,649.8392018482521Z" style="stroke: rgb(68, 68, 68); stroke-opacity: 1; fill: rgb(76, 175, 80); fill-opacity: 0.65; stroke-width: 0px; opacity: 1;"/><path class="sankey-link" d="M561.6418666666667,648.3620278752211C661.1209333333334,648.3620278752211 661.1209333333334,340.5461720123693 760.6,340.5461720123693L760.6,340.94249092190535C661.1209333333334,340.94249092190535 661.1209333333334,648.758346784757 561.6418666666667,648.758346784757Z" style="stroke: rgb(76, 175, 80); stroke-opacity: 0.65; fill: rgb(76, 175, 80); fill-opacity: 0.65; stroke-width: 1; opacity: 1;"/><path class="sankey-link" d="M561.5333333333333,576.1011800281087C661.0666666666666,576.1011800281087 661.0666666666666,549.3932707694086 760.6,549.3932707694086L760.6,559.4996333391038C661.0666666666666,559.4996333391038 661.0666666666666,586.2075425978039 561.5333333333333,586.2075425978039Z" style="stroke: rgb(68, 68, 68); stroke-opacity: 1; fill: rgb(76, 175, 80); fill-opacity: 0.65; stroke-width: 0px; opacity: 1;"/><path class="sankey-link" d="M561.5333333333333,556.351066637037C661.0666666666666,556.351066637037 661.0666666666666,461.8244554654445 760.6,461.8244554654445L760.6,481.57456885651624C661.0666666666666,481.57456885651624 661.0666666666666,576.1011800281088 561.5333333333333,576.1011800281088Z" style="stroke: rgb(68, 68, 68); stroke-opacity: 1; fill: rgb(76, 175, 80); fill-opacity: 0.65; stroke-width: 0px; opacity: 1;"/><path class="sankey-link" d="M561.5333333333333,551.7329817165403C661.0666666666666,551.7329817165403 661.0666666666666,414.98809197698637 760.6,414.98809197698637L760.6,419.60617689748307C661.0666666666666,419.60617689748307 661.0666666666666,556.3510666370369 561.5333333333333,556.3510666370369Z" style="stroke: rgb(68, 68, 68); stroke-opacity: 1; fill: rgb(76, 175, 80); fill-opacity: 0.65; stroke-width: 0px; opacity: 1;"/><path class="sankey-link" d="M561.5333333333333,548.8088413812408C661.0666666666666,548.8088413812408 661.0666666666666,337.6220316770698 760.6,337.6220316770698L760.6,340.5461720123693C661.0666666666666,340.5461720123693 661.0666666666666,551.7329817165402 561.5333333333333,551.7329817165402Z" style="stroke: rgb(68, 68, 68); stroke-opacity: 1; fill: rgb(76, 175, 80); fill-opacity: 0.65; stroke-width: 0px; opacity: 1;"/><path class="sankey-link" d="M561.5333333333333,516.852871286322C661.0666666666666,516.852871286322 661.0666666666666,545.2838508387505 760.6,545.2838508387505L760.6,549.3932707694086C661.0666666666666,549.3932707694086 661.0666666666666,520.9622912169801 561.5333333333333,520.9622912169801Z" style="stroke: rgb(68, 68, 68); stroke-opacity: 1; fill: rgb(76, 175, 80); fill-opacity: 0.65; stroke-width: 0px; opacity: 1;"/><path class="sankey-link" d="M561.5333333333333,507.90871439738214C661.0666666666666,507.90871439738214 661.0666666666666,452.88029857650463 760.6,452.88029857650463L760.6,461.82445546544454C661.0666666666666,461.82445546544454 661.0666666666666,516.852871286322 561.5333333333333,516.852871286322Z" style="stroke: rgb(68, 68, 68); stroke-opacity: 1; fill: rgb(76, 175, 80); fill-opacity: 0.65; stroke-width: 0px; opacity: 1;"/><path class="sankey-link" d="M561.5333333333333,453.14598881977236C661.0666666666666,453.14598881977236 661.0666666666666,360.2253663993765 760.6,360.2253663993765L760.6,414.9880919769864C661.0666666666666,414.9880919769864 661.0666666666666,507.90871439738225 561.5333333333333,507.90871439738225Z" style="stroke: rgb(68, 68, 68); stroke-opacity: 1; fill: rgb(76, 175, 80); fill-opacity: 0.65; stroke-width: 0px; opacity: 1;"/><path class="sankey-link" d="M561.5333333333333,441.7275098819131C661.0666666666666,441.7275098819131 661.0666666666666,326.2035527392105 760.6,326.2035527392105L760.6,337.6220316770698C661.0666666666666,337.6220316770698 661.0666666666666,453.14598881977236 561.5333333333333,453.14598881977236Z" style="stroke: rgb(68, 68, 68); stroke-opacity: 1; fill: rgb(76, 175, 80); fill-opacity: 0.65; stroke-width: 0px; opacity: 1;"/><path class="sankey-link" d="M561.5333333333333,485.06334323112276C661.1209333333334,485.06334323112276 661.1209333333334,660.4898448442019 760.7085333333334,660.4898448442019L760.7085333333334,660.9958694415124C661.1209333333334,660.9958694415124 661.1209333333334,485.5693678284331 561.5333333333333,485.5693678284331Z" style="stroke: rgb(76, 175, 80); stroke-opacity: 0.65; fill: rgb(76, 175, 80); fill-opacity: 0.65; stroke-width: 1; opacity: 1;"/><path class="sankey-link" d="M561.5333333333333,483.6329510184785C661.0666666666666,483.6329510184785 661.0666666666666,543.8534586261062 760.6,543.8534586261062L760.6,545.2838508387504C661.0666666666666,545.2838508387504 661.0666666666666,485.06334323112276 561.5333333333333,485.06334323112276Z" style="stroke: rgb(68, 68, 68); stroke-opacity: 1; fill: rgb(76, 175, 80); fill-opacity: 0.65; stroke-width: 0px; opacity: 1;"/><path class="sankey-link" d="M561.5333333333333,481.63319621830897C661.0666666666666,481.63319621830897 661.0666666666666,450.8805437763351 760.6,450.8805437763351L760.6,452.88029857650463C661.0666666666666,452.88029857650463 661.0666666666666,483.6329510184785 561.5333333333333,483.6329510184785Z" style="stroke: rgb(68, 68, 68); stroke-opacity: 1; fill: rgb(76, 175, 80); fill-opacity: 0.65; stroke-width: 0px; opacity: 1;"/><path class="sankey-link" d="M561.5333333333333,442.2058094677475C661.0666666666666,442.2058094677475 661.0666666666666,320.79797964881504 760.6,320.79797964881504L760.6,360.2253663993765C661.0666666666666,360.2253663993765 661.0666666666666,481.63319621830897 561.5333333333333,481.63319621830897Z" style="stroke: rgb(68, 68, 68); stroke-opacity: 1; fill: rgb(76, 175, 80); fill-opacity: 0.65; stroke-width: 0px; opacity: 1;"/><path class="sankey-link" d="M561.5333333333333,321.61211875849784C661.0666666666666,321.61211875849784 661.0666666666666,205.60986202996094 760.6,205.60986202996094L760.6,326.2035527392105C661.0666666666666,326.2035527392105 661.0666666666666,442.20580946774743 561.5333333333333,442.20580946774743Z" style="stroke: rgb(68, 68, 68); stroke-opacity: 1; fill: rgb(76, 175, 80); fill-opacity: 0.65; stroke-width: 0px; opacity: 1;"/><path class="sankey-link" d="M778.6,85.09569014793195C769.6,85.09569014793195 769.6,320.4750742303933 760.6,320.4750742303933L760.6,320.797979648815C769.6,320.797979648815 769.6,85.41859556635364 778.6,85.41859556635364Z" style="stroke: rgb(76, 175, 80); stroke-opacity: 0.65; fill: rgb(76, 175, 80); fill-opacity: 0.65; stroke-width: 1; opacity: 1;"/><path class="sankey-link" d="M561.6418666666667,642.8027486553833C661.1209333333334,642.8027486553833 661.1209333333334,224.09276765108697 760.6,224.09276765108697L760.6,229.6520468709247C661.1209333333334,229.6520468709247 661.1209333333334,648.362027875221 561.6418666666667,648.362027875221Z" style="stroke: rgb(68, 68, 68); stroke-opacity: 1; fill: rgb(244, 67, 54); fill-opacity: 0.7; stroke-width: 0px; opacity: 1;"/><path class="sankey-link" d="M561.5333333333333,543.4496002593387C661.0666666666666,543.4496002593387 661.0666666666666,218.7335265291849 760.6,218.7335265291849L760.6,224.09276765108697C661.0666666666666,224.09276765108697 661.0666666666666,548.8088413812409 561.5333333333333,548.8088413812409Z" style="stroke: rgb(68, 68, 68); stroke-opacity: 1; fill: rgb(244, 67, 54); fill-opacity: 0.7; stroke-width: 0px; opacity: 1;"/><path class="sankey-link" d="M561.5333333333333,416.86628021159163C661.0666666666666,416.86628021159163 661.0666666666666,193.87229685886345 760.6,193.87229685886345L760.6,218.7335265291849C661.0666666666666,218.7335265291849 661.0666666666666,441.7275098819131 561.5333333333333,441.7275098819131Z" style="stroke: rgb(68, 68, 68); stroke-opacity: 1; fill: rgb(244, 67, 54); fill-opacity: 0.7; stroke-width: 0px; opacity: 1;"/><path class="sankey-link" d="M561.5333333333333,260.43063217156674C661.0666666666666,260.43063217156674 661.0666666666666,132.69081027193235 760.6,132.69081027193235L760.6,193.87229685886345C661.0666666666666,193.87229685886345 661.0666666666666,321.61211875849784 561.5333333333333,321.61211875849784Z" style="stroke: rgb(68, 68, 68); stroke-opacity: 1; fill: rgb(244, 67, 54); fill-opacity: 0.7; stroke-width: 0px; opacity: 1;"/><path class="sankey-link" d="M778.7085333333334,660.4898448442019C878.1876,660.4898448442019 878.1876,489.16736736276283 977.6666666666666,489.16736736276283L977.6666666666666,489.6518938265347C878.1876,489.6518938265347 878.1876,660.9743713079739 778.7085333333334,660.9743713079739Z" style="stroke: rgb(76, 175, 80); stroke-opacity: 0.65; fill: rgb(76, 175, 80); fill-opacity: 0.65; stroke-width: 1; opacity: 1;"/><path class="sankey-link" d="M778.6,556.671983215124C878.1333333333333,556.671983215124 878.1333333333333,460.0356663468501 977.6666666666666,460.0356663468501L977.6666666666666,489.1673673627629C878.1333333333333,489.1673673627629 878.1333333333333,585.8036842310368 778.6,585.8036842310368Z" style="stroke: rgb(68, 68, 68); stroke-opacity: 1; fill: rgb(76, 175, 80); fill-opacity: 0.65; stroke-width: 0px; opacity: 1;"/><path class="sankey-link" d="M778.6,556.1271095801242C878.1333333333333,556.1271095801242 878.1333333333333,385.660954706933 977.6666666666666,385.660954706933L977.6666666666666,386.20582834193283C878.1333333333333,386.20582834193283 878.1333333333333,556.6719832151241 778.6,556.6719832151241Z" style="stroke: rgb(76, 175, 80); stroke-opacity: 0.65; fill: rgb(76, 175, 80); fill-opacity: 0.65; stroke-width: 1; opacity: 1;"/><path class="sankey-link" d="M778.6,552.9958951002056C878.1333333333333,552.9958951002056 878.1333333333333,311.2304890743102 977.6666666666666,311.2304890743102L977.6666666666666,314.3617035542287C878.1333333333333,314.3617035542287 878.1333333333333,556.1271095801242 778.6,556.1271095801242Z" style="stroke: rgb(68, 68, 68); stroke-opacity: 1; fill: rgb(76, 175, 80); fill-opacity: 0.65; stroke-width: 0px; opacity: 1;"/><path class="sankey-link" d="M778.6,551.9552255594164C878.1333333333333,551.9552255594164 878.1333333333333,217.0195118854656 977.6666666666666,217.0195118854656L977.6666666666666,218.06018142625487C878.1333333333333,218.06018142625487 878.1333333333333,552.9958951002058 778.6,552.9958951002058Z" style="stroke: rgb(68, 68, 68); stroke-opacity: 1; fill: rgb(76, 175, 80); fill-opacity: 0.65; stroke-width: 0px; opacity: 1;"/><path class="sankey-link" d="M778.6,485.35895967272154C878.1333333333333,485.35895967272154 878.1333333333333,564.269957996684 977.6666666666666,564.269957996684L977.6666666666666,565.8590259761985C878.1333333333333,565.8590259761985 878.1333333333333,486.9480276522361 778.6,486.9480276522361Z" style="stroke: rgb(68, 68, 68); stroke-opacity: 1; fill: rgb(76, 175, 80); fill-opacity: 0.65; stroke-width: 0px; opacity: 1;"/><path class="sankey-link" d="M778.6,477.467826644111C878.1333333333333,477.467826644111 878.1333333333333,452.1445333182396 977.6666666666666,452.1445333182396L977.6666666666666,460.0356663468501C878.1333333333333,460.0356663468501 878.1333333333333,485.35895967272154 778.6,485.35895967272154Z" style="stroke: rgb(68, 68, 68); stroke-opacity: 1; fill: rgb(76, 175, 80); fill-opacity: 0.65; stroke-width: 0px; opacity: 1;"/><path class="sankey-link" d="M778.6,461.27443400756044C878.1333333333333,461.27443400756044 878.1333333333333,369.4675620703824 977.6666666666666,369.4675620703824L977.6666666666666,385.660954706933C878.1333333333333,385.660954706933 878.1333333333333,477.467826644111 778.6,477.467826644111Z" style="stroke: rgb(68, 68, 68); stroke-opacity: 1; fill: rgb(76, 175, 80); fill-opacity: 0.65; stroke-width: 0px; opacity: 1;"/><path class="sankey-link" d="M778.6,458.23068941981467C878.1333333333333,458.23068941981467 878.1333333333333,308.1867444865644 977.6666666666666,308.1867444865644L977.6666666666666,311.2304890743102C878.1333333333333,311.2304890743102 878.1333333333333,461.27443400756044 778.6,461.27443400756044Z" style="stroke: rgb(68, 68, 68); stroke-opacity: 1; fill: rgb(76, 175, 80); fill-opacity: 0.65; stroke-width: 0px; opacity: 1;"/><path class="sankey-link" d="M778.6,457.0656095577807C878.1333333333333,457.0656095577807 878.1333333333333,215.8544320234316 977.6666666666666,215.8544320234316L977.6666666666666,217.01951188546556C878.1333333333333,217.01951188546556 878.1333333333333,458.23068941981467 778.6,458.23068941981467Z" style="stroke: rgb(68, 68, 68); stroke-opacity: 1; fill: rgb(76, 175, 80); fill-opacity: 0.65; stroke-width: 0px; opacity: 1;"/><path class="sankey-link" d="M778.6,422.9952306862214C878.1333333333333,422.9952306862214 878.1333333333333,449.6148382348548 977.6666666666666,449.6148382348548L977.6666666666666,452.1445333182396C878.1333333333333,452.1445333182396 878.1333333333333,425.5249257696062 778.6,425.5249257696062Z" style="stroke: rgb(68, 68, 68); stroke-opacity: 1; fill: rgb(76, 175, 80); fill-opacity: 0.65; stroke-width: 0px; opacity: 1;"/><path class="sankey-link" d="M778.6,413.32184027390673C878.1333333333333,413.32184027390673 878.1333333333333,359.79417165806774 977.6666666666666,359.79417165806774L977.6666666666666,369.4675620703824C878.1333333333333,369.4675620703824 878.1333333333333,422.9952306862214 778.6,422.9952306862214Z" style="stroke: rgb(68, 68, 68); stroke-opacity: 1; fill: rgb(76, 175, 80); fill-opacity: 0.65; stroke-width: 0px; opacity: 1;"/><path class="sankey-link" d="M778.6,365.04411739083264C878.1333333333333,365.04411739083264 878.1333333333333,259.90902160349026 977.6666666666666,259.90902160349026L977.6666666666666,308.1867444865644C878.1333333333333,308.1867444865644 878.1333333333333,413.3218402739068 778.6,413.3218402739068Z" style="stroke: rgb(68, 68, 68); stroke-opacity: 1; fill: rgb(76, 175, 80); fill-opacity: 0.65; stroke-width: 0px; opacity: 1;"/><path class="sankey-link" d="M778.6,358.4953798110686C878.1333333333333,358.4953798110686 878.1333333333333,209.3056944436675 977.6666666666666,209.3056944436675L977.6666666666666,215.85443202343157C878.1333333333333,215.85443202343157 878.1333333333333,365.04411739083264 778.6,365.04411739083264Z" style="stroke: rgb(68, 68, 68); stroke-opacity: 1; fill: rgb(76, 175, 80); fill-opacity: 0.65; stroke-width: 0px; opacity: 1;"/><path class="sankey-link" d="M778.6,348.089725425728C878.1333333333333,348.089725425728 878.1333333333333,563.7981168809443 977.6666666666666,563.7981168809443L977.6666666666666,564.269957996684C878.1333333333333,564.269957996684 878.1333333333333,348.5615665414676 778.6,348.5615665414676Z" style="stroke: rgb(76, 175, 80); stroke-opacity: 0.65; fill: rgb(76, 175, 80); fill-opacity: 0.65; stroke-width: 1; opacity: 1;"/><path class="sankey-link" d="M778.6,346.6515647929098C878.1333333333333,346.6515647929098 878.1333333333333,448.17667760203665 977.6666666666666,448.17667760203665L977.6666666666666,449.6148382348548C878.1333333333333,449.6148382348548 878.1333333333333,348.089725425728 778.6,348.089725425728Z" style="stroke: rgb(68, 68, 68); stroke-opacity: 1; fill: rgb(76, 175, 80); fill-opacity: 0.65; stroke-width: 0px; opacity: 1;"/><path class="sankey-link" d="M778.6,326.5522682066193C878.1333333333333,326.5522682066193 878.1333333333333,239.8097250171998 977.6666666666666,239.8097250171998L977.6666666666666,259.9090216034903C878.1333333333333,259.9090216034903 878.1333333333333,346.6515647929098 778.6,346.6515647929098Z" style="stroke: rgb(68, 68, 68); stroke-opacity: 1; fill: rgb(76, 175, 80); fill-opacity: 0.65; stroke-width: 0px; opacity: 1;"/><path class="sankey-link" d="M778.6,261.5292494795538C878.1333333333333,261.5292494795538 878.1333333333333,144.282675716602 977.6666666666666,144.282675716602L977.6666666666666,209.3056944436675C878.1333333333333,209.3056944436675 878.1333333333333,326.5522682066193 778.6,326.5522682066193Z" style="stroke: rgb(68, 68, 68); stroke-opacity: 1; fill: rgb(76, 175, 80); fill-opacity: 0.65; stroke-width: 0px; opacity: 1;"/><path class="sankey-link" d="M778.6,543.8534586261062C878.1333333333333,543.8534586261062 878.1333333333333,131.26863879634465 977.6666666666666,131.26863879634465L977.6666666666666,139.3704057296548C878.1333333333333,139.3704057296548 878.1333333333333,551.9552255594162 778.6,551.9552255594162Z" style="stroke: rgb(68, 68, 68); stroke-opacity: 1; fill: rgb(244, 67, 54); fill-opacity: 0.7; stroke-width: 0px; opacity: 1;"/><path class="sankey-link" d="M778.6,450.8805437763351C878.1333333333333,450.8805437763351 878.1333333333333,125.08357301489907 977.6666666666666,125.08357301489907L977.6666666666666,131.26863879634465C878.1333333333333,131.26863879634465 878.1333333333333,457.0656095577807 778.6,457.0656095577807Z" style="stroke: rgb(68, 68, 68); stroke-opacity: 1; fill: rgb(244, 67, 54); fill-opacity: 0.7; stroke-width: 0px; opacity: 1;"/><path class="sankey-link" d="M778.6,320.4750742303933C878.1333333333333,320.4750742303933 878.1333333333333,87.06326743422383 977.6666666666666,87.06326743422383L977.6666666666666,125.08357301489909C878.1333333333333,125.08357301489909 878.1333333333333,358.4953798110685 778.6,358.4953798110685Z" style="stroke: rgb(68, 68, 68); stroke-opacity: 1; fill: rgb(244, 67, 54); fill-opacity: 0.7; stroke-width: 0px; opacity: 1;"/><path class="sankey-link" d="M778.6,205.60986202996094C878.1333333333333,205.60986202996094 878.1333333333333,31.14387998463094 977.6666666666666,31.14387998463094L977.6666666666666,87.06326743422382C878.1333333333333,87.06326743422382 878.1333333333333,261.5292494795538 778.6,261.5292494795538Z" style="stroke: rgb(68, 68, 68); stroke-opacity: 1; fill: rgb(244, 67, 54); fill-opacity: 0.7; stroke-width: 0px; opacity: 1;"/><path class="sankey-link" d="M995.6666666666666,563.7981168809443C1095.2,563.7981168809443 1095.2,564.3023502390693 1194.7333333333333,564.3023502390693L1194.7333333333333,566.2620471505695C1095.2,566.2620471505695 1095.2,565.7578137924446 995.6666666666666,565.7578137924446Z" style="stroke: rgb(68, 68, 68); stroke-opacity: 1; fill: rgb(76, 175, 80); fill-opacity: 0.65; stroke-width: 0px; opacity: 1;"/><path class="sankey-link" d="M995.6666666666666,487.3943697573986C1095.2,487.3943697573986 1095.2,563.8612532552795 1194.7333333333333,563.8612532552795L1194.7333333333333,564.3023502390693C1095.2,564.3023502390693 1095.2,487.8354667411883 995.6666666666666,487.8354667411883Z" style="stroke: rgb(76, 175, 80); stroke-opacity: 0.65; fill: rgb(76, 175, 80); fill-opacity: 0.65; stroke-width: 1; opacity: 1;"/><path class="sankey-link" d="M995.6666666666666,456.69868542368926C1095.2,456.69868542368926 1095.2,454.7588670752435 1194.7333333333333,454.7588670752435L1194.7333333333333,485.4545514089528C1095.2,485.4545514089528 1095.2,487.3943697573986 995.6666666666666,487.3943697573986Z" style="stroke: rgb(68, 68, 68); stroke-opacity: 1; fill: rgb(76, 175, 80); fill-opacity: 0.65; stroke-width: 0px; opacity: 1;"/><path class="sankey-link" d="M995.6666666666666,455.53939447617427C1095.2,455.53939447617427 1095.2,384.90785661266676 1194.7333333333333,384.90785661266676L1194.7333333333333,386.0671475601818C1095.2,386.0671475601818 1095.2,456.6986854236893 995.6666666666666,456.6986854236893Z" style="stroke: rgb(68, 68, 68); stroke-opacity: 1; fill: rgb(76, 175, 80); fill-opacity: 0.65; stroke-width: 0px; opacity: 1;"/><path class="sankey-link" d="M995.6666666666666,453.2254317273087C1095.2,453.2254317273087 1095.2,305.15707433244245 1194.7333333333333,305.15707433244245L1194.7333333333333,307.47103708130794C1095.2,307.47103708130794 1095.2,455.5393944761742 995.6666666666666,455.5393944761742Z" style="stroke: rgb(68, 68, 68); stroke-opacity: 1; fill: rgb(76, 175, 80); fill-opacity: 0.65; stroke-width: 0px; opacity: 1;"/><path class="sankey-link" d="M995.6666666666666,452.21584243785594C1095.2,452.21584243785594 1095.2,207.23057272981322 1194.7333333333333,207.23057272981322L1194.7333333333333,208.240162019266C1095.2,208.240162019266 1095.2,453.22543172730866 995.6666666666666,453.22543172730866Z" style="stroke: rgb(68, 68, 68); stroke-opacity: 1; fill: rgb(76, 175, 80); fill-opacity: 0.65; stroke-width: 0px; opacity: 1;"/><path class="sankey-link" d="M995.6666666666666,381.79021706316746C1095.2,381.79021706316746 1095.2,452.37402001961857 1194.7333333333333,452.37402001961857L1194.7333333333333,454.75886707524353C1095.2,454.75886707524353 1095.2,384.1750641187924 995.6666666666666,384.1750641187924Z" style="stroke: rgb(68, 68, 68); stroke-opacity: 1; fill: rgb(76, 175, 80); fill-opacity: 0.65; stroke-width: 0px; opacity: 1;"/><path class="sankey-link" d="M995.6666666666666,365.1595521059169C1095.2,365.1595521059169 1095.2,368.2771916554162 1194.7333333333333,368.2771916554162L1194.7333333333333,384.90785661266676C1095.2,384.90785661266676 1095.2,381.79021706316746 995.6666666666666,381.79021706316746Z" style="stroke: rgb(68, 68, 68); stroke-opacity: 1; fill: rgb(76, 175, 80); fill-opacity: 0.65; stroke-width: 0px; opacity: 1;"/><path class="sankey-link" d="M995.6666666666666,363.717780787103C1095.2,363.717780787103 1095.2,303.71530301362856 1194.7333333333333,303.71530301362856L1194.7333333333333,305.1570743324424C1095.2,305.1570743324424 1095.2,365.1595521059168 995.6666666666666,365.1595521059168Z" style="stroke: rgb(68, 68, 68); stroke-opacity: 1; fill: rgb(76, 175, 80); fill-opacity: 0.65; stroke-width: 0px; opacity: 1;"/><path class="sankey-link" d="M995.6666666666666,303.6781233100282C1095.2,303.6781233100282 1095.2,360.24130107534864 1194.7333333333333,360.24130107534864L1194.7333333333333,368.2771916554162C1095.2,368.2771916554162 1095.2,311.7140138900957 995.6666666666666,311.7140138900957Z" style="stroke: rgb(68, 68, 68); stroke-opacity: 1; fill: rgb(76, 175, 80); fill-opacity: 0.65; stroke-width: 0px; opacity: 1;"/><path class="sankey-link" d="M995.6666666666666,256.0282036919933C1095.2,256.0282036919933 1095.2,256.0653833955937 1194.7333333333333,256.0653833955937L1194.7333333333333,303.7153030136286C1095.2,303.7153030136286 1095.2,303.67812331002824 995.6666666666666,303.67812331002824Z" style="stroke: rgb(68, 68, 68); stroke-opacity: 1; fill: rgb(76, 175, 80); fill-opacity: 0.65; stroke-width: 0px; opacity: 1;"/><path class="sankey-link" d="M995.6666666666666,251.0124676246627C1095.2,251.0124676246627 1095.2,202.21483666248255 1194.7333333333333,202.21483666248255L1194.7333333333333,207.2305727298132C1095.2,207.2305727298132 1095.2,256.0282036919933 995.6666666666666,256.0282036919933Z" style="stroke: rgb(68, 68, 68); stroke-opacity: 1; fill: rgb(76, 175, 80); fill-opacity: 0.65; stroke-width: 0px; opacity: 1;"/><path class="sankey-link" d="M995.6666666666666,216.89938549785109C1095.2,216.89938549785109 1095.2,563.3950957065733 1194.7333333333333,563.3950957065733L1194.7333333333333,563.8612532552795C1095.2,563.8612532552795 1095.2,217.36554304655726 995.6666666666666,217.36554304655726Z" style="stroke: rgb(76, 175, 80); stroke-opacity: 0.65; fill: rgb(76, 175, 80); fill-opacity: 0.65; stroke-width: 1; opacity: 1;"/><path class="sankey-link" d="M995.6666666666666,216.5909368623206C1095.2,216.5909368623206 1095.2,359.93285243981813 1194.7333333333333,359.93285243981813L1194.7333333333333,360.2413010753486C1095.2,360.2413010753486 1095.2,216.8993854978511 995.6666666666666,216.8993854978511Z" style="stroke: rgb(76, 175, 80); stroke-opacity: 0.65; fill: rgb(76, 175, 80); fill-opacity: 0.65; stroke-width: 1; opacity: 1;"/><path class="sankey-link" d="M995.6666666666666,206.90787003511358C1095.2,206.90787003511358 1095.2,246.3823165683867 1194.7333333333333,246.3823165683867L1194.7333333333333,256.0653833955937C1095.2,256.0653833955937 1095.2,216.5909368623206 995.6666666666666,216.5909368623206Z" style="stroke: rgb(68, 68, 68); stroke-opacity: 1; fill: rgb(76, 175, 80); fill-opacity: 0.65; stroke-width: 0px; opacity: 1;"/><path class="sankey-link" d="M995.6666666666666,158.79572849622224C1095.2,158.79572849622224 1095.2,154.10269512359122 1194.7333333333333,154.10269512359122L1194.7333333333333,202.21483666248258C1095.2,202.21483666248258 1095.2,206.9078700351136 995.6666666666666,206.9078700351136Z" style="stroke: rgb(68, 68, 68); stroke-opacity: 1; fill: rgb(76, 175, 80); fill-opacity: 0.65; stroke-width: 0px; opacity: 1;"/><path class="sankey-link" d="M995.7752,660.5838196819902C1095.2542666666668,660.5838196819902 1095.2542666666668,307.471037081308 1194.7333333333333,307.471037081308L1194.7333333333333,307.7891120030418C1095.2542666666668,307.7891120030418 1095.2542666666668,660.901894603724 995.7752,660.901894603724Z" style="stroke: rgb(76, 175, 80); stroke-opacity: 0.65; fill: rgb(76, 175, 80); fill-opacity: 0.65; stroke-width: 1; opacity: 1;"/><path class="sankey-link" d="M995.6666666666666,448.17667760203665C1095.2,448.17667760203665 1095.2,98.05726269729237 1194.7333333333333,98.05726269729237L1194.7333333333333,102.0964275331117C1095.2,102.0964275331117 1095.2,452.21584243785594 995.6666666666666,452.21584243785594Z" style="stroke: rgb(68, 68, 68); stroke-opacity: 1; fill: rgb(244, 67, 54); fill-opacity: 0.7; stroke-width: 0px; opacity: 1;"/><path class="sankey-link" d="M995.6666666666666,359.79417165806774C1095.2,359.79417165806774 1095.2,94.13365356825715 1194.7333333333333,94.13365356825715L1194.7333333333333,98.05726269729236C1095.2,98.05726269729236 1095.2,363.7177807871029 995.6666666666666,363.7177807871029Z" style="stroke: rgb(68, 68, 68); stroke-opacity: 1; fill: rgb(244, 67, 54); fill-opacity: 0.7; stroke-width: 0px; opacity: 1;"/><path class="sankey-link" d="M995.6666666666666,239.8097250171998C1095.2,239.8097250171998 1095.2,82.93091096079425 1194.7333333333333,82.93091096079425L1194.7333333333333,94.13365356825713C1095.2,94.13365356825713 1095.2,251.0124676246627 995.6666666666666,251.0124676246627Z" style="stroke: rgb(68, 68, 68); stroke-opacity: 1; fill: rgb(244, 67, 54); fill-opacity: 0.7; stroke-width: 0px; opacity: 1;"/><path class="sankey-link" d="M995.6666666666666,144.282675716602C1095.2,144.282675716602 1095.2,68.41785818117401 1194.7333333333333,68.41785818117401L1194.7333333333333,82.93091096079425C1095.2,82.93091096079425 1095.2,158.79572849622224 995.6666666666666,158.79572849622224Z" style="stroke: rgb(68, 68, 68); stroke-opacity: 1; fill: rgb(244, 67, 54); fill-opacity: 0.7; stroke-width: 0px; opacity: 1;"/></g><g class="sankey-node-set" style="cursor: default;"><g class="sankey-node" transform="translate(109.400,24.023)" style="opacity: 1;"><rect class="node-rect" width="18" height="122.46904885223432" style="stroke-width: 0.5; stroke: rgb(0, 0, 0); stroke-opacity: 0.3; fill: rgb(244, 67, 54); fill-opacity: 0.9;"/><text class="node-label" data-notex="1" x="0" y="0" text-anchor="start" transform="translate(21.25,65.43452442611716)" style="cursor: default; font-family: 'Open Sans', verdana, arial, sans-serif; font-size: 12px; fill: rgb(42, 63, 95); fill-opacity: 1; text-shadow: rgb(255, 255, 255) 1px 1px 1px, rgb(255, 255, 255) -1px -1px 1px, rgb(255, 255, 255) 1px -1px 1px, rgb(255, 255, 255) -1px 1px 1px; white-space: pre;">State 50%</text></g><g class="sankey-node" transform="translate(109.400,154.507)" style="opacity: 1;"><rect class="node-rect" width="18" height="53.328259491714334" style="stroke-width: 0.5; stroke: rgb(0, 0, 0); stroke-opacity: 0.3; fill: rgb(255, 193, 7); fill-opacity: 0.9;"/><text class="node-label" data-notex="1" x="0" y="0" text-anchor="start" transform="translate(21.25,30.864129745857166)" style="cursor: default; font-family: 'Open Sans', verdana, arial, sans-serif; font-size: 12px; fill: rgb(42, 63, 95); fill-opacity: 1; text-shadow: rgb(255, 255, 255) 1px 1px 1px, rgb(255, 255, 255) -1px -1px 1px, rgb(255, 255, 255) 1px -1px 1px, rgb(255, 255, 255) -1px 1px 1px; white-space: pre;">State 2050%</text></g><g class="sankey-node" transform="translate(109.400,267.283)" style="opacity: 1;"><rect class="node-rect" width="18" height="19.60572458815409" style="stroke-width: 0.5; stroke: rgb(0, 0, 0); stroke-opacity: 0.3; fill: rgb(0, 150, 136); fill-opacity: 0.9;"/><text class="node-label" data-notex="1" x="0" y="0" text-anchor="start" transform="translate(21.25,14.002862294077044)" style="cursor: default; font-family: 'Open Sans', verdana, arial, sans-serif; font-size: 12px; fill: rgb(42, 63, 95); fill-opacity: 1; text-shadow: rgb(255, 255, 255) 1px 1px 1px, rgb(255, 255, 255) -1px -1px 1px, rgb(255, 255, 255) 1px -1px 1px, rgb(255, 255, 255) -1px 1px 1px; white-space: pre;">State 1020%</text></g><g class="sankey-node" transform="translate(109.400,365.750)" style="opacity: 1;"><rect class="node-rect" width="18" height="14.50024969685478" style="stroke-width: 0.5; stroke: rgb(0, 0, 0); stroke-opacity: 0.3; fill: rgb(63, 81, 181); fill-opacity: 0.9;"/><text class="node-label" data-notex="1" x="0" y="0" text-anchor="start" transform="translate(21.25,11.45012484842739)" style="cursor: default; font-family: 'Open Sans', verdana, arial, sans-serif; font-size: 12px; fill: rgb(42, 63, 95); fill-opacity: 1; text-shadow: rgb(255, 255, 255) 1px 1px 1px, rgb(255, 255, 255) -1px -1px 1px, rgb(255, 255, 255) 1px -1px 1px, rgb(255, 255, 255) -1px 1px 1px; white-space: pre;">State 010%</text></g><g class="sankey-node" transform="translate(109.400,433.889)" style="opacity: 1;"><rect class="node-rect" width="18" height="70.05090732277563" style="stroke-width: 0.5; stroke: rgb(0, 0, 0); stroke-opacity: 0.3; fill: rgb(158, 158, 158); fill-opacity: 0.8;"/><text class="node-label" data-notex="1" x="0" y="0" text-anchor="start" transform="translate(21.25,39.22545366138782)" style="cursor: default; font-family: 'Open Sans', verdana, arial, sans-serif; font-size: 12px; fill: rgb(42, 63, 95); fill-opacity: 1; text-shadow: rgb(255, 255, 255) 1px 1px 1px, rgb(255, 255, 255) -1px -1px 1px, rgb(255, 255, 255) 1px -1px 1px, rgb(255, 255, 255) -1px 1px 1px; white-space: pre;">Unknown</text></g><g class="sankey-node" transform="translate(109.400,551.699)" style="opacity: 1;"><rect class="node-rect" width="18" height="26.259414892068662" style="stroke-width: 0.5; stroke: rgb(0, 0, 0); stroke-opacity: 0.3; fill: rgb(120, 120, 120); fill-opacity: 0.75;"/><text class="node-label" data-notex="1" x="0" y="0" text-anchor="start" transform="translate(21.25,17.32970744603433)" style="cursor: default; font-family: 'Open Sans', verdana, arial, sans-serif; font-size: 12px; fill: rgb(42, 63, 95); fill-opacity: 1; text-shadow: rgb(255, 255, 255) 1px 1px 1px, rgb(255, 255, 255) -1px -1px 1px, rgb(255, 255, 255) 1px -1px 1px, rgb(255, 255, 255) -1px 1px 1px; white-space: pre;">Exit</text></g><g class="sankey-node" transform="translate(109.509,542.860)" style="opacity: 1;"><rect class="node-rect" width="18" height="235.7654073192939" style="stroke-width: 0.5; stroke: rgb(0, 0, 0); stroke-opacity: 0.3; fill: rgb(244, 67, 54); fill-opacity: 0.9;"/><text class="node-label" data-notex="1" x="0" y="0" text-anchor="start" transform="translate(21.25,122.08270365964695)" style="cursor: default; font-family: 'Open Sans', verdana, arial, sans-serif; font-size: 12px; fill: rgb(42, 63, 95); fill-opacity: 1; text-shadow: rgb(255, 255, 255) 1px 1px 1px, rgb(255, 255, 255) -1px -1px 1px, rgb(255, 255, 255) 1px -1px 1px, rgb(255, 255, 255) -1px 1px 1px; white-space: pre;">State 50%</text></g><g class="sankey-node" transform="translate(326.467,38.897)" style="opacity: 1;"><rect class="node-rect" width="18" height="92.7212212594161" style="stroke-width: 0.5; stroke: rgb(0, 0, 0); stroke-opacity: 0.3; fill: rgb(255, 193, 7); fill-opacity: 0.9;"/><text class="node-label" data-notex="1" x="0" y="0" text-anchor="start" transform="translate(21.25,50.56061062970805)" style="cursor: default; font-family: 'Open Sans', verdana, arial, sans-serif; font-size: 12px; fill: rgb(42, 63, 95); fill-opacity: 1; text-shadow: rgb(255, 255, 255) 1px 1px 1px, rgb(255, 255, 255) -1px -1px 1px, rgb(255, 255, 255) 1px -1px 1px, rgb(255, 255, 255) -1px 1px 1px; white-space: pre;">State 2050%</text></g><g class="sankey-node" transform="translate(326.467,169.175)" style="opacity: 1;"><rect class="node-rect" width="18" height="23.99376103179725" style="stroke-width: 0.5; stroke: rgb(0, 0, 0); stroke-opacity: 0.3; fill: rgb(0, 150, 136); fill-opacity: 0.9;"/><text class="node-label" data-notex="1" x="0" y="0" text-anchor="start" transform="translate(21.25,16.196880515898624)" style="cursor: default; font-family: 'Open Sans', verdana, arial, sans-serif; font-size: 12px; fill: rgb(42, 63, 95); fill-opacity: 1; text-shadow: rgb(255, 255, 255) 1px 1px 1px, rgb(255, 255, 255) -1px -1px 1px, rgb(255, 255, 255) 1px -1px 1px, rgb(255, 255, 255) -1px 1px 1px; white-space: pre;">State 1020%</text></g><g class="sankey-node" transform="translate(326.467,264.634)" style="opacity: 1;"><rect class="node-rect" width="18" height="24.903965116487143" style="stroke-width: 0.5; stroke: rgb(0, 0, 0); stroke-opacity: 0.3; fill: rgb(63, 81, 181); fill-opacity: 0.9;"/><text class="node-label" data-notex="1" x="0" y="0" text-anchor="start" transform="translate(21.25,16.65198255824357)" style="cursor: default; font-family: 'Open Sans', verdana, arial, sans-serif; font-size: 12px; fill: rgb(42, 63, 95); fill-opacity: 1; text-shadow: rgb(255, 255, 255) 1px 1px 1px, rgb(255, 255, 255) -1px -1px 1px, rgb(255, 255, 255) 1px -1px 1px, rgb(255, 255, 255) -1px 1px 1px; white-space: pre;">State 010%</text></g><g class="sankey-node" transform="translate(326.467,372.674)" style="opacity: 1;"><rect class="node-rect" width="18" height="0.6514317135879537" style="stroke-width: 0.5; stroke: rgb(0, 0, 0); stroke-opacity: 0.3; fill: rgb(158, 158, 158); fill-opacity: 0.8;"/><text class="node-label" data-notex="1" x="0" y="0" text-anchor="start" transform="translate(21.25,4.525715856793976)" style="cursor: default; font-family: 'Open Sans', verdana, arial, sans-serif; font-size: 12px; fill: rgb(42, 63, 95); fill-opacity: 1; text-shadow: rgb(255, 255, 255) 1px 1px 1px, rgb(255, 255, 255) -1px -1px 1px, rgb(255, 255, 255) 1px -1px 1px, rgb(255, 255, 255) -1px 1px 1px; white-space: pre;">Unknown</text></g><g class="sankey-node" transform="translate(326.467,450.380)" style="opacity: 1;"><rect class="node-rect" width="18" height="37.06858600875262" style="stroke-width: 0.5; stroke: rgb(0, 0, 0); stroke-opacity: 0.3; fill: rgb(120, 120, 120); fill-opacity: 0.75;"/><text class="node-label" data-notex="1" x="0" y="0" text-anchor="start" transform="translate(21.25,22.73429300437631)" style="cursor: default; font-family: 'Open Sans', verdana, arial, sans-serif; font-size: 12px; fill: rgb(42, 63, 95); fill-opacity: 1; text-shadow: rgb(255, 255, 255) 1px 1px 1px, rgb(255, 255, 255) -1px -1px 1px, rgb(255, 255, 255) 1px -1px 1px, rgb(255, 255, 255) -1px 1px 1px; white-space: pre;">Exit</text></g><g class="sankey-node" transform="translate(326.467,438.085)" style="opacity: 1;"><rect class="node-rect" width="18" height="253.48734115222896" style="stroke-width: 0.5; stroke: rgb(0, 0, 0); stroke-opacity: 0.3; fill: rgb(244, 67, 54); fill-opacity: 0.9;"/><text class="node-label" data-notex="1" x="0" y="0" text-anchor="start" transform="translate(21.25,130.94367057611447)" style="cursor: default; font-family: 'Open Sans', verdana, arial, sans-serif; font-size: 12px; fill: rgb(42, 63, 95); fill-opacity: 1; text-shadow: rgb(255, 255, 255) 1px 1px 1px, rgb(255, 255, 255) -1px -1px 1px, rgb(255, 255, 255) 1px -1px 1px, rgb(255, 255, 255) -1px 1px 1px; white-space: pre;">State 50%</text></g><g class="sankey-node" transform="translate(326.575,611.065)" style="opacity: 1;"><rect class="node-rect" width="18" height="99.3554712949483" style="stroke-width: 0.5; stroke: rgb(0, 0, 0); stroke-opacity: 0.3; fill: rgb(255, 193, 7); fill-opacity: 0.9;"/><text class="node-label" data-notex="1" x="0" y="0" text-anchor="start" transform="translate(21.25,53.877735647474154)" style="cursor: default; font-family: 'Open Sans', verdana, arial, sans-serif; font-size: 12px; fill: rgb(42, 63, 95); fill-opacity: 1; text-shadow: rgb(255, 255, 255) 1px 1px 1px, rgb(255, 255, 255) -1px -1px 1px, rgb(255, 255, 255) 1px -1px 1px, rgb(255, 255, 255) -1px 1px 1px; white-space: pre;">State 2050%</text></g><g class="sankey-node" transform="translate(543.533,68.481)" style="opacity: 1;"><rect class="node-rect" width="18" height="33.55273542022087" style="stroke-width: 0.5; stroke: rgb(0, 0, 0); stroke-opacity: 0.3; fill: rgb(0, 150, 136); fill-opacity: 0.9;"/><text class="node-label" data-notex="1" x="0" y="0" text-anchor="start" transform="translate(21.25,20.976367710110434)" style="cursor: default; font-family: 'Open Sans', verdana, arial, sans-serif; font-size: 12px; fill: rgb(42, 63, 95); fill-opacity: 1; text-shadow: rgb(255, 255, 255) 1px 1px 1px, rgb(255, 255, 255) -1px -1px 1px, rgb(255, 255, 255) 1px -1px 1px, rgb(255, 255, 255) -1px 1px 1px; white-space: pre;">State 1020%</text></g><g class="sankey-node" transform="translate(543.533,162.780)" style="opacity: 1;"><rect class="node-rect" width="18" height="36.7826427638995" style="stroke-width: 0.5; stroke: rgb(0, 0, 0); stroke-opacity: 0.3; fill: rgb(63, 81, 181); fill-opacity: 0.9;"/><text class="node-label" data-notex="1" x="0" y="0" text-anchor="start" transform="translate(21.25,22.59132138194975)" style="cursor: default; font-family: 'Open Sans', verdana, arial, sans-serif; font-size: 12px; fill: rgb(42, 63, 95); fill-opacity: 1; text-shadow: rgb(255, 255, 255) 1px 1px 1px, rgb(255, 255, 255) -1px -1px 1px, rgb(255, 255, 255) 1px -1px 1px, rgb(255, 255, 255) -1px 1px 1px; white-space: pre;">State 010%</text></g><g class="sankey-node" transform="translate(543.533,253.996)" style="opacity: 1;"><rect class="node-rect" width="18" height="46.179627119201086" style="stroke-width: 0.5; stroke: rgb(0, 0, 0); stroke-opacity: 0.3; fill: rgb(120, 120, 120); fill-opacity: 0.75;"/><text class="node-label" data-notex="1" x="0" y="0" text-anchor="start" transform="translate(21.25,27.289813559600542)" style="cursor: default; font-family: 'Open Sans', verdana, arial, sans-serif; font-size: 12px; fill: rgb(42, 63, 95); fill-opacity: 1; text-shadow: rgb(255, 255, 255) 1px 1px 1px, rgb(255, 255, 255) -1px -1px 1px, rgb(255, 255, 255) 1px -1px 1px, rgb(255, 255, 255) -1px 1px 1px; white-space: pre;">Exit</text></g><g class="sankey-node" transform="translate(543.533,260.431)" style="opacity: 1;"><rect class="node-rect" width="18" height="225.1387356568664" style="stroke-width: 0.5; stroke: rgb(0, 0, 0); stroke-opacity: 0.3; fill: rgb(244, 67, 54); fill-opacity: 0.9;"/><text class="node-label" data-notex="1" x="0" y="0" text-anchor="start" transform="translate(21.25,116.7693678284332)" style="cursor: default; font-family: 'Open Sans', verdana, arial, sans-serif; font-size: 12px; fill: rgb(42, 63, 95); fill-opacity: 1; text-shadow: rgb(255, 255, 255) 1px 1px 1px, rgb(255, 255, 255) -1px -1px 1px, rgb(255, 255, 255) 1px -1px 1px, rgb(255, 255, 255) -1px 1px 1px; white-space: pre;">State 50%</text></g><g class="sankey-node" transform="translate(543.533,416.866)" style="opacity: 1;"><rect class="node-rect" width="18" height="104.09601100538816" style="stroke-width: 0.5; stroke: rgb(0, 0, 0); stroke-opacity: 0.3; fill: rgb(255, 193, 7); fill-opacity: 0.9;"/><text class="node-label" data-notex="1" x="0" y="0" text-anchor="start" transform="translate(21.25,56.248005502694085)" style="cursor: default; font-family: 'Open Sans', verdana, arial, sans-serif; font-size: 12px; fill: rgb(42, 63, 95); fill-opacity: 1; text-shadow: rgb(255, 255, 255) 1px 1px 1px, rgb(255, 255, 255) -1px -1px 1px, rgb(255, 255, 255) 1px -1px 1px, rgb(255, 255, 255) -1px 1px 1px; white-space: pre;">State 2050%</text></g><g class="sankey-node" transform="translate(543.533,543.450)" style="opacity: 1;"><rect class="node-rect" width="18" height="42.757942338465455" style="stroke-width: 0.5; stroke: rgb(0, 0, 0); stroke-opacity: 0.3; fill: rgb(0, 150, 136); fill-opacity: 0.9;"/><text class="node-label" data-notex="1" x="0" y="0" text-anchor="start" transform="translate(21.25,25.578971169232727)" style="cursor: default; font-family: 'Open Sans', verdana, arial, sans-serif; font-size: 12px; fill: rgb(42, 63, 95); fill-opacity: 1; text-shadow: rgb(255, 255, 255) 1px 1px 1px, rgb(255, 255, 255) -1px -1px 1px, rgb(255, 255, 255) 1px -1px 1px, rgb(255, 255, 255) -1px 1px 1px; white-space: pre;">State 1020%</text></g><g class="sankey-node" transform="translate(543.642,642.803)" style="opacity: 1;"><rect class="node-rect" width="18" height="35.88021697494764" style="stroke-width: 0.5; stroke: rgb(0, 0, 0); stroke-opacity: 0.3; fill: rgb(63, 81, 181); fill-opacity: 0.9;"/><text class="node-label" data-notex="1" x="0" y="0" text-anchor="start" transform="translate(21.25,22.14010848747382)" style="cursor: default; font-family: 'Open Sans', verdana, arial, sans-serif; font-size: 12px; fill: rgb(42, 63, 95); fill-opacity: 1; text-shadow: rgb(255, 255, 255) 1px 1px 1px, rgb(255, 255, 255) -1px -1px 1px, rgb(255, 255, 255) 1px -1px 1px, rgb(255, 255, 255) -1px 1px 1px; white-space: pre;">State 010%</text></g><g class="sankey-node" transform="translate(760.600,85.096)" style="opacity: 1;"><rect class="node-rect" width="18" height="0.5" style="stroke-width: 0.5; stroke: rgb(0, 0, 0); stroke-opacity: 0.3; fill: rgb(158, 158, 158); fill-opacity: 0.8;"/><text class="node-label" data-notex="1" x="0" y="0" text-anchor="start" transform="translate(21.25,4.449999999999999)" style="cursor: default; font-family: 'Open Sans', verdana, arial, sans-serif; font-size: 12px; fill: rgb(42, 63, 95); fill-opacity: 1; text-shadow: rgb(255, 255, 255) 1px 1px 1px, rgb(255, 255, 255) -1px -1px 1px, rgb(255, 255, 255) 1px -1px 1px, rgb(255, 255, 255) -1px 1px 1px; white-space: pre;">Unknown</text></g><g class="sankey-node" transform="translate(760.600,132.691)" style="opacity: 1;"><rect class="node-rect" width="18" height="96.9612365989924" style="stroke-width: 0.5; stroke: rgb(0, 0, 0); stroke-opacity: 0.3; fill: rgb(120, 120, 120); fill-opacity: 0.75;"/><text class="node-label" data-notex="1" x="0" y="0" text-anchor="start" transform="translate(21.25,52.6806182994962)" style="cursor: default; font-family: 'Open Sans', verdana, arial, sans-serif; font-size: 12px; fill: rgb(42, 63, 95); fill-opacity: 1; text-shadow: rgb(255, 255, 255) 1px 1px 1px, rgb(255, 255, 255) -1px -1px 1px, rgb(255, 255, 255) 1px -1px 1px, rgb(255, 255, 255) -1px 1px 1px; white-space: pre;">Exit</text></g><g class="sankey-node" transform="translate(760.600,205.610)" style="opacity: 1;"><rect class="node-rect" width="18" height="142.9517045115066" style="stroke-width: 0.5; stroke: rgb(0, 0, 0); stroke-opacity: 0.3; fill: rgb(244, 67, 54); fill-opacity: 0.9;"/><text class="node-label" data-notex="1" x="0" y="0" text-anchor="start" transform="translate(21.25,75.6758522557533)" style="cursor: default; font-family: 'Open Sans', verdana, arial, sans-serif; font-size: 12px; fill: rgb(42, 63, 95); fill-opacity: 1; text-shadow: rgb(255, 255, 255) 1px 1px 1px, rgb(255, 255, 255) -1px -1px 1px, rgb(255, 255, 255) 1px -1px 1px, rgb(255, 255, 255) -1px 1px 1px; white-space: pre;">State 50%</text></g><g class="sankey-node" transform="translate(760.600,320.475)" style="opacity: 1;"><rect class="node-rect" width="18" height="105.04985153921325" style="stroke-width: 0.5; stroke: rgb(0, 0, 0); stroke-opacity: 0.3; fill: rgb(255, 193, 7); fill-opacity: 0.9;"/><text class="node-label" data-notex="1" x="0" y="0" text-anchor="start" transform="translate(21.25,56.72492576960663)" style="cursor: default; font-family: 'Open Sans', verdana, arial, sans-serif; font-size: 12px; fill: rgb(42, 63, 95); fill-opacity: 1; text-shadow: rgb(255, 255, 255) 1px 1px 1px, rgb(255, 255, 255) -1px -1px 1px, rgb(255, 255, 255) 1px -1px 1px, rgb(255, 255, 255) -1px 1px 1px; white-space: pre;">State 2050%</text></g><g class="sankey-node" transform="translate(760.600,450.881)" style="opacity: 1;"><rect class="node-rect" width="18" height="36.06748387590119" style="stroke-width: 0.5; stroke: rgb(0, 0, 0); stroke-opacity: 0.3; fill: rgb(0, 150, 136); fill-opacity: 0.9;"/><text class="node-label" data-notex="1" x="0" y="0" text-anchor="start" transform="translate(21.25,22.233741937950594)" style="cursor: default; font-family: 'Open Sans', verdana, arial, sans-serif; font-size: 12px; fill: rgb(42, 63, 95); fill-opacity: 1; text-shadow: rgb(255, 255, 255) 1px 1px 1px, rgb(255, 255, 255) -1px -1px 1px, rgb(255, 255, 255) 1px -1px 1px, rgb(255, 255, 255) -1px 1px 1px; white-space: pre;">State 1020%</text></g><g class="sankey-node" transform="translate(760.600,543.853)" style="opacity: 1;"><rect class="node-rect" width="18" height="41.95022560493044" style="stroke-width: 0.5; stroke: rgb(0, 0, 0); stroke-opacity: 0.3; fill: rgb(63, 81, 181); fill-opacity: 0.9;"/><text class="node-label" data-notex="1" x="0" y="0" text-anchor="start" transform="translate(21.25,25.175112802465218)" style="cursor: default; font-family: 'Open Sans', verdana, arial, sans-serif; font-size: 12px; fill: rgb(42, 63, 95); fill-opacity: 1; text-shadow: rgb(255, 255, 255) 1px 1px 1px, rgb(255, 255, 255) -1px -1px 1px, rgb(255, 255, 255) 1px -1px 1px, rgb(255, 255, 255) -1px 1px 1px; white-space: pre;">State 010%</text></g><g class="sankey-node" transform="translate(760.709,660.490)" style="opacity: 1;"><rect class="node-rect" width="18" height="0.5060245973104429" style="stroke-width: 0.5; stroke: rgb(0, 0, 0); stroke-opacity: 0.3; fill: rgb(33, 150, 243); fill-opacity: 0.9;"/><text class="node-label" data-notex="1" x="0" y="0" text-anchor="start" transform="translate(21.25,4.453012298655221)" style="cursor: default; font-family: 'Open Sans', verdana, arial, sans-serif; font-size: 12px; fill: rgb(42, 63, 95); fill-opacity: 1; text-shadow: rgb(255, 255, 255) 1px 1px 1px, rgb(255, 255, 255) -1px -1px 1px, rgb(255, 255, 255) 1px -1px 1px, rgb(255, 255, 255) -1px 1px 1px; white-space: pre;">State 0%</text></g><g class="sankey-node" transform="translate(977.667,31.144)" style="opacity: 1;"><rect class="node-rect" width="18" height="108.2265257450238" style="stroke-width: 0.5; stroke: rgb(0, 0, 0); stroke-opacity: 0.3; fill: rgb(120, 120, 120); fill-opacity: 0.75;"/><text class="node-label" data-notex="1" x="0" y="0" text-anchor="start" transform="translate(21.25,58.3132628725119)" style="cursor: default; font-family: 'Open Sans', verdana, arial, sans-serif; font-size: 12px; fill: rgb(42, 63, 95); fill-opacity: 1; text-shadow: rgb(255, 255, 255) 1px 1px 1px, rgb(255, 255, 255) -1px -1px 1px, rgb(255, 255, 255) 1px -1px 1px, rgb(255, 255, 255) -1px 1px 1px; white-space: pre;">Exit</text></g><g class="sankey-node" transform="translate(977.667,144.283)" style="opacity: 1;"><rect class="node-rect" width="18" height="73.7775057096531" style="stroke-width: 0.5; stroke: rgb(0, 0, 0); stroke-opacity: 0.3; fill: rgb(244, 67, 54); fill-opacity: 0.9;"/><text class="node-label" data-notex="1" x="0" y="0" text-anchor="start" transform="translate(21.25,41.08875285482655)" style="cursor: default; font-family: 'Open Sans', verdana, arial, sans-serif; font-size: 12px; fill: rgb(42, 63, 95); fill-opacity: 1; text-shadow: rgb(255, 255, 255) 1px 1px 1px, rgb(255, 255, 255) -1px -1px 1px, rgb(255, 255, 255) 1px -1px 1px, rgb(255, 255, 255) -1px 1px 1px; white-space: pre;">State 50%</text></g><g class="sankey-node" transform="translate(977.667,239.810)" style="opacity: 1;"><rect class="node-rect" width="18" height="74.55197853702884" style="stroke-width: 0.5; stroke: rgb(0, 0, 0); stroke-opacity: 0.3; fill: rgb(255, 193, 7); fill-opacity: 0.9;"/><text class="node-label" data-notex="1" x="0" y="0" text-anchor="start" transform="translate(21.25,41.475989268514425)" style="cursor: default; font-family: 'Open Sans', verdana, arial, sans-serif; font-size: 12px; fill: rgb(42, 63, 95); fill-opacity: 1; text-shadow: rgb(255, 255, 255) 1px 1px 1px, rgb(255, 255, 255) -1px -1px 1px, rgb(255, 255, 255) 1px -1px 1px, rgb(255, 255, 255) -1px 1px 1px; white-space: pre;">State 2050%</text></g><g class="sankey-node" transform="translate(977.667,359.794)" style="opacity: 1;"><rect class="node-rect" width="18" height="26.411656683864408" style="stroke-width: 0.5; stroke: rgb(0, 0, 0); stroke-opacity: 0.3; fill: rgb(0, 150, 136); fill-opacity: 0.9;"/><text class="node-label" data-notex="1" x="0" y="0" text-anchor="start" transform="translate(21.25,17.405828341932203)" style="cursor: default; font-family: 'Open Sans', verdana, arial, sans-serif; font-size: 12px; fill: rgb(42, 63, 95); fill-opacity: 1; text-shadow: rgb(255, 255, 255) 1px 1px 1px, rgb(255, 255, 255) -1px -1px 1px, rgb(255, 255, 255) 1px -1px 1px, rgb(255, 255, 255) -1px 1px 1px; white-space: pre;">State 1020%</text></g><g class="sankey-node" transform="translate(977.667,448.177)" style="opacity: 1;"><rect class="node-rect" width="18" height="41.475216224498126" style="stroke-width: 0.5; stroke: rgb(0, 0, 0); stroke-opacity: 0.3; fill: rgb(63, 81, 181); fill-opacity: 0.9;"/><text class="node-label" data-notex="1" x="0" y="0" text-anchor="start" transform="translate(21.25,24.937608112249062)" style="cursor: default; font-family: 'Open Sans', verdana, arial, sans-serif; font-size: 12px; fill: rgb(42, 63, 95); fill-opacity: 1; text-shadow: rgb(255, 255, 255) 1px 1px 1px, rgb(255, 255, 255) -1px -1px 1px, rgb(255, 255, 255) 1px -1px 1px, rgb(255, 255, 255) -1px 1px 1px; white-space: pre;">State 010%</text></g><g class="sankey-node" transform="translate(977.667,563.798)" style="opacity: 1;"><rect class="node-rect" width="18" height="2.0609090952541465" style="stroke-width: 0.5; stroke: rgb(0, 0, 0); stroke-opacity: 0.3; fill: rgb(33, 150, 243); fill-opacity: 0.9;"/><text class="node-label" data-notex="1" x="0" y="0" text-anchor="start" transform="translate(21.25,5.2304545476270725)" style="cursor: default; font-family: 'Open Sans', verdana, arial, sans-serif; font-size: 12px; fill: rgb(42, 63, 95); fill-opacity: 1; text-shadow: rgb(255, 255, 255) 1px 1px 1px, rgb(255, 255, 255) -1px -1px 1px, rgb(255, 255, 255) 1px -1px 1px, rgb(255, 255, 255) -1px 1px 1px; white-space: pre;">State 0%</text></g><g class="sankey-node" transform="translate(977.775,660.584)" style="opacity: 1;"><rect class="node-rect" width="18" height="0.5" style="stroke-width: 0.5; stroke: rgb(0, 0, 0); stroke-opacity: 0.3; fill: rgb(158, 158, 158); fill-opacity: 0.8;"/><text class="node-label" data-notex="1" x="0" y="0" text-anchor="start" transform="translate(21.25,4.449999999999999)" style="cursor: default; font-family: 'Open Sans', verdana, arial, sans-serif; font-size: 12px; fill: rgb(42, 63, 95); fill-opacity: 1; text-shadow: rgb(255, 255, 255) 1px 1px 1px, rgb(255, 255, 255) -1px -1px 1px, rgb(255, 255, 255) 1px -1px 1px, rgb(255, 255, 255) -1px 1px 1px; white-space: pre;">Unknown</text></g><g class="sankey-node" transform="translate(1194.733,68.418)" style="opacity: 1;"><rect class="node-rect" width="18" height="33.678569351937654" style="stroke-width: 0.5; stroke: rgb(0, 0, 0); stroke-opacity: 0.3; fill: rgb(120, 120, 120); fill-opacity: 0.75;"/><text class="node-label" data-notex="1" x="0" y="0" text-anchor="end" transform="translate(-3.25,21.039284675968826)" style="cursor: default; font-family: 'Open Sans', verdana, arial, sans-serif; font-size: 12px; fill: rgb(42, 63, 95); fill-opacity: 1; text-shadow: rgb(255, 255, 255) 1px 1px 1px, rgb(255, 255, 255) -1px -1px 1px, rgb(255, 255, 255) 1px -1px 1px, rgb(255, 255, 255) -1px 1px 1px; white-space: pre;">Exit</text></g><g class="sankey-node" transform="translate(1194.733,154.103)" style="opacity: 1;"><rect class="node-rect" width="18" height="54.13746689567466" style="stroke-width: 0.5; stroke: rgb(0, 0, 0); stroke-opacity: 0.3; fill: rgb(244, 67, 54); fill-opacity: 0.9;"/><text class="node-label" data-notex="1" x="0" y="0" text-anchor="end" transform="translate(-3.25,31.26873344783733)" style="cursor: default; font-family: 'Open Sans', verdana, arial, sans-serif; font-size: 12px; fill: rgb(42, 63, 95); fill-opacity: 1; text-shadow: rgb(255, 255, 255) 1px 1px 1px, rgb(255, 255, 255) -1px -1px 1px, rgb(255, 255, 255) 1px -1px 1px, rgb(255, 255, 255) -1px 1px 1px; white-space: pre;">State 50%</text></g><g class="sankey-node" transform="translate(1194.733,246.382)" style="opacity: 1;"><rect class="node-rect" width="18" height="61.40679543465504" style="stroke-width: 0.5; stroke: rgb(0, 0, 0); stroke-opacity: 0.3; fill: rgb(255, 193, 7); fill-opacity: 0.9;"/><text class="node-label" data-notex="1" x="0" y="0" text-anchor="end" transform="translate(-3.25,34.90339771732752)" style="cursor: default; font-family: 'Open Sans', verdana, arial, sans-serif; font-size: 12px; fill: rgb(42, 63, 95); fill-opacity: 1; text-shadow: rgb(255, 255, 255) 1px 1px 1px, rgb(255, 255, 255) -1px -1px 1px, rgb(255, 255, 255) 1px -1px 1px, rgb(255, 255, 255) -1px 1px 1px; white-space: pre;">State 2050%</text></g><g class="sankey-node" transform="translate(1194.733,359.933)" style="opacity: 1;"><rect class="node-rect" width="18" height="26.134295120363618" style="stroke-width: 0.5; stroke: rgb(0, 0, 0); stroke-opacity: 0.3; fill: rgb(0, 150, 136); fill-opacity: 0.9;"/><text class="node-label" data-notex="1" x="0" y="0" text-anchor="end" transform="translate(-3.25,17.267147560181808)" style="cursor: default; font-family: 'Open Sans', verdana, arial, sans-serif; font-size: 12px; fill: rgb(42, 63, 95); fill-opacity: 1; text-shadow: rgb(255, 255, 255) 1px 1px 1px, rgb(255, 255, 255) -1px -1px 1px, rgb(255, 255, 255) 1px -1px 1px, rgb(255, 255, 255) -1px 1px 1px; white-space: pre;">State 1020%</text></g><g class="sankey-node" transform="translate(1194.733,452.374)" style="opacity: 1;"><rect class="node-rect" width="18" height="33.08053138933428" style="stroke-width: 0.5; stroke: rgb(0, 0, 0); stroke-opacity: 0.3; fill: rgb(63, 81, 181); fill-opacity: 0.9;"/><text class="node-label" data-notex="1" x="0" y="0" text-anchor="end" transform="translate(-3.25,20.74026569466714)" style="cursor: default; font-family: 'Open Sans', verdana, arial, sans-serif; font-size: 12px; fill: rgb(42, 63, 95); fill-opacity: 1; text-shadow: rgb(255, 255, 255) 1px 1px 1px, rgb(255, 255, 255) -1px -1px 1px, rgb(255, 255, 255) 1px -1px 1px, rgb(255, 255, 255) -1px 1px 1px; white-space: pre;">State 010%</text></g><g class="sankey-node" transform="translate(1194.733,563.395)" style="opacity: 1;"><rect class="node-rect" width="18" height="2.866951443996186" style="stroke-width: 0.5; stroke: rgb(0, 0, 0); stroke-opacity: 0.3; fill: rgb(33, 150, 243); fill-opacity: 0.9;"/><text class="node-label" data-notex="1" x="0" y="0" text-anchor="end" transform="translate(-3.25,5.633475721998092)" style="cursor: default; font-family: 'Open Sans', verdana, arial, sans-serif; font-size: 12px; fill: rgb(42, 63, 95); fill-opacity: 1; text-shadow: rgb(255, 255, 255) 1px 1px 1px, rgb(255, 255, 255) -1px -1px 1px, rgb(255, 255, 255) 1px -1px 1px, rgb(255, 255, 255) -1px 1px 1px; white-space: pre;">State 0%</text></g></g></g><defs id="topdefs-d99c93"><g class="clips"/></defs><g class="layer-above"><g class="imagelayer"/><g class="shapelayer"/></g><g class="infolayer"><g class="g-gtitle"><text class="gtitle" x="30.240000000000002" y="28" text-anchor="start" dy="0em" style="opacity: 1; font-family: 'Open Sans', verdana, arial, sans-serif; font-size: 17px; fill: rgb(42, 63, 95); fill-opacity: 1; white-space: pre;">Ownership buckets (step=3y)  Weight = 24M MA of total_assets (abs in bln, or % of step)</text></g><g class="first-render"/><g class="annotation" data-index="0" style="opacity: 1;"><g class="annotation-text-g" transform="rotate(0,134.4,57.69000000000001)"><g class="cursor-pointer" transform="translate(117,48)"><rect class="bg" x="0.5" y="0.5" width="34" height="18" style="stroke-width: 1px; stroke: rgb(0, 0, 0); stroke-opacity: 0; fill: rgb(0, 0, 0); fill-opacity: 0;"/><text class="annotation-text" text-anchor="middle" x="17.265625" y="14.078125" style="font-family: 'Open Sans', verdana, arial, sans-serif; font-size: 12px; fill: rgb(42, 63, 95); fill-opacity: 1; white-space: pre;">2004</text></g></g></g><g class="annotation" data-index="1" style="opacity: 1;"><g class="annotation-text-g" transform="rotate(0,351.4666666666667,57.69000000000001)"><g class="cursor-pointer" transform="translate(334,48)"><rect class="bg" x="0.5" y="0.5" width="34" height="18" style="stroke-width: 1px; stroke: rgb(0, 0, 0); stroke-opacity: 0; fill: rgb(0, 0, 0); fill-opacity: 0;"/><text class="annotation-text" text-anchor="middle" x="17.265625" y="14.078125" style="font-family: 'Open Sans', verdana, arial, sans-serif; font-size: 12px; fill: rgb(42, 63, 95); fill-opacity: 1; white-space: pre;">2007</text></g></g></g><g class="annotation" data-index="2" style="opacity: 1;"><g class="annotation-text-g" transform="rotate(0,568.5333333333333,57.69000000000001)"><g class="cursor-pointer" transform="translate(551,48)"><rect class="bg" x="0.5" y="0.5" width="34" height="18" style="stroke-width: 1px; stroke: rgb(0, 0, 0); stroke-opacity: 0; fill: rgb(0, 0, 0); fill-opacity: 0;"/><text class="annotation-text" text-anchor="middle" x="17.265625" y="14.078125" style="font-family: 'Open Sans', verdana, arial, sans-serif; font-size: 12px; fill: rgb(42, 63, 95); fill-opacity: 1; white-space: pre;">2010</text></g></g></g><g class="annotation" data-index="3" style="opacity: 1;"><g class="annotation-text-g" transform="rotate(0,785.6,57.69000000000001)"><g class="cursor-pointer" transform="translate(768,48)"><rect class="bg" x="0.5" y="0.5" width="34" height="18" style="stroke-width: 1px; stroke: rgb(0, 0, 0); stroke-opacity: 0; fill: rgb(0, 0, 0); fill-opacity: 0;"/><text class="annotation-text" text-anchor="middle" x="17.265625" y="14.078125" style="font-family: 'Open Sans', verdana, arial, sans-serif; font-size: 12px; fill: rgb(42, 63, 95); fill-opacity: 1; white-space: pre;">2013</text></g></g></g><g class="annotation" data-index="4" style="opacity: 1;"><g class="annotation-text-g" transform="rotate(0,1002.6666666666666,57.69000000000001)"><g class="cursor-pointer" transform="translate(985,48)"><rect class="bg" x="0.5" y="0.5" width="34" height="18" style="stroke-width: 1px; stroke: rgb(0, 0, 0); stroke-opacity: 0; fill: rgb(0, 0, 0); fill-opacity: 0;"/><text class="annotation-text" text-anchor="middle" x="17.265625" y="14.078125" style="font-family: 'Open Sans', verdana, arial, sans-serif; font-size: 12px; fill: rgb(42, 63, 95); fill-opacity: 1; white-space: pre;">2016</text></g></g></g><g class="annotation" data-index="5" style="opacity: 1;"><g class="annotation-text-g" transform="rotate(0,1219.7333333333333,57.69000000000001)"><g class="cursor-pointer" transform="translate(1202,48)"><rect class="bg" x="0.5" y="0.5" width="34" height="18" style="stroke-width: 1px; stroke: rgb(0, 0, 0); stroke-opacity: 0; fill: rgb(0, 0, 0); fill-opacity: 0;"/><text class="annotation-text" text-anchor="middle" x="17.265625" y="14.078125" style="font-family: 'Open Sans', verdana, arial, sans-serif; font-size: 12px; fill: rgb(42, 63, 95); fill-opacity: 1; white-space: pre;">2019</text></g></g></g><g class="annotation" data-index="6" style="opacity: 1;"><g class="annotation-text-g" transform="rotate(0,1436.8,57.69000000000001)"><g class="cursor-pointer" transform="translate(1419,48)"><rect class="bg" x="0.5" y="0.5" width="34" height="18" style="stroke-width: 1px; stroke: rgb(0, 0, 0); stroke-opacity: 0; fill: rgb(0, 0, 0); fill-opacity: 0;"/><text class="annotation-text" text-anchor="middle" x="17.265625" y="14.078125" style="font-family: 'Open Sans', verdana, arial, sans-serif; font-size: 12px; fill: rgb(42, 63, 95); fill-opacity: 1; white-space: pre;">2021</text></g></g></g></g><g class="menulayer"><g class="updatemenu-container" style="cursor: pointer;"><g class="updatemenu-header-group" pointer-events="all"><g class="updatemenu-button" transform="translate(32,64)"><rect class="updatemenu-item-rect" rx="2" ry="2" shape-rendering="crispEdges" x="0" y="0" width="210" height="33" style="stroke: rgb(190, 200, 217); stroke-opacity: 1; fill: rgb(244, 250, 255); fill-opacity: 1; stroke-width: 1px;"/><text class="updatemenu-item-text" text-anchor="start" data-notex="1" x="12" y="19.5" style="font-family: 'Open Sans', verdana, arial, sans-serif; font-size: 12px; fill: rgb(42, 63, 95); fill-opacity: 1; white-space: pre;">Thickness: Absolute (bln)</text></g><g class="updatemenu-button" transform="translate(32,99)"><rect class="updatemenu-item-rect" rx="2" ry="2" shape-rendering="crispEdges" x="0" y="0" width="210" height="33" style="stroke: rgb(190, 200, 217); stroke-opacity: 1; fill: rgb(255, 255, 255); fill-opacity: 1; stroke-width: 1px;"/><text class="updatemenu-item-text" text-anchor="start" data-notex="1" x="12" y="19.5" style="font-family: 'Open Sans', verdana, arial, sans-serif; font-size: 12px; fill: rgb(42, 63, 95); fill-opacity: 1; white-space: pre;">Thickness: Share per step (%)</text></g></g><g class="updatemenu-header-group" pointer-events="all"><g class="updatemenu-button" transform="translate(461,64)"><rect class="updatemenu-item-rect" rx="2" ry="2" shape-rendering="crispEdges" x="0" y="0" width="116" height="33" style="stroke: rgb(190, 200, 217); stroke-opacity: 1; fill: rgb(244, 250, 255); fill-opacity: 1; stroke-width: 1px;"/><text class="updatemenu-item-text" text-anchor="start" data-notex="1" x="12" y="19.5" style="font-family: 'Open Sans', verdana, arial, sans-serif; font-size: 12px; fill: rgb(42, 63, 95); fill-opacity: 1; white-space: pre;">Reset positions</text></g></g><g class="updatemenu-dropdown-button-group" updatemenu-active-index="-1" style="pointer-events: all;"><rect class="scrollbox-bg" opacity="0" x="0" y="0" width="0" height="0" style="pointer-events: all;"/></g></g></g></svg>