<svg class="main-svg" xmlns="http://www.w3.org/2000/svg" xmlns:xlink="http://www.w3.org/1999/xlink" width="2400" height="1600" style="" viewBox="0 0 1200 800"><rect x="0" y="0" width="1200" height="800" style="fill: rgb(255, 255, 255); fill-opacity: 1;"/><defs id="defs-d5b00d"><g class="clips"/><g class="gradients"/><g class="patterns"/></defs><g class="bglayer"/><g class="layer-below"><g class="imagelayer"/><g class="shapelayer"/></g><g class="cartesianlayer"/><g class="polarlayer"/><g class="smithlayer"/><g class="ternarylayer"/><g class="geolayer"/><g class="funnelarealayer"/><g class="pielayer"/><g class="iciclelayer"/><g class="treemaplayer"/><g class="sunburstlayer"/><g class="glimages"/><g class="sankey" transform="translate(16,56)matrix(1 0 0 1 0 0)" style="box-sizing: content-box; position: absolute; left: 0px; shape-rendering: geometricprecision; pointer-events: none;"><g class="sankey-links" style="fill: none;"><path class="sankey-link" d="M102.44,361.2524497948856C179.09333333333333,361.2524497948856 179.09333333333333,268.1574484608327 255.74666666666667,268.1574484608327L255.74666666666667,277.83021534873365C179.09333333333333,277.83021534873365 179.09333333333333,370.9252166827865 102.44,370.9252166827865Z" style="stroke: rgb(68, 68, 68); stroke-opacity: 1; fill: rgb(76, 175, 80); fill-opacity: 0.65; stroke-width: 0; opacity: 1;"/><path class="sankey-link" d="M102.44,360.66806523526714C179.09333333333333,360.66806523526714 179.09333333333333,182.58510804867356 255.74666666666667,182.58510804867356L255.74666666666667,183.16949260829202C179.09333333333333,183.16949260829202 179.09333333333333,361.2524497948856 102.44,361.2524497948856Z" style="stroke: rgb(76, 175, 80); stroke-opacity: 0.65; fill: rgb(76, 175, 80); fill-opacity: 0.65; stroke-width: 1; opacity: 1;"/><path class="sankey-link" d="M102.44,358.94284425400207C179.09333333333333,358.94284425400207 179.09333333333333,91.74015231082734 255.74666666666667,91.74015231082734L255.74666666666667,93.46537329209241C179.09333333333333,93.46537329209241 179.09333333333333,360.6680652352671 102.44,360.6680652352671Z" style="stroke: rgb(68, 68, 68); stroke-opacity: 1; fill: rgb(76, 175, 80); fill-opacity: 0.65; stroke-width: 0; opacity: 1;"/><path class="sankey-link" d="M102.44,370.92521668278647C93.48282666666665,370.92521668278647 93.48282666666665,627.187634568314 84.52565333333332,627.187634568314L84.52565333333332,628.9301861309095C93.48282666666665,628.9301861309095 93.48282666666665,372.667768245382 102.44,372.667768245382Z" style="stroke: rgb(68, 68, 68); stroke-opacity: 1; fill: rgb(76, 175, 80); fill-opacity: 0.65; stroke-width: 0; opacity: 1;"/><path class="sankey-link" d="M102.44,270.7816008400818C179.09333333333333,270.7816008400818 179.09333333333333,262.7365792730085 255.74666666666667,262.7365792730085L255.74666666666667,268.1574484608327C179.09333333333333,268.1574484608327 179.09333333333333,276.20247002790603 102.44,276.20247002790603Z" style="stroke: rgb(68, 68, 68); stroke-opacity: 1; fill: rgb(76, 175, 80); fill-opacity: 0.65; stroke-width: 0; opacity: 1;"/><path class="sankey-link" d="M102.44,264.2744296784893C179.09333333333333,264.2744296784893 179.09333333333333,176.07793688708105 255.74666666666667,176.07793688708105L255.74666666666667,182.58510804867356C179.09333333333333,182.58510804867356 179.09333333333333,270.7816008400818 102.44,270.7816008400818Z" style="stroke: rgb(68, 68, 68); stroke-opacity: 1; fill: rgb(76, 175, 80); fill-opacity: 0.65; stroke-width: 0; opacity: 1;"/><path class="sankey-link" d="M102.44,262.34376467627044C179.09333333333333,262.34376467627044 179.09333333333333,89.8094873086085 255.74666666666667,89.8094873086085L255.74666666666667,91.74015231082733C179.09333333333333,91.74015231082733 179.09333333333333,264.27442967848924 102.44,264.27442967848924Z" style="stroke: rgb(68, 68, 68); stroke-opacity: 1; fill: rgb(76, 175, 80); fill-opacity: 0.65; stroke-width: 0; opacity: 1;"/><path class="sankey-link" d="M102.44,276.20247002790603C93.48282666666665,276.20247002790603 93.48282666666665,624.5284498285828 84.52565333333332,624.5284498285828L84.52565333333332,627.187634568314C93.48282666666665,627.187634568314 93.48282666666665,278.8616547676373 102.44,278.8616547676373Z" style="stroke: rgb(68, 68, 68); stroke-opacity: 1; fill: rgb(76, 175, 80); fill-opacity: 0.65; stroke-width: 0; opacity: 1;"/><path class="sankey-link" d="M102.44,189.99818701406508C179.09333333333333,189.99818701406508 179.09333333333333,259.7651533164733 255.74666666666667,259.7651533164733L255.74666666666667,262.7365792730085C179.09333333333333,262.7365792730085 179.09333333333333,192.96961297060028 102.44,192.96961297060028Z" style="stroke: rgb(68, 68, 68); stroke-opacity: 1; fill: rgb(76, 175, 80); fill-opacity: 0.65; stroke-width: 0; opacity: 1;"/><path class="sankey-link" d="M102.44,181.683288810946C179.09333333333333,181.683288810946 179.09333333333333,167.76303868396198 255.74666666666667,167.76303868396198L255.74666666666667,176.07793688708105C179.09333333333333,176.07793688708105 179.09333333333333,189.99818701406508 102.44,189.99818701406508Z" style="stroke: rgb(68, 68, 68); stroke-opacity: 1; fill: rgb(76, 175, 80); fill-opacity: 0.65; stroke-width: 0; opacity: 1;"/><path class="sankey-link" d="M102.44,151.8169904918107C179.09333333333333,151.8169904918107 179.09333333333333,59.9431889894732 255.74666666666667,59.9431889894732L255.74666666666667,89.8094873086085C179.09333333333333,89.8094873086085 179.09333333333333,181.683288810946 102.44,181.683288810946Z" style="stroke: rgb(68, 68, 68); stroke-opacity: 1; fill: rgb(76, 175, 80); fill-opacity: 0.65; stroke-width: 0; opacity: 1;"/><path class="sankey-link" d="M102.44,192.96961297060028C93.48282666666665,192.96961297060028 93.48282666666665,617.952892933283 84.52565333333332,617.952892933283L84.52565333333332,624.5284498285828C93.48282666666665,624.5284498285828 93.48282666666665,199.54516986590005 102.44,199.54516986590005Z" style="stroke: rgb(68, 68, 68); stroke-opacity: 1; fill: rgb(76, 175, 80); fill-opacity: 0.65; stroke-width: 0; opacity: 1;"/><path class="sankey-link" d="M102.44,45.46515883023098C179.09333333333333,45.46515883023098 179.09333333333333,166.09385666241695 255.74666666666667,166.09385666241695L255.74666666666667,167.76303868396195C179.09333333333333,167.76303868396195 179.09333333333333,47.134340851775995 102.44,47.134340851775995Z" style="stroke: rgb(68, 68, 68); stroke-opacity: 1; fill: rgb(76, 175, 80); fill-opacity: 0.65; stroke-width: 0; opacity: 1;"/><path class="sankey-link" d="M102.44,24.052434670504116C179.09333333333333,24.052434670504116 179.09333333333333,38.530464829746336 255.74666666666667,38.530464829746336L255.74666666666667,59.943188989473214C179.09333333333333,59.943188989473214 179.09333333333333,45.46515883023099 102.44,45.46515883023099Z" style="stroke: rgb(68, 68, 68); stroke-opacity: 1; fill: rgb(76, 175, 80); fill-opacity: 0.65; stroke-width: 0; opacity: 1;"/><path class="sankey-link" d="M102.44,47.134340851775995C93.48282666666665,47.134340851775995 93.48282666666665,533.5977159380298 84.52565333333332,533.5977159380298L84.52565333333332,617.952892933283C93.48282666666665,617.952892933283 93.48282666666665,131.4895178470293 102.44,131.4895178470293Z" style="stroke: rgb(68, 68, 68); stroke-opacity: 1; fill: rgb(76, 175, 80); fill-opacity: 0.65; stroke-width: 0; opacity: 1;"/><path class="sankey-link" d="M102.44,434.18833049927764C179.09333333333333,434.18833049927764 179.09333333333333,277.8302153487336 255.74666666666667,277.8302153487336L255.74666666666667,278.09903402929405C179.09333333333333,278.09903402929405 179.09333333333333,434.4571491798381 102.44,434.4571491798381Z" style="stroke: rgb(76, 175, 80); stroke-opacity: 0.65; fill: rgb(76, 175, 80); fill-opacity: 0.65; stroke-width: 1; opacity: 1;"/><path class="sankey-link" d="M102.44,426.0210684621363C179.09333333333333,426.0210684621363 179.09333333333333,93.4653732920924 255.74666666666667,93.4653732920924L255.74666666666667,101.63263532923374C179.09333333333333,101.63263532923374 179.09333333333333,434.18833049927764 102.44,434.18833049927764Z" style="stroke: rgb(68, 68, 68); stroke-opacity: 1; fill: rgb(76, 175, 80); fill-opacity: 0.65; stroke-width: 0; opacity: 1;"/><path class="sankey-link" d="M102.44,434.9999593524333C93.48282666666665,434.9999593524333 93.48282666666665,628.9301861309095 84.52565333333332,628.9301861309095L84.52565333333332,681.485661250879C93.48282666666665,681.485661250879 93.48282666666665,487.5554344724027 102.44,487.5554344724027Z" style="stroke: rgb(68, 68, 68); stroke-opacity: 1; fill: rgb(76, 175, 80); fill-opacity: 0.65; stroke-width: 0; opacity: 1;"/><path class="sankey-link" d="M102.44,434.45714917983815C179.09333333333333,434.45714917983815 179.09333333333333,365.6829533865428 255.74666666666667,365.6829533865428L255.74666666666667,366.225763559138C179.09333333333333,366.225763559138 179.09333333333333,434.99995935243334 102.44,434.99995935243334Z" style="stroke: rgb(76, 175, 80); stroke-opacity: 0.65; fill: rgb(76, 175, 80); fill-opacity: 0.65; stroke-width: 1; opacity: 1;"/><path class="sankey-link" d="M102.44,372.66776824538204C93.44,372.66776824538204 93.44,559.967362985957 84.44,559.967362985957L84.44,560.3567504865727C93.44,560.3567504865727 93.44,373.05715574599765 102.44,373.05715574599765Z" style="stroke: rgb(244, 67, 54); stroke-opacity: 0.7; fill: rgb(244, 67, 54); fill-opacity: 0.7; stroke-width: 1; opacity: 1;"/><path class="sankey-link" d="M102.44,278.86165476763733C93.44,278.86165476763733 93.44,557.4013538584364 84.44,557.4013538584364L84.44,559.967362985957C93.44,559.967362985957 93.44,281.42766389515793 102.44,281.42766389515793Z" style="stroke: rgb(68, 68, 68); stroke-opacity: 1; fill: rgb(244, 67, 54); fill-opacity: 0.7; stroke-width: 0; opacity: 1;"/><path class="sankey-link" d="M102.44,199.54516986590005C93.44,199.54516986590005 93.44,553.2206570732903 84.44,553.2206570732903L84.44,557.4013538584366C93.44,557.4013538584366 93.44,203.72586665104615 102.44,203.72586665104615Z" style="stroke: rgb(68, 68, 68); stroke-opacity: 1; fill: rgb(244, 67, 54); fill-opacity: 0.7; stroke-width: 0; opacity: 1;"/><path class="sankey-link" d="M102.44,131.4895178470293C93.44,131.4895178470293 93.44,541.4483238765381 84.44,541.4483238765381L84.44,553.2206570732903C93.44,553.2206570732903 93.44,143.26185104378155 102.44,143.26185104378155Z" style="stroke: rgb(68, 68, 68); stroke-opacity: 1; fill: rgb(244, 67, 54); fill-opacity: 0.7; stroke-width: 0; opacity: 1;"/><path class="sankey-link" d="M102.44,487.55543447240274C93.44,487.55543447240274 93.44,560.3567504865727 84.44,560.3567504865727L84.44,567.0088189806048C93.44,567.0088189806048 93.44,494.2075029664348 102.44,494.2075029664348Z" style="stroke: rgb(68, 68, 68); stroke-opacity: 1; fill: rgb(244, 67, 54); fill-opacity: 0.7; stroke-width: 0; opacity: 1;"/><path class="sankey-link" d="M273.74666666666667,260.8187031829181C350.4,260.8187031829181 350.4,172.56422249554083 427.05333333333334,172.56422249554083L427.05333333333334,188.98102291191736C350.4,188.98102291191736 350.4,277.23550359929465 273.74666666666667,277.23550359929465Z" style="stroke: rgb(68, 68, 68); stroke-opacity: 1; fill: rgb(76, 175, 80); fill-opacity: 0.65; stroke-width: 0; opacity: 1;"/><path class="sankey-link" d="M273.74666666666667,259.7651533164733C350.4,259.7651533164733 350.4,92.85131686904445 427.05333333333334,92.85131686904445L427.05333333333334,93.9048667354893C350.4,93.9048667354893 350.4,260.81870318291817 273.74666666666667,260.81870318291817Z" style="stroke: rgb(68, 68, 68); stroke-opacity: 1; fill: rgb(76, 175, 80); fill-opacity: 0.65; stroke-width: 0; opacity: 1;"/><path class="sankey-link" d="M273.74666666666667,283.2564008677883C264.7894933333333,283.2564008677883 264.7894933333333,646.8486496920287 255.83232000000004,646.8486496920287L255.83232000000004,647.5985240791957C264.7894933333333,647.5985240791957 264.7894933333333,284.00627525495514 273.74666666666667,284.00627525495514Z" style="stroke: rgb(76, 175, 80); stroke-opacity: 0.65; fill: rgb(76, 175, 80); fill-opacity: 0.65; stroke-width: 1; opacity: 1;"/><path class="sankey-link" d="M273.74666666666667,277.23550359929465C264.74666666666667,277.23550359929465 264.74666666666667,447.4580437189667 255.74666666666667,447.4580437189667L255.74666666666667,450.44244100224523C264.74666666666667,450.44244100224523 264.74666666666667,280.2199008825732 273.74666666666667,280.2199008825732Z" style="stroke: rgb(68, 68, 68); stroke-opacity: 1; fill: rgb(76, 175, 80); fill-opacity: 0.65; stroke-width: 0; opacity: 1;"/><path class="sankey-link" d="M273.74666666666667,173.5719867900291C350.4,173.5719867900291 350.4,163.87459066204852 427.05333333333334,163.87459066204852L427.05333333333334,172.56422249554086C350.4,172.56422249554086 350.4,182.26161862352143 273.74666666666667,182.26161862352143Z" style="stroke: rgb(68, 68, 68); stroke-opacity: 1; fill: rgb(76, 175, 80); fill-opacity: 0.65; stroke-width: 0; opacity: 1;"/><path class="sankey-link" d="M273.74666666666667,166.09385666241695C350.4,166.09385666241695 350.4,85.3731867414323 427.05333333333334,85.3731867414323L427.05333333333334,92.85131686904444C350.4,92.85131686904444 350.4,173.5719867900291 273.74666666666667,173.5719867900291Z" style="stroke: rgb(68, 68, 68); stroke-opacity: 1; fill: rgb(76, 175, 80); fill-opacity: 0.65; stroke-width: 0; opacity: 1;"/><path class="sankey-link" d="M273.74666666666667,187.05894033563794C264.7894933333333,187.05894033563794 264.7894933333333,644.4585895472266 255.83232000000004,644.4585895472266L255.83232000000004,646.8486496920287C264.7894933333333,646.8486496920287 264.7894933333333,189.44900048044013 273.74666666666667,189.44900048044013Z" style="stroke: rgb(68, 68, 68); stroke-opacity: 1; fill: rgb(76, 175, 80); fill-opacity: 0.65; stroke-width: 0; opacity: 1;"/><path class="sankey-link" d="M273.74666666666667,182.2616186235214C264.74666666666667,182.2616186235214 264.74666666666667,444.5372340355816 255.74666666666667,444.5372340355816L255.74666666666667,447.4580437189667C264.74666666666667,447.4580437189667 264.74666666666667,185.18242830690647 273.74666666666667,185.18242830690647Z" style="stroke: rgb(68, 68, 68); stroke-opacity: 1; fill: rgb(76, 175, 80); fill-opacity: 0.65; stroke-width: 0; opacity: 1;"/><path class="sankey-link" d="M273.74666666666667,56.57635713148179C350.4,56.57635713148179 350.4,159.86961003994912 427.05333333333334,159.86961003994912L427.05333333333334,163.87459066204855C350.4,163.87459066204855 350.4,60.5813377535812 273.74666666666667,60.5813377535812Z" style="stroke: rgb(68, 68, 68); stroke-opacity: 1; fill: rgb(76, 175, 80); fill-opacity: 0.65; stroke-width: 0; opacity: 1;"/><path class="sankey-link" d="M273.74666666666667,38.530464829746336C350.4,38.530464829746336 350.4,67.32729443969686 427.05333333333334,67.32729443969686L427.05333333333334,85.3731867414323C350.4,85.3731867414323 350.4,56.576357131481785 273.74666666666667,56.576357131481785Z" style="stroke: rgb(68, 68, 68); stroke-opacity: 1; fill: rgb(76, 175, 80); fill-opacity: 0.65; stroke-width: 0; opacity: 1;"/><path class="sankey-link" d="M273.74666666666667,84.31257393357957C264.7894933333333,84.31257393357957 264.7894933333333,599.9873425962664 255.83232000000004,599.9873425962664L255.83232000000004,644.4585895472264C264.7894933333333,644.4585895472264 264.7894933333333,128.78382088453967 273.74666666666667,128.78382088453967Z" style="stroke: rgb(68, 68, 68); stroke-opacity: 1; fill: rgb(76, 175, 80); fill-opacity: 0.65; stroke-width: 0; opacity: 1;"/><path class="sankey-link" d="M273.74666666666667,60.5813377535812C264.74666666666667,60.5813377535812 264.74666666666667,430.85830653319033 255.74666666666667,430.85830653319033L255.74666666666667,444.5372340355816C264.74666666666667,444.5372340355816 264.74666666666667,74.26026525597247 273.74666666666667,74.26026525597247Z" style="stroke: rgb(68, 68, 68); stroke-opacity: 1; fill: rgb(76, 175, 80); fill-opacity: 0.65; stroke-width: 0; opacity: 1;"/><path class="sankey-link" d="M102.52565333333332,536.0494203899805C264.7894933333333,536.0494203899805 264.7894933333333,188.98102291191736 427.05333333333334,188.98102291191736L427.05333333333334,190.09231892355774C264.7894933333333,190.09231892355774 264.7894933333333,537.1607164016209 102.52565333333332,537.1607164016209Z" style="stroke: rgb(68, 68, 68); stroke-opacity: 1; fill: rgb(76, 175, 80); fill-opacity: 0.65; stroke-width: 0; opacity: 1;"/><path class="sankey-link" d="M102.52565333333332,533.5977159380298C264.7894933333333,533.5977159380298 264.7894933333333,93.9048667354893 427.05333333333334,93.9048667354893L427.05333333333334,96.35657118744005C264.7894933333333,96.35657118744005 264.7894933333333,536.0494203899805 102.52565333333332,536.0494203899805Z" style="stroke: rgb(68, 68, 68); stroke-opacity: 1; fill: rgb(76, 175, 80); fill-opacity: 0.65; stroke-width: 0; opacity: 1;"/><path class="sankey-link" d="M102.52565333333332,727.433274216183C179.17898666666667,727.433274216183 179.17898666666667,647.5985240791956 255.83232000000004,647.5985240791956L255.83232000000004,683.2532482106976C179.17898666666667,683.2532482106976 179.17898666666667,763.087998347685 102.52565333333332,763.087998347685Z" style="stroke: rgb(68, 68, 68); stroke-opacity: 1; fill: rgb(76, 175, 80); fill-opacity: 0.65; stroke-width: 0; opacity: 1;"/><path class="sankey-link" d="M102.52565333333332,537.1607164016209C179.13616,537.1607164016209 179.13616,450.44244100224523 255.74666666666667,450.44244100224523L255.74666666666667,620.23244308417C179.13616,620.23244308417 179.13616,706.9507184835456 102.52565333333332,706.9507184835456Z" style="stroke: rgb(68, 68, 68); stroke-opacity: 1; fill: rgb(76, 175, 80); fill-opacity: 0.65; stroke-width: 0; opacity: 1;"/><path class="sankey-link" d="M273.74666666666667,280.2199008825732C264.74666666666667,280.2199008825732 264.74666666666667,454.00212159507157 255.74666666666667,454.00212159507157L255.74666666666667,457.03862158028664C264.74666666666667,457.03862158028664 264.74666666666667,283.2564008677883 273.74666666666667,283.2564008677883Z" style="stroke: rgb(68, 68, 68); stroke-opacity: 1; fill: rgb(244, 67, 54); fill-opacity: 0.7; stroke-width: 0; opacity: 1;"/><path class="sankey-link" d="M273.74666666666667,185.1824283069065C264.74666666666667,185.1824283069065 264.74666666666667,452.12560956634013 255.74666666666667,452.12560956634013L255.74666666666667,454.00212159507157C264.74666666666667,454.00212159507157 264.74666666666667,187.05894033563794 273.74666666666667,187.05894033563794Z" style="stroke: rgb(68, 68, 68); stroke-opacity: 1; fill: rgb(244, 67, 54); fill-opacity: 0.7; stroke-width: 0; opacity: 1;"/><path class="sankey-link" d="M273.74666666666667,74.26026525597247C264.74666666666667,74.26026525597247 264.74666666666667,442.07330088873306 255.74666666666667,442.07330088873306L255.74666666666667,452.1256095663402C264.74666666666667,452.1256095663402 264.74666666666667,84.31257393357957 273.74666666666667,84.31257393357957Z" style="stroke: rgb(68, 68, 68); stroke-opacity: 1; fill: rgb(244, 67, 54); fill-opacity: 0.7; stroke-width: 0; opacity: 1;"/><path class="sankey-link" d="M102.52565333333332,706.9507184835456C179.13616,706.9507184835456 179.13616,457.672714807201 255.74666666666667,457.672714807201L255.74666666666667,478.15527053983834C179.13616,478.15527053983834 179.13616,727.433274216183 102.52565333333332,727.433274216183Z" style="stroke: rgb(68, 68, 68); stroke-opacity: 1; fill: rgb(244, 67, 54); fill-opacity: 0.7; stroke-width: 0; opacity: 1;"/><path class="sankey-link" d="M273.74666666666667,365.6829533865428C264.74666666666667,365.6829533865428 264.74666666666667,457.03862158028664 255.74666666666667,457.03862158028664L255.74666666666667,457.67271480720103C264.74666666666667,457.67271480720103 264.74666666666667,366.3170466134572 273.74666666666667,366.3170466134572Z" style="stroke: rgb(244, 67, 54); stroke-opacity: 0.7; fill: rgb(244, 67, 54); fill-opacity: 0.7; stroke-width: 1; opacity: 1;"/><path class="sankey-link" d="M445.05333333333334,170.50223478388202C436.09616,170.50223478388202 436.09616,638.5480463975582 427.13898666666665,638.5480463975582L427.13898666666665,663.7190587165842C436.09616,663.7190587165842 436.09616,195.673247102908 445.05333333333334,195.673247102908Z" style="stroke: rgb(68, 68, 68); stroke-opacity: 1; fill: rgb(76, 175, 80); fill-opacity: 0.65; stroke-width: 0; opacity: 1;"/><path class="sankey-link" d="M445.05333333333334,166.77992774321356C436.05333333333334,166.77992774321356 436.05333333333334,550.5340892763909 427.05333333333334,550.5340892763909L427.05333333333334,554.2563963170594C436.05333333333334,554.2563963170594 436.05333333333334,170.50223478388202 445.05333333333334,170.50223478388202Z" style="stroke: rgb(68, 68, 68); stroke-opacity: 1; fill: rgb(76, 175, 80); fill-opacity: 0.65; stroke-width: 0; opacity: 1;"/><path class="sankey-link" d="M445.05333333333334,164.33209408119362C436.05333333333334,164.33209408119362 436.05333333333334,412.55134417706375 427.05333333333334,412.55134417706375L427.05333333333334,414.99917783908376C436.05333333333334,414.99917783908376 436.05333333333334,166.77992774321356 445.05333333333334,166.77992774321356Z" style="stroke: rgb(68, 68, 68); stroke-opacity: 1; fill: rgb(76, 175, 80); fill-opacity: 0.65; stroke-width: 0; opacity: 1;"/><path class="sankey-link" d="M445.05333333333334,163.59833690791365C436.05333333333334,163.59833690791365 436.05333333333334,259.203923335885 427.05333333333334,259.203923335885L427.05333333333334,259.937680509165C436.05333333333334,259.937680509165 436.05333333333334,164.33209408119362 445.05333333333334,164.33209408119362Z" style="stroke: rgb(76, 175, 80); stroke-opacity: 0.65; fill: rgb(76, 175, 80); fill-opacity: 0.65; stroke-width: 1; opacity: 1;"/><path class="sankey-link" d="M445.05333333333334,92.31918691420978C436.09616,92.31918691420978 436.09616,630.8802420371793 427.13898666666665,630.8802420371793L427.13898666666665,638.5480463975581C436.09616,638.5480463975581 436.09616,99.98699127458866 445.05333333333334,99.98699127458866Z" style="stroke: rgb(68, 68, 68); stroke-opacity: 1; fill: rgb(76, 175, 80); fill-opacity: 0.65; stroke-width: 0; opacity: 1;"/><path class="sankey-link" d="M445.05333333333334,75.20371994348724C436.05333333333334,75.20371994348724 436.05333333333334,533.4186223056684 427.05333333333334,533.4186223056684L427.05333333333334,550.5340892763909C436.05333333333334,550.5340892763909 436.05333333333334,92.31918691420978 445.05333333333334,92.31918691420978Z" style="stroke: rgb(68, 68, 68); stroke-opacity: 1; fill: rgb(76, 175, 80); fill-opacity: 0.65; stroke-width: 0; opacity: 1;"/><path class="sankey-link" d="M445.05333333333334,72.10396410926522C436.05333333333334,72.10396410926522 436.05333333333334,409.4515883428417 427.05333333333334,409.4515883428417L427.05333333333334,412.55134417706375C436.05333333333334,412.55134417706375 436.05333333333334,75.20371994348723 445.05333333333334,75.20371994348723Z" style="stroke: rgb(68, 68, 68); stroke-opacity: 1; fill: rgb(76, 175, 80); fill-opacity: 0.65; stroke-width: 0; opacity: 1;"/><path class="sankey-link" d="M445.05333333333334,69.32681581490526C436.05333333333334,69.32681581490526 436.05333333333334,256.42677504152505 427.05333333333334,256.42677504152505L427.05333333333334,259.20392333588495C436.05333333333334,259.20392333588495 436.05333333333334,72.10396410926522 445.05333333333334,72.10396410926522Z" style="stroke: rgb(68, 68, 68); stroke-opacity: 1; fill: rgb(76, 175, 80); fill-opacity: 0.65; stroke-width: 0; opacity: 1;"/><path class="sankey-link" d="M273.83232000000004,679.8355897140518C350.4428266666667,679.8355897140518 350.4428266666667,555.5257555036333 427.05333333333334,555.5257555036333L427.05333333333334,572.3885374790298C350.4428266666667,572.3885374790298 350.4428266666667,696.6983716894483 273.83232000000004,696.6983716894483Z" style="stroke: rgb(68, 68, 68); stroke-opacity: 1; fill: rgb(76, 175, 80); fill-opacity: 0.65; stroke-width: 0; opacity: 1;"/><path class="sankey-link" d="M273.83232000000004,625.3217090306484C350.4428266666667,625.3217090306484 350.4428266666667,449.3751408259558 427.05333333333334,449.3751408259558L427.05333333333334,503.88902150935917C350.4428266666667,503.88902150935917 350.4428266666667,679.8355897140518 273.83232000000004,679.8355897140518Z" style="stroke: rgb(68, 68, 68); stroke-opacity: 1; fill: rgb(76, 175, 80); fill-opacity: 0.65; stroke-width: 0; opacity: 1;"/><path class="sankey-link" d="M273.83232000000004,612.0208587621132C350.4428266666667,612.0208587621132 350.4428266666667,443.08136584745785 427.05333333333334,443.08136584745785L427.05333333333334,456.38221611599306C350.4428266666667,456.38221611599306 350.4428266666667,625.3217090306484 273.83232000000004,625.3217090306484Z" style="stroke: rgb(68, 68, 68); stroke-opacity: 1; fill: rgb(76, 175, 80); fill-opacity: 0.65; stroke-width: 0; opacity: 1;"/><path class="sankey-link" d="M273.74666666666667,676.8360612044095C350.44282666666663,676.8360612044095 350.44282666666663,663.7190587165842 427.13898666666665,663.7190587165842L427.13898666666665,664.4818338361274C350.44282666666663,664.4818338361274 350.44282666666663,677.5988363239527 273.74666666666667,677.5988363239527Z" style="stroke: rgb(76, 175, 80); stroke-opacity: 0.65; fill: rgb(76, 175, 80); fill-opacity: 0.65; stroke-width: 1; opacity: 1;"/><path class="sankey-link" d="M273.74666666666667,675.5667020178356C350.4,675.5667020178356 350.4,554.2563963170594 427.05333333333334,554.2563963170594L427.05333333333334,555.5257555036333C350.4,555.5257555036333 350.4,676.8360612044095 273.74666666666667,676.8360612044095Z" style="stroke: rgb(68, 68, 68); stroke-opacity: 1; fill: rgb(76, 175, 80); fill-opacity: 0.65; stroke-width: 0; opacity: 1;"/><path class="sankey-link" d="M273.74666666666667,641.1907390309635C350.4,641.1907390309635 350.4,414.9991778390837 427.05333333333334,414.9991778390837L427.05333333333334,449.3751408259558C350.4,449.3751408259558 350.4,675.5667020178356 273.74666666666667,675.5667020178356Z" style="stroke: rgb(68, 68, 68); stroke-opacity: 1; fill: rgb(76, 175, 80); fill-opacity: 0.65; stroke-width: 0; opacity: 1;"/><path class="sankey-link" d="M273.74666666666667,458.0470536926706C350.4,458.0470536926706 350.4,259.9376805091649 427.05333333333334,259.9376805091649L427.05333333333334,443.08136584745785C350.4,443.08136584745785 350.4,641.1907390309635 273.74666666666667,641.1907390309635Z" style="stroke: rgb(68, 68, 68); stroke-opacity: 1; fill: rgb(76, 175, 80); fill-opacity: 0.65; stroke-width: 0; opacity: 1;"/><path class="sankey-link" d="M445.05333333333334,159.86961003994912C436.05333333333334,159.86961003994912 436.05333333333334,251.40997987667268 427.05333333333334,251.40997987667268L427.05333333333334,255.13870674463723C436.05333333333334,255.13870674463723 436.05333333333334,163.59833690791368 445.05333333333334,163.59833690791368Z" style="stroke: rgb(68, 68, 68); stroke-opacity: 1; fill: rgb(244, 67, 54); fill-opacity: 0.7; stroke-width: 0; opacity: 1;"/><path class="sankey-link" d="M445.05333333333334,67.32729443969686C436.05333333333334,67.32729443969686 436.05333333333334,249.4104585014643 427.05333333333334,249.4104585014643L427.05333333333334,251.4099798766727C436.05333333333334,251.4099798766727 436.05333333333334,69.32681581490525 445.05333333333334,69.32681581490525Z" style="stroke: rgb(68, 68, 68); stroke-opacity: 1; fill: rgb(244, 67, 54); fill-opacity: 0.7; stroke-width: 0; opacity: 1;"/><path class="sankey-link" d="M273.83232000000004,599.9873425962664C350.4428266666667,599.9873425962664 350.4428266666667,282.32745390411753 427.05333333333334,282.32745390411753L427.05333333333334,294.3609700699643C350.4428266666667,294.3609700699643 350.4428266666667,612.0208587621132 273.83232000000004,612.0208587621132Z" style="stroke: rgb(68, 68, 68); stroke-opacity: 1; fill: rgb(244, 67, 54); fill-opacity: 0.7; stroke-width: 0; opacity: 1;"/><path class="sankey-link" d="M273.74666666666667,430.85830653319033C350.4,430.85830653319033 350.4,255.13870674463718 427.05333333333334,255.13870674463718L427.05333333333334,282.3274539041175C350.4,282.3274539041175 350.4,458.0470536926706 273.74666666666667,458.0470536926706Z" style="stroke: rgb(68, 68, 68); stroke-opacity: 1; fill: rgb(244, 67, 54); fill-opacity: 0.7; stroke-width: 0; opacity: 1;"/><path class="sankey-link" d="M445.13898666666665,641.8704469685008C521.7494933333334,641.8704469685008 521.7494933333334,549.041468193196 598.36,549.041468193196L598.36,572.9764934732306C521.7494933333334,572.9764934732306 521.7494933333334,665.8054722485354 445.13898666666665,665.8054722485354Z" style="stroke: rgb(68, 68, 68); stroke-opacity: 1; fill: rgb(76, 175, 80); fill-opacity: 0.65; stroke-width: 0; opacity: 1;"/><path class="sankey-link" d="M445.13898666666665,637.7294132059034C521.7494933333334,637.7294132059034 521.7494933333334,472.4376031455065 598.36,472.4376031455065L598.36,476.57863690810393C521.7494933333334,476.57863690810393 521.7494933333334,641.8704469685007 445.13898666666665,641.8704469685007Z" style="stroke: rgb(68, 68, 68); stroke-opacity: 1; fill: rgb(76, 175, 80); fill-opacity: 0.65; stroke-width: 0; opacity: 1;"/><path class="sankey-link" d="M445.13898666666665,636.6773261479005C521.7494933333334,636.6773261479005 521.7494933333334,411.36570831085817 598.36,411.36570831085817L598.36,412.417795368861C521.7494933333334,412.417795368861 521.7494933333334,637.7294132059034 445.13898666666665,637.7294132059034Z" style="stroke: rgb(68, 68, 68); stroke-opacity: 1; fill: rgb(76, 175, 80); fill-opacity: 0.65; stroke-width: 0; opacity: 1;"/><path class="sankey-link" d="M445.13898666666665,636.2915556504054C521.7494933333334,636.2915556504054 521.7494933333334,333.6571103998727 598.36,333.6571103998727L598.36,334.04288089736787C521.7494933333334,334.04288089736787 521.7494933333334,636.6773261479004 445.13898666666665,636.6773261479004Z" style="stroke: rgb(76, 175, 80); stroke-opacity: 0.65; fill: rgb(76, 175, 80); fill-opacity: 0.65; stroke-width: 1; opacity: 1;"/><path class="sankey-link" d="M445.05333333333334,565.2011486205167C521.7066666666667,565.2011486205167 521.7066666666667,539.2040962622378 598.36,539.2040962622378L598.36,549.041468193196C521.7066666666667,549.041468193196 521.7066666666667,575.0385205514749 445.05333333333334,575.0385205514749Z" style="stroke: rgb(68, 68, 68); stroke-opacity: 1; fill: rgb(76, 175, 80); fill-opacity: 0.65; stroke-width: 0; opacity: 1;"/><path class="sankey-link" d="M445.05333333333334,545.9767036466978C521.7066666666667,545.9767036466978 521.7066666666667,453.2131581716876 598.36,453.2131581716876L598.36,472.4376031455065C521.7066666666667,472.4376031455065 521.7066666666667,565.2011486205167 445.05333333333334,565.2011486205167Z" style="stroke: rgb(68, 68, 68); stroke-opacity: 1; fill: rgb(76, 175, 80); fill-opacity: 0.65; stroke-width: 0; opacity: 1;"/><path class="sankey-link" d="M445.05333333333334,541.4815335339711C521.7066666666667,541.4815335339711 521.7066666666667,406.8705381981314 598.36,406.8705381981314L598.36,411.36570831085817C521.7066666666667,411.36570831085817 521.7066666666667,545.9767036466978 445.05333333333334,545.9767036466978Z" style="stroke: rgb(68, 68, 68); stroke-opacity: 1; fill: rgb(76, 175, 80); fill-opacity: 0.65; stroke-width: 0; opacity: 1;"/><path class="sankey-link" d="M445.05333333333334,538.6352220288886C521.7066666666667,538.6352220288886 521.7066666666667,330.8107988947903 598.36,330.8107988947903L598.36,333.65711039987275C521.7066666666667,333.65711039987275 521.7066666666667,541.4815335339711 445.05333333333334,541.4815335339711Z" style="stroke: rgb(68, 68, 68); stroke-opacity: 1; fill: rgb(76, 175, 80); fill-opacity: 0.65; stroke-width: 0; opacity: 1;"/><path class="sankey-link" d="M445.05333333333334,506.7769393509443C521.7066666666667,506.7769393509443 521.7066666666667,535.2040525274529 598.36,535.2040525274529L598.36,539.204096262238C521.7066666666667,539.204096262238 521.7066666666667,510.7769830857293 445.05333333333334,510.7769830857293Z" style="stroke: rgb(68, 68, 68); stroke-opacity: 1; fill: rgb(76, 175, 80); fill-opacity: 0.65; stroke-width: 0; opacity: 1;"/><path class="sankey-link" d="M445.05333333333334,498.07083986969485C521.7066666666667,498.07083986969485 521.7066666666667,444.50705869043816 598.36,444.50705869043816L598.36,453.2131581716876C521.7066666666667,453.2131581716876 521.7066666666667,506.7769393509443 445.05333333333334,506.7769393509443Z" style="stroke: rgb(68, 68, 68); stroke-opacity: 1; fill: rgb(76, 175, 80); fill-opacity: 0.65; stroke-width: 0; opacity: 1;"/><path class="sankey-link" d="M445.05333333333334,444.76567733027235C521.7066666666667,444.76567733027235 521.7066666666667,353.56537565870883 598.36,353.56537565870883L598.36,406.8705381981314C521.7066666666667,406.8705381981314 521.7066666666667,498.0708398696949 445.05333333333334,498.0708398696949Z" style="stroke: rgb(68, 68, 68); stroke-opacity: 1; fill: rgb(76, 175, 80); fill-opacity: 0.65; stroke-width: 0; opacity: 1;"/><path class="sankey-link" d="M445.05333333333334,433.651112280493C521.7066666666667,433.651112280493 521.7066666666667,319.69623384501097 598.36,319.69623384501097L598.36,330.8107988947903C521.7066666666667,330.8107988947903 521.7066666666667,444.76567733027235 445.05333333333334,444.76567733027235Z" style="stroke: rgb(68, 68, 68); stroke-opacity: 1; fill: rgb(76, 175, 80); fill-opacity: 0.65; stroke-width: 0; opacity: 1;"/><path class="sankey-link" d="M445.05333333333334,475.0806686964541C521.7494933333334,475.0806686964541 521.7494933333334,648.0965790118468 598.4456533333334,648.0965790118468L598.4456533333334,648.5891352738676C521.7494933333334,648.5891352738676 521.7494933333334,475.5732249584748 445.05333333333334,475.5732249584748Z" style="stroke: rgb(76, 175, 80); stroke-opacity: 0.65; fill: rgb(76, 175, 80); fill-opacity: 0.65; stroke-width: 1; opacity: 1;"/><path class="sankey-link" d="M445.05333333333334,473.6883477594315C521.7066666666667,473.6883477594315 521.7066666666667,533.8117315904303 598.36,533.8117315904303L598.36,535.2040525274529C521.7066666666667,535.2040525274529 521.7066666666667,475.08066869645404 445.05333333333334,475.08066869645404Z" style="stroke: rgb(68, 68, 68); stroke-opacity: 1; fill: rgb(76, 175, 80); fill-opacity: 0.65; stroke-width: 0; opacity: 1;"/><path class="sankey-link" d="M445.05333333333334,471.74181837219425C521.7066666666667,471.74181837219425 521.7066666666667,442.5605293032009 598.36,442.5605293032009L598.36,444.5070586904381C521.7066666666667,444.5070586904381 521.7066666666667,473.68834775943145 445.05333333333334,473.68834775943145Z" style="stroke: rgb(68, 68, 68); stroke-opacity: 1; fill: rgb(76, 175, 80); fill-opacity: 0.65; stroke-width: 0; opacity: 1;"/><path class="sankey-link" d="M445.05333333333334,433.36382974807356C521.7066666666667,433.36382974807356 521.7066666666667,315.18738703458814 598.36,315.18738703458814L598.36,353.56537565870883C521.7066666666667,353.56537565870883 521.7066666666667,471.74181837219425 445.05333333333334,471.74181837219425Z" style="stroke: rgb(68, 68, 68); stroke-opacity: 1; fill: rgb(76, 175, 80); fill-opacity: 0.65; stroke-width: 0; opacity: 1;"/><path class="sankey-link" d="M445.05333333333334,315.9798570424922C521.7066666666667,315.9798570424922 521.7066666666667,202.31226113942964 598.36,202.31226113942964L598.36,319.696233845011C521.7066666666667,319.696233845011 521.7066666666667,433.3638297480736 445.05333333333334,433.3638297480736Z" style="stroke: rgb(68, 68, 68); stroke-opacity: 1; fill: rgb(76, 175, 80); fill-opacity: 0.65; stroke-width: 0; opacity: 1;"/><path class="sankey-link" d="M616.36,83.49998736832924C607.36,83.49998736832924 607.36,314.87307605696094 598.36,314.87307605696094L598.36,315.18738703458814C607.36,315.18738703458814 607.36,83.81429834595644 616.36,83.81429834595644Z" style="stroke: rgb(76, 175, 80); stroke-opacity: 0.65; fill: rgb(76, 175, 80); fill-opacity: 0.65; stroke-width: 1; opacity: 1;"/><path class="sankey-link" d="M445.13898666666665,630.8802420371793C521.7494933333334,630.8802420371793 521.7494933333334,219.5503745957348 598.36,219.5503745957348L598.36,224.96168820896088C521.7494933333334,224.96168820896088 521.7494933333334,636.2915556504055 445.13898666666665,636.2915556504055Z" style="stroke: rgb(68, 68, 68); stroke-opacity: 1; fill: rgb(244, 67, 54); fill-opacity: 0.7; stroke-width: 0; opacity: 1;"/><path class="sankey-link" d="M445.05333333333334,533.4186223056684C521.7066666666667,533.4186223056684 521.7066666666667,214.33377487251454 598.36,214.33377487251454L598.36,219.5503745957348C521.7066666666667,219.5503745957348 521.7066666666667,538.6352220288886 445.05333333333334,538.6352220288886Z" style="stroke: rgb(68, 68, 68); stroke-opacity: 1; fill: rgb(244, 67, 54); fill-opacity: 0.7; stroke-width: 0; opacity: 1;"/><path class="sankey-link" d="M445.05333333333334,409.4515883428417C521.7066666666667,409.4515883428417 521.7066666666667,190.13425093486325 598.36,190.13425093486325L598.36,214.33377487251454C521.7066666666667,214.33377487251454 521.7066666666667,433.651112280493 445.05333333333334,433.651112280493Z" style="stroke: rgb(68, 68, 68); stroke-opacity: 1; fill: rgb(244, 67, 54); fill-opacity: 0.7; stroke-width: 0; opacity: 1;"/><path class="sankey-link" d="M445.05333333333334,256.42677504152505C521.7066666666667,256.42677504152505 521.7066666666667,130.5811689338961 598.36,130.5811689338961L598.36,190.13425093486325C521.7066666666667,190.13425093486325 521.7066666666667,315.9798570424922 445.05333333333334,315.9798570424922Z" style="stroke: rgb(68, 68, 68); stroke-opacity: 1; fill: rgb(244, 67, 54); fill-opacity: 0.7; stroke-width: 0; opacity: 1;"/><path class="sankey-link" d="M616.4456533333334,648.0965790118468C693.0561600000001,648.0965790118468 693.0561600000001,479.82831195767034 769.6666666666666,479.82831195767034L769.6666666666666,480.299942279821C693.0561600000001,480.299942279821 693.0561600000001,648.5682093339973 616.4456533333334,648.5682093339973Z" style="stroke: rgb(76, 175, 80); stroke-opacity: 0.65; fill: rgb(76, 175, 80); fill-opacity: 0.65; stroke-width: 1; opacity: 1;"/><path class="sankey-link" d="M616.36,546.2890787189039C693.0133333333333,546.2890787189039 693.0133333333333,451.4719794098618 769.6666666666666,451.4719794098618L769.6666666666666,479.8283119576704C693.0133333333333,479.8283119576704 693.0133333333333,574.6454112667124 616.36,574.6454112667124Z" style="stroke: rgb(68, 68, 68); stroke-opacity: 1; fill: rgb(76, 175, 80); fill-opacity: 0.65; stroke-width: 0; opacity: 1;"/><path class="sankey-link" d="M616.36,545.7587074239991C693.0133333333333,545.7587074239991 693.0133333333333,378.3239711215771 769.6666666666666,378.3239711215771L769.6666666666666,378.8543424164818C693.0133333333333,378.8543424164818 693.0133333333333,546.289078718904 616.36,546.289078718904Z" style="stroke: rgb(76, 175, 80); stroke-opacity: 0.65; fill: rgb(76, 175, 80); fill-opacity: 0.65; stroke-width: 1; opacity: 1;"/><path class="sankey-link" d="M616.36,542.710833253432C693.0133333333333,542.710833253432 693.0133333333333,305.1216927871613 769.6666666666666,305.1216927871613L769.6666666666666,308.16956695772836C693.0133333333333,308.16956695772836 693.0133333333333,545.7587074239992 616.36,545.7587074239992Z" style="stroke: rgb(68, 68, 68); stroke-opacity: 1; fill: rgb(76, 175, 80); fill-opacity: 0.65; stroke-width: 0; opacity: 1;"/><path class="sankey-link" d="M616.36,541.6978621414851C693.0133333333333,541.6978621414851 693.0133333333333,212.6653803904153 769.6666666666666,212.6653803904153L769.6666666666666,213.67835150236226C693.0133333333333,213.67835150236226 693.0133333333333,542.7108332534322 616.36,542.7108332534322Z" style="stroke: rgb(68, 68, 68); stroke-opacity: 1; fill: rgb(76, 175, 80); fill-opacity: 0.65; stroke-width: 0; opacity: 1;"/><path class="sankey-link" d="M616.36,476.1212687308622C693.0133333333333,476.1212687308622 693.0133333333333,553.684826034795 769.6666666666666,553.684826034795L769.6666666666666,555.2315994293034C693.0133333333333,555.2315994293034 693.0133333333333,477.66804212537056 616.36,477.66804212537056Z" style="stroke: rgb(68, 68, 68); stroke-opacity: 1; fill: rgb(76, 175, 80); fill-opacity: 0.65; stroke-width: 0; opacity: 1;"/><path class="sankey-link" d="M616.36,468.4401658589067C693.0133333333333,468.4401658589067 693.0133333333333,443.7908765379063 769.6666666666666,443.7908765379063L769.6666666666666,451.4719794098617C693.0133333333333,451.4719794098617 693.0133333333333,476.12126873086214 616.36,476.12126873086214Z" style="stroke: rgb(68, 68, 68); stroke-opacity: 1; fill: rgb(76, 175, 80); fill-opacity: 0.65; stroke-width: 0; opacity: 1;"/><path class="sankey-link" d="M616.36,452.6777760681959C693.0133333333333,452.6777760681959 693.0133333333333,362.56158133086626 769.6666666666666,362.56158133086626L769.6666666666666,378.3239711215771C693.0133333333333,378.3239711215771 693.0133333333333,468.4401658589067 616.36,468.4401658589067Z" style="stroke: rgb(68, 68, 68); stroke-opacity: 1; fill: rgb(76, 175, 80); fill-opacity: 0.65; stroke-width: 0; opacity: 1;"/><path class="sankey-link" d="M616.36,449.71504369381216C693.0133333333333,449.71504369381216 693.0133333333333,302.15896041277756 769.6666666666666,302.15896041277756L769.6666666666666,305.12169278716124C693.0133333333333,305.12169278716124 693.0133333333333,452.67777606819584 616.36,452.67777606819584Z" style="stroke: rgb(68, 68, 68); stroke-opacity: 1; fill: rgb(76, 175, 80); fill-opacity: 0.65; stroke-width: 0; opacity: 1;"/><path class="sankey-link" d="M616.36,448.5809735619464C693.0133333333333,448.5809735619464 693.0133333333333,211.53131025854952 769.6666666666666,211.53131025854952L769.6666666666666,212.6653803904153C693.0133333333333,212.6653803904153 693.0133333333333,449.71504369381216 616.36,449.71504369381216Z" style="stroke: rgb(68, 68, 68); stroke-opacity: 1; fill: rgb(76, 175, 80); fill-opacity: 0.65; stroke-width: 0; opacity: 1;"/><path class="sankey-link" d="M616.36,414.6645591470446C693.0133333333333,414.6645591470446 693.0133333333333,441.32851174191194 769.6666666666666,441.32851174191194L769.6666666666666,443.79087653790634C693.0133333333333,443.79087653790634 693.0133333333333,417.126923943039 616.36,417.126923943039Z" style="stroke: rgb(68, 68, 68); stroke-opacity: 1; fill: rgb(76, 175, 80); fill-opacity: 0.65; stroke-width: 0; opacity: 1;"/><path class="sankey-link" d="M616.36,405.24863539969647C693.0133333333333,405.24863539969647 693.0133333333333,353.14565758351813 769.6666666666666,353.14565758351813L769.6666666666666,362.5615813308663C693.0133333333333,362.5615813308663 693.0133333333333,414.66455914704466 616.36,414.66455914704466Z" style="stroke: rgb(68, 68, 68); stroke-opacity: 1; fill: rgb(76, 175, 80); fill-opacity: 0.65; stroke-width: 0; opacity: 1;"/><path class="sankey-link" d="M616.36,358.25587092035437C693.0133333333333,358.25587092035437 693.0133333333333,255.16619593343546 769.6666666666666,255.16619593343546L769.6666666666666,302.15896041277756C693.0133333333333,302.15896041277756 693.0133333333333,405.24863539969647 616.36,405.24863539969647Z" style="stroke: rgb(68, 68, 68); stroke-opacity: 1; fill: rgb(76, 175, 80); fill-opacity: 0.65; stroke-width: 0; opacity: 1;"/><path class="sankey-link" d="M616.36,351.8814343408121C693.0133333333333,351.8814343408121 693.0133333333333,205.15687367900728 769.6666666666666,205.15687367900728L769.6666666666666,211.53131025854952C693.0133333333333,211.53131025854952 693.0133333333333,358.25587092035437 616.36,358.25587092035437Z" style="stroke: rgb(68, 68, 68); stroke-opacity: 1; fill: rgb(76, 175, 80); fill-opacity: 0.65; stroke-width: 0; opacity: 1;"/><path class="sankey-link" d="M616.36,340.9998848250432C693.0133333333333,340.9998848250432 693.0133333333333,553.2255434278393 769.6666666666666,553.2255434278393L769.6666666666666,553.6848260347949C693.0133333333333,553.6848260347949 693.0133333333333,341.45916743199894 616.36,341.45916743199894Z" style="stroke: rgb(76, 175, 80); stroke-opacity: 0.65; fill: rgb(76, 175, 80); fill-opacity: 0.65; stroke-width: 1; opacity: 1;"/><path class="sankey-link" d="M616.36,339.6000022318818C693.0133333333333,339.6000022318818 693.0133333333333,439.92862914875053 769.6666666666666,439.92862914875053L769.6666666666666,441.3285117419119C693.0133333333333,441.3285117419119 693.0133333333333,340.9998848250431 616.36,340.9998848250431Z" style="stroke: rgb(68, 68, 68); stroke-opacity: 1; fill: rgb(76, 175, 80); fill-opacity: 0.65; stroke-width: 0; opacity: 1;"/><path class="sankey-link" d="M616.36,320.03566791214655C693.0133333333333,320.03566791214655 693.0133333333333,235.60186161370027 769.6666666666666,235.60186161370027L769.6666666666666,255.1661959334355C693.0133333333333,255.1661959334355 693.0133333333333,339.60000223188183 616.36,339.60000223188183Z" style="stroke: rgb(68, 68, 68); stroke-opacity: 1; fill: rgb(76, 175, 80); fill-opacity: 0.65; stroke-width: 0; opacity: 1;"/><path class="sankey-link" d="M616.36,256.7432998736341C693.0133333333333,256.7432998736341 693.0133333333333,141.86450564049483 769.6666666666666,141.86450564049483L769.6666666666666,205.15687367900728C693.0133333333333,205.15687367900728 693.0133333333333,320.03566791214655 616.36,320.03566791214655Z" style="stroke: rgb(68, 68, 68); stroke-opacity: 1; fill: rgb(76, 175, 80); fill-opacity: 0.65; stroke-width: 0; opacity: 1;"/><path class="sankey-link" d="M616.36,533.8117315904303C693.0133333333333,533.8117315904303 693.0133333333333,128.44399822001606 769.6666666666666,128.44399822001606L769.6666666666666,136.3301287710708C693.0133333333333,136.3301287710708 693.0133333333333,541.6978621414851 616.36,541.6978621414851Z" style="stroke: rgb(68, 68, 68); stroke-opacity: 1; fill: rgb(244, 67, 54); fill-opacity: 0.7; stroke-width: 0; opacity: 1;"/><path class="sankey-link" d="M616.36,442.5605293032009C693.0133333333333,442.5605293032009 693.0133333333333,122.42355396127056 769.6666666666666,122.42355396127056L769.6666666666666,128.44399822001606C693.0133333333333,128.44399822001606 693.0133333333333,448.58097356194634 616.36,448.58097356194634Z" style="stroke: rgb(68, 68, 68); stroke-opacity: 1; fill: rgb(244, 67, 54); fill-opacity: 0.7; stroke-width: 0; opacity: 1;"/><path class="sankey-link" d="M616.36,314.87307605696094C693.0133333333333,314.87307605696094 693.0133333333333,85.41519567741936 769.6666666666666,85.41519567741936L769.6666666666666,122.42355396127054C693.0133333333333,122.42355396127054 693.0133333333333,351.8814343408121 616.36,351.8814343408121Z" style="stroke: rgb(68, 68, 68); stroke-opacity: 1; fill: rgb(244, 67, 54); fill-opacity: 0.7; stroke-width: 0; opacity: 1;"/><path class="sankey-link" d="M616.36,202.3122611394296C693.0133333333333,202.3122611394296 693.0133333333333,30.984156943214884 769.6666666666666,30.984156943214884L769.6666666666666,85.41519567741936C693.0133333333333,85.41519567741936 693.0133333333333,256.7432998736341 616.36,256.7432998736341Z" style="stroke: rgb(68, 68, 68); stroke-opacity: 1; fill: rgb(244, 67, 54); fill-opacity: 0.7; stroke-width: 0; opacity: 1;"/><path class="sankey-link" d="M787.6666666666666,553.2255434278393C864.3199999999999,553.2255434278393 864.3199999999999,553.7163561262423 940.9733333333334,553.7163561262423L940.9733333333334,555.6238938043566C864.3199999999999,555.6238938043566 864.3199999999999,555.1330811059536 787.6666666666666,555.1330811059536Z" style="stroke: rgb(68, 68, 68); stroke-opacity: 1; fill: rgb(76, 175, 80); fill-opacity: 0.65; stroke-width: 0; opacity: 1;"/><path class="sankey-link" d="M787.6666666666666,478.10250440263894C864.3199999999999,478.10250440263894 864.3199999999999,553.2869993663558 940.9733333333334,553.2869993663558L940.9733333333334,553.7163561262423C864.3199999999999,553.7163561262423 864.3199999999999,478.5318611625255 787.6666666666666,478.5318611625255Z" style="stroke: rgb(76, 175, 80); stroke-opacity: 0.65; fill: rgb(76, 175, 80); fill-opacity: 0.65; stroke-width: 1; opacity: 1;"/><path class="sankey-link" d="M787.6666666666666,448.2238154694466C864.3199999999999,448.2238154694466 864.3199999999999,446.33562726715735 940.9733333333334,446.33562726715735L940.9733333333334,476.21431620034974C864.3199999999999,476.21431620034974 864.3199999999999,478.102504402639 787.6666666666666,478.102504402639Z" style="stroke: rgb(68, 68, 68); stroke-opacity: 1; fill: rgb(76, 175, 80); fill-opacity: 0.65; stroke-width: 0; opacity: 1;"/><path class="sankey-link" d="M787.6666666666666,447.09538017452707C864.3199999999999,447.09538017452707 864.3199999999999,377.5909174632802 940.9733333333334,377.5909174632802L940.9733333333334,378.71935275819976C864.3199999999999,378.71935275819976 864.3199999999999,448.2238154694466 787.6666666666666,448.2238154694466Z" style="stroke: rgb(68, 68, 68); stroke-opacity: 1; fill: rgb(76, 175, 80); fill-opacity: 0.65; stroke-width: 0; opacity: 1;"/><path class="sankey-link" d="M787.6666666666666,444.84300578779863C864.3199999999999,444.84300578779863 864.3199999999999,299.2099278673205 940.9733333333334,299.2099278673205L940.9733333333334,301.46230225404895C864.3199999999999,301.46230225404895 864.3199999999999,447.09538017452707 787.6666666666666,447.09538017452707Z" style="stroke: rgb(68, 68, 68); stroke-opacity: 1; fill: rgb(76, 175, 80); fill-opacity: 0.65; stroke-width: 0; opacity: 1;"/><path class="sankey-link" d="M787.6666666666666,443.860287696164C864.3199999999999,443.860287696164 864.3199999999999,203.13698334156715 940.9733333333334,203.13698334156715L940.9733333333334,204.11970143320178C864.3199999999999,204.11970143320178 864.3199999999999,444.84300578779863 787.6666666666666,444.84300578779863Z" style="stroke: rgb(76, 175, 80); stroke-opacity: 0.65; fill: rgb(76, 175, 80); fill-opacity: 0.65; stroke-width: 1; opacity: 1;"/><path class="sankey-link" d="M787.6666666666666,374.55625691319693C864.3199999999999,374.55625691319693 864.3199999999999,444.01425522822205 940.9733333333334,444.01425522822205L940.9733333333334,446.3356272671573C864.3199999999999,446.3356272671573 864.3199999999999,376.87762895213217 787.6666666666666,376.87762895213217Z" style="stroke: rgb(68, 68, 68); stroke-opacity: 1; fill: rgb(76, 175, 80); fill-opacity: 0.65; stroke-width: 0; opacity: 1;"/><path class="sankey-link" d="M787.6666666666666,358.36823322857276C864.3199999999999,358.36823322857276 864.3199999999999,361.40289377865605 940.9733333333334,361.40289377865605L940.9733333333334,377.59091746328016C864.3199999999999,377.59091746328016 864.3199999999999,374.5562569131969 787.6666666666666,374.5562569131969Z" style="stroke: rgb(68, 68, 68); stroke-opacity: 1; fill: rgb(76, 175, 80); fill-opacity: 0.65; stroke-width: 0; opacity: 1;"/><path class="sankey-link" d="M787.6666666666666,356.96483605132426C864.3199999999999,356.96483605132426 864.3199999999999,297.806530690072 940.9733333333334,297.806530690072L940.9733333333334,299.2099278673205C864.3199999999999,299.2099278673205 864.3199999999999,358.36823322857276 787.6666666666666,358.36823322857276Z" style="stroke: rgb(68, 68, 68); stroke-opacity: 1; fill: rgb(76, 175, 80); fill-opacity: 0.65; stroke-width: 0; opacity: 1;"/><path class="sankey-link" d="M787.6666666666666,297.77034056033176C864.3199999999999,297.77034056033176 864.3199999999999,353.58088621782986 940.9733333333334,353.58088621782986L940.9733333333334,361.402893778656C864.3199999999999,361.402893778656 864.3199999999999,305.5923481211579 787.6666666666666,305.5923481211579Z" style="stroke: rgb(68, 68, 68); stroke-opacity: 1; fill: rgb(76, 175, 80); fill-opacity: 0.65; stroke-width: 0; opacity: 1;"/><path class="sankey-link" d="M787.6666666666666,251.3886697534233C864.3199999999999,251.3886697534233 864.3199999999999,251.42485988316355 940.9733333333334,251.42485988316355L940.9733333333334,297.806530690072C864.3199999999999,297.806530690072 864.3199999999999,297.77034056033176 787.6666666666666,297.77034056033176Z" style="stroke: rgb(68, 68, 68); stroke-opacity: 1; fill: rgb(76, 175, 80); fill-opacity: 0.65; stroke-width: 0; opacity: 1;"/><path class="sankey-link" d="M787.6666666666666,246.50643236469077C864.3199999999999,246.50643236469077 864.3199999999999,198.25474595283464 940.9733333333334,198.25474595283464L940.9733333333334,203.13698334156715C864.3199999999999,203.13698334156715 864.3199999999999,251.38866975342327 787.6666666666666,251.38866975342327Z" style="stroke: rgb(68, 68, 68); stroke-opacity: 1; fill: rgb(76, 175, 80); fill-opacity: 0.65; stroke-width: 0; opacity: 1;"/><path class="sankey-link" d="M787.6666666666666,212.5484512830795C864.3199999999999,212.5484512830795 864.3199999999999,552.8332490527863 940.9733333333334,552.8332490527863L940.9733333333334,553.2869993663559C864.3199999999999,553.2869993663559 864.3199999999999,213.002201596649 787.6666666666666,213.002201596649Z" style="stroke: rgb(76, 175, 80); stroke-opacity: 0.65; fill: rgb(76, 175, 80); fill-opacity: 0.65; stroke-width: 1; opacity: 1;"/><path class="sankey-link" d="M787.6666666666666,212.2482123070498C864.3199999999999,212.2482123070498 864.3199999999999,353.2806472418002 940.9733333333334,353.2806472418002L940.9733333333334,353.5808862178299C864.3199999999999,353.5808862178299 864.3199999999999,212.5484512830795 787.6666666666666,212.5484512830795Z" style="stroke: rgb(76, 175, 80); stroke-opacity: 0.65; fill: rgb(76, 175, 80); fill-opacity: 0.65; stroke-width: 1; opacity: 1;"/><path class="sankey-link" d="M787.6666666666666,202.82286969197378C864.3199999999999,202.82286969197378 864.3199999999999,241.99951726808752 940.9733333333334,241.99951726808752L940.9733333333334,251.42485988316355C864.3199999999999,251.42485988316355 864.3199999999999,212.2482123070498 787.6666666666666,212.2482123070498Z" style="stroke: rgb(68, 68, 68); stroke-opacity: 1; fill: rgb(76, 175, 80); fill-opacity: 0.65; stroke-width: 0; opacity: 1;"/><path class="sankey-link" d="M787.6666666666666,155.9912794487944C864.3199999999999,155.9912794487944 864.3199999999999,151.42315570965525 940.9733333333334,151.42315570965525L940.9733333333334,198.25474595283464C864.3199999999999,198.25474595283464 864.3199999999999,202.82286969197378 787.6666666666666,202.82286969197378Z" style="stroke: rgb(68, 68, 68); stroke-opacity: 1; fill: rgb(76, 175, 80); fill-opacity: 0.65; stroke-width: 0; opacity: 1;"/><path class="sankey-link" d="M787.75232,648.188052618211C864.3628266666667,648.188052618211 864.3628266666667,301.46230225404895 940.9733333333334,301.46230225404895L940.9733333333334,301.7719113033411C864.3628266666667,301.7719113033411 864.3628266666667,648.4976616675033 787.75232,648.4976616675033Z" style="stroke: rgb(76, 175, 80); stroke-opacity: 0.65; fill: rgb(76, 175, 80); fill-opacity: 0.65; stroke-width: 1; opacity: 1;"/><path class="sankey-link" d="M787.6666666666666,439.92862914875053C864.3199999999999,439.92862914875053 864.3199999999999,96.1165750969842 940.9733333333334,96.1165750969842L940.9733333333334,100.04823364439767C864.3199999999999,100.04823364439767 864.3199999999999,443.860287696164 787.6666666666666,443.860287696164Z" style="stroke: rgb(68, 68, 68); stroke-opacity: 1; fill: rgb(244, 67, 54); fill-opacity: 0.7; stroke-width: 0; opacity: 1;"/><path class="sankey-link" d="M787.6666666666666,353.14565758351813C864.3199999999999,353.14565758351813 864.3199999999999,92.29739662917805 940.9733333333334,92.29739662917805L940.9733333333334,96.1165750969842C864.3199999999999,96.1165750969842 864.3199999999999,356.9648360513243 787.6666666666666,356.9648360513243Z" style="stroke: rgb(68, 68, 68); stroke-opacity: 1; fill: rgb(244, 67, 54); fill-opacity: 0.7; stroke-width: 0; opacity: 1;"/><path class="sankey-link" d="M787.6666666666666,235.60186161370027C864.3199999999999,235.60186161370027 864.3199999999999,81.39282587818757 940.9733333333334,81.39282587818757L940.9733333333334,92.29739662917807C864.3199999999999,92.29739662917807 864.3199999999999,246.50643236469077 787.6666666666666,246.50643236469077Z" style="stroke: rgb(68, 68, 68); stroke-opacity: 1; fill: rgb(244, 67, 54); fill-opacity: 0.7; stroke-width: 0; opacity: 1;"/><path class="sankey-link" d="M787.6666666666666,141.86450564049483C864.3199999999999,141.86450564049483 864.3199999999999,67.26605206988802 940.9733333333334,67.26605206988802L940.9733333333334,81.39282587818758C864.3199999999999,81.39282587818758 864.3199999999999,155.9912794487944 787.6666666666666,155.9912794487944Z" style="stroke: rgb(68, 68, 68); stroke-opacity: 1; fill: rgb(244, 67, 54); fill-opacity: 0.7; stroke-width: 0; opacity: 1;"/></g><g class="sankey-node-set" style="cursor: default;"><g class="sankey-node" transform="translate(84.440,24.052)" style="opacity: 1;"><rect class="node-rect" width="18" height="119.20941637327746" style="stroke-width: 0.5; stroke: rgb(0, 0, 0); stroke-opacity: 0.3; fill: rgb(244, 67, 54); fill-opacity: 0.9;"/><text class="node-label" data-notex="1" x="0" y="0" text-anchor="start" transform="translate(21.25,63.804708186638734)" style="cursor: default; font-family: 'Open Sans', verdana, arial, sans-serif; font-size: 12px; fill: rgb(42, 63, 95); fill-opacity: 1; text-shadow: rgb(255, 255, 255) 1px 1px 1px, rgb(255, 255, 255) -1px -1px 1px, rgb(255, 255, 255) 1px -1px 1px, rgb(255, 255, 255) -1px 1px 1px; white-space: pre;">State 50%</text></g><g class="sankey-node" transform="translate(84.440,151.817)" style="opacity: 1;"><rect class="node-rect" width="18" height="51.90887615923566" style="stroke-width: 0.5; stroke: rgb(0, 0, 0); stroke-opacity: 0.3; fill: rgb(255, 193, 7); fill-opacity: 0.9;"/><text class="node-label" data-notex="1" x="0" y="0" text-anchor="start" transform="translate(21.25,30.15443807961783)" style="cursor: default; font-family: 'Open Sans', verdana, arial, sans-serif; font-size: 12px; fill: rgb(42, 63, 95); fill-opacity: 1; text-shadow: rgb(255, 255, 255) 1px 1px 1px, rgb(255, 255, 255) -1px -1px 1px, rgb(255, 255, 255) 1px -1px 1px, rgb(255, 255, 255) -1px 1px 1px; white-space: pre;">State 2050%</text></g><g class="sankey-node" transform="translate(84.440,262.344)" style="opacity: 1;"><rect class="node-rect" width="18" height="19.08389921888761" style="stroke-width: 0.5; stroke: rgb(0, 0, 0); stroke-opacity: 0.3; fill: rgb(0, 150, 136); fill-opacity: 0.9;"/><text class="node-label" data-notex="1" x="0" y="0" text-anchor="start" transform="translate(21.25,13.741949609443804)" style="cursor: default; font-family: 'Open Sans', verdana, arial, sans-serif; font-size: 12px; fill: rgb(42, 63, 95); fill-opacity: 1; text-shadow: rgb(255, 255, 255) 1px 1px 1px, rgb(255, 255, 255) -1px -1px 1px, rgb(255, 255, 255) 1px -1px 1px, rgb(255, 255, 255) -1px 1px 1px; white-space: pre;">State 1020%</text></g><g class="sankey-node" transform="translate(84.440,358.943)" style="opacity: 1;"><rect class="node-rect" width="18" height="14.11431149199575" style="stroke-width: 0.5; stroke: rgb(0, 0, 0); stroke-opacity: 0.3; fill: rgb(63, 81, 181); fill-opacity: 0.9;"/><text class="node-label" data-notex="1" x="0" y="0" text-anchor="start" transform="translate(21.25,11.257155745997874)" style="cursor: default; font-family: 'Open Sans', verdana, arial, sans-serif; font-size: 12px; fill: rgb(42, 63, 95); fill-opacity: 1; text-shadow: rgb(255, 255, 255) 1px 1px 1px, rgb(255, 255, 255) -1px -1px 1px, rgb(255, 255, 255) 1px -1px 1px, rgb(255, 255, 255) -1px 1px 1px; white-space: pre;">State 010%</text></g><g class="sankey-node" transform="translate(84.440,426.021)" style="opacity: 1;"><rect class="node-rect" width="18" height="68.18643450429875" style="stroke-width: 0.5; stroke: rgb(0, 0, 0); stroke-opacity: 0.3; fill: rgb(158, 158, 158); fill-opacity: 0.8;"/><text class="node-label" data-notex="1" x="0" y="0" text-anchor="start" transform="translate(21.25,38.293217252149375)" style="cursor: default; font-family: 'Open Sans', verdana, arial, sans-serif; font-size: 12px; fill: rgb(42, 63, 95); fill-opacity: 1; text-shadow: rgb(255, 255, 255) 1px 1px 1px, rgb(255, 255, 255) -1px -1px 1px, rgb(255, 255, 255) 1px -1px 1px, rgb(255, 255, 255) -1px 1px 1px; white-space: pre;">Unknown</text></g><g class="sankey-node" transform="translate(84.440,541.448)" style="opacity: 1;"><rect class="node-rect" width="18" height="25.560495104066604" style="stroke-width: 0.5; stroke: rgb(0, 0, 0); stroke-opacity: 0.3; fill: rgb(120, 120, 120); fill-opacity: 0.75;"/><text class="node-label" data-notex="1" x="0" y="0" text-anchor="start" transform="translate(21.25,16.9802475520333)" style="cursor: default; font-family: 'Open Sans', verdana, arial, sans-serif; font-size: 12px; fill: rgb(42, 63, 95); fill-opacity: 1; text-shadow: rgb(255, 255, 255) 1px 1px 1px, rgb(255, 255, 255) -1px -1px 1px, rgb(255, 255, 255) 1px -1px 1px, rgb(255, 255, 255) -1px 1px 1px; white-space: pre;">Exit</text></g><g class="sankey-node" transform="translate(84.526,533.598)" style="opacity: 1;"><rect class="node-rect" width="18" height="229.4902824096548" style="stroke-width: 0.5; stroke: rgb(0, 0, 0); stroke-opacity: 0.3; fill: rgb(244, 67, 54); fill-opacity: 0.9;"/><text class="node-label" data-notex="1" x="0" y="0" text-anchor="start" transform="translate(21.25,118.94514120482741)" style="cursor: default; font-family: 'Open Sans', verdana, arial, sans-serif; font-size: 12px; fill: rgb(42, 63, 95); fill-opacity: 1; text-shadow: rgb(255, 255, 255) 1px 1px 1px, rgb(255, 255, 255) -1px -1px 1px, rgb(255, 255, 255) 1px -1px 1px, rgb(255, 255, 255) -1px 1px 1px; white-space: pre;">State 50%</text></g><g class="sankey-node" transform="translate(255.747,38.530)" style="opacity: 1;"><rect class="node-rect" width="18" height="90.25335605479302" style="stroke-width: 0.5; stroke: rgb(0, 0, 0); stroke-opacity: 0.3; fill: rgb(255, 193, 7); fill-opacity: 0.9;"/><text class="node-label" data-notex="1" x="0" y="0" text-anchor="start" transform="translate(21.25,49.32667802739651)" style="cursor: default; font-family: 'Open Sans', verdana, arial, sans-serif; font-size: 12px; fill: rgb(42, 63, 95); fill-opacity: 1; text-shadow: rgb(255, 255, 255) 1px 1px 1px, rgb(255, 255, 255) -1px -1px 1px, rgb(255, 255, 255) 1px -1px 1px, rgb(255, 255, 255) -1px 1px 1px; white-space: pre;">State 2050%</text></g><g class="sankey-node" transform="translate(255.747,166.094)" style="opacity: 1;"><rect class="node-rect" width="18" height="23.35514381802318" style="stroke-width: 0.5; stroke: rgb(0, 0, 0); stroke-opacity: 0.3; fill: rgb(0, 150, 136); fill-opacity: 0.9;"/><text class="node-label" data-notex="1" x="0" y="0" text-anchor="start" transform="translate(21.25,15.87757190901159)" style="cursor: default; font-family: 'Open Sans', verdana, arial, sans-serif; font-size: 12px; fill: rgb(42, 63, 95); fill-opacity: 1; text-shadow: rgb(255, 255, 255) 1px 1px 1px, rgb(255, 255, 255) -1px -1px 1px, rgb(255, 255, 255) 1px -1px 1px, rgb(255, 255, 255) -1px 1px 1px; white-space: pre;">State 1020%</text></g><g class="sankey-node" transform="translate(255.747,259.765)" style="opacity: 1;"><rect class="node-rect" width="18" height="24.24112193848191" style="stroke-width: 0.5; stroke: rgb(0, 0, 0); stroke-opacity: 0.3; fill: rgb(63, 81, 181); fill-opacity: 0.9;"/><text class="node-label" data-notex="1" x="0" y="0" text-anchor="start" transform="translate(21.25,16.320560969240955)" style="cursor: default; font-family: 'Open Sans', verdana, arial, sans-serif; font-size: 12px; fill: rgb(42, 63, 95); fill-opacity: 1; text-shadow: rgb(255, 255, 255) 1px 1px 1px, rgb(255, 255, 255) -1px -1px 1px, rgb(255, 255, 255) 1px -1px 1px, rgb(255, 255, 255) -1px 1px 1px; white-space: pre;">State 010%</text></g><g class="sankey-node" transform="translate(255.747,365.683)" style="opacity: 1;"><rect class="node-rect" width="18" height="0.634093226914274" style="stroke-width: 0.5; stroke: rgb(0, 0, 0); stroke-opacity: 0.3; fill: rgb(158, 158, 158); fill-opacity: 0.8;"/><text class="node-label" data-notex="1" x="0" y="0" text-anchor="start" transform="translate(21.25,4.517046613457136)" style="cursor: default; font-family: 'Open Sans', verdana, arial, sans-serif; font-size: 12px; fill: rgb(42, 63, 95); fill-opacity: 1; text-shadow: rgb(255, 255, 255) 1px 1px 1px, rgb(255, 255, 255) -1px -1px 1px, rgb(255, 255, 255) 1px -1px 1px, rgb(255, 255, 255) -1px 1px 1px; white-space: pre;">Unknown</text></g><g class="sankey-node" transform="translate(255.747,442.073)" style="opacity: 1;"><rect class="node-rect" width="18" height="36.08196965110528" style="stroke-width: 0.5; stroke: rgb(0, 0, 0); stroke-opacity: 0.3; fill: rgb(120, 120, 120); fill-opacity: 0.75;"/><text class="node-label" data-notex="1" x="0" y="0" text-anchor="start" transform="translate(21.25,22.24098482555264)" style="cursor: default; font-family: 'Open Sans', verdana, arial, sans-serif; font-size: 12px; fill: rgb(42, 63, 95); fill-opacity: 1; text-shadow: rgb(255, 255, 255) 1px 1px 1px, rgb(255, 255, 255) -1px -1px 1px, rgb(255, 255, 255) 1px -1px 1px, rgb(255, 255, 255) -1px 1px 1px; white-space: pre;">Exit</text></g><g class="sankey-node" transform="translate(255.747,430.858)" style="opacity: 1;"><rect class="node-rect" width="18" height="246.74052979076214" style="stroke-width: 0.5; stroke: rgb(0, 0, 0); stroke-opacity: 0.3; fill: rgb(244, 67, 54); fill-opacity: 0.9;"/><text class="node-label" data-notex="1" x="0" y="0" text-anchor="start" transform="translate(21.25,127.57026489538107)" style="cursor: default; font-family: 'Open Sans', verdana, arial, sans-serif; font-size: 12px; fill: rgb(42, 63, 95); fill-opacity: 1; text-shadow: rgb(255, 255, 255) 1px 1px 1px, rgb(255, 255, 255) -1px -1px 1px, rgb(255, 255, 255) 1px -1px 1px, rgb(255, 255, 255) -1px 1px 1px; white-space: pre;">State 50%</text></g><g class="sankey-node" transform="translate(255.832,599.987)" style="opacity: 1;"><rect class="node-rect" width="18" height="96.71102909318142" style="stroke-width: 0.5; stroke: rgb(0, 0, 0); stroke-opacity: 0.3; fill: rgb(255, 193, 7); fill-opacity: 0.9;"/><text class="node-label" data-notex="1" x="0" y="0" text-anchor="start" transform="translate(21.25,52.555514546590715)" style="cursor: default; font-family: 'Open Sans', verdana, arial, sans-serif; font-size: 12px; fill: rgb(42, 63, 95); fill-opacity: 1; text-shadow: rgb(255, 255, 255) 1px 1px 1px, rgb(255, 255, 255) -1px -1px 1px, rgb(255, 255, 255) 1px -1px 1px, rgb(255, 255, 255) -1px 1px 1px; white-space: pre;">State 2050%</text></g><g class="sankey-node" transform="translate(427.053,67.327)" style="opacity: 1;"><rect class="node-rect" width="18" height="32.659696834891975" style="stroke-width: 0.5; stroke: rgb(0, 0, 0); stroke-opacity: 0.3; fill: rgb(0, 150, 136); fill-opacity: 0.9;"/><text class="node-label" data-notex="1" x="0" y="0" text-anchor="start" transform="translate(21.25,20.529848417445987)" style="cursor: default; font-family: 'Open Sans', verdana, arial, sans-serif; font-size: 12px; fill: rgb(42, 63, 95); fill-opacity: 1; text-shadow: rgb(255, 255, 255) 1px 1px 1px, rgb(255, 255, 255) -1px -1px 1px, rgb(255, 255, 255) 1px -1px 1px, rgb(255, 255, 255) -1px 1px 1px; white-space: pre;">State 1020%</text></g><g class="sankey-node" transform="translate(427.053,159.870)" style="opacity: 1;"><rect class="node-rect" width="18" height="35.80363706295884" style="stroke-width: 0.5; stroke: rgb(0, 0, 0); stroke-opacity: 0.3; fill: rgb(63, 81, 181); fill-opacity: 0.9;"/><text class="node-label" data-notex="1" x="0" y="0" text-anchor="start" transform="translate(21.25,22.10181853147942)" style="cursor: default; font-family: 'Open Sans', verdana, arial, sans-serif; font-size: 12px; fill: rgb(42, 63, 95); fill-opacity: 1; text-shadow: rgb(255, 255, 255) 1px 1px 1px, rgb(255, 255, 255) -1px -1px 1px, rgb(255, 255, 255) 1px -1px 1px, rgb(255, 255, 255) -1px 1px 1px; white-space: pre;">State 010%</text></g><g class="sankey-node" transform="translate(427.053,249.410)" style="opacity: 1;"><rect class="node-rect" width="18" height="44.950511568499905" style="stroke-width: 0.5; stroke: rgb(0, 0, 0); stroke-opacity: 0.3; fill: rgb(120, 120, 120); fill-opacity: 0.75;"/><text class="node-label" data-notex="1" x="0" y="0" text-anchor="start" transform="translate(21.25,26.675255784249952)" style="cursor: default; font-family: 'Open Sans', verdana, arial, sans-serif; font-size: 12px; fill: rgb(42, 63, 95); fill-opacity: 1; text-shadow: rgb(255, 255, 255) 1px 1px 1px, rgb(255, 255, 255) -1px -1px 1px, rgb(255, 255, 255) 1px -1px 1px, rgb(255, 255, 255) -1px 1px 1px; white-space: pre;">Exit</text></g><g class="sankey-node" transform="translate(427.053,256.427)" style="opacity: 1;"><rect class="node-rect" width="18" height="219.1464499169498" style="stroke-width: 0.5; stroke: rgb(0, 0, 0); stroke-opacity: 0.3; fill: rgb(244, 67, 54); fill-opacity: 0.9;"/><text class="node-label" data-notex="1" x="0" y="0" text-anchor="start" transform="translate(21.25,113.7732249584749)" style="cursor: default; font-family: 'Open Sans', verdana, arial, sans-serif; font-size: 12px; fill: rgb(42, 63, 95); fill-opacity: 1; text-shadow: rgb(255, 255, 255) 1px 1px 1px, rgb(255, 255, 255) -1px -1px 1px, rgb(255, 255, 255) 1px -1px 1px, rgb(255, 255, 255) -1px 1px 1px; white-space: pre;">State 50%</text></g><g class="sankey-node" transform="translate(427.053,409.452)" style="opacity: 1;"><rect class="node-rect" width="18" height="101.32539474288797" style="stroke-width: 0.5; stroke: rgb(0, 0, 0); stroke-opacity: 0.3; fill: rgb(255, 193, 7); fill-opacity: 0.9;"/><text class="node-label" data-notex="1" x="0" y="0" text-anchor="start" transform="translate(21.25,54.862697371443986)" style="cursor: default; font-family: 'Open Sans', verdana, arial, sans-serif; font-size: 12px; fill: rgb(42, 63, 95); fill-opacity: 1; text-shadow: rgb(255, 255, 255) 1px 1px 1px, rgb(255, 255, 255) -1px -1px 1px, rgb(255, 255, 255) 1px -1px 1px, rgb(255, 255, 255) -1px 1px 1px; white-space: pre;">State 2050%</text></g><g class="sankey-node" transform="translate(427.053,533.419)" style="opacity: 1;"><rect class="node-rect" width="18" height="41.6198982458061" style="stroke-width: 0.5; stroke: rgb(0, 0, 0); stroke-opacity: 0.3; fill: rgb(0, 150, 136); fill-opacity: 0.9;"/><text class="node-label" data-notex="1" x="0" y="0" text-anchor="start" transform="translate(21.25,25.00994912290305)" style="cursor: default; font-family: 'Open Sans', verdana, arial, sans-serif; font-size: 12px; fill: rgb(42, 63, 95); fill-opacity: 1; text-shadow: rgb(255, 255, 255) 1px 1px 1px, rgb(255, 255, 255) -1px -1px 1px, rgb(255, 255, 255) 1px -1px 1px, rgb(255, 255, 255) -1px 1px 1px; white-space: pre;">State 1020%</text></g><g class="sankey-node" transform="translate(427.139,630.880)" style="opacity: 1;"><rect class="node-rect" width="18" height="34.92523021135571" style="stroke-width: 0.5; stroke: rgb(0, 0, 0); stroke-opacity: 0.3; fill: rgb(63, 81, 181); fill-opacity: 0.9;"/><text class="node-label" data-notex="1" x="0" y="0" text-anchor="start" transform="translate(21.25,21.662615105677855)" style="cursor: default; font-family: 'Open Sans', verdana, arial, sans-serif; font-size: 12px; fill: rgb(42, 63, 95); fill-opacity: 1; text-shadow: rgb(255, 255, 255) 1px 1px 1px, rgb(255, 255, 255) -1px -1px 1px, rgb(255, 255, 255) 1px -1px 1px, rgb(255, 255, 255) -1px 1px 1px; white-space: pre;">State 010%</text></g><g class="sankey-node" transform="translate(598.360,83.500)" style="opacity: 1;"><rect class="node-rect" width="18" height="0.5" style="stroke-width: 0.5; stroke: rgb(0, 0, 0); stroke-opacity: 0.3; fill: rgb(158, 158, 158); fill-opacity: 0.8;"/><text class="node-label" data-notex="1" x="0" y="0" text-anchor="start" transform="translate(21.25,4.449999999999999)" style="cursor: default; font-family: 'Open Sans', verdana, arial, sans-serif; font-size: 12px; fill: rgb(42, 63, 95); fill-opacity: 1; text-shadow: rgb(255, 255, 255) 1px 1px 1px, rgb(255, 255, 255) -1px -1px 1px, rgb(255, 255, 255) 1px -1px 1px, rgb(255, 255, 255) -1px 1px 1px; white-space: pre;">Unknown</text></g><g class="sankey-node" transform="translate(598.360,130.581)" style="opacity: 1;"><rect class="node-rect" width="18" height="94.3805192750649" style="stroke-width: 0.5; stroke: rgb(0, 0, 0); stroke-opacity: 0.3; fill: rgb(120, 120, 120); fill-opacity: 0.75;"/><text class="node-label" data-notex="1" x="0" y="0" text-anchor="start" transform="translate(21.25,51.39025963753245)" style="cursor: default; font-family: 'Open Sans', verdana, arial, sans-serif; font-size: 12px; fill: rgb(42, 63, 95); fill-opacity: 1; text-shadow: rgb(255, 255, 255) 1px 1px 1px, rgb(255, 255, 255) -1px -1px 1px, rgb(255, 255, 255) 1px -1px 1px, rgb(255, 255, 255) -1px 1px 1px; white-space: pre;">Exit</text></g><g class="sankey-node" transform="translate(598.360,202.312)" style="opacity: 1;"><rect class="node-rect" width="18" height="139.14690629256927" style="stroke-width: 0.5; stroke: rgb(0, 0, 0); stroke-opacity: 0.3; fill: rgb(244, 67, 54); fill-opacity: 0.9;"/><text class="node-label" data-notex="1" x="0" y="0" text-anchor="start" transform="translate(21.25,73.77345314628464)" style="cursor: default; font-family: 'Open Sans', verdana, arial, sans-serif; font-size: 12px; fill: rgb(42, 63, 95); fill-opacity: 1; text-shadow: rgb(255, 255, 255) 1px 1px 1px, rgb(255, 255, 255) -1px -1px 1px, rgb(255, 255, 255) 1px -1px 1px, rgb(255, 255, 255) -1px 1px 1px; white-space: pre;">State 50%</text></g><g class="sankey-node" transform="translate(598.360,314.873)" style="opacity: 1;"><rect class="node-rect" width="18" height="102.253847886078" style="stroke-width: 0.5; stroke: rgb(0, 0, 0); stroke-opacity: 0.3; fill: rgb(255, 193, 7); fill-opacity: 0.9;"/><text class="node-label" data-notex="1" x="0" y="0" text-anchor="start" transform="translate(21.25,55.326923943039006)" style="cursor: default; font-family: 'Open Sans', verdana, arial, sans-serif; font-size: 12px; fill: rgb(42, 63, 95); fill-opacity: 1; text-shadow: rgb(255, 255, 255) 1px 1px 1px, rgb(255, 255, 255) -1px -1px 1px, rgb(255, 255, 255) 1px -1px 1px, rgb(255, 255, 255) -1px 1px 1px; white-space: pre;">State 2050%</text></g><g class="sankey-node" transform="translate(598.360,442.561)" style="opacity: 1;"><rect class="node-rect" width="18" height="35.10751282216961" style="stroke-width: 0.5; stroke: rgb(0, 0, 0); stroke-opacity: 0.3; fill: rgb(0, 150, 136); fill-opacity: 0.9;"/><text class="node-label" data-notex="1" x="0" y="0" text-anchor="start" transform="translate(21.25,21.753756411084805)" style="cursor: default; font-family: 'Open Sans', verdana, arial, sans-serif; font-size: 12px; fill: rgb(42, 63, 95); fill-opacity: 1; text-shadow: rgb(255, 255, 255) 1px 1px 1px, rgb(255, 255, 255) -1px -1px 1px, rgb(255, 255, 255) 1px -1px 1px, rgb(255, 255, 255) -1px 1px 1px; white-space: pre;">State 1020%</text></g><g class="sankey-node" transform="translate(598.360,533.812)" style="opacity: 1;"><rect class="node-rect" width="18" height="40.833679676282145" style="stroke-width: 0.5; stroke: rgb(0, 0, 0); stroke-opacity: 0.3; fill: rgb(63, 81, 181); fill-opacity: 0.9;"/><text class="node-label" data-notex="1" x="0" y="0" text-anchor="start" transform="translate(21.25,24.616839838141072)" style="cursor: default; font-family: 'Open Sans', verdana, arial, sans-serif; font-size: 12px; fill: rgb(42, 63, 95); fill-opacity: 1; text-shadow: rgb(255, 255, 255) 1px 1px 1px, rgb(255, 255, 255) -1px -1px 1px, rgb(255, 255, 255) 1px -1px 1px, rgb(255, 255, 255) -1px 1px 1px; white-space: pre;">State 010%</text></g><g class="sankey-node" transform="translate(598.446,648.097)" style="opacity: 1;"><rect class="node-rect" width="18" height="0.5" style="stroke-width: 0.5; stroke: rgb(0, 0, 0); stroke-opacity: 0.3; fill: rgb(33, 150, 243); fill-opacity: 0.9;"/><text class="node-label" data-notex="1" x="0" y="0" text-anchor="start" transform="translate(21.25,4.449999999999999)" style="cursor: default; font-family: 'Open Sans', verdana, arial, sans-serif; font-size: 12px; fill: rgb(42, 63, 95); fill-opacity: 1; text-shadow: rgb(255, 255, 255) 1px 1px 1px, rgb(255, 255, 255) -1px -1px 1px, rgb(255, 255, 255) 1px -1px 1px, rgb(255, 255, 255) -1px 1px 1px; white-space: pre;">State 0%</text></g><g class="sankey-node" transform="translate(769.667,30.984)" style="opacity: 1;"><rect class="node-rect" width="18" height="105.34597182785592" style="stroke-width: 0.5; stroke: rgb(0, 0, 0); stroke-opacity: 0.3; fill: rgb(120, 120, 120); fill-opacity: 0.75;"/><text class="node-label" data-notex="1" x="0" y="0" text-anchor="start" transform="translate(21.25,56.87298591392796)" style="cursor: default; font-family: 'Open Sans', verdana, arial, sans-serif; font-size: 12px; fill: rgb(42, 63, 95); fill-opacity: 1; text-shadow: rgb(255, 255, 255) 1px 1px 1px, rgb(255, 255, 255) -1px -1px 1px, rgb(255, 255, 255) 1px -1px 1px, rgb(255, 255, 255) -1px 1px 1px; white-space: pre;">Exit</text></g><g class="sankey-node" transform="translate(769.667,141.865)" style="opacity: 1;"><rect class="node-rect" width="18" height="71.81384586186743" style="stroke-width: 0.5; stroke: rgb(0, 0, 0); stroke-opacity: 0.3; fill: rgb(244, 67, 54); fill-opacity: 0.9;"/><text class="node-label" data-notex="1" x="0" y="0" text-anchor="start" transform="translate(21.25,40.10692293093372)" style="cursor: default; font-family: 'Open Sans', verdana, arial, sans-serif; font-size: 12px; fill: rgb(42, 63, 95); fill-opacity: 1; text-shadow: rgb(255, 255, 255) 1px 1px 1px, rgb(255, 255, 255) -1px -1px 1px, rgb(255, 255, 255) 1px -1px 1px, rgb(255, 255, 255) -1px 1px 1px; white-space: pre;">State 50%</text></g><g class="sankey-node" transform="translate(769.667,235.602)" style="opacity: 1;"><rect class="node-rect" width="18" height="72.56770534402793" style="stroke-width: 0.5; stroke: rgb(0, 0, 0); stroke-opacity: 0.3; fill: rgb(255, 193, 7); fill-opacity: 0.9;"/><text class="node-label" data-notex="1" x="0" y="0" text-anchor="start" transform="translate(21.25,40.48385267201397)" style="cursor: default; font-family: 'Open Sans', verdana, arial, sans-serif; font-size: 12px; fill: rgb(42, 63, 95); fill-opacity: 1; text-shadow: rgb(255, 255, 255) 1px 1px 1px, rgb(255, 255, 255) -1px -1px 1px, rgb(255, 255, 255) 1px -1px 1px, rgb(255, 255, 255) -1px 1px 1px; white-space: pre;">State 2050%</text></g><g class="sankey-node" transform="translate(769.667,353.146)" style="opacity: 1;"><rect class="node-rect" width="18" height="25.708684832963627" style="stroke-width: 0.5; stroke: rgb(0, 0, 0); stroke-opacity: 0.3; fill: rgb(0, 150, 136); fill-opacity: 0.9;"/><text class="node-label" data-notex="1" x="0" y="0" text-anchor="start" transform="translate(21.25,17.054342416481813)" style="cursor: default; font-family: 'Open Sans', verdana, arial, sans-serif; font-size: 12px; fill: rgb(42, 63, 95); fill-opacity: 1; text-shadow: rgb(255, 255, 255) 1px 1px 1px, rgb(255, 255, 255) -1px -1px 1px, rgb(255, 255, 255) 1px -1px 1px, rgb(255, 255, 255) -1px 1px 1px; white-space: pre;">State 1020%</text></g><g class="sankey-node" transform="translate(769.667,439.929)" style="opacity: 1;"><rect class="node-rect" width="18" height="40.37131313107034" style="stroke-width: 0.5; stroke: rgb(0, 0, 0); stroke-opacity: 0.3; fill: rgb(63, 81, 181); fill-opacity: 0.9;"/><text class="node-label" data-notex="1" x="0" y="0" text-anchor="start" transform="translate(21.25,24.385656565535168)" style="cursor: default; font-family: 'Open Sans', verdana, arial, sans-serif; font-size: 12px; fill: rgb(42, 63, 95); fill-opacity: 1; text-shadow: rgb(255, 255, 255) 1px 1px 1px, rgb(255, 255, 255) -1px -1px 1px, rgb(255, 255, 255) 1px -1px 1px, rgb(255, 255, 255) -1px 1px 1px; white-space: pre;">State 010%</text></g><g class="sankey-node" transform="translate(769.667,553.226)" style="opacity: 1;"><rect class="node-rect" width="18" height="2.0060560014642306" style="stroke-width: 0.5; stroke: rgb(0, 0, 0); stroke-opacity: 0.3; fill: rgb(33, 150, 243); fill-opacity: 0.9;"/><text class="node-label" data-notex="1" x="0" y="0" text-anchor="start" transform="translate(21.25,5.203028000732115)" style="cursor: default; font-family: 'Open Sans', verdana, arial, sans-serif; font-size: 12px; fill: rgb(42, 63, 95); fill-opacity: 1; text-shadow: rgb(255, 255, 255) 1px 1px 1px, rgb(255, 255, 255) -1px -1px 1px, rgb(255, 255, 255) 1px -1px 1px, rgb(255, 255, 255) -1px 1px 1px; white-space: pre;">State 0%</text></g><g class="sankey-node" transform="translate(769.752,648.188)" style="opacity: 1;"><rect class="node-rect" width="18" height="0.5" style="stroke-width: 0.5; stroke: rgb(0, 0, 0); stroke-opacity: 0.3; fill: rgb(158, 158, 158); fill-opacity: 0.8;"/><text class="node-label" data-notex="1" x="0" y="0" text-anchor="start" transform="translate(21.25,4.449999999999999)" style="cursor: default; font-family: 'Open Sans', verdana, arial, sans-serif; font-size: 12px; fill: rgb(42, 63, 95); fill-opacity: 1; text-shadow: rgb(255, 255, 255) 1px 1px 1px, rgb(255, 255, 255) -1px -1px 1px, rgb(255, 255, 255) 1px -1px 1px, rgb(255, 255, 255) -1px 1px 1px; white-space: pre;">Unknown</text></g><g class="sankey-node" transform="translate(940.973,67.266)" style="opacity: 1;"><rect class="node-rect" width="18" height="32.78218157450965" style="stroke-width: 0.5; stroke: rgb(0, 0, 0); stroke-opacity: 0.3; fill: rgb(120, 120, 120); fill-opacity: 0.75;"/><text class="node-label" data-notex="1" x="0" y="0" text-anchor="end" transform="translate(-3.25,20.591090787254824)" style="cursor: default; font-family: 'Open Sans', verdana, arial, sans-serif; font-size: 12px; fill: rgb(42, 63, 95); fill-opacity: 1; text-shadow: rgb(255, 255, 255) 1px 1px 1px, rgb(255, 255, 255) -1px -1px 1px, rgb(255, 255, 255) 1px -1px 1px, rgb(255, 255, 255) -1px 1px 1px; white-space: pre;">Exit</text></g><g class="sankey-node" transform="translate(940.973,151.423)" style="opacity: 1;"><rect class="node-rect" width="18" height="52.69654572354659" style="stroke-width: 0.5; stroke: rgb(0, 0, 0); stroke-opacity: 0.3; fill: rgb(244, 67, 54); fill-opacity: 0.9;"/><text class="node-label" data-notex="1" x="0" y="0" text-anchor="end" transform="translate(-3.25,30.548272861773295)" style="cursor: default; font-family: 'Open Sans', verdana, arial, sans-serif; font-size: 12px; fill: rgb(42, 63, 95); fill-opacity: 1; text-shadow: rgb(255, 255, 255) 1px 1px 1px, rgb(255, 255, 255) -1px -1px 1px, rgb(255, 255, 255) 1px -1px 1px, rgb(255, 255, 255) -1px 1px 1px; white-space: pre;">State 50%</text></g><g class="sankey-node" transform="translate(940.973,242.000)" style="opacity: 1;"><rect class="node-rect" width="18" height="59.772394035253456" style="stroke-width: 0.5; stroke: rgb(0, 0, 0); stroke-opacity: 0.3; fill: rgb(255, 193, 7); fill-opacity: 0.9;"/><text class="node-label" data-notex="1" x="0" y="0" text-anchor="end" transform="translate(-3.25,34.08619701762673)" style="cursor: default; font-family: 'Open Sans', verdana, arial, sans-serif; font-size: 12px; fill: rgb(42, 63, 95); fill-opacity: 1; text-shadow: rgb(255, 255, 255) 1px 1px 1px, rgb(255, 255, 255) -1px -1px 1px, rgb(255, 255, 255) 1px -1px 1px, rgb(255, 255, 255) -1px 1px 1px; white-space: pre;">State 2050%</text></g><g class="sankey-node" transform="translate(940.973,353.281)" style="opacity: 1;"><rect class="node-rect" width="18" height="25.438705516399523" style="stroke-width: 0.5; stroke: rgb(0, 0, 0); stroke-opacity: 0.3; fill: rgb(0, 150, 136); fill-opacity: 0.9;"/><text class="node-label" data-notex="1" x="0" y="0" text-anchor="end" transform="translate(-3.25,16.91935275819976)" style="cursor: default; font-family: 'Open Sans', verdana, arial, sans-serif; font-size: 12px; fill: rgb(42, 63, 95); fill-opacity: 1; text-shadow: rgb(255, 255, 255) 1px 1px 1px, rgb(255, 255, 255) -1px -1px 1px, rgb(255, 255, 255) 1px -1px 1px, rgb(255, 255, 255) -1px 1px 1px; white-space: pre;">State 1020%</text></g><g class="sankey-node" transform="translate(940.973,444.014)" style="opacity: 1;"><rect class="node-rect" width="18" height="32.20006097212729" style="stroke-width: 0.5; stroke: rgb(0, 0, 0); stroke-opacity: 0.3; fill: rgb(63, 81, 181); fill-opacity: 0.9;"/><text class="node-label" data-notex="1" x="0" y="0" text-anchor="end" transform="translate(-3.25,20.300030486063644)" style="cursor: default; font-family: 'Open Sans', verdana, arial, sans-serif; font-size: 12px; fill: rgb(42, 63, 95); fill-opacity: 1; text-shadow: rgb(255, 255, 255) 1px 1px 1px, rgb(255, 255, 255) -1px -1px 1px, rgb(255, 255, 255) 1px -1px 1px, rgb(255, 255, 255) -1px 1px 1px; white-space: pre;">State 010%</text></g><g class="sankey-node" transform="translate(940.973,552.833)" style="opacity: 1;"><rect class="node-rect" width="18" height="2.7906447515701984" style="stroke-width: 0.5; stroke: rgb(0, 0, 0); stroke-opacity: 0.3; fill: rgb(33, 150, 243); fill-opacity: 0.9;"/><text class="node-label" data-notex="1" x="0" y="0" text-anchor="end" transform="translate(-3.25,5.5953223757850985)" style="cursor: default; font-family: 'Open Sans', verdana, arial, sans-serif; font-size: 12px; fill: rgb(42, 63, 95); fill-opacity: 1; text-shadow: rgb(255, 255, 255) 1px 1px 1px, rgb(255, 255, 255) -1px -1px 1px, rgb(255, 255, 255) 1px -1px 1px, rgb(255, 255, 255) -1px 1px 1px; white-space: pre;">State 0%</text></g></g></g><defs id="topdefs-d5b00d"><g class="clips"/></defs><g class="layer-above"><g class="imagelayer"/><g class="shapelayer"/></g><g class="infolayer"><g class="g-gtitle"><text class="gtitle" x="24" y="28" text-anchor="start" dy="0em" style="opacity: 1; font-family: 'Open Sans', verdana, arial, sans-serif; font-size: 17px; fill: rgb(42, 63, 95); fill-opacity: 1; white-space: pre;">Ownership buckets (step=3y)  Weight = 24M MA of total_assets (abs in bln, or % of step)</text></g><g class="first-render"/><g class="annotation" data-index="0" style="opacity: 1;"><g class="annotation-text-g" transform="rotate(0,109.44,57.480000000000004)"><g class="cursor-pointer" transform="translate(92,48)"><rect class="bg" x="0.5" y="0.5" width="34" height="18" style="stroke-width: 1px; stroke: rgb(0, 0, 0); stroke-opacity: 0; fill: rgb(0, 0, 0); fill-opacity: 0;"/><text class="annotation-text" text-anchor="middle" x="17.2578125" y="14" style="font-family: 'Open Sans', verdana, arial, sans-serif; font-size: 12px; fill: rgb(42, 63, 95); fill-opacity: 1; white-space: pre;">2004</text></g></g></g><g class="annotation" data-index="1" style="opacity: 1;"><g class="annotation-text-g" transform="rotate(0,280.74666666666667,57.480000000000004)"><g class="cursor-pointer" transform="translate(263,48)"><rect class="bg" x="0.5" y="0.5" width="34" height="18" style="stroke-width: 1px; stroke: rgb(0, 0, 0); stroke-opacity: 0; fill: rgb(0, 0, 0); fill-opacity: 0;"/><text class="annotation-text" text-anchor="middle" x="17.2578125" y="14" style="font-family: 'Open Sans', verdana, arial, sans-serif; font-size: 12px; fill: rgb(42, 63, 95); fill-opacity: 1; white-space: pre;">2007</text></g></g></g><g class="annotation" data-index="2" style="opacity: 1;"><g class="annotation-text-g" transform="rotate(0,452.05333333333334,57.480000000000004)"><g class="cursor-pointer" transform="translate(435,48)"><rect class="bg" x="0.5" y="0.5" width="34" height="18" style="stroke-width: 1px; stroke: rgb(0, 0, 0); stroke-opacity: 0; fill: rgb(0, 0, 0); fill-opacity: 0;"/><text class="annotation-text" text-anchor="middle" x="17.2578125" y="14" style="font-family: 'Open Sans', verdana, arial, sans-serif; font-size: 12px; fill: rgb(42, 63, 95); fill-opacity: 1; white-space: pre;">2010</text></g></g></g><g class="annotation" data-index="3" style="opacity: 1;"><g class="annotation-text-g" transform="rotate(0,623.36,57.480000000000004)"><g class="cursor-pointer" transform="translate(606,48)"><rect class="bg" x="0.5" y="0.5" width="34" height="18" style="stroke-width: 1px; stroke: rgb(0, 0, 0); stroke-opacity: 0; fill: rgb(0, 0, 0); fill-opacity: 0;"/><text class="annotation-text" text-anchor="middle" x="17.2578125" y="14" style="font-family: 'Open Sans', verdana, arial, sans-serif; font-size: 12px; fill: rgb(42, 63, 95); fill-opacity: 1; white-space: pre;">2013</text></g></g></g><g class="annotation" data-index="4" style="opacity: 1;"><g class="annotation-text-g" transform="rotate(0,794.6666666666666,57.480000000000004)"><g class="cursor-pointer" transform="translate(777,48)"><rect class="bg" x="0.5" y="0.5" width="34" height="18" style="stroke-width: 1px; stroke: rgb(0, 0, 0); stroke-opacity: 0; fill: rgb(0, 0, 0); fill-opacity: 0;"/><text class="annotation-text" text-anchor="middle" x="17.2578125" y="14" style="font-family: 'Open Sans', verdana, arial, sans-serif; font-size: 12px; fill: rgb(42, 63, 95); fill-opacity: 1; white-space: pre;">2016</text></g></g></g><g class="annotation" data-index="5" style="opacity: 1;"><g class="annotation-text-g" transform="rotate(0,965.9733333333334,57.480000000000004)"><g class="cursor-pointer" transform="translate(948,48)"><rect class="bg" x="0.5" y="0.5" width="34" height="18" style="stroke-width: 1px; stroke: rgb(0, 0, 0); stroke-opacity: 0; fill: rgb(0, 0, 0); fill-opacity: 0;"/><text class="annotation-text" text-anchor="middle" x="17.2578125" y="14" style="font-family: 'Open Sans', verdana, arial, sans-serif; font-size: 12px; fill: rgb(42, 63, 95); fill-opacity: 1; white-space: pre;">2019</text></g></g></g><g class="annotation" data-index="6" style="opacity: 1;"><g class="annotation-text-g" transform="rotate(0,1137.28,57.480000000000004)"><g class="cursor-pointer" transform="translate(1120,48)"><rect class="bg" x="0.5" y="0.5" width="34" height="18" style="stroke-width: 1px; stroke: rgb(0, 0, 0); stroke-opacity: 0; fill: rgb(0, 0, 0); fill-opacity: 0;"/><text class="annotation-text" text-anchor="middle" x="17.2578125" y="14" style="font-family: 'Open Sans', verdana, arial, sans-serif; font-size: 12px; fill: rgb(42, 63, 95); fill-opacity: 1; white-space: pre;">2021</text></g></g></g></g><g class="menulayer"><g class="updatemenu-container" style="cursor: pointer;"><g class="updatemenu-header-group" pointer-events="all"><g class="updatemenu-button" transform="translate(29,64)"><rect class="updatemenu-item-rect" rx="2" ry="2" shape-rendering="crispEdges" x="0" y="0" width="210" height="33" style="stroke: rgb(190, 200, 217); stroke-opacity: 1; fill: rgb(244, 250, 255); fill-opacity: 1; stroke-width: 1px;"/><text class="updatemenu-item-text" text-anchor="start" data-notex="1" x="12" y="19.5" style="font-family: 'Open Sans', verdana, arial, sans-serif; font-size: 12px; fill: rgb(42, 63, 95); fill-opacity: 1; white-space: pre;">Thickness: Absolute (bln)</text></g><g class="updatemenu-button" transform="translate(29,99)"><rect class="updatemenu-item-rect" rx="2" ry="2" shape-rendering="crispEdges" x="0" y="0" width="210" height="33" style="stroke: rgb(190, 200, 217); stroke-opacity: 1; fill: rgb(255, 255, 255); fill-opacity: 1; stroke-width: 1px;"/><text class="updatemenu-item-text" text-anchor="start" data-notex="1" x="12" y="19.5" style="font-family: 'Open Sans', verdana, arial, sans-serif; font-size: 12px; fill: rgb(42, 63, 95); fill-opacity: 1; white-space: pre;">Thickness: Share per step (%)</text></g></g><g class="updatemenu-header-group" pointer-events="all"><g class="updatemenu-button" transform="translate(367,64)"><rect class="updatemenu-item-rect" rx="2" ry="2" shape-rendering="crispEdges" x="0" y="0" width="116" height="33" style="stroke: rgb(190, 200, 217); stroke-opacity: 1; fill: rgb(244, 250, 255); fill-opacity: 1; stroke-width: 1px;"/><text class="updatemenu-item-text" text-anchor="start" data-notex="1" x="12" y="19.5" style="font-family: 'Open Sans', verdana, arial, sans-serif; font-size: 12px; fill: rgb(42, 63, 95); fill-opacity: 1; white-space: pre;">Reset positions</text></g></g><g class="updatemenu-dropdown-button-group" updatemenu-active-index="-1" style="pointer-events: all;"><rect class="scrollbox-bg" opacity="0" x="0" y="0" width="0" height="0" style="pointer-events: all;"/></g></g></g></svg>