<svg class="main-svg" xmlns="http://www.w3.org/2000/svg" xmlns:xlink="http://www.w3.org/1999/xlink" width="2400" height="1600" style="" viewBox="0 0 1200 800"><rect x="0" y="0" width="1200" height="800" style="fill: rgb(255, 255, 255); fill-opacity: 1;"/><defs id="defs-bb6ad7"><g class="clips"/><g class="gradients"/><g class="patterns"/></defs><g class="bglayer"/><g class="layer-below"><g class="imagelayer"/><g class="shapelayer"/></g><g class="cartesianlayer"/><g class="polarlayer"/><g class="smithlayer"/><g class="ternarylayer"/><g class="geolayer"/><g class="funnelarealayer"/><g class="pielayer"/><g class="iciclelayer"/><g class="treemaplayer"/><g class="sunburstlayer"/><g class="glimages"/><g class="sankey" transform="translate(16,56)matrix(1 0 0 1 0 0)" style="box-sizing: content-box; position: absolute; left: 0px; shape-rendering: geometricprecision; pointer-events: none;"><g class="sankey-links" style="fill: none;"><path class="sankey-link" d="M102.44,482.01951968031443C179.09333333333333,482.01951968031443 179.09333333333333,446.85459382773126 255.74666666666667,446.85459382773126L255.74666666666667,448.1331948855367C179.09333333333333,448.1331948855367 179.09333333333333,483.29812073811985 102.44,483.29812073811985Z" style="stroke: rgb(68, 68, 68); stroke-opacity: 1; fill: rgb(76, 175, 80); fill-opacity: 0.65; stroke-width: 0; opacity: 1;"/><path class="sankey-link" d="M102.44,469.5095088338811C179.09333333333333,469.5095088338811 179.09333333333333,247.4724481184668 255.74666666666667,247.4724481184668L255.74666666666667,259.9824589649001C179.09333333333333,259.9824589649001 179.09333333333333,482.0195196803144 102.44,482.0195196803144Z" style="stroke: rgb(68, 68, 68); stroke-opacity: 1; fill: rgb(76, 175, 80); fill-opacity: 0.65; stroke-width: 0; opacity: 1;"/><path class="sankey-link" d="M102.44,469.4314428997987C179.09333333333333,469.4314428997987 179.09333333333333,109.60306050818478 255.74666666666667,109.60306050818478L255.74666666666667,109.6811264422672C179.09333333333333,109.6811264422672 179.09333333333333,469.50950883388106 102.44,469.50950883388106Z" style="stroke: rgb(76, 175, 80); stroke-opacity: 0.65; fill: rgb(76, 175, 80); fill-opacity: 0.65; stroke-width: 1; opacity: 1;"/><path class="sankey-link" d="M102.44,483.32880878470723C93.440584,483.32880878470723 93.440584,674.9976263291031 84.441168,674.9976263291031L84.441168,675.0989572362099C93.440584,675.0989572362099 93.440584,483.430139691814 102.44,483.430139691814Z" style="stroke: rgb(76, 175, 80); stroke-opacity: 0.65; fill: rgb(76, 175, 80); fill-opacity: 0.65; stroke-width: 1; opacity: 1;"/><path class="sankey-link" d="M102.44,313.4924449971976C179.09333333333333,313.4924449971976 179.09333333333333,445.79159862163834 255.74666666666667,445.79159862163834L255.74666666666667,446.8545938277312C179.09333333333333,446.8545938277312 179.09333333333333,314.55544020329046 102.44,314.55544020329046Z" style="stroke: rgb(68, 68, 68); stroke-opacity: 1; fill: rgb(76, 175, 80); fill-opacity: 0.65; stroke-width: 0; opacity: 1;"/><path class="sankey-link" d="M102.44,313.2093212196103C179.09333333333333,313.2093212196103 179.09333333333333,247.18932434087947 255.74666666666667,247.18932434087947L255.74666666666667,247.4724481184668C179.09333333333333,247.4724481184668 179.09333333333333,313.4924449971976 102.44,313.4924449971976Z" style="stroke: rgb(76, 175, 80); stroke-opacity: 0.65; fill: rgb(76, 175, 80); fill-opacity: 0.65; stroke-width: 1; opacity: 1;"/><path class="sankey-link" d="M102.44,313.1929605179477C179.09333333333333,313.1929605179477 179.09333333333333,109.5866998065222 255.74666666666667,109.5866998065222L255.74666666666667,109.60306050818477C179.09333333333333,109.60306050818477 179.09333333333333,313.20932121961033 102.44,313.20932121961033Z" style="stroke: rgb(76, 175, 80); stroke-opacity: 0.65; fill: rgb(76, 175, 80); fill-opacity: 0.65; stroke-width: 1; opacity: 1;"/><path class="sankey-link" d="M102.44,314.6714372635181C93.440584,314.6714372635181 93.440584,674.9517778695654 84.441168,674.9517778695654L84.441168,674.9976263291032C93.440584,674.9976263291032 93.440584,314.71728572305585 102.44,314.71728572305585Z" style="stroke: rgb(76, 175, 80); stroke-opacity: 0.65; fill: rgb(76, 175, 80); fill-opacity: 0.65; stroke-width: 1; opacity: 1;"/><path class="sankey-link" d="M102.44,254.616787007395C179.09333333333333,254.616787007395 179.09333333333333,445.58227420036286 255.74666666666667,445.58227420036286L255.74666666666667,445.79159862163834C179.09333333333333,445.79159862163834 179.09333333333333,254.8261114286705 102.44,254.8261114286705Z" style="stroke: rgb(76, 175, 80); stroke-opacity: 0.65; fill: rgb(76, 175, 80); fill-opacity: 0.65; stroke-width: 1; opacity: 1;"/><path class="sankey-link" d="M102.44,254.30081955488527C179.09333333333333,254.30081955488527 179.09333333333333,246.87335688836973 255.74666666666667,246.87335688836973L255.74666666666667,247.1893243408795C179.09333333333333,247.1893243408795 179.09333333333333,254.61678700739503 102.44,254.61678700739503Z" style="stroke: rgb(76, 175, 80); stroke-opacity: 0.65; fill: rgb(76, 175, 80); fill-opacity: 0.65; stroke-width: 1; opacity: 1;"/><path class="sankey-link" d="M102.44,252.13204708143957C179.09333333333333,252.13204708143957 179.09333333333333,107.4179273330765 255.74666666666667,107.4179273330765L255.74666666666667,109.5866998065222C179.09333333333333,109.5866998065222 179.09333333333333,254.30081955488527 102.44,254.30081955488527Z" style="stroke: rgb(68, 68, 68); stroke-opacity: 1; fill: rgb(76, 175, 80); fill-opacity: 0.65; stroke-width: 0; opacity: 1;"/><path class="sankey-link" d="M102.44,254.93641086007227C93.440584,254.93641086007227 93.440584,674.4972503577198 84.441168,674.4972503577198L84.441168,674.9517778695654C93.440584,674.9517778695654 93.440584,255.39093837191774 102.44,255.39093837191774Z" style="stroke: rgb(76, 175, 80); stroke-opacity: 0.65; fill: rgb(76, 175, 80); fill-opacity: 0.65; stroke-width: 1; opacity: 1;"/><path class="sankey-link" d="M102.44,125.12378101266471C179.09333333333333,125.12378101266471 179.09333333333333,245.83302486746243 255.74666666666667,245.83302486746243L255.74666666666667,246.8733568883697C179.09333333333333,246.8733568883697 179.09333333333333,126.16411303357201 102.44,126.16411303357201Z" style="stroke: rgb(68, 68, 68); stroke-opacity: 1; fill: rgb(76, 175, 80); fill-opacity: 0.65; stroke-width: 0; opacity: 1;"/><path class="sankey-link" d="M102.44,121.69308542170906C179.09333333333333,121.69308542170906 179.09333333333333,103.98723174212085 255.74666666666667,103.98723174212085L255.74666666666667,107.4179273330765C179.09333333333333,107.4179273330765 179.09333333333333,125.12378101266471 102.44,125.12378101266471Z" style="stroke: rgb(68, 68, 68); stroke-opacity: 1; fill: rgb(76, 175, 80); fill-opacity: 0.65; stroke-width: 0; opacity: 1;"/><path class="sankey-link" d="M102.44,126.65158274775537C93.440584,126.65158274775537 93.440584,670.8369321926115 84.441168,670.8369321926115L84.441168,674.4972503577197C93.440584,674.4972503577197 93.440584,130.3119009128637 102.44,130.3119009128637Z" style="stroke: rgb(68, 68, 68); stroke-opacity: 1; fill: rgb(76, 175, 80); fill-opacity: 0.65; stroke-width: 0; opacity: 1;"/><path class="sankey-link" d="M102.44,624.0434828480169C179.09333333333333,624.0434828480169 179.09333333333333,448.13319488553674 255.74666666666667,448.13319488553674L255.74666666666667,448.13334022355906C179.09333333333333,448.13334022355906 179.09333333333333,624.0436281860392 102.44,624.0436281860392Z" style="stroke: rgb(76, 175, 80); stroke-opacity: 0.65; fill: rgb(76, 175, 80); fill-opacity: 0.65; stroke-width: 1; opacity: 1;"/><path class="sankey-link" d="M102.44,623.9260770013337C179.09333333333333,623.9260770013337 179.09333333333333,109.6811264422672 255.74666666666667,109.6811264422672L255.74666666666667,109.79853228895031C179.09333333333333,109.79853228895031 179.09333333333333,624.0434828480169 102.44,624.0434828480169Z" style="stroke: rgb(76, 175, 80); stroke-opacity: 0.65; fill: rgb(76, 175, 80); fill-opacity: 0.65; stroke-width: 1; opacity: 1;"/><path class="sankey-link" d="M102.44,624.1216745078182C93.440584,624.1216745078182 93.440584,675.0989572362099 84.441168,675.0989572362099L84.441168,675.8855031032018C93.440584,675.8855031032018 93.440584,624.9082203748101 102.44,624.9082203748101Z" style="stroke: rgb(76, 175, 80); stroke-opacity: 0.65; fill: rgb(76, 175, 80); fill-opacity: 0.65; stroke-width: 1; opacity: 1;"/><path class="sankey-link" d="M102.44,624.0436281860392C179.09333333333333,624.0436281860392 179.09333333333333,599.761750744968 255.74666666666667,599.761750744968L255.74666666666667,599.7627230259144C179.09333333333333,599.7627230259144 179.09333333333333,624.0446004669856 102.44,624.0446004669856Z" style="stroke: rgb(76, 175, 80); stroke-opacity: 0.65; fill: rgb(76, 175, 80); fill-opacity: 0.65; stroke-width: 1; opacity: 1;"/><path class="sankey-link" d="M102.44,483.2981207381199C93.44,483.2981207381199 93.44,648.7415435646036 84.44,648.7415435646036L84.44,648.7722316111909C93.44,648.7722316111909 93.44,483.32880878470723 102.44,483.32880878470723Z" style="stroke: rgb(244, 67, 54); stroke-opacity: 0.7; fill: rgb(244, 67, 54); fill-opacity: 0.7; stroke-width: 1; opacity: 1;"/><path class="sankey-link" d="M102.44,314.5554402032905C93.44,314.5554402032905 93.44,648.625546504376 84.44,648.625546504376L84.44,648.7415435646035C93.44,648.7415435646035 93.44,314.67143726351816 102.44,314.67143726351816Z" style="stroke: rgb(244, 67, 54); stroke-opacity: 0.7; fill: rgb(244, 67, 54); fill-opacity: 0.7; stroke-width: 1; opacity: 1;"/><path class="sankey-link" d="M102.44,254.8261114286705C93.44,254.8261114286705 93.44,648.5152470729741 84.44,648.5152470729741L84.44,648.6255465043758C93.44,648.6255465043758 93.44,254.93641086007224 102.44,254.93641086007224Z" style="stroke: rgb(244, 67, 54); stroke-opacity: 0.7; fill: rgb(244, 67, 54); fill-opacity: 0.7; stroke-width: 1; opacity: 1;"/><path class="sankey-link" d="M102.44,126.164113033572C93.44,126.164113033572 93.44,648.0277773587908 84.44,648.0277773587908L84.44,648.5152470729741C93.44,648.5152470729741 93.44,126.65158274775538 102.44,126.65158274775538Z" style="stroke: rgb(244, 67, 54); stroke-opacity: 0.7; fill: rgb(244, 67, 54); fill-opacity: 0.7; stroke-width: 1; opacity: 1;"/><path class="sankey-link" d="M102.44,624.0446004669856C93.44,624.0446004669856 93.44,648.7722316111909 84.44,648.7722316111909L84.44,648.8493056520234C93.44,648.8493056520234 93.44,624.121674507818 102.44,624.121674507818Z" style="stroke: rgb(244, 67, 54); stroke-opacity: 0.7; fill: rgb(244, 67, 54); fill-opacity: 0.7; stroke-width: 1; opacity: 1;"/><path class="sankey-link" d="M273.74666666666667,445.598123953253C350.4,445.598123953253 350.4,223.8666631741704 427.05333333333334,223.8666631741704L427.05333333333334,228.1757622043018C350.4,228.1757622043018 350.4,449.9072229833844 273.74666666666667,449.9072229833844Z" style="stroke: rgb(68, 68, 68); stroke-opacity: 1; fill: rgb(76, 175, 80); fill-opacity: 0.65; stroke-width: 0; opacity: 1;"/><path class="sankey-link" d="M273.74666666666667,445.58227420036286C350.4,445.58227420036286 350.4,108.1436840605544 427.05333333333334,108.1436840605544L427.05333333333334,108.15953381344453C350.4,108.15953381344453 350.4,445.5981239532529 273.74666666666667,445.5981239532529Z" style="stroke: rgb(76, 175, 80); stroke-opacity: 0.65; fill: rgb(76, 175, 80); fill-opacity: 0.65; stroke-width: 1; opacity: 1;"/><path class="sankey-link" d="M273.74666666666667,452.8131790269549C264.7472506666667,452.8131790269549 264.7472506666667,675.3748555967903 255.74783466666668,675.3748555967903L255.74783466666668,675.4115179847712C264.7472506666667,675.4115179847712 264.7472506666667,452.8498414149359 273.74666666666667,452.8498414149359Z" style="stroke: rgb(76, 175, 80); stroke-opacity: 0.65; fill: rgb(76, 175, 80); fill-opacity: 0.65; stroke-width: 1; opacity: 1;"/><path class="sankey-link" d="M273.74666666666667,449.9072229833844C264.74666666666667,449.9072229833844 264.74666666666667,638.1038918542541 255.74666666666667,638.1038918542541L255.74666666666667,640.1737856655033C264.74666666666667,640.1737856655033 264.74666666666667,451.9771167946336 273.74666666666667,451.9771167946336Z" style="stroke: rgb(68, 68, 68); stroke-opacity: 1; fill: rgb(76, 175, 80); fill-opacity: 0.65; stroke-width: 0; opacity: 1;"/><path class="sankey-link" d="M273.74666666666667,249.60549626203203C350.4,249.60549626203203 350.4,198.2283612992868 427.05333333333334,198.2283612992868L427.05333333333334,223.8666631741704C350.4,223.8666631741704 350.4,275.24379813691564 273.74666666666667,275.24379813691564Z" style="stroke: rgb(68, 68, 68); stroke-opacity: 1; fill: rgb(76, 175, 80); fill-opacity: 0.65; stroke-width: 0; opacity: 1;"/><path class="sankey-link" d="M273.74666666666667,245.83302486746243C350.4,245.83302486746243 350.4,104.37121266598483 427.05333333333334,104.37121266598483L427.05333333333334,108.1436840605544C350.4,108.1436840605544 350.4,249.60549626203198 273.74666666666667,249.60549626203198Z" style="stroke: rgb(68, 68, 68); stroke-opacity: 1; fill: rgb(76, 175, 80); fill-opacity: 0.65; stroke-width: 0; opacity: 1;"/><path class="sankey-link" d="M273.74666666666667,275.48143460304635C264.7472506666667,275.48143460304635 264.7472506666667,675.1222599367087 255.74783466666668,675.1222599367087L255.74783466666668,675.3748555967903C264.7472506666667,675.3748555967903 264.7472506666667,275.734030263128 273.74666666666667,275.734030263128Z" style="stroke: rgb(76, 175, 80); stroke-opacity: 0.65; fill: rgb(76, 175, 80); fill-opacity: 0.65; stroke-width: 1; opacity: 1;"/><path class="sankey-link" d="M273.74666666666667,275.24379813691564C264.74666666666667,275.24379813691564 264.74666666666667,637.9051260629832 255.74666666666667,637.9051260629832L255.74666666666667,638.1038918542541C264.74666666666667,638.1038918542541 264.74666666666667,275.4425639281866 273.74666666666667,275.4425639281866Z" style="stroke: rgb(76, 175, 80); stroke-opacity: 0.65; fill: rgb(76, 175, 80); fill-opacity: 0.65; stroke-width: 1; opacity: 1;"/><path class="sankey-link" d="M273.74666666666667,113.4939017719805C350.4,113.4939017719805 350.4,197.16628397447184 427.05333333333334,197.16628397447184L427.05333333333334,198.22836129928683C350.4,198.22836129928683 350.4,114.55597909679547 273.74666666666667,114.55597909679547Z" style="stroke: rgb(68, 68, 68); stroke-opacity: 1; fill: rgb(76, 175, 80); fill-opacity: 0.65; stroke-width: 0; opacity: 1;"/><path class="sankey-link" d="M273.74666666666667,103.98723174212085C350.4,103.98723174212085 350.4,94.86454263612518 427.05333333333334,94.86454263612518L427.05333333333334,104.37121266598484C350.4,104.37121266598484 350.4,113.49390177198052 273.74666666666667,113.49390177198052Z" style="stroke: rgb(68, 68, 68); stroke-opacity: 1; fill: rgb(76, 175, 80); fill-opacity: 0.65; stroke-width: 0; opacity: 1;"/><path class="sankey-link" d="M273.74666666666667,115.87980807673878C264.7472506666667,115.87980807673878 264.7472506666667,669.3858446995065 255.74783466666668,669.3858446995065L255.74783466666668,675.1222599367087C264.7472506666667,675.1222599367087 264.7472506666667,121.61622331394099 273.74666666666667,121.61622331394099Z" style="stroke: rgb(68, 68, 68); stroke-opacity: 1; fill: rgb(76, 175, 80); fill-opacity: 0.65; stroke-width: 0; opacity: 1;"/><path class="sankey-link" d="M273.74666666666667,114.55597909679547C264.74666666666667,114.55597909679547 264.74666666666667,637.0720161098726 255.74666666666667,637.0720161098726L255.74666666666667,637.9051260629832C264.74666666666667,637.9051260629832 264.74666666666667,115.38908904990599 273.74666666666667,115.38908904990599Z" style="stroke: rgb(76, 175, 80); stroke-opacity: 0.65; fill: rgb(76, 175, 80); fill-opacity: 0.65; stroke-width: 1; opacity: 1;"/><path class="sankey-link" d="M102.441168,671.1313272961179C264.7472506666667,671.1313272961179 264.7472506666667,228.1757622043018 427.05333333333334,228.1757622043018L427.05333333333334,228.88261829263882C264.7472506666667,228.88261829263882 264.7472506666667,671.8381833844549 102.441168,671.8381833844549Z" style="stroke: rgb(76, 175, 80); stroke-opacity: 0.65; fill: rgb(76, 175, 80); fill-opacity: 0.65; stroke-width: 1; opacity: 1;"/><path class="sankey-link" d="M102.441168,670.8369321926115C264.7472506666667,670.8369321926115 264.7472506666667,108.15953381344451 427.05333333333334,108.15953381344451L427.05333333333334,108.4539289169509C264.7472506666667,108.4539289169509 264.7472506666667,671.1313272961178 102.441168,671.1313272961178Z" style="stroke: rgb(76, 175, 80); stroke-opacity: 0.65; fill: rgb(76, 175, 80); fill-opacity: 0.65; stroke-width: 1; opacity: 1;"/><path class="sankey-link" d="M102.441168,685.6354872123405C179.09450133333334,685.6354872123405 179.09450133333334,675.4115179847713 255.74783466666668,675.4115179847713L255.74783466666668,679.4512196838837C179.09450133333334,679.4512196838837 179.09450133333334,689.6751889114529 102.441168,689.6751889114529Z" style="stroke: rgb(68, 68, 68); stroke-opacity: 1; fill: rgb(76, 175, 80); fill-opacity: 0.65; stroke-width: 0; opacity: 1;"/><path class="sankey-link" d="M102.441168,671.8381833844549C179.09391733333334,671.8381833844549 179.09391733333334,640.1737856655034 255.74666666666667,640.1737856655034L255.74666666666667,652.9155667181285C179.09391733333334,652.9155667181285 179.09391733333334,684.57996443708 102.441168,684.57996443708Z" style="stroke: rgb(68, 68, 68); stroke-opacity: 1; fill: rgb(76, 175, 80); fill-opacity: 0.65; stroke-width: 0; opacity: 1;"/><path class="sankey-link" d="M273.74666666666667,451.9771167946336C264.74666666666667,451.9771167946336 264.74666666666667,640.3223036896528 255.74666666666667,640.3223036896528L255.74666666666667,641.158365921974C264.74666666666667,641.158365921974 264.74666666666667,452.8131790269549 273.74666666666667,452.8131790269549Z" style="stroke: rgb(244, 67, 54); stroke-opacity: 0.7; fill: rgb(244, 67, 54); fill-opacity: 0.7; stroke-width: 1; opacity: 1;"/><path class="sankey-link" d="M273.74666666666667,275.44256392818653C264.74666666666667,275.44256392818653 264.74666666666667,640.283433014793 255.74666666666667,640.283433014793L255.74666666666667,640.3223036896527C264.74666666666667,640.3223036896527 264.74666666666667,275.48143460304635 273.74666666666667,275.48143460304635Z" style="stroke: rgb(244, 67, 54); stroke-opacity: 0.7; fill: rgb(244, 67, 54); fill-opacity: 0.7; stroke-width: 1; opacity: 1;"/><path class="sankey-link" d="M273.74666666666667,115.38908904990599C264.74666666666667,115.38908904990599 264.74666666666667,639.7927139879602 255.74666666666667,639.7927139879602L255.74666666666667,640.2834330147929C264.74666666666667,640.2834330147929 264.74666666666667,115.87980807673877 273.74666666666667,115.87980807673877Z" style="stroke: rgb(244, 67, 54); stroke-opacity: 0.7; fill: rgb(244, 67, 54); fill-opacity: 0.7; stroke-width: 1; opacity: 1;"/><path class="sankey-link" d="M102.441168,684.57996443708C179.09391733333334,684.57996443708 179.09391733333334,641.1593012566983 255.74666666666667,641.1593012566983L255.74666666666667,642.2148240319588C179.09391733333334,642.2148240319588 179.09391733333334,685.6354872123404 102.441168,685.6354872123404Z" style="stroke: rgb(68, 68, 68); stroke-opacity: 1; fill: rgb(244, 67, 54); fill-opacity: 0.7; stroke-width: 0; opacity: 1;"/><path class="sankey-link" d="M273.74666666666667,599.761750744968C264.74666666666667,599.761750744968 264.74666666666667,641.1583659219741 255.74666666666667,641.1583659219741L255.74666666666667,641.1593012566982C264.74666666666667,641.1593012566982 264.74666666666667,599.7626860796921 273.74666666666667,599.7626860796921Z" style="stroke: rgb(244, 67, 54); stroke-opacity: 0.7; fill: rgb(244, 67, 54); fill-opacity: 0.7; stroke-width: 1; opacity: 1;"/><path class="sankey-link" d="M445.05333333333334,198.58642283084393C436.05391733333335,198.58642283084393 436.05391733333335,627.6034030058452 427.05450133333335,627.6034030058452L427.05450133333335,685.436006465434C436.05391733333335,685.436006465434 436.05391733333335,256.4190262904328 445.05333333333334,256.4190262904328Z" style="stroke: rgb(68, 68, 68); stroke-opacity: 1; fill: rgb(76, 175, 80); fill-opacity: 0.65; stroke-width: 0; opacity: 1;"/><path class="sankey-link" d="M445.05333333333334,256.6625055268291C436.05333333333334,256.6625055268291 436.05333333333334,648.5797920366534 427.05333333333334,648.5797920366534L427.05333333333334,649.6864533729016C436.05333333333334,649.6864533729016 436.05333333333334,257.76916686307715 445.05333333333334,257.76916686307715Z" style="stroke: rgb(68, 68, 68); stroke-opacity: 1; fill: rgb(76, 175, 80); fill-opacity: 0.65; stroke-width: 0; opacity: 1;"/><path class="sankey-link" d="M445.05333333333334,256.4190262904328C436.05333333333334,256.4190262904328 436.05333333333334,618.8769106386003 427.05333333333334,618.8769106386003L427.05333333333334,619.1203898749966C436.05333333333334,619.1203898749966 436.05333333333334,256.6625055268291 445.05333333333334,256.6625055268291Z" style="stroke: rgb(76, 175, 80); stroke-opacity: 0.65; fill: rgb(76, 175, 80); fill-opacity: 0.65; stroke-width: 1; opacity: 1;"/><path class="sankey-link" d="M445.05333333333334,198.58265009650296C436.05333333333334,198.58265009650296 436.05333333333334,488.50805164203666 427.05333333333334,488.50805164203666L427.05333333333334,488.5118243763776C436.05333333333334,488.5118243763776 436.05333333333334,198.5864228308439 445.05333333333334,198.5864228308439Z" style="stroke: rgb(76, 175, 80); stroke-opacity: 0.65; fill: rgb(76, 175, 80); fill-opacity: 0.65; stroke-width: 1; opacity: 1;"/><path class="sankey-link" d="M445.05333333333334,95.28036504729428C436.05391733333335,95.28036504729428 436.05391733333335,614.700938289577 427.05450133333335,614.700938289577L427.05450133333335,627.603403005845C436.05391733333335,627.603403005845 436.05391733333335,108.18282976356235 445.05333333333334,108.18282976356235Z" style="stroke: rgb(68, 68, 68); stroke-opacity: 1; fill: rgb(76, 175, 80); fill-opacity: 0.65; stroke-width: 0; opacity: 1;"/><path class="sankey-link" d="M445.05333333333334,108.44574594231406C436.05333333333334,108.44574594231406 436.05333333333334,630.4276514173449 427.05333333333334,630.4276514173449L427.05333333333334,648.5797920366534C436.05333333333334,648.5797920366534 436.05333333333334,126.5978865616226 445.05333333333334,126.5978865616226Z" style="stroke: rgb(68, 68, 68); stroke-opacity: 1; fill: rgb(76, 175, 80); fill-opacity: 0.65; stroke-width: 0; opacity: 1;"/><path class="sankey-link" d="M445.05333333333334,108.18282976356237C436.05333333333334,108.18282976356237 436.05333333333334,618.6139944598486 427.05333333333334,618.6139944598486L427.05333333333334,618.8769106386004C436.05333333333334,618.8769106386004 436.05333333333334,108.44574594231408 445.05333333333334,108.44574594231408Z" style="stroke: rgb(76, 175, 80); stroke-opacity: 0.65; fill: rgb(76, 175, 80); fill-opacity: 0.65; stroke-width: 1; opacity: 1;"/><path class="sankey-link" d="M445.05333333333334,95.08221043272981C436.05333333333334,95.08221043272981 436.05333333333334,488.3098970274722 427.05333333333334,488.3098970274722L427.05333333333334,488.50805164203666C436.05333333333334,488.50805164203666 436.05333333333334,95.28036504729427 445.05333333333334,95.28036504729427Z" style="stroke: rgb(76, 175, 80); stroke-opacity: 0.65; fill: rgb(76, 175, 80); fill-opacity: 0.65; stroke-width: 1; opacity: 1;"/><path class="sankey-link" d="M273.7478346666667,683.4104909591573C350.400584,683.4104909591573 350.400584,649.8492230273346 427.05333333333334,649.8492230273346L427.05333333333334,655.5000887181723C350.400584,655.5000887181723 350.400584,689.061356649995 273.7478346666667,689.061356649995Z" style="stroke: rgb(68, 68, 68); stroke-opacity: 1; fill: rgb(76, 175, 80); fill-opacity: 0.65; stroke-width: 0; opacity: 1;"/><path class="sankey-link" d="M273.7478346666667,671.0963109256919C350.400584,671.0963109256919 350.400584,626.3920158849218 427.05333333333334,626.3920158849218L427.05333333333334,638.7061959183872C350.400584,638.7061959183872 350.400584,683.4104909591573 273.7478346666667,683.4104909591573Z" style="stroke: rgb(68, 68, 68); stroke-opacity: 1; fill: rgb(76, 175, 80); fill-opacity: 0.65; stroke-width: 0; opacity: 1;"/><path class="sankey-link" d="M273.7478346666667,670.1553020128558C350.400584,670.1553020128558 350.400584,514.8702198835679 427.05333333333334,514.8702198835679L427.05333333333334,515.8112287964041C350.400584,515.8112287964041 350.400584,671.096310925692 273.7478346666667,671.096310925692Z" style="stroke: rgb(76, 175, 80); stroke-opacity: 0.65; fill: rgb(76, 175, 80); fill-opacity: 0.65; stroke-width: 1; opacity: 1;"/><path class="sankey-link" d="M273.74666666666667,666.8348297150569C350.400584,666.8348297150569 350.400584,685.436006465434 427.05450133333335,685.436006465434L427.05450133333335,685.493546115455C350.400584,685.493546115455 350.400584,666.8923693650779 273.74666666666667,666.8923693650779Z" style="stroke: rgb(76, 175, 80); stroke-opacity: 0.65; fill: rgb(76, 175, 80); fill-opacity: 0.65; stroke-width: 1; opacity: 1;"/><path class="sankey-link" d="M273.74666666666667,674.1639953750031C350.4,674.1639953750031 350.4,649.6864533729015 427.05333333333334,649.6864533729015L427.05333333333334,649.8492230273346C350.4,649.8492230273346 350.4,674.3267650294362 273.74666666666667,674.3267650294362Z" style="stroke: rgb(76, 175, 80); stroke-opacity: 0.65; fill: rgb(76, 175, 80); fill-opacity: 0.65; stroke-width: 1; opacity: 1;"/><path class="sankey-link" d="M273.74666666666667,666.8923693650779C350.4,666.8923693650779 350.4,619.1203898749966 427.05333333333334,619.1203898749966L427.05333333333334,626.3920158849219C350.4,626.3920158849219 350.4,674.1639953750032 273.74666666666667,674.1639953750032Z" style="stroke: rgb(68, 68, 68); stroke-opacity: 1; fill: rgb(76, 175, 80); fill-opacity: 0.65; stroke-width: 0; opacity: 1;"/><path class="sankey-link" d="M273.74666666666667,640.4764342078666C350.4,640.4764342078666 350.4,488.5118243763776 427.05333333333334,488.5118243763776L427.05333333333334,514.8702198835679C350.4,514.8702198835679 350.4,666.8348297150568 273.74666666666667,666.8348297150568Z" style="stroke: rgb(68, 68, 68); stroke-opacity: 1; fill: rgb(76, 175, 80); fill-opacity: 0.65; stroke-width: 0; opacity: 1;"/><path class="sankey-link" d="M445.05333333333334,197.16628397447184C436.05333333333334,197.16628397447184 436.05333333333334,331.6160768669404 427.05333333333334,331.6160768669404L427.05333333333334,333.0324429889715C436.05333333333334,333.0324429889715 436.05333333333334,198.582650096503 445.05333333333334,198.582650096503Z" style="stroke: rgb(68, 68, 68); stroke-opacity: 1; fill: rgb(244, 67, 54); fill-opacity: 0.7; stroke-width: 0; opacity: 1;"/><path class="sankey-link" d="M445.05333333333334,94.86454263612518C436.05333333333334,94.86454263612518 436.05333333333334,331.39840907033573 427.05333333333334,331.39840907033573L427.05333333333334,331.6160768669403C436.05333333333334,331.6160768669403 436.05333333333334,95.0822104327298 445.05333333333334,95.0822104327298Z" style="stroke: rgb(244, 67, 54); stroke-opacity: 0.7; fill: rgb(244, 67, 54); fill-opacity: 0.7; stroke-width: 1; opacity: 1;"/><path class="sankey-link" d="M273.7478346666667,669.3858446995065C350.400584,669.3858446995065 350.400584,336.4368610869655 427.05333333333334,336.4368610869655L427.05333333333334,337.20631840031484C350.400584,337.20631840031484 350.400584,670.1553020128559 273.7478346666667,670.1553020128559Z" style="stroke: rgb(244, 67, 54); stroke-opacity: 0.7; fill: rgb(244, 67, 54); fill-opacity: 0.7; stroke-width: 1; opacity: 1;"/><path class="sankey-link" d="M273.74666666666667,637.0720161098726C350.4,637.0720161098726 350.4,333.0324429889715 427.05333333333334,333.0324429889715L427.05333333333334,336.43686108696556C350.4,336.43686108696556 350.4,640.4764342078666 273.74666666666667,640.4764342078666Z" style="stroke: rgb(68, 68, 68); stroke-opacity: 1; fill: rgb(244, 67, 54); fill-opacity: 0.7; stroke-width: 0; opacity: 1;"/><path class="sankey-link" d="M445.05450133333335,633.4275354078052C521.7072506666667,633.4275354078052 521.7072506666667,564.5551539469525 598.36,564.5551539469525L598.36,666.356330097025C521.7072506666667,666.356330097025 521.7072506666667,735.2287115578777 445.05450133333335,735.2287115578777Z" style="stroke: rgb(68, 68, 68); stroke-opacity: 1; fill: rgb(76, 175, 80); fill-opacity: 0.65; stroke-width: 0; opacity: 1;"/><path class="sankey-link" d="M445.05450133333335,735.2287115578777C521.7072506666667,735.2287115578777 521.7072506666667,611.5733860658347 598.36,611.5733860658347L598.36,616.972379794327C521.7072506666667,616.972379794327 521.7072506666667,740.62770528637 445.05450133333335,740.62770528637Z" style="stroke: rgb(68, 68, 68); stroke-opacity: 1; fill: rgb(76, 175, 80); fill-opacity: 0.65; stroke-width: 0; opacity: 1;"/><path class="sankey-link" d="M445.05450133333335,615.7945365943366C521.7072506666667,615.7945365943366 521.7072506666667,439.72436885561285 598.36,439.72436885561285L598.36,457.35736766908144C521.7072506666667,457.35736766908144 521.7072506666667,633.4275354078051 445.05450133333335,633.4275354078051Z" style="stroke: rgb(68, 68, 68); stroke-opacity: 1; fill: rgb(76, 175, 80); fill-opacity: 0.65; stroke-width: 0; opacity: 1;"/><path class="sankey-link" d="M445.05450133333335,615.7814022299019C521.7072506666667,615.7814022299019 521.7072506666667,307.3516261765963 598.36,307.3516261765963L598.36,307.364760541031C521.7072506666667,307.364760541031 521.7072506666667,615.7945365943367 445.05450133333335,615.7945365943367Z" style="stroke: rgb(76, 175, 80); stroke-opacity: 0.65; fill: rgb(76, 175, 80); fill-opacity: 0.65; stroke-width: 1; opacity: 1;"/><path class="sankey-link" d="M445.05333333333334,653.0673127048316C521.7066666666667,653.0673127048316 521.7066666666667,668.1165045228043 598.36,668.1165045228043L598.36,671.9142934273365C521.7066666666667,671.9142934273365 521.7066666666667,656.8651016093637 445.05333333333334,656.8651016093637Z" style="stroke: rgb(68, 68, 68); stroke-opacity: 1; fill: rgb(76, 175, 80); fill-opacity: 0.65; stroke-width: 0; opacity: 1;"/><path class="sankey-link" d="M445.05333333333334,656.8651016093636C521.7066666666667,656.8651016093636 521.7066666666667,621.904791698717 598.36,621.904791698717L598.36,639.7737049480752C521.7066666666667,639.7737049480752 521.7066666666667,674.7340148587218 445.05333333333334,674.7340148587218Z" style="stroke: rgb(68, 68, 68); stroke-opacity: 1; fill: rgb(76, 175, 80); fill-opacity: 0.65; stroke-width: 0; opacity: 1;"/><path class="sankey-link" d="M445.05333333333334,633.8445308556229C521.7066666666667,633.8445308556229 521.7066666666667,480.1299690775053 598.36,480.1299690775053L598.36,499.35275092671395C521.7066666666667,499.35275092671395 521.7066666666667,653.0673127048317 445.05333333333334,653.0673127048317Z" style="stroke: rgb(68, 68, 68); stroke-opacity: 1; fill: rgb(76, 175, 80); fill-opacity: 0.65; stroke-width: 0; opacity: 1;"/><path class="sankey-link" d="M445.05333333333334,633.7551547349248C521.7066666666667,633.7551547349248 521.7066666666667,309.6677089991549 598.36,309.6677089991549L598.36,309.75708511985306C521.7066666666667,309.75708511985306 521.7066666666667,633.8445308556228 445.05333333333334,633.8445308556228Z" style="stroke: rgb(76, 175, 80); stroke-opacity: 0.65; fill: rgb(76, 175, 80); fill-opacity: 0.65; stroke-width: 1; opacity: 1;"/><path class="sankey-link" d="M445.05333333333334,650.4638437343993C521.7066666666667,650.4638437343993 521.7066666666667,666.356330097025 598.36,666.356330097025L598.36,668.1165045228042C521.7066666666667,668.1165045228042 521.7066666666667,652.2240181601786 445.05333333333334,652.2240181601786Z" style="stroke: rgb(68, 68, 68); stroke-opacity: 1; fill: rgb(76, 175, 80); fill-opacity: 0.65; stroke-width: 0; opacity: 1;"/><path class="sankey-link" d="M445.05333333333334,652.2240181601787C521.7066666666667,652.2240181601787 521.7066666666667,616.9723797943269 598.36,616.9723797943269L598.36,621.9047916987168C521.7066666666667,621.9047916987168 521.7066666666667,657.1564300645687 445.05333333333334,657.1564300645687Z" style="stroke: rgb(68, 68, 68); stroke-opacity: 1; fill: rgb(76, 175, 80); fill-opacity: 0.65; stroke-width: 0; opacity: 1;"/><path class="sankey-link" d="M445.05333333333334,627.6912423259755C521.7066666666667,627.6912423259755 521.7066666666667,457.35736766908144 598.36,457.35736766908144L598.36,480.1299690775053C521.7066666666667,480.1299690775053 521.7066666666667,650.4638437343995 445.05333333333334,650.4638437343995Z" style="stroke: rgb(68, 68, 68); stroke-opacity: 1; fill: rgb(76, 175, 80); fill-opacity: 0.65; stroke-width: 0; opacity: 1;"/><path class="sankey-link" d="M445.05333333333334,625.3882938678516C521.7066666666667,625.3882938678516 521.7066666666667,307.36476054103105 598.36,307.36476054103105L598.36,309.6677089991549C521.7066666666667,309.6677089991549 521.7066666666667,627.6912423259755 445.05333333333334,627.6912423259755Z" style="stroke: rgb(68, 68, 68); stroke-opacity: 1; fill: rgb(76, 175, 80); fill-opacity: 0.65; stroke-width: 0; opacity: 1;"/><path class="sankey-link" d="M445.05333333333334,540.5675294074734C521.7072506666667,540.5675294074734 521.7072506666667,672.2048699503845 598.361168,672.2048699503845L598.361168,672.3965511705841C521.7072506666667,672.3965511705841 521.7072506666667,540.759210627673 445.05333333333334,540.759210627673Z" style="stroke: rgb(76, 175, 80); stroke-opacity: 0.65; fill: rgb(76, 175, 80); fill-opacity: 0.65; stroke-width: 1; opacity: 1;"/><path class="sankey-link" d="M445.05333333333334,539.6965628579791C521.7066666666667,539.6965628579791 521.7066666666667,563.8092828677135 598.36,563.8092828677135L598.36,564.5551539469524C521.7066666666667,564.5551539469524 521.7066666666667,540.442433937218 445.05333333333334,540.442433937218Z" style="stroke: rgb(76, 175, 80); stroke-opacity: 0.65; fill: rgb(76, 175, 80); fill-opacity: 0.65; stroke-width: 1; opacity: 1;"/><path class="sankey-link" d="M445.05333333333334,540.4424339372181C521.7066666666667,540.4424339372181 521.7066666666667,611.4482905955794 598.36,611.4482905955794L598.36,611.5733860658348C521.7066666666667,611.5733860658348 521.7066666666667,540.5675294074736 445.05333333333334,540.5675294074736Z" style="stroke: rgb(76, 175, 80); stroke-opacity: 0.65; fill: rgb(76, 175, 80); fill-opacity: 0.65; stroke-width: 1; opacity: 1;"/><path class="sankey-link" d="M445.05333333333334,527.3664631020278C521.7066666666667,527.3664631020278 521.7066666666667,427.39426909966147 598.36,427.39426909966147L598.36,439.7243688556128C521.7066666666667,439.7243688556128 521.7066666666667,539.6965628579791 445.05333333333334,539.6965628579791Z" style="stroke: rgb(68, 68, 68); stroke-opacity: 1; fill: rgb(76, 175, 80); fill-opacity: 0.65; stroke-width: 0; opacity: 1;"/><path class="sankey-link" d="M445.05333333333334,492.78136984436344C521.7066666666667,492.78136984436344 521.7066666666667,272.766532918932 598.36,272.766532918932L598.36,307.3516261765963C521.7066666666667,307.3516261765963 521.7066666666667,527.3664631020278 445.05333333333334,527.3664631020278Z" style="stroke: rgb(68, 68, 68); stroke-opacity: 1; fill: rgb(76, 175, 80); fill-opacity: 0.65; stroke-width: 0; opacity: 1;"/><path class="sankey-link" d="M616.36,96.60120775703453C607.36,96.60120775703453 607.36,427.3936642840914 598.36,427.3936642840914L598.36,427.3942690996615C607.36,427.3942690996615 607.36,96.60181257260459 616.36,96.60181257260459Z" style="stroke: rgb(76, 175, 80); stroke-opacity: 0.65; fill: rgb(76, 175, 80); fill-opacity: 0.65; stroke-width: 1; opacity: 1;"/><path class="sankey-link" d="M445.05450133333335,614.700938289577C521.7072506666667,614.700938289577 521.7072506666667,199.2806889099422 598.36,199.2806889099422L598.36,200.36115285026708C521.7072506666667,200.36115285026708 521.7072506666667,615.7814022299018 445.05450133333335,615.7814022299018Z" style="stroke: rgb(68, 68, 68); stroke-opacity: 1; fill: rgb(244, 67, 54); fill-opacity: 0.7; stroke-width: 0; opacity: 1;"/><path class="sankey-link" d="M445.05333333333334,630.4276514173449C521.7066666666667,630.4276514173449 521.7066666666667,207.13545225827008 598.36,207.13545225827008L598.36,210.46295557584997C521.7066666666667,210.46295557584997 521.7066666666667,633.7551547349248 445.05333333333334,633.7551547349248Z" style="stroke: rgb(68, 68, 68); stroke-opacity: 1; fill: rgb(244, 67, 54); fill-opacity: 0.7; stroke-width: 0; opacity: 1;"/><path class="sankey-link" d="M445.05333333333334,618.6139944598486C521.7066666666667,618.6139944598486 521.7066666666667,200.36115285026705 598.36,200.36115285026705L598.36,207.13545225827005C521.7066666666667,207.13545225827005 521.7066666666667,625.3882938678518 445.05333333333334,625.3882938678518Z" style="stroke: rgb(68, 68, 68); stroke-opacity: 1; fill: rgb(244, 67, 54); fill-opacity: 0.7; stroke-width: 0; opacity: 1;"/><path class="sankey-link" d="M445.05333333333334,488.3098970274722C521.7066666666667,488.3098970274722 521.7066666666667,194.8092160930509 598.36,194.8092160930509L598.36,199.28068890994217C521.7066666666667,199.28068890994217 521.7066666666667,492.78136984436344 445.05333333333334,492.78136984436344Z" style="stroke: rgb(68, 68, 68); stroke-opacity: 1; fill: rgb(244, 67, 54); fill-opacity: 0.7; stroke-width: 0; opacity: 1;"/><path class="sankey-link" d="M616.361168,672.2048699503845C693.0139173333333,672.2048699503845 693.0139173333333,649.9291962747828 769.6666666666666,649.9291962747828L769.6666666666666,650.2333771377217C693.0139173333333,650.2333771377217 693.0139173333333,672.5090508133234 616.361168,672.5090508133234Z" style="stroke: rgb(76, 175, 80); stroke-opacity: 0.65; fill: rgb(76, 175, 80); fill-opacity: 0.65; stroke-width: 1; opacity: 1;"/><path class="sankey-link" d="M616.36,578.7593144261509C693.0133333333333,578.7593144261509 693.0133333333333,503.66213920699346 769.6666666666666,503.66213920699346L769.6666666666666,645.0257624432468C693.0133333333333,645.0257624432468 693.0133333333333,720.1229376624042 616.36,720.1229376624042Z" style="stroke: rgb(68, 68, 68); stroke-opacity: 1; fill: rgb(76, 175, 80); fill-opacity: 0.65; stroke-width: 0; opacity: 1;"/><path class="sankey-link" d="M616.36,578.7355139321647C693.0133333333333,578.7355139321647 693.0133333333333,473.9028010189505 769.6666666666666,473.9028010189505L769.6666666666666,473.9266015129367C693.0133333333333,473.9266015129367 693.0133333333333,578.7593144261508 616.36,578.7593144261508Z" style="stroke: rgb(76, 175, 80); stroke-opacity: 0.65; fill: rgb(76, 175, 80); fill-opacity: 0.65; stroke-width: 1; opacity: 1;"/><path class="sankey-link" d="M616.36,566.7373847380151C693.0133333333333,566.7373847380151 693.0133333333333,340.07091020812953 769.6666666666666,340.07091020812953L769.6666666666666,352.0690394022792C693.0133333333333,352.0690394022792 693.0133333333333,578.7355139321647 616.36,578.7355139321647Z" style="stroke: rgb(68, 68, 68); stroke-opacity: 1; fill: rgb(76, 175, 80); fill-opacity: 0.65; stroke-width: 0; opacity: 1;"/><path class="sankey-link" d="M616.36,565.7712724403108C693.0133333333333,565.7712724403108 693.0133333333333,223.49890581900866 769.6666666666666,223.49890581900866L769.6666666666666,224.46501811671294C693.0133333333333,224.46501811671294 693.0133333333333,566.7373847380151 616.36,566.7373847380151Z" style="stroke: rgb(76, 175, 80); stroke-opacity: 0.65; fill: rgb(76, 175, 80); fill-opacity: 0.65; stroke-width: 1; opacity: 1;"/><path class="sankey-link" d="M616.36,636.6895420836363C693.0133333333333,636.6895420836363 693.0133333333333,612.2539041294667 769.6666666666666,612.2539041294667L769.6666666666666,618.6570499857701C693.0133333333333,618.6570499857701 693.0133333333333,643.0926879399397 616.36,643.0926879399397Z" style="stroke: rgb(68, 68, 68); stroke-opacity: 1; fill: rgb(76, 175, 80); fill-opacity: 0.65; stroke-width: 0; opacity: 1;"/><path class="sankey-link" d="M616.36,631.7861082521003C693.0133333333333,631.7861082521003 693.0133333333333,645.0257624432469 769.6666666666666,645.0257624432469L769.6666666666666,649.9291962747828C693.0133333333333,649.9291962747828 693.0133333333333,636.6895420836363 616.36,636.6895420836363Z" style="stroke: rgb(68, 68, 68); stroke-opacity: 1; fill: rgb(76, 175, 80); fill-opacity: 0.65; stroke-width: 0; opacity: 1;"/><path class="sankey-link" d="M616.36,618.1843394410828C693.0133333333333,618.1843394410828 693.0133333333333,473.92660151293666 769.6666666666666,473.92660151293666L769.6666666666666,487.5283703239542C693.0133333333333,487.5283703239542 693.0133333333333,631.7861082521003 616.36,631.7861082521003Z" style="stroke: rgb(68, 68, 68); stroke-opacity: 1; fill: rgb(76, 175, 80); fill-opacity: 0.65; stroke-width: 0; opacity: 1;"/><path class="sankey-link" d="M616.36,615.4265644658188C693.0133333333333,615.4265644658188 693.0133333333333,352.06903940227915 769.6666666666666,352.06903940227915L769.6666666666666,354.8268143775431C693.0133333333333,354.8268143775431 693.0133333333333,618.1843394410829 616.36,618.1843394410829Z" style="stroke: rgb(68, 68, 68); stroke-opacity: 1; fill: rgb(76, 175, 80); fill-opacity: 0.65; stroke-width: 0; opacity: 1;"/><path class="sankey-link" d="M616.36,612.1132273584601C693.0133333333333,612.1132273584601 693.0133333333333,224.46501811671294 769.6666666666666,224.46501811671294L769.6666666666666,227.77835522407162C693.0133333333333,227.77835522407162 693.0133333333333,615.4265644658187 616.36,615.4265644658187Z" style="stroke: rgb(68, 68, 68); stroke-opacity: 1; fill: rgb(76, 175, 80); fill-opacity: 0.65; stroke-width: 0; opacity: 1;"/><path class="sankey-link" d="M616.36,543.8947796165633C693.0133333333333,543.8947796165633 693.0133333333333,502.7137317402699 769.6666666666666,502.7137317402699L769.6666666666666,503.6621392069936C693.0133333333333,503.6621392069936 693.0133333333333,544.8431870832869 616.36,544.8431870832869Z" style="stroke: rgb(76, 175, 80); stroke-opacity: 0.65; fill: rgb(76, 175, 80); fill-opacity: 0.65; stroke-width: 1; opacity: 1;"/><path class="sankey-link" d="M616.36,532.2011120917549C693.0133333333333,532.2011120917549 693.0133333333333,462.20913349414224 769.6666666666666,462.20913349414224L769.6666666666666,473.9028010189506C693.0133333333333,473.9028010189506 693.0133333333333,543.8947796165631 616.36,543.8947796165631Z" style="stroke: rgb(68, 68, 68); stroke-opacity: 1; fill: rgb(76, 175, 80); fill-opacity: 0.65; stroke-width: 0; opacity: 1;"/><path class="sankey-link" d="M616.36,445.186435269157C693.0133333333333,445.186435269157 693.0133333333333,253.05623338553167 769.6666666666666,253.05623338553167L769.6666666666666,340.0709102081296C693.0133333333333,340.0709102081296 693.0133333333333,532.2011120917549 616.36,532.2011120917549Z" style="stroke: rgb(68, 68, 68); stroke-opacity: 1; fill: rgb(76, 175, 80); fill-opacity: 0.65; stroke-width: 0; opacity: 1;"/><path class="sankey-link" d="M616.36,443.3828053897199C693.0133333333333,443.3828053897199 693.0133333333333,221.69527593957153 769.6666666666666,221.69527593957153L769.6666666666666,223.49890581900863C693.0133333333333,223.49890581900863 693.0133333333333,445.1864352691571 616.36,445.1864352691571Z" style="stroke: rgb(68, 68, 68); stroke-opacity: 1; fill: rgb(76, 175, 80); fill-opacity: 0.65; stroke-width: 0; opacity: 1;"/><path class="sankey-link" d="M616.36,328.02944611477903C693.0133333333333,328.02944611477903 693.0133333333333,612.0665592256478 769.6666666666666,612.0665592256478L769.6666666666666,612.2539041294667C693.0133333333333,612.2539041294667 693.0133333333333,328.216791018598 616.36,328.216791018598Z" style="stroke: rgb(76, 175, 80); stroke-opacity: 0.65; fill: rgb(76, 175, 80); fill-opacity: 0.65; stroke-width: 1; opacity: 1;"/><path class="sankey-link" d="M616.36,325.9731060796204C693.0133333333333,325.9731060796204 693.0133333333333,500.65739170511125 769.6666666666666,500.65739170511125L769.6666666666666,502.7137317402699C693.0133333333333,502.7137317402699 693.0133333333333,328.02944611477903 616.36,328.02944611477903Z" style="stroke: rgb(68, 68, 68); stroke-opacity: 1; fill: rgb(76, 175, 80); fill-opacity: 0.65; stroke-width: 0; opacity: 1;"/><path class="sankey-link" d="M616.36,324.60616748264067C693.0133333333333,324.60616748264067 693.0133333333333,251.68929478855193 769.6666666666666,251.68929478855193L769.6666666666666,253.05623338553164C693.0133333333333,253.05623338553164 693.0133333333333,325.9731060796204 616.36,325.9731060796204Z" style="stroke: rgb(68, 68, 68); stroke-opacity: 1; fill: rgb(76, 175, 80); fill-opacity: 0.65; stroke-width: 0; opacity: 1;"/><path class="sankey-link" d="M616.36,296.23196719537077C693.0133333333333,296.23196719537077 693.0133333333333,193.32107565230163 769.6666666666666,193.32107565230163L769.6666666666666,221.69527593957153C693.0133333333333,221.69527593957153 693.0133333333333,324.60616748264067 616.36,324.60616748264067Z" style="stroke: rgb(68, 68, 68); stroke-opacity: 1; fill: rgb(76, 175, 80); fill-opacity: 0.65; stroke-width: 0; opacity: 1;"/><path class="sankey-link" d="M616.36,563.8092828677135C693.0133333333333,563.8092828677135 693.0133333333333,100.57994862822302 769.6666666666666,100.57994862822302L769.6666666666666,102.54193820082033C693.0133333333333,102.54193820082033 693.0133333333333,565.7712724403108 616.36,565.7712724403108Z" style="stroke: rgb(68, 68, 68); stroke-opacity: 1; fill: rgb(244, 67, 54); fill-opacity: 0.7; stroke-width: 0; opacity: 1;"/><path class="sankey-link" d="M616.36,611.4482905955794C693.0133333333333,611.4482905955794 693.0133333333333,102.54193820082033 769.6666666666666,102.54193820082033L769.6666666666666,103.20687496370103C693.0133333333333,103.20687496370103 693.0133333333333,612.11322735846 616.36,612.11322735846Z" style="stroke: rgb(244, 67, 54); stroke-opacity: 0.7; fill: rgb(244, 67, 54); fill-opacity: 0.7; stroke-width: 1; opacity: 1;"/><path class="sankey-link" d="M616.36,427.3936642840914C693.0133333333333,427.3936642840914 693.0133333333333,84.59080752259453 769.6666666666666,84.59080752259453L769.6666666666666,100.57994862822301C693.0133333333333,100.57994862822301 693.0133333333333,443.3828053897199 616.36,443.3828053897199Z" style="stroke: rgb(68, 68, 68); stroke-opacity: 1; fill: rgb(244, 67, 54); fill-opacity: 0.7; stroke-width: 0; opacity: 1;"/><path class="sankey-link" d="M616.36,272.766532918932C693.0133333333333,272.766532918932 693.0133333333333,61.12537324615579 769.6666666666666,61.12537324615579L769.6666666666666,84.59080752259453C693.0133333333333,84.59080752259453 693.0133333333333,296.2319671953707 616.36,296.2319671953707Z" style="stroke: rgb(68, 68, 68); stroke-opacity: 1; fill: rgb(244, 67, 54); fill-opacity: 0.7; stroke-width: 0; opacity: 1;"/><path class="sankey-link" d="M787.6666666666666,612.0665592256478C864.3199999999999,612.0665592256478 864.3199999999999,652.8942136615485 940.9733333333334,652.8942136615485L940.9733333333334,658.0567512877706C864.3199999999999,658.0567512877706 864.3199999999999,617.2290968518698 787.6666666666666,617.2290968518698Z" style="stroke: rgb(68, 68, 68); stroke-opacity: 1; fill: rgb(76, 175, 80); fill-opacity: 0.65; stroke-width: 0; opacity: 1;"/><path class="sankey-link" d="M787.6666666666666,698.9326461590055C864.3199999999999,698.9326461590055 864.3199999999999,652.8883664842198 940.9733333333334,652.8883664842198L940.9733333333334,652.8942136615484C864.3199999999999,652.8942136615484 864.3199999999999,698.9384933363341 787.6666666666666,698.9384933363341Z" style="stroke: rgb(76, 175, 80); stroke-opacity: 0.65; fill: rgb(76, 175, 80); fill-opacity: 0.65; stroke-width: 1; opacity: 1;"/><path class="sankey-link" d="M787.6666666666666,504.6308726660424C864.3199999999999,504.6308726660424 864.3199999999999,418.3945140695608 940.9733333333334,418.3945140695608L940.9733333333334,612.6962875625237C864.3199999999999,612.6962875625237 864.3199999999999,698.9326461590053 787.6666666666666,698.9326461590053Z" style="stroke: rgb(68, 68, 68); stroke-opacity: 1; fill: rgb(76, 175, 80); fill-opacity: 0.65; stroke-width: 0; opacity: 1;"/><path class="sankey-link" d="M787.6666666666666,504.6048727903717C864.3199999999999,504.6048727903717 864.3199999999999,373.00794603029846 940.9733333333334,373.00794603029846L940.9733333333334,373.03394590596923C864.3199999999999,373.03394590596923 864.3199999999999,504.6308726660425 787.6666666666666,504.6308726660425Z" style="stroke: rgb(76, 175, 80); stroke-opacity: 0.65; fill: rgb(76, 175, 80); fill-opacity: 0.65; stroke-width: 1; opacity: 1;"/><path class="sankey-link" d="M787.6666666666666,503.4709803415061C864.3199999999999,503.4709803415061 864.3199999999999,293.5636673428165 940.9733333333334,293.5636673428165L940.9733333333334,294.69755979168207C864.3199999999999,294.69755979168207 864.3199999999999,504.6048727903717 787.6666666666666,504.6048727903717Z" style="stroke: rgb(68, 68, 68); stroke-opacity: 1; fill: rgb(76, 175, 80); fill-opacity: 0.65; stroke-width: 0; opacity: 1;"/><path class="sankey-link" d="M787.6666666666666,500.65739170511125C864.3199999999999,500.65739170511125 864.3199999999999,88.76262745958157 940.9733333333334,88.76262745958157L940.9733333333334,91.57621609597639C864.3199999999999,91.57621609597639 864.3199999999999,503.47098034150605 787.6666666666666,503.47098034150605Z" style="stroke: rgb(68, 68, 68); stroke-opacity: 1; fill: rgb(76, 175, 80); fill-opacity: 0.65; stroke-width: 0; opacity: 1;"/><path class="sankey-link" d="M787.6666666666666,487.9322392675354C864.3199999999999,487.9322392675354 864.3199999999999,413.072808192359 940.9733333333334,413.072808192359L940.9733333333334,418.3945140695608C864.3199999999999,418.3945140695608 864.3199999999999,493.2539451447372 787.6666666666666,493.2539451447372Z" style="stroke: rgb(68, 68, 68); stroke-opacity: 1; fill: rgb(76, 175, 80); fill-opacity: 0.65; stroke-width: 0; opacity: 1;"/><path class="sankey-link" d="M787.6666666666666,464.0337310146823C864.3199999999999,464.0337310146823 864.3199999999999,349.10943777744535 940.9733333333334,349.10943777744535L940.9733333333334,373.0079460302985C864.3199999999999,373.0079460302985 864.3199999999999,487.93223926753546 787.6666666666666,487.93223926753546Z" style="stroke: rgb(68, 68, 68); stroke-opacity: 1; fill: rgb(76, 175, 80); fill-opacity: 0.65; stroke-width: 0; opacity: 1;"/><path class="sankey-link" d="M787.6666666666666,462.20913349414224C864.3199999999999,462.20913349414224 864.3199999999999,291.7390698222764 940.9733333333334,291.7390698222764L940.9733333333334,293.56366734281653C864.3199999999999,293.56366734281653 864.3199999999999,464.03373101468236 787.6666666666666,464.03373101468236Z" style="stroke: rgb(68, 68, 68); stroke-opacity: 1; fill: rgb(76, 175, 80); fill-opacity: 0.65; stroke-width: 0; opacity: 1;"/><path class="sankey-link" d="M787.6666666666666,400.34579619319084C864.3199999999999,400.34579619319084 864.3199999999999,335.0228593187542 940.9733333333334,335.0228593187542L940.9733333333334,349.10943777744535C864.3199999999999,349.10943777744535 864.3199999999999,414.432374651882 787.6666666666666,414.432374651882Z" style="stroke: rgb(68, 68, 68); stroke-opacity: 1; fill: rgb(76, 175, 80); fill-opacity: 0.65; stroke-width: 0; opacity: 1;"/><path class="sankey-link" d="M787.6666666666666,253.87224303604904C864.3199999999999,253.87224303604904 864.3199999999999,145.26551666513467 940.9733333333334,145.26551666513467L940.9733333333334,291.7390698222764C864.3199999999999,291.7390698222764 864.3199999999999,400.3457961931908 787.6666666666666,400.3457961931908Z" style="stroke: rgb(68, 68, 68); stroke-opacity: 1; fill: rgb(76, 175, 80); fill-opacity: 0.65; stroke-width: 0; opacity: 1;"/><path class="sankey-link" d="M787.6666666666666,251.68929478855193C864.3199999999999,251.68929478855193 864.3199999999999,86.57967921208444 940.9733333333334,86.57967921208444L940.9733333333334,88.76262745958155C864.3199999999999,88.76262745958155 864.3199999999999,253.87224303604904 787.6666666666666,253.87224303604904Z" style="stroke: rgb(68, 68, 68); stroke-opacity: 1; fill: rgb(76, 175, 80); fill-opacity: 0.65; stroke-width: 0; opacity: 1;"/><path class="sankey-link" d="M787.6666666666666,231.51378708499664C864.3199999999999,231.51378708499664 864.3199999999999,652.8711557410409 940.9733333333334,652.8711557410409L940.9733333333334,652.8883664842199C864.3199999999999,652.8883664842199 864.3199999999999,231.5309978281756 787.6666666666666,231.5309978281756Z" style="stroke: rgb(76, 175, 80); stroke-opacity: 0.65; fill: rgb(76, 175, 80); fill-opacity: 0.65; stroke-width: 1; opacity: 1;"/><path class="sankey-link" d="M787.6666666666666,231.51378671356642C864.3199999999999,231.51378671356642 864.3199999999999,335.0228589473239 940.9733333333334,335.0228589473239L940.9733333333334,335.0228593187542C864.3199999999999,335.0228593187542 864.3199999999999,231.51378708499666 787.6666666666666,231.51378708499666Z" style="stroke: rgb(76, 175, 80); stroke-opacity: 0.65; fill: rgb(76, 175, 80); fill-opacity: 0.65; stroke-width: 1; opacity: 1;"/><path class="sankey-link" d="M787.6666666666666,226.81706727839605C864.3199999999999,226.81706727839605 864.3199999999999,140.56879722996428 940.9733333333334,140.56879722996428L940.9733333333334,145.26551666513467C864.3199999999999,145.26551666513467 864.3199999999999,231.51378671356645 787.6666666666666,231.51378671356645Z" style="stroke: rgb(68, 68, 68); stroke-opacity: 1; fill: rgb(76, 175, 80); fill-opacity: 0.65; stroke-width: 0; opacity: 1;"/><path class="sankey-link" d="M787.6666666666666,193.32107565230163C864.3199999999999,193.32107565230163 864.3199999999999,53.08368758599 940.9733333333334,53.08368758599L940.9733333333334,86.57967921208444C864.3199999999999,86.57967921208444 864.3199999999999,226.81706727839608 787.6666666666666,226.81706727839608Z" style="stroke: rgb(68, 68, 68); stroke-opacity: 1; fill: rgb(76, 175, 80); fill-opacity: 0.65; stroke-width: 0; opacity: 1;"/><path class="sankey-link" d="M787.6678346666666,659.054606592056C864.320584,659.054606592056 864.320584,294.69755979168207 940.9733333333334,294.69755979168207L940.9733333333334,294.69796443195725C864.320584,294.69796443195725 864.320584,659.0550112323313 787.6678346666666,659.0550112323313Z" style="stroke: rgb(76, 175, 80); stroke-opacity: 0.65; fill: rgb(76, 175, 80); fill-opacity: 0.65; stroke-width: 1; opacity: 1;"/><path class="sankey-link" d="M787.6666666666666,698.9384933363342C864.3199999999999,698.9384933363342 864.3199999999999,676.8697575649488 940.9733333333334,676.8697575649488L940.9733333333334,678.242245382913C864.3199999999999,678.242245382913 864.3199999999999,700.3109811542984 787.6666666666666,700.3109811542984Z" style="stroke: rgb(68, 68, 68); stroke-opacity: 1; fill: rgb(244, 67, 54); fill-opacity: 0.7; stroke-width: 0; opacity: 1;"/><path class="sankey-link" d="M787.6666666666666,493.25394514473726C864.3199999999999,493.25394514473726 864.3199999999999,676.6948618417723 940.9733333333334,676.6948618417723L940.9733333333334,676.8697575649487C864.3199999999999,676.8697575649487 864.3199999999999,493.4288408679138 787.6666666666666,493.4288408679138Z" style="stroke: rgb(244, 67, 54); stroke-opacity: 0.7; fill: rgb(244, 67, 54); fill-opacity: 0.7; stroke-width: 1; opacity: 1;"/><path class="sankey-link" d="M787.6666666666666,414.432374651882C864.3199999999999,414.432374651882 864.3199999999999,675.7420024799477 940.9733333333334,675.7420024799477L940.9733333333334,676.6948618417724C864.3199999999999,676.6948618417724 864.3199999999999,415.3852340137066 787.6666666666666,415.3852340137066Z" style="stroke: rgb(244, 67, 54); stroke-opacity: 0.7; fill: rgb(244, 67, 54); fill-opacity: 0.7; stroke-width: 1; opacity: 1;"/><path class="sankey-link" d="M787.6666666666666,231.5309978281756C864.3199999999999,231.5309978281756 864.3199999999999,668.4708918379868 940.9733333333334,668.4708918379868L940.9733333333334,675.7420024799476C864.3199999999999,675.7420024799476 864.3199999999999,238.80210847013655 787.6666666666666,238.80210847013655Z" style="stroke: rgb(68, 68, 68); stroke-opacity: 1; fill: rgb(244, 67, 54); fill-opacity: 0.7; stroke-width: 0; opacity: 1;"/></g><g class="sankey-node-set" style="cursor: ns-resize;"><g class="sankey-node" transform="translate(84.440,121.693)" style="opacity: 1;"><rect class="node-rect" width="18" height="8.618815491154677" style="stroke-width: 0.5; stroke: rgb(0, 0, 0); stroke-opacity: 0.3; fill: rgb(244, 67, 54); fill-opacity: 0.9;"/><text class="node-label" data-notex="1" x="0" y="0" text-anchor="start" transform="translate(21.25,8.509407745577338)" style="cursor: default; font-family: 'Open Sans', verdana, arial, sans-serif; font-size: 12px; fill: rgb(42, 63, 95); fill-opacity: 1; text-shadow: rgb(255, 255, 255) 1px 1px 1px, rgb(255, 255, 255) -1px -1px 1px, rgb(255, 255, 255) 1px -1px 1px, rgb(255, 255, 255) -1px 1px 1px; white-space: pre;">State 50%</text></g><g class="sankey-node" transform="translate(84.440,252.132)" style="opacity: 1;"><rect class="node-rect" width="18" height="3.258891290478232" style="stroke-width: 0.5; stroke: rgb(0, 0, 0); stroke-opacity: 0.3; fill: rgb(255, 193, 7); fill-opacity: 0.9;"/><text class="node-label" data-notex="1" x="0" y="0" text-anchor="start" transform="translate(21.25,5.829445645239115)" style="cursor: default; font-family: 'Open Sans', verdana, arial, sans-serif; font-size: 12px; fill: rgb(42, 63, 95); fill-opacity: 1; text-shadow: rgb(255, 255, 255) 1px 1px 1px, rgb(255, 255, 255) -1px -1px 1px, rgb(255, 255, 255) 1px -1px 1px, rgb(255, 255, 255) -1px 1px 1px; white-space: pre;">State 2050%</text></g><g class="sankey-node" transform="translate(84.440,313.193)" style="opacity: 1;"><rect class="node-rect" width="18" height="1.5243252051080844" style="stroke-width: 0.5; stroke: rgb(0, 0, 0); stroke-opacity: 0.3; fill: rgb(0, 150, 136); fill-opacity: 0.9;"/><text class="node-label" data-notex="1" x="0" y="0" text-anchor="start" transform="translate(21.25,4.9621626025540415)" style="cursor: default; font-family: 'Open Sans', verdana, arial, sans-serif; font-size: 12px; fill: rgb(42, 63, 95); fill-opacity: 1; text-shadow: rgb(255, 255, 255) 1px 1px 1px, rgb(255, 255, 255) -1px -1px 1px, rgb(255, 255, 255) 1px -1px 1px, rgb(255, 255, 255) -1px 1px 1px; white-space: pre;">State 1020%</text></g><g class="sankey-node" transform="translate(84.440,469.431)" style="opacity: 1;"><rect class="node-rect" width="18" height="13.998696792015267" style="stroke-width: 0.5; stroke: rgb(0, 0, 0); stroke-opacity: 0.3; fill: rgb(63, 81, 181); fill-opacity: 0.9;"/><text class="node-label" data-notex="1" x="0" y="0" text-anchor="start" transform="translate(21.25,11.199348396007633)" style="cursor: default; font-family: 'Open Sans', verdana, arial, sans-serif; font-size: 12px; fill: rgb(42, 63, 95); fill-opacity: 1; text-shadow: rgb(255, 255, 255) 1px 1px 1px, rgb(255, 255, 255) -1px -1px 1px, rgb(255, 255, 255) 1px -1px 1px, rgb(255, 255, 255) -1px 1px 1px; white-space: pre;">State 010%</text></g><g class="sankey-node" transform="translate(84.440,623.926)" style="opacity: 1;"><rect class="node-rect" width="18" height="0.9821433734762195" style="stroke-width: 0.5; stroke: rgb(0, 0, 0); stroke-opacity: 0.3; fill: rgb(158, 158, 158); fill-opacity: 0.8;"/><text class="node-label" data-notex="1" x="0" y="0" text-anchor="start" transform="translate(21.25,4.691071686738109)" style="cursor: default; font-family: 'Open Sans', verdana, arial, sans-serif; font-size: 12px; fill: rgb(42, 63, 95); fill-opacity: 1; text-shadow: rgb(255, 255, 255) 1px 1px 1px, rgb(255, 255, 255) -1px -1px 1px, rgb(255, 255, 255) 1px -1px 1px, rgb(255, 255, 255) -1px 1px 1px; white-space: pre;">Unknown</text></g><g class="sankey-node" transform="translate(84.440,648.028)" style="opacity: 1;"><rect class="node-rect" width="18" height="0.8215282932326318" style="stroke-width: 0.5; stroke: rgb(0, 0, 0); stroke-opacity: 0.3; fill: rgb(120, 120, 120); fill-opacity: 0.75;"/><text class="node-label" data-notex="1" x="0" y="0" text-anchor="start" transform="translate(21.25,4.610764146616315)" style="cursor: default; font-family: 'Open Sans', verdana, arial, sans-serif; font-size: 12px; fill: rgb(42, 63, 95); fill-opacity: 1; text-shadow: rgb(255, 255, 255) 1px 1px 1px, rgb(255, 255, 255) -1px -1px 1px, rgb(255, 255, 255) 1px -1px 1px, rgb(255, 255, 255) -1px 1px 1px; white-space: pre;">Exit</text></g><g class="sankey-node" transform="translate(84.441,670.837)" style="opacity: 1;"><rect class="node-rect" width="18" height="18.83825671884142" style="stroke-width: 0.5; stroke: rgb(0, 0, 0); stroke-opacity: 0.3; fill: rgb(244, 67, 54); fill-opacity: 0.9;"/><text class="node-label" data-notex="1" x="0" y="0" text-anchor="start" transform="translate(21.25,13.61912835942071)" style="cursor: default; font-family: 'Open Sans', verdana, arial, sans-serif; font-size: 12px; fill: rgb(42, 63, 95); fill-opacity: 1; text-shadow: rgb(255, 255, 255) 1px 1px 1px, rgb(255, 255, 255) -1px -1px 1px, rgb(255, 255, 255) 1px -1px 1px, rgb(255, 255, 255) -1px 1px 1px; white-space: pre;">State 50%</text></g><g class="sankey-node" transform="translate(255.747,103.987)" style="opacity: 1;"><rect class="node-rect" width="18" height="17.628991571820166" style="stroke-width: 0.5; stroke: rgb(0, 0, 0); stroke-opacity: 0.3; fill: rgb(255, 193, 7); fill-opacity: 0.9;"/><text class="node-label" data-notex="1" x="0" y="0" text-anchor="start" transform="translate(21.25,13.014495785910082)" style="cursor: default; font-family: 'Open Sans', verdana, arial, sans-serif; font-size: 12px; fill: rgb(42, 63, 95); fill-opacity: 1; text-shadow: rgb(255, 255, 255) 1px 1px 1px, rgb(255, 255, 255) -1px -1px 1px, rgb(255, 255, 255) 1px -1px 1px, rgb(255, 255, 255) -1px 1px 1px; white-space: pre;">State 2050%</text></g><g class="sankey-node" transform="translate(255.747,245.833)" style="opacity: 1;"><rect class="node-rect" width="18" height="29.90100539566538" style="stroke-width: 0.5; stroke: rgb(0, 0, 0); stroke-opacity: 0.3; fill: rgb(0, 150, 136); fill-opacity: 0.9;"/><text class="node-label" data-notex="1" x="0" y="0" text-anchor="start" transform="translate(21.25,19.15050269783269)" style="cursor: default; font-family: 'Open Sans', verdana, arial, sans-serif; font-size: 12px; fill: rgb(42, 63, 95); fill-opacity: 1; text-shadow: rgb(255, 255, 255) 1px 1px 1px, rgb(255, 255, 255) -1px -1px 1px, rgb(255, 255, 255) 1px -1px 1px, rgb(255, 255, 255) -1px 1px 1px; white-space: pre;">State 1020%</text></g><g class="sankey-node" transform="translate(255.747,445.582)" style="opacity: 1;"><rect class="node-rect" width="18" height="7.267567214572864" style="stroke-width: 0.5; stroke: rgb(0, 0, 0); stroke-opacity: 0.3; fill: rgb(63, 81, 181); fill-opacity: 0.9;"/><text class="node-label" data-notex="1" x="0" y="0" text-anchor="start" transform="translate(21.25,7.833783607286431)" style="cursor: default; font-family: 'Open Sans', verdana, arial, sans-serif; font-size: 12px; fill: rgb(42, 63, 95); fill-opacity: 1; text-shadow: rgb(255, 255, 255) 1px 1px 1px, rgb(255, 255, 255) -1px -1px 1px, rgb(255, 255, 255) 1px -1px 1px, rgb(255, 255, 255) -1px 1px 1px; white-space: pre;">State 010%</text></g><g class="sankey-node" transform="translate(255.747,599.762)" style="opacity: 1;"><rect class="node-rect" width="18" height="0.5" style="stroke-width: 0.5; stroke: rgb(0, 0, 0); stroke-opacity: 0.3; fill: rgb(158, 158, 158); fill-opacity: 0.8;"/><text class="node-label" data-notex="1" x="0" y="0" text-anchor="start" transform="translate(21.25,4.449999999999999)" style="cursor: default; font-family: 'Open Sans', verdana, arial, sans-serif; font-size: 12px; fill: rgb(42, 63, 95); fill-opacity: 1; text-shadow: rgb(255, 255, 255) 1px 1px 1px, rgb(255, 255, 255) -1px -1px 1px, rgb(255, 255, 255) 1px -1px 1px, rgb(255, 255, 255) -1px 1px 1px; white-space: pre;">Unknown</text></g><g class="sankey-node" transform="translate(255.747,639.793)" style="opacity: 1;"><rect class="node-rect" width="18" height="2.4221100439986003" style="stroke-width: 0.5; stroke: rgb(0, 0, 0); stroke-opacity: 0.3; fill: rgb(120, 120, 120); fill-opacity: 0.75;"/><text class="node-label" data-notex="1" x="0" y="0" text-anchor="start" transform="translate(21.25,5.411055021999299)" style="cursor: default; font-family: 'Open Sans', verdana, arial, sans-serif; font-size: 12px; fill: rgb(42, 63, 95); fill-opacity: 1; text-shadow: rgb(255, 255, 255) 1px 1px 1px, rgb(255, 255, 255) -1px -1px 1px, rgb(255, 255, 255) 1px -1px 1px, rgb(255, 255, 255) -1px 1px 1px; white-space: pre;">Exit</text></g><g class="sankey-node" transform="translate(255.747,637.072)" style="opacity: 1;"><rect class="node-rect" width="18" height="37.254748919563326" style="stroke-width: 0.5; stroke: rgb(0, 0, 0); stroke-opacity: 0.3; fill: rgb(244, 67, 54); fill-opacity: 0.9;"/><text class="node-label" data-notex="1" x="0" y="0" text-anchor="start" transform="translate(21.25,22.827374459781662)" style="cursor: default; font-family: 'Open Sans', verdana, arial, sans-serif; font-size: 12px; fill: rgb(42, 63, 95); fill-opacity: 1; text-shadow: rgb(255, 255, 255) 1px 1px 1px, rgb(255, 255, 255) -1px -1px 1px, rgb(255, 255, 255) 1px -1px 1px, rgb(255, 255, 255) -1px 1px 1px; white-space: pre;">State 50%</text></g><g class="sankey-node" transform="translate(255.748,669.386)" style="opacity: 1;"><rect class="node-rect" width="18" height="19.6755119504885" style="stroke-width: 0.5; stroke: rgb(0, 0, 0); stroke-opacity: 0.3; fill: rgb(255, 193, 7); fill-opacity: 0.9;"/><text class="node-label" data-notex="1" x="0" y="0" text-anchor="start" transform="translate(21.25,14.037755975244249)" style="cursor: default; font-family: 'Open Sans', verdana, arial, sans-serif; font-size: 12px; fill: rgb(42, 63, 95); fill-opacity: 1; text-shadow: rgb(255, 255, 255) 1px 1px 1px, rgb(255, 255, 255) -1px -1px 1px, rgb(255, 255, 255) 1px -1px 1px, rgb(255, 255, 255) -1px 1px 1px; white-space: pre;">State 2050%</text></g><g class="sankey-node" transform="translate(427.053,94.865)" style="opacity: 1;"><rect class="node-rect" width="18" height="31.73334392549691" style="stroke-width: 0.5; stroke: rgb(0, 0, 0); stroke-opacity: 0.3; fill: rgb(0, 150, 136); fill-opacity: 0.9;"/><text class="node-label" data-notex="1" x="0" y="0" text-anchor="start" transform="translate(21.25,20.066671962748455)" style="cursor: default; font-family: 'Open Sans', verdana, arial, sans-serif; font-size: 12px; fill: rgb(42, 63, 95); fill-opacity: 1; text-shadow: rgb(255, 255, 255) 1px 1px 1px, rgb(255, 255, 255) -1px -1px 1px, rgb(255, 255, 255) 1px -1px 1px, rgb(255, 255, 255) -1px 1px 1px; white-space: pre;">State 1020%</text></g><g class="sankey-node" transform="translate(427.053,197.166)" style="opacity: 1;"><rect class="node-rect" width="18" height="60.602882888605365" style="stroke-width: 0.5; stroke: rgb(0, 0, 0); stroke-opacity: 0.3; fill: rgb(63, 81, 181); fill-opacity: 0.9;"/><text class="node-label" data-notex="1" x="0" y="0" text-anchor="start" transform="translate(21.25,34.501441444302685)" style="cursor: default; font-family: 'Open Sans', verdana, arial, sans-serif; font-size: 12px; fill: rgb(42, 63, 95); fill-opacity: 1; text-shadow: rgb(255, 255, 255) 1px 1px 1px, rgb(255, 255, 255) -1px -1px 1px, rgb(255, 255, 255) 1px -1px 1px, rgb(255, 255, 255) -1px 1px 1px; white-space: pre;">State 010%</text></g><g class="sankey-node" transform="translate(427.053,331.398)" style="opacity: 1;"><rect class="node-rect" width="18" height="5.807909329979111" style="stroke-width: 0.5; stroke: rgb(0, 0, 0); stroke-opacity: 0.3; fill: rgb(120, 120, 120); fill-opacity: 0.75;"/><text class="node-label" data-notex="1" x="0" y="0" text-anchor="start" transform="translate(21.25,7.103954664989555)" style="cursor: default; font-family: 'Open Sans', verdana, arial, sans-serif; font-size: 12px; fill: rgb(42, 63, 95); fill-opacity: 1; text-shadow: rgb(255, 255, 255) 1px 1px 1px, rgb(255, 255, 255) -1px -1px 1px, rgb(255, 255, 255) 1px -1px 1px, rgb(255, 255, 255) -1px 1px 1px; white-space: pre;">Exit</text></g><g class="sankey-node" transform="translate(427.053,488.310)" style="opacity: 1;"><rect class="node-rect" width="18" height="52.44931360020087" style="stroke-width: 0.5; stroke: rgb(0, 0, 0); stroke-opacity: 0.3; fill: rgb(244, 67, 54); fill-opacity: 0.9;"/><text class="node-label" data-notex="1" x="0" y="0" text-anchor="start" transform="translate(21.25,30.424656800100433)" style="cursor: default; font-family: 'Open Sans', verdana, arial, sans-serif; font-size: 12px; fill: rgb(42, 63, 95); fill-opacity: 1; text-shadow: rgb(255, 255, 255) 1px 1px 1px, rgb(255, 255, 255) -1px -1px 1px, rgb(255, 255, 255) 1px -1px 1px, rgb(255, 255, 255) -1px 1px 1px; white-space: pre;">State 50%</text></g><g class="sankey-node" transform="translate(427.053,618.614)" style="opacity: 1;"><rect class="node-rect" width="18" height="38.54243560472014" style="stroke-width: 0.5; stroke: rgb(0, 0, 0); stroke-opacity: 0.3; fill: rgb(255, 193, 7); fill-opacity: 0.9;"/><text class="node-label" data-notex="1" x="0" y="0" text-anchor="start" transform="translate(21.25,23.47121780236007)" style="cursor: default; font-family: 'Open Sans', verdana, arial, sans-serif; font-size: 12px; fill: rgb(42, 63, 95); fill-opacity: 1; text-shadow: rgb(255, 255, 255) 1px 1px 1px, rgb(255, 255, 255) -1px -1px 1px, rgb(255, 255, 255) 1px -1px 1px, rgb(255, 255, 255) -1px 1px 1px; white-space: pre;">State 2050%</text></g><g class="sankey-node" transform="translate(427.053,630.428)" style="opacity: 1;"><rect class="node-rect" width="18" height="44.30636344137724" style="stroke-width: 0.5; stroke: rgb(0, 0, 0); stroke-opacity: 0.3; fill: rgb(0, 150, 136); fill-opacity: 0.9;"/><text class="node-label" data-notex="1" x="0" y="0" text-anchor="start" transform="translate(21.25,26.35318172068862)" style="cursor: default; font-family: 'Open Sans', verdana, arial, sans-serif; font-size: 12px; fill: rgb(42, 63, 95); fill-opacity: 1; text-shadow: rgb(255, 255, 255) 1px 1px 1px, rgb(255, 255, 255) -1px -1px 1px, rgb(255, 255, 255) 1px -1px 1px, rgb(255, 255, 255) -1px 1px 1px; white-space: pre;">State 1020%</text></g><g class="sankey-node" transform="translate(427.055,614.701)" style="opacity: 1;"><rect class="node-rect" width="18" height="125.92676699679191" style="stroke-width: 0.5; stroke: rgb(0, 0, 0); stroke-opacity: 0.3; fill: rgb(63, 81, 181); fill-opacity: 0.9;"/><text class="node-label" data-notex="1" x="0" y="0" text-anchor="start" transform="translate(21.25,67.16338349839596)" style="cursor: default; font-family: 'Open Sans', verdana, arial, sans-serif; font-size: 12px; fill: rgb(42, 63, 95); fill-opacity: 1; text-shadow: rgb(255, 255, 255) 1px 1px 1px, rgb(255, 255, 255) -1px -1px 1px, rgb(255, 255, 255) 1px -1px 1px, rgb(255, 255, 255) -1px 1px 1px; white-space: pre;">State 010%</text></g><g class="sankey-node" transform="translate(598.360,96.601)" style="opacity: 1;"><rect class="node-rect" width="18" height="0.5" style="stroke-width: 0.5; stroke: rgb(0, 0, 0); stroke-opacity: 0.3; fill: rgb(158, 158, 158); fill-opacity: 0.8;"/><text class="node-label" data-notex="1" x="0" y="0" text-anchor="start" transform="translate(21.25,4.449999999999999)" style="cursor: default; font-family: 'Open Sans', verdana, arial, sans-serif; font-size: 12px; fill: rgb(42, 63, 95); fill-opacity: 1; text-shadow: rgb(255, 255, 255) 1px 1px 1px, rgb(255, 255, 255) -1px -1px 1px, rgb(255, 255, 255) 1px -1px 1px, rgb(255, 255, 255) -1px 1px 1px; white-space: pre;">Unknown</text></g><g class="sankey-node" transform="translate(598.360,194.809)" style="opacity: 1;"><rect class="node-rect" width="18" height="15.653739482799097" style="stroke-width: 0.5; stroke: rgb(0, 0, 0); stroke-opacity: 0.3; fill: rgb(120, 120, 120); fill-opacity: 0.75;"/><text class="node-label" data-notex="1" x="0" y="0" text-anchor="start" transform="translate(21.25,12.026869741399548)" style="cursor: default; font-family: 'Open Sans', verdana, arial, sans-serif; font-size: 12px; fill: rgb(42, 63, 95); fill-opacity: 1; text-shadow: rgb(255, 255, 255) 1px 1px 1px, rgb(255, 255, 255) -1px -1px 1px, rgb(255, 255, 255) 1px -1px 1px, rgb(255, 255, 255) -1px 1px 1px; white-space: pre;">Exit</text></g><g class="sankey-node" transform="translate(598.360,272.767)" style="opacity: 1;"><rect class="node-rect" width="18" height="55.45025809966603" style="stroke-width: 0.5; stroke: rgb(0, 0, 0); stroke-opacity: 0.3; fill: rgb(244, 67, 54); fill-opacity: 0.9;"/><text class="node-label" data-notex="1" x="0" y="0" text-anchor="start" transform="translate(21.25,31.925129049833014)" style="cursor: default; font-family: 'Open Sans', verdana, arial, sans-serif; font-size: 12px; fill: rgb(42, 63, 95); fill-opacity: 1; text-shadow: rgb(255, 255, 255) 1px 1px 1px, rgb(255, 255, 255) -1px -1px 1px, rgb(255, 255, 255) 1px -1px 1px, rgb(255, 255, 255) -1px 1px 1px; white-space: pre;">State 50%</text></g><g class="sankey-node" transform="translate(598.360,427.394)" style="opacity: 1;"><rect class="node-rect" width="18" height="117.44952279919528" style="stroke-width: 0.5; stroke: rgb(0, 0, 0); stroke-opacity: 0.3; fill: rgb(255, 193, 7); fill-opacity: 0.9;"/><text class="node-label" data-notex="1" x="0" y="0" text-anchor="start" transform="translate(21.25,62.92476139959764)" style="cursor: default; font-family: 'Open Sans', verdana, arial, sans-serif; font-size: 12px; fill: rgb(42, 63, 95); fill-opacity: 1; text-shadow: rgb(255, 255, 255) 1px 1px 1px, rgb(255, 255, 255) -1px -1px 1px, rgb(255, 255, 255) 1px -1px 1px, rgb(255, 255, 255) -1px 1px 1px; white-space: pre;">State 2050%</text></g><g class="sankey-node" transform="translate(598.360,611.448)" style="opacity: 1;"><rect class="node-rect" width="18" height="31.644397344360186" style="stroke-width: 0.5; stroke: rgb(0, 0, 0); stroke-opacity: 0.3; fill: rgb(0, 150, 136); fill-opacity: 0.9;"/><text class="node-label" data-notex="1" x="0" y="0" text-anchor="start" transform="translate(21.25,20.022198672180092)" style="cursor: default; font-family: 'Open Sans', verdana, arial, sans-serif; font-size: 12px; fill: rgb(42, 63, 95); fill-opacity: 1; text-shadow: rgb(255, 255, 255) 1px 1px 1px, rgb(255, 255, 255) -1px -1px 1px, rgb(255, 255, 255) 1px -1px 1px, rgb(255, 255, 255) -1px 1px 1px; white-space: pre;">State 1020%</text></g><g class="sankey-node" transform="translate(598.360,563.809)" style="opacity: 1;"><rect class="node-rect" width="18" height="156.31365479469014" style="stroke-width: 0.5; stroke: rgb(0, 0, 0); stroke-opacity: 0.3; fill: rgb(63, 81, 181); fill-opacity: 0.9;"/><text class="node-label" data-notex="1" x="0" y="0" text-anchor="start" transform="translate(21.25,82.35682739734507)" style="cursor: default; font-family: 'Open Sans', verdana, arial, sans-serif; font-size: 12px; fill: rgb(42, 63, 95); fill-opacity: 1; text-shadow: rgb(255, 255, 255) 1px 1px 1px, rgb(255, 255, 255) -1px -1px 1px, rgb(255, 255, 255) 1px -1px 1px, rgb(255, 255, 255) -1px 1px 1px; white-space: pre;">State 010%</text></g><g class="sankey-node" transform="translate(598.361,672.205)" style="opacity: 1;"><rect class="node-rect" width="18" height="0.5" style="stroke-width: 0.5; stroke: rgb(0, 0, 0); stroke-opacity: 0.3; fill: rgb(33, 150, 243); fill-opacity: 0.9;"/><text class="node-label" data-notex="1" x="0" y="0" text-anchor="start" transform="translate(21.25,4.449999999999999)" style="cursor: default; font-family: 'Open Sans', verdana, arial, sans-serif; font-size: 12px; fill: rgb(42, 63, 95); fill-opacity: 1; text-shadow: rgb(255, 255, 255) 1px 1px 1px, rgb(255, 255, 255) -1px -1px 1px, rgb(255, 255, 255) 1px -1px 1px, rgb(255, 255, 255) -1px 1px 1px; white-space: pre;">State 0%</text></g><g class="sankey-node" transform="translate(769.667,61.125)" style="opacity: 1;"><rect class="node-rect" width="18" height="42.08150171754511" style="stroke-width: 0.5; stroke: rgb(0, 0, 0); stroke-opacity: 0.3; fill: rgb(120, 120, 120); fill-opacity: 0.75;"/><text class="node-label" data-notex="1" x="0" y="0" text-anchor="start" transform="translate(21.25,25.240750858772554)" style="cursor: default; font-family: 'Open Sans', verdana, arial, sans-serif; font-size: 12px; fill: rgb(42, 63, 95); fill-opacity: 1; text-shadow: rgb(255, 255, 255) 1px 1px 1px, rgb(255, 255, 255) -1px -1px 1px, rgb(255, 255, 255) 1px -1px 1px, rgb(255, 255, 255) -1px 1px 1px; white-space: pre;">Exit</text></g><g class="sankey-node" transform="translate(769.667,193.321)" style="opacity: 1;"><rect class="node-rect" width="18" height="45.48103281783506" style="stroke-width: 0.5; stroke: rgb(0, 0, 0); stroke-opacity: 0.3; fill: rgb(244, 67, 54); fill-opacity: 0.9;"/><text class="node-label" data-notex="1" x="0" y="0" text-anchor="start" transform="translate(21.25,26.940516408917528)" style="cursor: default; font-family: 'Open Sans', verdana, arial, sans-serif; font-size: 12px; fill: rgb(42, 63, 95); fill-opacity: 1; text-shadow: rgb(255, 255, 255) 1px 1px 1px, rgb(255, 255, 255) -1px -1px 1px, rgb(255, 255, 255) 1px -1px 1px, rgb(255, 255, 255) -1px 1px 1px; white-space: pre;">State 50%</text></g><g class="sankey-node" transform="translate(769.667,251.689)" style="opacity: 1;"><rect class="node-rect" width="18" height="163.6959392251548" style="stroke-width: 0.5; stroke: rgb(0, 0, 0); stroke-opacity: 0.3; fill: rgb(255, 193, 7); fill-opacity: 0.9;"/><text class="node-label" data-notex="1" x="0" y="0" text-anchor="start" transform="translate(21.25,86.0479696125774)" style="cursor: default; font-family: 'Open Sans', verdana, arial, sans-serif; font-size: 12px; fill: rgb(42, 63, 95); fill-opacity: 1; text-shadow: rgb(255, 255, 255) 1px 1px 1px, rgb(255, 255, 255) -1px -1px 1px, rgb(255, 255, 255) 1px -1px 1px, rgb(255, 255, 255) -1px 1px 1px; white-space: pre;">State 2050%</text></g><g class="sankey-node" transform="translate(769.667,462.209)" style="opacity: 1;"><rect class="node-rect" width="18" height="31.219707373771712" style="stroke-width: 0.5; stroke: rgb(0, 0, 0); stroke-opacity: 0.3; fill: rgb(0, 150, 136); fill-opacity: 0.9;"/><text class="node-label" data-notex="1" x="0" y="0" text-anchor="start" transform="translate(21.25,19.809853686885855)" style="cursor: default; font-family: 'Open Sans', verdana, arial, sans-serif; font-size: 12px; fill: rgb(42, 63, 95); fill-opacity: 1; text-shadow: rgb(255, 255, 255) 1px 1px 1px, rgb(255, 255, 255) -1px -1px 1px, rgb(255, 255, 255) 1px -1px 1px, rgb(255, 255, 255) -1px 1px 1px; white-space: pre;">State 1020%</text></g><g class="sankey-node" transform="translate(769.667,500.657)" style="opacity: 1;"><rect class="node-rect" width="18" height="199.65358944918734" style="stroke-width: 0.5; stroke: rgb(0, 0, 0); stroke-opacity: 0.3; fill: rgb(63, 81, 181); fill-opacity: 0.9;"/><text class="node-label" data-notex="1" x="0" y="0" text-anchor="start" transform="translate(21.25,104.02679472459367)" style="cursor: default; font-family: 'Open Sans', verdana, arial, sans-serif; font-size: 12px; fill: rgb(42, 63, 95); fill-opacity: 1; text-shadow: rgb(255, 255, 255) 1px 1px 1px, rgb(255, 255, 255) -1px -1px 1px, rgb(255, 255, 255) 1px -1px 1px, rgb(255, 255, 255) -1px 1px 1px; white-space: pre;">State 010%</text></g><g class="sankey-node" transform="translate(769.667,612.067)" style="opacity: 1;"><rect class="node-rect" width="18" height="6.590490760122293" style="stroke-width: 0.5; stroke: rgb(0, 0, 0); stroke-opacity: 0.3; fill: rgb(33, 150, 243); fill-opacity: 0.9;"/><text class="node-label" data-notex="1" x="0" y="0" text-anchor="start" transform="translate(21.25,7.495245380061146)" style="cursor: default; font-family: 'Open Sans', verdana, arial, sans-serif; font-size: 12px; fill: rgb(42, 63, 95); fill-opacity: 1; text-shadow: rgb(255, 255, 255) 1px 1px 1px, rgb(255, 255, 255) -1px -1px 1px, rgb(255, 255, 255) 1px -1px 1px, rgb(255, 255, 255) -1px 1px 1px; white-space: pre;">State 0%</text></g><g class="sankey-node" transform="translate(769.668,659.055)" style="opacity: 1;"><rect class="node-rect" width="18" height="0.5" style="stroke-width: 0.5; stroke: rgb(0, 0, 0); stroke-opacity: 0.3; fill: rgb(158, 158, 158); fill-opacity: 0.8;"/><text class="node-label" data-notex="1" x="0" y="0" text-anchor="start" transform="translate(21.25,4.449999999999999)" style="cursor: default; font-family: 'Open Sans', verdana, arial, sans-serif; font-size: 12px; fill: rgb(42, 63, 95); fill-opacity: 1; text-shadow: rgb(255, 255, 255) 1px 1px 1px, rgb(255, 255, 255) -1px -1px 1px, rgb(255, 255, 255) 1px -1px 1px, rgb(255, 255, 255) -1px 1px 1px; white-space: pre;">Unknown</text></g><g class="sankey-node" transform="translate(940.973,53.084)" style="opacity: 1;"><rect class="node-rect" width="18" height="38.4925285099863" style="stroke-width: 0.5; stroke: rgb(0, 0, 0); stroke-opacity: 0.3; fill: rgb(244, 67, 54); fill-opacity: 0.9;"/><text class="node-label" data-notex="1" x="0" y="0" text-anchor="end" transform="translate(-3.25,23.44626425499315)" style="cursor: default; font-family: 'Open Sans', verdana, arial, sans-serif; font-size: 12px; fill: rgb(42, 63, 95); fill-opacity: 1; text-shadow: rgb(255, 255, 255) 1px 1px 1px, rgb(255, 255, 255) -1px -1px 1px, rgb(255, 255, 255) 1px -1px 1px, rgb(255, 255, 255) -1px 1px 1px; white-space: pre;">State 50%</text></g><g class="sankey-node" transform="translate(940.973,140.569)" style="opacity: 1;"><rect class="node-rect" width="18" height="154.12916720199303" style="stroke-width: 0.5; stroke: rgb(0, 0, 0); stroke-opacity: 0.3; fill: rgb(255, 193, 7); fill-opacity: 0.9;"/><text class="node-label" data-notex="1" x="0" y="0" text-anchor="end" transform="translate(-3.25,81.26458360099652)" style="cursor: default; font-family: 'Open Sans', verdana, arial, sans-serif; font-size: 12px; fill: rgb(42, 63, 95); fill-opacity: 1; text-shadow: rgb(255, 255, 255) 1px 1px 1px, rgb(255, 255, 255) -1px -1px 1px, rgb(255, 255, 255) 1px -1px 1px, rgb(255, 255, 255) -1px 1px 1px; white-space: pre;">State 2050%</text></g><g class="sankey-node" transform="translate(940.973,335.023)" style="opacity: 1;"><rect class="node-rect" width="18" height="38.01108695864548" style="stroke-width: 0.5; stroke: rgb(0, 0, 0); stroke-opacity: 0.3; fill: rgb(0, 150, 136); fill-opacity: 0.9;"/><text class="node-label" data-notex="1" x="0" y="0" text-anchor="end" transform="translate(-3.25,23.20554347932274)" style="cursor: default; font-family: 'Open Sans', verdana, arial, sans-serif; font-size: 12px; fill: rgb(42, 63, 95); fill-opacity: 1; text-shadow: rgb(255, 255, 255) 1px 1px 1px, rgb(255, 255, 255) -1px -1px 1px, rgb(255, 255, 255) 1px -1px 1px, rgb(255, 255, 255) -1px 1px 1px; white-space: pre;">State 1020%</text></g><g class="sankey-node" transform="translate(940.973,413.073)" style="opacity: 1;"><rect class="node-rect" width="18" height="199.62347937016528" style="stroke-width: 0.5; stroke: rgb(0, 0, 0); stroke-opacity: 0.3; fill: rgb(63, 81, 181); fill-opacity: 0.9;"/><text class="node-label" data-notex="1" x="0" y="0" text-anchor="end" transform="translate(-3.25,104.01173968508265)" style="cursor: default; font-family: 'Open Sans', verdana, arial, sans-serif; font-size: 12px; fill: rgb(42, 63, 95); fill-opacity: 1; text-shadow: rgb(255, 255, 255) 1px 1px 1px, rgb(255, 255, 255) -1px -1px 1px, rgb(255, 255, 255) 1px -1px 1px, rgb(255, 255, 255) -1px 1px 1px; white-space: pre;">State 010%</text></g><g class="sankey-node" transform="translate(940.973,652.871)" style="opacity: 1;"><rect class="node-rect" width="18" height="5.185595546729928" style="stroke-width: 0.5; stroke: rgb(0, 0, 0); stroke-opacity: 0.3; fill: rgb(33, 150, 243); fill-opacity: 0.9;"/><text class="node-label" data-notex="1" x="0" y="0" text-anchor="end" transform="translate(-3.25,6.792797773364963)" style="cursor: default; font-family: 'Open Sans', verdana, arial, sans-serif; font-size: 12px; fill: rgb(42, 63, 95); fill-opacity: 1; text-shadow: rgb(255, 255, 255) 1px 1px 1px, rgb(255, 255, 255) -1px -1px 1px, rgb(255, 255, 255) 1px -1px 1px, rgb(255, 255, 255) -1px 1px 1px; white-space: pre;">State 0%</text></g><g class="sankey-node" transform="translate(940.973,668.471)" style="opacity: 1;"><rect class="node-rect" width="18" height="9.771353544926114" style="stroke-width: 0.5; stroke: rgb(0, 0, 0); stroke-opacity: 0.3; fill: rgb(120, 120, 120); fill-opacity: 0.75;"/><text class="node-label" data-notex="1" x="0" y="0" text-anchor="end" transform="translate(-3.25,9.085676772463056)" style="cursor: default; font-family: 'Open Sans', verdana, arial, sans-serif; font-size: 12px; fill: rgb(42, 63, 95); fill-opacity: 1; text-shadow: rgb(255, 255, 255) 1px 1px 1px, rgb(255, 255, 255) -1px -1px 1px, rgb(255, 255, 255) 1px -1px 1px, rgb(255, 255, 255) -1px 1px 1px; white-space: pre;">Exit</text></g></g></g><defs id="topdefs-bb6ad7"><g class="clips"/></defs><g class="layer-above"><g class="imagelayer"/><g class="shapelayer"/></g><g class="infolayer"><g class="g-gtitle"><text class="gtitle" x="24" y="28" text-anchor="start" dy="0em" style="opacity: 1; font-family: 'Open Sans', verdana, arial, sans-serif; font-size: 17px; fill: rgb(42, 63, 95); fill-opacity: 1; white-space: pre;">Ownership buckets (step=3y)  Weight = 24M MA of total_deposits (last column uses RAW yearend; abs in bln, or % of step)</text></g><g class="first-render"/><g class="annotation" data-index="0" style="opacity: 1;"><g class="annotation-text-g" transform="rotate(0,109.44,57.480000000000004)"><g class="cursor-pointer" transform="translate(92,48)"><rect class="bg" x="0.5" y="0.5" width="34" height="18" style="stroke-width: 1px; stroke: rgb(0, 0, 0); stroke-opacity: 0; fill: rgb(0, 0, 0); fill-opacity: 0;"/><text class="annotation-text" text-anchor="middle" x="17.2578125" y="14" style="font-family: 'Open Sans', verdana, arial, sans-serif; font-size: 12px; fill: rgb(42, 63, 95); fill-opacity: 1; white-space: pre;">2004</text></g></g></g><g class="annotation" data-index="1" style="opacity: 1;"><g class="annotation-text-g" transform="rotate(0,280.74666666666667,57.480000000000004)"><g class="cursor-pointer" transform="translate(263,48)"><rect class="bg" x="0.5" y="0.5" width="34" height="18" style="stroke-width: 1px; stroke: rgb(0, 0, 0); stroke-opacity: 0; fill: rgb(0, 0, 0); fill-opacity: 0;"/><text class="annotation-text" text-anchor="middle" x="17.2578125" y="14" style="font-family: 'Open Sans', verdana, arial, sans-serif; font-size: 12px; fill: rgb(42, 63, 95); fill-opacity: 1; white-space: pre;">2007</text></g></g></g><g class="annotation" data-index="2" style="opacity: 1;"><g class="annotation-text-g" transform="rotate(0,452.05333333333334,57.480000000000004)"><g class="cursor-pointer" transform="translate(435,48)"><rect class="bg" x="0.5" y="0.5" width="34" height="18" style="stroke-width: 1px; stroke: rgb(0, 0, 0); stroke-opacity: 0; fill: rgb(0, 0, 0); fill-opacity: 0;"/><text class="annotation-text" text-anchor="middle" x="17.2578125" y="14" style="font-family: 'Open Sans', verdana, arial, sans-serif; font-size: 12px; fill: rgb(42, 63, 95); fill-opacity: 1; white-space: pre;">2010</text></g></g></g><g class="annotation" data-index="3" style="opacity: 1;"><g class="annotation-text-g" transform="rotate(0,623.36,57.480000000000004)"><g class="cursor-pointer" transform="translate(606,48)"><rect class="bg" x="0.5" y="0.5" width="34" height="18" style="stroke-width: 1px; stroke: rgb(0, 0, 0); stroke-opacity: 0; fill: rgb(0, 0, 0); fill-opacity: 0;"/><text class="annotation-text" text-anchor="middle" x="17.2578125" y="14" style="font-family: 'Open Sans', verdana, arial, sans-serif; font-size: 12px; fill: rgb(42, 63, 95); fill-opacity: 1; white-space: pre;">2013</text></g></g></g><g class="annotation" data-index="4" style="opacity: 1;"><g class="annotation-text-g" transform="rotate(0,794.6666666666666,57.480000000000004)"><g class="cursor-pointer" transform="translate(777,48)"><rect class="bg" x="0.5" y="0.5" width="34" height="18" style="stroke-width: 1px; stroke: rgb(0, 0, 0); stroke-opacity: 0; fill: rgb(0, 0, 0); fill-opacity: 0;"/><text class="annotation-text" text-anchor="middle" x="17.2578125" y="14" style="font-family: 'Open Sans', verdana, arial, sans-serif; font-size: 12px; fill: rgb(42, 63, 95); fill-opacity: 1; white-space: pre;">2016</text></g></g></g><g class="annotation" data-index="5" style="opacity: 1;"><g class="annotation-text-g" transform="rotate(0,965.9733333333334,57.480000000000004)"><g class="cursor-pointer" transform="translate(948,48)"><rect class="bg" x="0.5" y="0.5" width="34" height="18" style="stroke-width: 1px; stroke: rgb(0, 0, 0); stroke-opacity: 0; fill: rgb(0, 0, 0); fill-opacity: 0;"/><text class="annotation-text" text-anchor="middle" x="17.2578125" y="14" style="font-family: 'Open Sans', verdana, arial, sans-serif; font-size: 12px; fill: rgb(42, 63, 95); fill-opacity: 1; white-space: pre;">2019</text></g></g></g><g class="annotation" data-index="6" style="opacity: 1;"><g class="annotation-text-g" transform="rotate(0,1137.28,57.480000000000004)"><g class="cursor-pointer" transform="translate(1120,48)"><rect class="bg" x="0.5" y="0.5" width="34" height="18" style="stroke-width: 1px; stroke: rgb(0, 0, 0); stroke-opacity: 0; fill: rgb(0, 0, 0); fill-opacity: 0;"/><text class="annotation-text" text-anchor="middle" x="17.2578125" y="14" style="font-family: 'Open Sans', verdana, arial, sans-serif; font-size: 12px; fill: rgb(42, 63, 95); fill-opacity: 1; white-space: pre;">2021</text></g></g></g></g><g class="menulayer"><g class="updatemenu-container" style="cursor: pointer;"><g class="updatemenu-header-group" pointer-events="all"><g class="updatemenu-button" transform="translate(29,64)"><rect class="updatemenu-item-rect" rx="2" ry="2" shape-rendering="crispEdges" x="0" y="0" width="210" height="33" style="stroke: rgb(190, 200, 217); stroke-opacity: 1; fill: rgb(244, 250, 255); fill-opacity: 1; stroke-width: 1px;"/><text class="updatemenu-item-text" text-anchor="start" data-notex="1" x="12" y="19.5" style="font-family: 'Open Sans', verdana, arial, sans-serif; font-size: 12px; fill: rgb(42, 63, 95); fill-opacity: 1; white-space: pre;">Thickness: Absolute (bln)</text></g><g class="updatemenu-button" transform="translate(29,99)"><rect class="updatemenu-item-rect" rx="2" ry="2" shape-rendering="crispEdges" x="0" y="0" width="210" height="33" style="stroke: rgb(190, 200, 217); stroke-opacity: 1; fill: rgb(255, 255, 255); fill-opacity: 1; stroke-width: 1px;"/><text class="updatemenu-item-text" text-anchor="start" data-notex="1" x="12" y="19.5" style="font-family: 'Open Sans', verdana, arial, sans-serif; font-size: 12px; fill: rgb(42, 63, 95); fill-opacity: 1; white-space: pre;">Thickness: Share per step (%)</text></g></g><g class="updatemenu-header-group" pointer-events="all"><g class="updatemenu-button" transform="translate(367,64)"><rect class="updatemenu-item-rect" rx="2" ry="2" shape-rendering="crispEdges" x="0" y="0" width="116" height="33" style="stroke: rgb(190, 200, 217); stroke-opacity: 1; fill: rgb(244, 250, 255); fill-opacity: 1; stroke-width: 1px;"/><text class="updatemenu-item-text" text-anchor="start" data-notex="1" x="12" y="19.5" style="font-family: 'Open Sans', verdana, arial, sans-serif; font-size: 12px; fill: rgb(42, 63, 95); fill-opacity: 1; white-space: pre;">Reset positions</text></g></g><g class="updatemenu-dropdown-button-group" updatemenu-active-index="-1" style="pointer-events: all;"><rect class="scrollbox-bg" opacity="0" x="0" y="0" width="0" height="0" style="pointer-events: all;"/></g></g></g></svg>